<svg width="128" height="30" viewBox="0 0 128 30" fill="none" xmlns="http://www.w3.org/2000/svg">
<path d="M119.191 25.5C117.407 25.5 115.838 25.1079 114.485 24.3236C113.152 23.5392 112.113 22.402 111.368 20.9118C110.623 19.4216 110.25 17.6275 110.25 15.5294C110.25 13.451 110.642 11.6667 111.426 10.1765C112.211 8.66667 113.319 7.50981 114.75 6.70588C116.201 5.90196 117.877 5.5 119.779 5.5C121.877 5.5 123.574 5.89216 124.868 6.67647C126.162 7.44118 127.191 8.63726 127.956 10.2647L124.191 11.8824C123.877 10.8431 123.338 10.0784 122.574 9.58824C121.828 9.07844 120.907 8.82353 119.809 8.82353C118.711 8.82353 117.76 9.08824 116.956 9.61765C116.152 10.1275 115.534 10.8824 115.103 11.8824C114.672 12.8628 114.456 14.0686 114.456 15.5C114.456 16.9706 114.662 18.2157 115.074 19.2353C115.485 20.2353 116.093 20.9902 116.897 21.5C117.721 21.9902 118.73 22.2353 119.926 22.2353C120.574 22.2353 121.172 22.1569 121.721 22C122.289 21.8432 122.779 21.6079 123.191 21.2941C123.603 20.9804 123.926 20.5785 124.162 20.0883C124.397 19.5981 124.5 19.0221 124.5 18.375V17.25H119.5V14.25H128V25.25H125L124.5 17.25L125.574 21.4706C125.142 22.7647 124.377 23.7647 123.279 24.4706C122.201 25.1569 120.838 25.5 119.191 25.5Z" fill="#372CD1"/>
<path d="M100.429 5.5C102.197 5.5 103.748 5.80392 105.083 6.41177C106.419 7.01961 107.558 7.92157 108.5 9.11765L106.232 11.7353C105.427 10.7157 104.543 9.9706 103.581 9.50001C102.638 9.00981 101.539 8.76471 100.282 8.76471C99.4571 8.76471 98.7698 8.87256 98.2199 9.08824C97.6897 9.30393 97.2969 9.58824 97.0416 9.94118C96.806 10.2941 96.6882 10.6863 96.6882 11.1177C96.6882 11.6471 96.8944 12.0981 97.3067 12.4706C97.7191 12.8235 98.4261 13.1177 99.4276 13.353L103.051 14.1765C104.975 14.6079 106.35 15.2549 107.175 16.1177C108.019 16.9608 108.441 18.0588 108.441 19.4118C108.441 20.6863 108.107 21.7843 107.44 22.7059C106.772 23.6079 105.839 24.304 104.641 24.7942C103.444 25.2647 102.069 25.5 100.518 25.5C99.1625 25.5 97.9155 25.3432 96.7765 25.0295C95.6572 24.6961 94.6557 24.2451 93.772 23.6765C92.8883 23.1079 92.1518 22.451 91.5627 21.7059L93.8603 18.9706C94.312 19.5981 94.8717 20.1569 95.5394 20.6471C96.207 21.1373 96.9631 21.5294 97.8075 21.8236C98.6716 22.0981 99.5749 22.2353 100.518 22.2353C101.323 22.2353 102 22.1471 102.55 21.9706C103.12 21.7745 103.542 21.5098 103.817 21.1765C104.111 20.8236 104.258 20.402 104.258 19.9118C104.258 19.402 104.082 18.9706 103.728 18.6177C103.394 18.2451 102.766 17.9608 101.843 17.7647L97.8959 16.8824C96.7569 16.6079 95.775 16.2549 94.9502 15.8236C94.1451 15.3726 93.5265 14.8039 93.0945 14.1177C92.6821 13.4118 92.4759 12.5784 92.4759 11.6177C92.4759 10.4608 92.7901 9.42158 93.4185 8.50001C94.0469 7.57844 94.9502 6.85294 96.1285 6.32353C97.3264 5.77451 98.7599 5.5 100.429 5.5Z" fill="#372CD1"/>
<path d="M82.8124 25.5C81.2932 25.5 79.9663 25.202 78.8317 24.6058C77.7163 24.0096 76.8509 23.1539 76.2355 22.0385C75.6201 20.9231 75.3124 19.5769 75.3124 18C75.3124 16.4231 75.6201 15.0769 76.2355 13.9615C76.8509 12.8462 77.7067 11.9904 78.8028 11.3942C79.9182 10.7981 81.1874 10.5 82.6105 10.5C84.0721 10.5 85.3124 10.7981 86.3317 11.3942C87.3509 11.9712 88.1298 12.7692 88.6682 13.7885C89.2067 14.7885 89.4759 15.9327 89.4759 17.2212C89.4759 17.6058 89.4663 17.9712 89.4471 18.3173C89.4278 18.6635 89.399 18.9712 89.3605 19.2404H77.8509V16.5H87.6298L85.7259 17.1923C85.7259 15.9808 85.4471 15.0481 84.8894 14.3942C84.3509 13.7404 83.5817 13.4135 82.5817 13.4135C81.8509 13.4135 81.2163 13.5865 80.6778 13.9327C80.1586 14.2789 79.7644 14.7981 79.4951 15.4904C79.2259 16.1635 79.0913 17.0192 79.0913 18.0577C79.0913 19.0769 79.2355 19.9231 79.524 20.5962C79.8317 21.25 80.2547 21.7404 80.7932 22.0673C81.3509 22.3943 82.0144 22.5577 82.7836 22.5577C83.6297 22.5577 84.3124 22.3943 84.8317 22.0673C85.3509 21.7404 85.7548 21.2885 86.0432 20.7116L89.1874 21.9231C88.8798 22.6731 88.4086 23.3173 87.774 23.8558C87.1586 24.3943 86.4182 24.8077 85.5528 25.0962C84.7067 25.3654 83.7932 25.5 82.8124 25.5Z" fill="#1E1E1E"/>
<path d="M71.4999 4.5V20.75C71.4999 21.4254 71.5811 21.9013 71.8126 22.1715C72.0442 22.4416 72.4301 22.5767 72.9704 22.5767C73.2984 22.5767 73.5686 22.5574 73.7808 22.5188C73.9931 22.4609 74.2632 22.3837 74.5913 22.2872L74.2439 24.8922C73.9159 25.0852 73.501 25.2299 72.9993 25.3264C72.5169 25.4422 72.0345 25.5 71.5521 25.5C70.1435 25.5 69.1111 25.1624 68.4551 24.487C67.8183 23.7923 67.4999 22.6924 67.4999 21.1873V4.5H71.4999Z" fill="#1E1E1E"/>
<path d="M61.6175 8.2296C62.0293 8.57654 62.6568 8.75001 63.4999 8.75001C64.343 8.75001 64.9705 8.57654 65.3823 8.2296C65.794 7.86339 65.9999 7.33334 65.9999 6.63946C65.9999 5.92631 65.794 5.39626 65.3823 5.04932C64.9705 4.68311 64.343 4.5 63.4999 4.5C62.6568 4.5 62.0293 4.68311 61.6175 5.04932C61.2058 5.39626 60.9999 5.92631 60.9999 6.63946C60.9999 7.33334 61.2058 7.86339 61.6175 8.2296Z" fill="#1E1E1E"/>
<path d="M61.4999 10.75H65.4999V25.25H61.4999V10.75Z" fill="#1E1E1E"/>
<path d="M59.4999 8.75001H49.4999V14.25H57.4999V17.25H49.5021V25.25H45.5001V5.75H59.4999V8.75001Z" fill="#1E1E1E"/>
<path d="M0 5.00001C0 2.23858 2.23858 0 5.00001 0H25C27.7615 0 30.0001 2.23858 30.0001 5.00001V25C30.0001 27.7615 27.7615 30.0001 25 30.0001H5.00001C2.23858 30.0001 0 27.7615 0 25V5.00001Z" fill="#372CD1"/>
<path d="M10 20L20 10H30.0001V25C30.0001 27.7615 27.7615 30.0001 25 30.0001H10V20Z" fill="#AFABED"/>
<path d="M18.125 20H10L20 10V18.125C20 19.1606 19.1606 20 18.125 20Z" fill="white"/>
</svg>
