<svg width="93" height="28" viewBox="0 0 93 28" fill="none" xmlns="http://www.w3.org/2000/svg">
<path d="M5.18977 20.2617C8.07009 20.2617 9.82164 18.7566 9.82164 16.3693C9.82164 14.7345 8.82261 13.6187 6.75968 13.1646L4.73567 12.7105C3.97018 12.5289 3.56797 12.2824 3.56797 11.8283C3.56797 11.3742 3.94423 11.0887 4.86541 11.0887C5.93322 11.126 6.95346 11.5396 7.74574 12.2564L9.44538 9.76534C8.10817 8.82991 6.49456 8.3728 4.86541 8.4679C2.16673 8.4679 0.35031 9.76534 0.35031 12.0618C0.332606 12.877 0.621343 13.6692 1.15946 14.2818C1.69758 14.8943 2.44592 15.2828 3.25658 15.3703L5.26762 15.8503C6.26665 16.0709 6.56506 16.3693 6.56506 16.7586C6.56506 17.1478 6.16286 17.524 5.26762 17.524C3.99875 17.4991 2.77648 17.0414 1.80344 16.2266L0 18.6399C1.48464 19.7754 3.32275 20.3498 5.18977 20.2617V20.2617Z" fill="white"/>
<path d="M13.1814 12.2943C13.572 12.2943 13.9538 12.1783 14.2784 11.961C14.603 11.7438 14.8557 11.435 15.0046 11.0739C15.1535 10.7128 15.1918 10.3156 15.1146 9.93267C15.0375 9.54977 14.8483 9.19841 14.5712 8.92313C14.2941 8.64784 13.9415 8.46105 13.5581 8.38642C13.1747 8.3118 12.7778 8.35271 12.4177 8.50397C12.0575 8.65523 11.7505 8.91001 11.5353 9.23603C11.3202 9.56204 11.2067 9.9446 11.2093 10.3352C11.2058 10.5945 11.2544 10.852 11.3525 11.0921C11.4505 11.3322 11.5958 11.5502 11.7798 11.733C11.9639 11.9158 12.1828 12.0597 12.4236 12.1561C12.6643 12.2526 12.9221 12.2996 13.1814 12.2943Z" fill="white"/>
<path d="M11.0546 20.0002H15.3102L14.4149 12.9551C13.6107 13.1627 12.767 13.1627 11.9628 12.9551L11.0546 20.0002Z" fill="white"/>
<path d="M17.3065 20.0002H20.7577V13.9022C20.7577 12.4102 21.4843 11.489 22.8855 11.489C24.2868 11.489 24.9225 12.2545 24.9225 13.9022V20.0002H28.3218V13.0459C28.3218 10.0099 26.8038 8.45296 24.2089 8.45296C23.533 8.42356 22.8609 8.56795 22.2567 8.87232C21.6525 9.17669 21.1364 9.63089 20.7577 10.1915V9.46496C20.7677 9.35853 20.7541 9.2512 20.7179 9.15063C20.6817 9.05006 20.6237 8.95872 20.5481 8.88313C20.4725 8.80754 20.3812 8.74956 20.2806 8.71333C20.18 8.6771 20.0727 8.6635 19.9663 8.67352H17.3714L17.3065 20.0002Z" fill="white"/>
<path d="M39.4409 8.67492C39.3344 8.66491 39.2271 8.6785 39.1265 8.71473C39.026 8.75097 38.9346 8.80894 38.859 8.88453C38.7835 8.96012 38.7255 9.05146 38.6892 9.15203C38.653 9.25261 38.6394 9.35993 38.6494 9.46636V10.154C38.2719 9.59795 37.7567 9.14915 37.1542 8.8513C36.5517 8.55345 35.8823 8.4167 35.2112 8.45436C33.8144 8.58877 32.5178 9.23871 31.5742 10.2774C30.6307 11.3161 30.1079 12.669 30.1079 14.0723C30.1079 15.4755 30.6307 16.8285 31.5742 17.8672C32.5178 18.9059 33.8144 19.5558 35.2112 19.6902C35.8602 19.7311 36.5097 19.6185 37.1071 19.3615C37.7044 19.1046 38.2328 18.7104 38.6494 18.2111V18.9636C38.6502 19.3191 38.5779 19.6709 38.4371 19.9972C38.2963 20.3236 38.0899 20.6175 37.8308 20.8608C37.5717 21.1041 37.2653 21.2916 36.9308 21.4116C36.5962 21.5316 36.2406 21.5816 35.8859 21.5585C34.6119 21.5833 33.3768 21.119 32.4347 20.2611L30.6572 22.856C32.1715 24.0004 34.0426 24.5704 35.9378 24.4648C39.3371 24.4648 42.1006 22.7652 42.1006 18.4966V8.67492H39.4409ZM36.1194 16.6931C35.6062 16.6931 35.1045 16.5409 34.6778 16.2558C34.251 15.9707 33.9185 15.5654 33.7221 15.0913C33.5257 14.6171 33.4743 14.0954 33.5744 13.592C33.6745 13.0886 33.9217 12.6263 34.2846 12.2634C34.6475 11.9005 35.1098 11.6533 35.6132 11.5532C36.1165 11.4531 36.6383 11.5045 37.1124 11.7009C37.5866 11.8973 37.9919 12.2299 38.277 12.6566C38.5621 13.0833 38.7143 13.585 38.7143 14.0982C38.7143 14.7864 38.4409 15.4465 37.9543 15.9331C37.4676 16.4197 36.8076 16.6931 36.1194 16.6931Z" fill="white"/>
<path d="M51.5999 8.45338C50.9078 8.42274 50.2186 8.56154 49.5923 8.85774C48.966 9.15394 48.4215 9.59858 48.006 10.153V9.46539C48.016 9.35896 48.0024 9.25163 47.9662 9.15106C47.93 9.05049 47.872 8.95915 47.7964 8.88356C47.7208 8.80797 47.6295 8.74999 47.5289 8.71376C47.4283 8.67753 47.321 8.66393 47.2146 8.67395H44.6197V24.1524H48.006V18.7551C48.457 19.2555 49.0131 19.6499 49.6344 19.9101C50.2558 20.1703 50.927 20.2898 51.5999 20.2601C52.3421 20.2412 53.0726 20.0715 53.7471 19.7614C54.4216 19.4513 55.026 19.0073 55.5236 18.4563C56.0212 17.9054 56.4015 17.259 56.6414 16.5565C56.8814 15.8539 56.976 15.1099 56.9195 14.3697C56.9797 13.6274 56.8879 12.8806 56.6496 12.1751C56.4113 11.4695 56.0316 10.8199 55.5336 10.2661C55.0357 9.71231 54.43 9.26592 53.7537 8.95423C53.0773 8.64254 52.3444 8.47212 51.5999 8.45338V8.45338ZM50.6917 17.2371C50.112 17.2604 49.5385 17.1096 49.0452 16.8042C48.5518 16.4988 48.1612 16.0527 47.9236 15.5233C47.686 14.994 47.6122 14.4056 47.7119 13.834C47.8115 13.2624 48.08 12.7337 48.4827 12.316C48.8855 11.8983 49.404 11.6107 49.9716 11.4902C50.5392 11.3697 51.1298 11.4219 51.6675 11.6401C52.2052 11.8582 52.6653 12.2322 52.9885 12.7141C53.3117 13.196 53.4833 13.7635 53.4812 14.3438C53.5008 14.7201 53.4429 15.0965 53.311 15.4495C53.1791 15.8025 52.9761 16.1246 52.7145 16.3959C52.453 16.6672 52.1384 16.8819 51.7905 17.0266C51.4425 17.1713 51.0685 17.2429 50.6917 17.2371V17.2371Z" fill="white"/>
<path d="M68.1416 8.67424C68.0352 8.66423 67.9279 8.67782 67.8273 8.71406C67.7267 8.75029 67.6354 8.80826 67.5598 8.88385C67.4842 8.95944 67.4262 9.05078 67.39 9.15136C67.3537 9.25193 67.3402 9.35926 67.3502 9.46569V10.1533C66.9285 9.58946 66.3735 9.13903 65.735 8.84239C65.0964 8.54576 64.3942 8.4122 63.6914 8.45368C62.9492 8.47264 62.2187 8.64231 61.5442 8.9524C60.8697 9.26249 60.2653 9.7065 59.7677 10.2575C59.2702 10.8084 58.8898 11.4548 58.6499 12.1573C58.4099 12.8599 58.3153 13.6038 58.3719 14.3441C58.3153 15.0843 58.4099 15.8283 58.6499 16.5308C58.8898 17.2333 59.2702 17.8797 59.7677 18.4307C60.2653 18.9816 60.8697 19.4257 61.5442 19.7357C62.2187 20.0458 62.9492 20.2155 63.6914 20.2345C64.3938 20.2725 65.0948 20.1374 65.7328 19.841C66.3707 19.5446 66.9262 19.0961 67.3502 18.5348V20.0009H70.7495V8.67424H68.1416ZM64.5996 17.2374C63.864 17.1881 63.1747 16.8612 62.6711 16.3228C62.1675 15.7844 61.8874 15.0748 61.8874 14.3376C61.8874 13.6004 62.1675 12.8907 62.6711 12.3523C63.1747 11.8139 63.864 11.487 64.5996 11.4378C65.3351 11.487 66.0245 11.8139 66.5281 12.3523C67.0316 12.8907 67.3118 13.6004 67.3118 14.3376C67.3118 15.0748 67.0316 15.7844 66.5281 16.3228C66.0245 16.8612 65.3351 17.1881 64.5996 17.2374Z" fill="white"/>
<path d="M77.6269 20.2607C80.5072 20.2607 82.2587 18.7556 82.2587 16.3683C82.2587 14.7336 81.2597 13.6178 79.1968 13.1637L77.1857 12.7096C76.4073 12.5279 76.0051 12.2814 76.0051 11.8273C76.0051 11.3732 76.3813 11.0878 77.3025 11.0878C78.3703 11.125 79.3906 11.5386 80.1828 12.2555L81.8825 9.76436C80.5453 8.82893 78.9317 8.37182 77.3025 8.46692C74.6038 8.46692 72.7874 9.76437 72.7874 12.0608C72.7697 12.876 73.0584 13.6682 73.5966 14.2808C74.1347 14.8934 74.883 15.2818 75.6937 15.3693L77.7047 15.8494C78.7037 16.0699 79.0022 16.3684 79.0022 16.7576C79.0022 17.1468 78.587 17.5231 77.7047 17.5231C76.4358 17.4982 75.2136 17.0404 74.2405 16.2256L72.5409 18.7167C74.029 19.843 75.8668 20.4081 77.7307 20.3126L77.6269 20.2607Z" fill="white"/>
<path d="M88.3681 20.2614C91.2484 20.2614 92.9999 18.7564 92.9999 16.3691C92.9999 14.7343 92.0009 13.6185 89.938 13.1644L87.914 12.7103C87.1485 12.5287 86.7463 12.2822 86.7463 11.8281C86.7463 11.374 87.1225 11.0885 88.0437 11.0885C89.108 11.1243 90.1246 11.5383 90.9111 12.2562L92.6107 9.76513C91.2797 8.82691 89.6692 8.36936 88.0437 8.46769C85.345 8.46769 83.5286 9.76513 83.5286 12.0616C83.5109 12.8768 83.7997 13.669 84.3378 14.2815C84.8759 14.8941 85.6242 15.2826 86.4349 15.3701L88.4459 15.8501C89.445 16.0707 89.7434 16.3691 89.7434 16.7584C89.7434 17.1476 89.3412 17.5238 88.4459 17.5238C87.1771 17.4989 85.9548 17.0412 84.9818 16.2264L83.2821 18.7175C84.7702 19.8437 86.608 20.4089 88.4719 20.3133L88.3681 20.2614Z" fill="white"/>
</svg>
