<svg width="24" height="24" viewBox="0 0 24 24" fill="none" xmlns="http://www.w3.org/2000/svg">
<path d="M19.8256 7.00037C19.6714 7.0003 19.5188 7.03009 19.3763 7.08802C19.2338 7.14596 19.1044 7.23091 18.9953 7.33803L11.9999 14.2143L5.00454 7.33803C4.78433 7.12159 4.48565 7 4.17423 7C3.8628 7 3.56413 7.12159 3.34392 7.33803C3.12371 7.55447 3 7.84802 3 8.15411C3 8.4602 3.12371 8.75376 3.34392 8.97019L11.1696 16.6618C11.2786 16.769 11.4081 16.8541 11.5505 16.9121C11.693 16.9701 11.8457 17 11.9999 17C12.1541 17 12.3068 16.9701 12.4493 16.9121C12.5918 16.8541 12.7212 16.769 12.8302 16.6618L20.6559 8.97019C20.8202 8.80884 20.9321 8.60321 20.9774 8.37934C21.0228 8.15547 20.9995 7.92341 20.9106 7.71252C20.8217 7.50164 20.6712 7.32141 20.4781 7.19464C20.2849 7.06788 20.0579 7.00027 19.8256 7.00037Z" fill="#504E56"/>
</svg>
