<svg width="277" height="164" viewBox="0 0 277 164" fill="none" xmlns="http://www.w3.org/2000/svg">
<g clip-path="url(#clip0_6586_60835)">
<g clip-path="url(#clip1_6586_60835)">
<path d="M0 104C0 99.5817 3.58172 96 8 96H120C124.418 96 128 99.5817 128 104V136C128 140.418 124.418 144 120 144H8C3.58172 144 0 140.418 0 136V104Z" fill="#263238"/>
<path fill-rule="evenodd" clip-rule="evenodd" d="M12.0016 108.709H20.292C20.2873 107.751 20.4721 106.801 20.8353 105.917C21.1986 105.033 21.7328 104.232 22.4065 103.562C23.0802 102.891 23.8795 102.365 24.7572 102.014C25.6348 101.663 26.5729 101.495 27.5157 101.519C28.9045 101.473 30.2731 101.866 31.4315 102.646C32.5899 103.425 33.4806 104.552 33.9799 105.869C34.4187 106.971 34.5948 108.162 34.4937 109.346C34.3926 110.53 34.0172 111.673 33.3982 112.681C31.9922 115.028 28.9055 117.162 23.3301 116.177V135.218H31.5235V124.023C34.8828 123.018 37.8245 120.921 39.8972 118.053C41.9698 115.186 43.059 111.707 42.9975 108.151C42.9975 102.035 40.3106 98.255 37.039 96H120C124.418 96 128 99.5817 128 104V136C128 140.418 124.418 144 120 144H31.375V139.145H23.625V144H8C3.58172 144 0 140.418 0 136V104C0 99.5817 3.58172 96 8 96H17.3015C14.3207 98.2186 11.9292 102.063 12.0016 108.709Z" fill="#455A64"/>
<path d="M115.5 110H56.5C56.2239 110 56 110.224 56 110.5C56 110.776 56.2239 111 56.5 111H115.5C115.776 111 116 110.776 116 110.5C116 110.224 115.776 110 115.5 110Z" fill="white" fill-opacity="0.8"/>
<path d="M115.5 116H56.5C56.2239 116 56 116.224 56 116.5C56 116.776 56.2239 117 56.5 117H115.5C115.776 117 116 116.776 116 116.5C116 116.224 115.776 116 115.5 116Z" fill="white" fill-opacity="0.8"/>
<path d="M115.5 122H56.5C56.2239 122 56 122.224 56 122.5C56 122.776 56.2239 123 56.5 123H115.5C115.776 123 116 122.776 116 122.5C116 122.224 115.776 122 115.5 122Z" fill="white" fill-opacity="0.8"/>
<path d="M99.5 128H56.5C56.2239 128 56 128.224 56 128.5C56 128.776 56.2239 129 56.5 129H99.5C99.7761 129 100 128.776 100 128.5C100 128.224 99.7761 128 99.5 128Z" fill="white" fill-opacity="0.8"/>
<path d="M92 144H100V152L92 144Z" fill="#455A64"/>
<path d="M144 40C144 35.5817 140.418 32 136 32H24C19.5817 32 16 35.5817 16 40V72C16 76.4183 19.5817 80 24 80H136C140.418 80 144 76.4183 144 72V40Z" fill="#EBEAFA"/>
<path fill-rule="evenodd" clip-rule="evenodd" d="M101.002 44.7087H109.292C109.287 43.7507 109.472 42.8015 109.835 41.9174C110.199 41.0333 110.733 40.2323 111.407 39.5618C112.08 38.8913 112.88 38.3651 113.757 38.0142C114.635 37.6633 115.573 37.495 116.516 37.5191C117.905 37.4726 119.273 37.8664 120.432 38.6459C121.59 39.4254 122.481 40.5519 122.98 41.869C123.419 42.9706 123.595 44.162 123.494 45.3459C123.393 46.5298 123.017 47.6726 122.398 48.681C120.992 51.0283 117.906 53.1622 112.33 52.1773V71.2182H120.524V60.0235C123.883 59.018 126.824 56.9206 128.897 54.0534C130.97 51.1861 132.059 47.7072 131.998 44.1506C131.998 38.0352 129.311 34.255 126.039 32H136C140.418 32 144 35.5817 144 40V72C144 76.4183 140.418 80 136 80H120.375V75.1455H112.625V80H24C19.5817 80 16 76.4183 16 72V40C16 35.5817 19.5817 32 24 32H106.301C103.32 34.2186 100.929 38.0625 101.002 44.7087Z" fill="#AFABED"/>
<path d="M87.5 46H28.5C28.2239 46 28 46.2239 28 46.5C28 46.7761 28.2239 47 28.5 47H87.5C87.7761 47 88 46.7761 88 46.5C88 46.2239 87.7761 46 87.5 46Z" fill="white" fill-opacity="0.8"/>
<path d="M87.5 52H28.5C28.2239 52 28 52.2239 28 52.5C28 52.7761 28.2239 53 28.5 53H87.5C87.7761 53 88 52.7761 88 52.5C88 52.2239 87.7761 52 87.5 52Z" fill="white" fill-opacity="0.8"/>
<path d="M87.5 58H28.5C28.2239 58 28 58.2239 28 58.5C28 58.7761 28.2239 59 28.5 59H87.5C87.7761 59 88 58.7761 88 58.5C88 58.2239 87.7761 58 87.5 58Z" fill="white" fill-opacity="0.8"/>
<path d="M71.5 64H28.5C28.2239 64 28 64.2239 28 64.5C28 64.7761 28.2239 65 28.5 65H71.5C71.7761 65 72 64.7761 72 64.5C72 64.2239 71.7761 64 71.5 64Z" fill="white" fill-opacity="0.8"/>
<path d="M52 80H44V88L52 80Z" fill="#AFABED"/>
</g>
<path d="M266.509 178.092C267.857 180.787 262.83 182.997 259.933 183.873C256.978 184.598 253.919 184.808 250.892 184.492C246.849 184.277 242.713 183.9 239.223 181.905C236.166 180.012 233.723 177.274 232.189 174.023C230.676 170.781 229.48 167.401 228.618 163.93C228.618 163.93 260.459 166.005 266.509 178.092Z" fill="#AFABED"/>
<g opacity="0.4">
<path d="M266.509 178.092C267.857 180.787 262.83 182.997 259.933 183.873C256.978 184.598 253.919 184.808 250.892 184.492C246.849 184.277 242.713 183.9 239.223 181.905C236.166 180.012 233.723 177.274 232.189 174.023C230.676 170.781 229.48 167.401 228.618 163.93C228.618 163.93 260.459 166.005 266.509 178.092Z" fill="black"/>
</g>
<path d="M176.578 169.468C171.329 173.191 165.038 175.162 158.603 175.1C155.518 175.272 152.476 174.314 150.046 172.405C149.009 171.448 148.227 170.236 147.163 169.319C146.435 168.7 145.586 168.228 144.899 167.568C144.536 167.255 144.257 166.858 144.085 166.411C143.913 165.965 143.855 165.482 143.915 165.007C144.181 163.837 144.837 162.792 145.775 162.043C149.427 159.968 153.792 160.049 157.997 160.143C162.204 160.325 166.36 161.138 170.326 162.555C173.587 163.66 176.996 165.25 178.653 168.214" fill="#AFABED"/>
<g opacity="0.4">
<path d="M143.915 165.008C144.392 163.871 145.23 162.924 146.3 162.313C149.952 160.238 153.792 160.049 157.997 160.143C162.204 160.326 166.36 161.139 170.326 162.555C173.587 163.66 176.996 165.25 178.653 168.215L176.578 169.468C171.329 173.191 165.038 175.163 158.603 175.1C155.518 175.272 152.476 174.314 150.046 172.406C149.009 171.449 148.227 170.236 147.163 169.32C146.435 168.7 145.586 168.228 144.899 167.568C144.536 167.256 144.257 166.859 144.085 166.412C143.913 165.965 143.855 165.483 143.915 165.008Z" fill="black"/>
</g>
<path d="M238.751 217.829L171.579 218.719C171.442 218.718 171.308 218.686 171.186 218.624C171.064 218.562 170.958 218.473 170.877 218.363C170.795 218.253 170.741 218.125 170.718 217.991C170.695 217.856 170.704 217.717 170.744 217.587L178.626 193.009C178.626 193.009 177.468 180.72 175.864 165.951C173.425 143.516 170.178 115.313 170.137 115.394C174.732 102.512 201.843 100.329 201.843 100.329L232.741 102.162L233.819 100.343L242.712 104.48C244.652 105.382 246.517 106.436 248.291 107.633C254.166 111.554 268.314 120.568 270.902 130.607C276.871 153.851 266.765 179.79 266.765 179.79L260.27 174.71C258.634 173.449 256.914 172.301 255.123 171.274L242.106 206.16C242.881 206.648 243.537 207.303 244.026 208.077C244.516 208.851 244.826 209.725 244.936 210.634C245.044 213.463 243.588 216.859 238.751 217.829Z" fill="#AFABED"/>
<g opacity="0.3">
<path d="M209.928 176.704C207.799 165.25 208.918 153.474 210.063 141.885C213.782 151.318 213.647 162.097 217.596 171.449C218.08 172.436 218.433 173.483 218.647 174.562C218.75 175.103 218.723 175.662 218.568 176.191C218.413 176.72 218.136 177.206 217.757 177.607C216.679 178.59 215.062 178.051 213.634 177.89C212.355 177.646 211.111 177.248 209.928 176.704Z" fill="black"/>
</g>
<path d="M145.856 160.588C151.34 148.232 170.676 114.06 170.676 114.06L185.647 132.83L182.157 169.683C182.157 169.683 174.247 160.857 152.135 160.682C150.528 160.746 148.956 161.17 147.534 161.92C146.111 162.671 144.875 163.731 143.915 165.021L145.856 160.588Z" fill="#AFABED"/>
<path d="M235.746 154.053C236.814 151.433 237.661 148.729 238.279 145.968C239.116 143.279 239.729 140.525 240.112 137.735C239.059 140.359 238.217 143.062 237.592 145.82C236.755 148.51 236.137 151.263 235.746 154.053Z" fill="#263238"/>
<path d="M186.779 130.337C186.291 130.682 185.84 131.075 185.431 131.51C184.241 132.659 183.125 133.884 182.089 135.175C178.605 139.434 176.156 144.443 174.934 149.808C174.3 152.774 174.159 155.825 174.517 158.836C174.853 161.599 175.379 164.024 175.729 166.072C176.08 168.121 176.295 169.791 176.403 170.95C176.406 171.552 176.469 172.153 176.592 172.742C176.687 172.141 176.714 171.531 176.673 170.923C176.613 169.272 176.46 167.626 176.214 165.992C175.931 163.93 175.46 161.478 175.15 158.769C174.838 155.825 174.997 152.85 175.621 149.957C176.828 144.691 179.169 139.753 182.48 135.485C184.946 132.17 186.886 130.445 186.779 130.337Z" fill="#263238"/>
<path d="M241.54 134.987C242.567 134.384 243.561 133.727 244.518 133.02C249.31 129.871 254.749 127.84 260.432 127.077C261.621 126.99 262.805 126.833 263.976 126.606C262.782 126.441 261.572 126.441 260.378 126.606C254.54 127.104 248.949 129.186 244.208 132.629C243.214 133.287 242.316 134.081 241.54 134.987Z" fill="#263238"/>
<path d="M170.676 113.615C173.088 115.557 175.341 117.689 177.414 119.989C179.322 122.444 181.03 125.048 182.521 127.777C182.361 126.859 182.047 125.975 181.591 125.163C180.615 123.143 179.393 121.251 177.953 119.531C176.508 117.814 174.851 116.288 173.021 114.99C172.324 114.4 171.531 113.935 170.676 113.615Z" fill="#263238"/>
<path d="M198.407 102.512C198.285 102.706 198.185 102.914 198.111 103.132C197.848 103.742 197.636 104.373 197.478 105.018C196.91 107.419 196.91 109.92 197.478 112.321C198.316 115.906 200.235 119.147 202.975 121.605C206.434 124.535 210.84 126.106 215.372 126.025C219.908 126.041 224.327 124.59 227.971 121.888C230.874 119.672 233.23 116.818 234.857 113.548C235.953 111.358 236.724 109.02 237.147 106.608C237.271 105.958 237.352 105.301 237.39 104.641C237.428 104.409 237.428 104.172 237.39 103.94C237.39 103.94 237.242 104.883 236.864 106.554C236.341 108.898 235.511 111.163 234.399 113.292C232.755 116.464 230.42 119.226 227.567 121.376C224.056 123.976 219.809 125.392 215.44 125.419C211.072 125.499 206.82 124.007 203.461 121.215C200.814 118.846 198.936 115.739 198.071 112.294C197.471 109.969 197.388 107.541 197.828 105.18C198.084 103.401 198.488 102.539 198.407 102.512Z" fill="#263238"/>
<g opacity="0.3">
<path d="M171.768 156.115C172.432 152.337 174.087 148.803 176.565 145.874C173.708 155.199 174.665 160.467 176.268 166.854L175.918 165.965C174.072 162.233 171.269 159.888 171.768 156.115Z" fill="black"/>
</g>
<path d="M189.757 27.3636C188.234 23.5907 190.08 19.0227 193.355 16.5838C196.805 14.3121 201.013 13.4938 205.064 14.3066C209.06 15.1445 212.929 16.5036 216.572 18.349C218.265 16.6409 220.4 15.4371 222.738 14.8722C225.077 14.3072 227.526 14.4033 229.813 15.1497C232.099 15.8961 234.133 17.2634 235.688 19.099C237.243 20.9346 238.256 23.1661 238.616 25.5445C240.073 25.1778 241.602 25.2147 243.04 25.6513C244.477 26.0878 245.769 26.9076 246.776 28.0225C247.783 29.1375 248.467 30.5056 248.755 31.98C249.044 33.4544 248.925 34.9795 248.412 36.3917L230.195 42.7922L210.306 77.8265C207.366 80.3343 203.615 81.6869 199.752 81.6322C195.888 81.5774 192.177 80.119 189.31 77.529C186.443 74.939 184.616 71.3944 184.17 67.5565C183.724 63.7185 184.69 59.8495 186.887 56.6712C185.772 55.6802 184.826 54.5153 184.084 53.2216C182.495 52.2818 181.108 51.0354 180.004 49.5549C178.901 48.0745 178.103 46.3894 177.656 44.5978C175.891 36.7959 181.928 28.2799 189.757 27.3636Z" fill="#263238"/>
<path d="M201.817 100.329C202.948 94.6293 203.73 90.7216 203.717 90.762C203.703 90.8025 192.937 86.5849 193.718 71.5875C194.096 64.1224 196.939 52.359 199.58 42.8189C201.951 34.222 209.969 24.7492 218.444 27.4846L244.141 40.0161C246.714 40.8515 247.159 43.277 246.553 45.9046V47.2521L236.568 88.5656L232.35 107.026C231.451 110.817 229.166 114.133 225.944 116.323C222.722 118.513 218.796 119.417 214.941 118.857C212.835 118.561 210.813 117.837 208.997 116.731C207.181 115.625 205.61 114.16 204.381 112.425C203.152 110.69 202.291 108.722 201.85 106.642C201.409 104.562 201.397 102.414 201.817 100.329Z" fill="#FBDCC5"/>
<path d="M199.674 52.79C199.566 53.2681 199.646 53.7695 199.896 54.1907C200.147 54.6119 200.55 54.9208 201.022 55.0538C201.26 55.1202 201.509 55.1379 201.754 55.1056C201.999 55.0733 202.235 54.9917 202.448 54.8659C202.661 54.74 202.846 54.5723 202.992 54.3731C203.138 54.1738 203.243 53.947 203.299 53.7063C203.407 53.2299 203.327 52.7303 203.076 52.3113C202.825 51.8923 202.422 51.586 201.951 51.456C201.714 51.3874 201.466 51.3677 201.221 51.3983C200.976 51.4288 200.739 51.509 200.526 51.6338C200.313 51.7586 200.128 51.9255 199.981 52.1242C199.835 52.323 199.73 52.5495 199.674 52.79Z" fill="#263238"/>
<path d="M200.846 49.9199C201.035 50.2163 202.665 49.4752 204.66 49.9199C206.654 50.3646 207.921 51.6582 208.19 51.456C208.46 51.2539 208.19 50.8766 207.638 50.2837C206.896 49.5004 205.932 48.9641 204.875 48.7476C203.833 48.5228 202.746 48.641 201.776 49.0845C201.021 49.3944 200.765 49.7986 200.846 49.9199Z" fill="#263238"/>
<path d="M219.24 57.2108C219.132 57.6872 219.212 58.1867 219.463 58.6057C219.714 59.0248 220.116 59.3311 220.587 59.4611C220.82 59.5288 221.064 59.5497 221.304 59.5226C221.545 59.4955 221.778 59.4208 221.99 59.303C222.202 59.1852 222.388 59.0266 222.538 58.8363C222.688 58.646 222.799 58.4279 222.864 58.1944C222.972 57.7163 222.893 57.2149 222.642 56.7937C222.391 56.3725 221.989 56.0636 221.517 55.9307C221.283 55.8632 221.039 55.8428 220.797 55.8708C220.556 55.8988 220.322 55.9746 220.11 56.0937C219.898 56.2129 219.712 56.373 219.563 56.5648C219.413 56.7565 219.303 56.9762 219.24 57.2108Z" fill="#263238"/>
<path d="M220.223 54.6763C220.398 54.9728 222.042 54.2182 224.036 54.6763C226.03 55.1345 227.297 56.4011 227.566 56.2124C227.836 56.0238 227.566 55.633 227.014 55.0267C226.269 54.2503 225.306 53.7192 224.252 53.504C223.21 53.2826 222.126 53.3958 221.152 53.8274C220.438 54.1508 220.128 54.5146 220.223 54.6763Z" fill="#263238"/>
<path d="M210.076 67.3427C209.088 66.7977 208.039 66.3725 206.95 66.0761C206.451 65.9144 205.98 65.7123 205.966 65.3485C206.037 64.8125 206.267 64.3102 206.627 63.9067L208.958 60.3224C212.219 55.2155 214.698 50.9844 214.496 50.8901C214.294 50.7957 211.478 54.7977 208.217 59.9047L205.939 63.5159C205.492 64.0686 205.249 64.7587 205.252 65.4697C205.292 65.6636 205.375 65.8462 205.494 66.0045C205.612 66.1629 205.765 66.2932 205.939 66.386C206.203 66.5256 206.484 66.6298 206.775 66.6959C207.841 67.0609 208.951 67.2785 210.076 67.3427Z" fill="#263238"/>
<path d="M203.716 90.7621C210.532 92.3025 217.641 91.92 224.252 89.6572C224.252 89.6572 217.191 98.8739 202.948 94.4677L203.716 90.7621Z" fill="#CDB39F"/>
<path d="M219.886 51.8201C220.021 52.3995 222.082 52.386 224.427 52.9654C226.772 53.5448 228.631 54.4207 229.009 53.9625C229.17 53.7469 228.901 53.181 228.187 52.6151C227.237 51.8157 226.11 51.2565 224.899 50.9846C223.698 50.6998 222.448 50.6998 221.247 50.9846C220.29 51.1598 219.792 51.5506 219.886 51.8201Z" fill="#263238"/>
<path d="M201.614 43.5603C201.938 44.0993 203.663 43.9645 205.657 44.3553C207.651 44.746 209.228 45.4198 209.699 45.029C209.915 44.8269 209.699 44.3149 209.12 43.6815C208.23 42.9333 207.155 42.4397 206.007 42.2532C204.879 42.0258 203.71 42.1097 202.625 42.4958C201.803 42.8731 201.48 43.2908 201.614 43.5603Z" fill="#263238"/>
<path d="M237.794 30.368C237.496 31.8277 236.88 33.2038 235.99 34.3986C235.1 35.5934 233.958 36.5775 232.644 37.2811C231.331 37.9847 229.879 38.3904 228.391 38.4695C226.904 38.5486 225.417 38.2991 224.036 37.7387C221.907 36.8763 219.697 35.2593 217.541 36.0409C215.386 36.8224 214.496 39.8946 212.435 41.04C209.403 42.7378 205.697 39.8003 202.315 40.0968C199.62 40.3258 197.585 42.3875 195.497 44.1392C193.408 45.8909 190.525 47.2114 188.166 45.9448C188.706 43.6945 189.507 41.5149 190.552 39.45C191.605 37.3711 193.349 35.7231 195.483 34.7877C196.669 34.3161 197.949 34.1544 199.081 33.575C201.52 32.3353 202.611 29.5325 204.377 27.417C205.536 26.0839 206.996 25.0462 208.637 24.3901C210.277 23.7339 212.05 23.4782 213.809 23.6441C216.719 23.9405 219.482 25.4093 222.419 25.288C224.589 25.1937 226.664 24.2235 228.833 24.2639C233.051 24.2639 236.217 28.0369 238.562 31.5538" fill="#263238"/>
<path d="M223.592 33.4547C225.532 33.3064 229.494 32.9022 230.801 31.5278C232.128 30.0426 233.823 28.9323 235.715 28.308C237.607 27.6837 239.629 27.5673 241.58 27.9704C243.516 28.5476 245.216 29.731 246.429 31.3466C247.642 32.9622 248.304 34.9245 248.318 36.9446C250.675 37.52 252.834 38.7214 254.565 40.4219C256.297 42.1225 257.537 44.2591 258.154 46.606C258.782 49.0629 258.803 51.6354 258.216 54.1023C257.629 56.5692 256.452 58.8566 254.786 60.768C253.976 61.7802 253.238 62.8472 252.576 63.9615C253.49 65.095 254.293 66.3132 254.974 67.5997C258.06 74.4179 249.692 77.032 249.692 77.032C249.692 81.6134 245.448 81.5865 242.739 81.573C240.031 81.5595 238.535 88.7955 236.42 88.5125L238.562 66.1848C238.248 66.3068 237.915 66.3708 237.578 66.3735C232.471 66.4678 233.805 56.7929 235.449 54.2462C233.928 52.3521 232.643 50.2797 231.623 48.0748C230.698 44.7041 230.633 41.1553 231.434 37.7531C229.723 37.5375 222.756 33.5086 223.592 33.4547Z" fill="#263238"/>
<path d="M237.889 67.3705C238.063 66.661 238.413 66.0072 238.908 65.47C239.403 64.9327 240.026 64.5296 240.719 64.2982C241.412 64.0668 242.152 64.0146 242.871 64.1466C243.589 64.2786 244.263 64.5903 244.828 65.0528C246.176 66.2117 246.89 68.152 246.081 71.3994C243.898 80.0772 235.638 76.1021 235.692 75.8596C235.746 75.617 236.945 70.9548 237.889 67.3705Z" fill="#FBDCC5"/>
<path d="M239.168 73.2317C239.168 73.2317 239.29 73.3799 239.519 73.5551C239.837 73.7993 240.238 73.9105 240.637 73.865C241.634 73.7572 242.78 72.5175 243.211 70.941C243.416 70.2043 243.458 69.4316 243.332 68.6772C243.318 68.3842 243.234 68.0988 243.086 67.8454C242.938 67.592 242.732 67.3781 242.483 67.2219C242.32 67.1337 242.13 67.1057 241.948 67.1426C241.766 67.1795 241.602 67.2791 241.486 67.4241C241.311 67.6262 241.324 67.8148 241.27 67.8283C241.217 67.8418 241.122 67.6262 241.27 67.2893C241.374 67.0895 241.539 66.9287 241.742 66.8312C242.027 66.7158 242.346 66.7158 242.631 66.8312C242.97 66.9919 243.262 67.2355 243.481 67.5393C243.7 67.8432 243.839 68.1976 243.885 68.5694C244.059 69.418 244.027 70.2962 243.79 71.1296C243.64 71.9121 243.262 72.6327 242.703 73.2009C242.145 73.769 241.43 74.1595 240.651 74.3231C240.397 74.3334 240.144 74.2867 239.911 74.1864C239.678 74.0862 239.47 73.9349 239.303 73.7437C239.128 73.4473 239.128 73.2451 239.168 73.2317Z" fill="#CDB39F"/>
<path d="M191.36 55.2562C191.36 55.2562 190.565 54.6498 189.46 53.3023C187.936 51.3608 187 49.0224 186.765 46.565C186.587 44.8874 186.752 43.191 187.25 41.5793C187.826 39.7305 188.892 38.0726 190.336 36.7823C192.003 35.3266 194.021 34.3319 196.191 33.897C198.361 33.4621 200.607 33.602 202.706 34.3029C203.11 34.4377 203.487 34.6398 203.865 34.8015C204.242 34.9632 204.579 35.2057 204.929 35.4079L205.468 35.7043V35.1114C205.48 34.0676 205.867 33.0629 206.56 32.2817C207.269 31.5235 208.139 30.9341 209.106 30.5569C210.937 29.7943 212.964 29.6431 214.887 30.1258C218.606 30.9747 221.759 32.6725 224.737 33.0228C227.072 33.4287 229.475 32.9481 231.475 31.6754C232.002 31.3123 232.459 30.8556 232.822 30.3279C233.038 29.9641 233.145 29.7619 233.118 29.7485C232.63 30.4139 232.034 30.9924 231.353 31.4598C229.386 32.5954 227.075 32.9829 224.845 32.5512C223.293 32.2593 221.776 31.8077 220.317 31.2037C218.605 30.5192 216.85 29.9475 215.062 29.4924C214.066 29.2514 213.041 29.1471 212.017 29.1825C210.936 29.2396 209.873 29.4859 208.877 29.9102C207.847 30.3504 206.927 31.013 206.182 31.8505C205.386 32.7627 204.937 33.9273 204.916 35.1384L205.455 34.8419L204.336 34.1951C203.919 34.0334 203.528 33.8178 203.097 33.6696C200.884 32.912 198.511 32.7535 196.218 33.2103C193.924 33.667 191.793 34.7228 190.04 36.2702C188.524 37.6422 187.415 39.4041 186.833 41.3637C186.228 43.4406 186.147 45.6348 186.596 47.7508C187.045 49.8667 188.01 51.8387 189.406 53.491C189.85 53.9974 190.352 54.4497 190.902 54.8385C191.037 54.9957 191.191 55.136 191.36 55.2562Z" fill="#455A64"/>
<path d="M193.112 24.7904C193.997 24.3413 194.94 24.0192 195.915 23.8337C197.029 23.6814 198.163 23.7874 199.229 24.1436C200.611 24.5662 201.811 25.439 202.639 26.623L202.975 27.0946L203.178 26.5556C203.881 24.8992 205.014 23.4603 206.458 22.3874C207.903 21.3144 209.608 20.6462 211.397 20.4515C214.207 20.3458 216.976 21.1492 219.293 22.7422C221.267 24.0291 223.367 25.1126 225.559 25.9762C227.071 26.5479 228.699 26.7422 230.302 26.5421C230.73 26.4632 231.149 26.346 231.555 26.1918C231.825 26.0705 231.973 26.0031 231.96 25.9762C231.946 25.9492 231.353 26.1514 230.262 26.2591C228.712 26.356 227.16 26.1027 225.721 25.518C223.59 24.589 221.547 23.4706 219.617 22.1763C218.424 21.4358 217.16 20.8173 215.844 20.3303C214.397 19.8026 212.85 19.6046 211.316 19.7508C209.405 19.9595 207.586 20.6825 206.054 21.8428C204.521 23.0031 203.331 24.5573 202.612 26.34H203.137C202.211 25.0737 200.887 24.1536 199.378 23.7259C198.231 23.3933 197.022 23.3333 195.847 23.5507C195.104 23.6919 194.392 23.9658 193.745 24.3592C193.515 24.4721 193.301 24.6172 193.112 24.7904Z" fill="#455A64"/>
<path d="M210.858 71.3316C211.173 71.0684 211.539 70.8748 211.934 70.7633C212.329 70.6519 212.743 70.6251 213.149 70.6848C213.623 70.7861 214.071 70.986 214.463 71.2715C214.856 71.557 215.184 71.9218 215.426 72.3422C215.426 72.3422 215.493 72.4096 215.507 72.45C215.692 72.7577 215.777 73.1158 215.749 73.4741C215.691 73.8644 215.537 74.2344 215.302 74.5515C215.067 74.8687 214.758 75.1233 214.402 75.2932C213.832 75.5819 213.187 75.6877 212.556 75.596C211.924 75.5044 211.335 75.2198 210.871 74.7811C210.431 74.3157 210.184 73.6999 210.182 73.059C210.179 72.4182 210.421 71.8005 210.858 71.3316Z" fill="#CDB39F"/>
<path d="M210.184 75.522C210.292 75.522 210.413 75.1177 210.777 74.5653C211.215 73.8246 211.87 73.2363 212.653 72.8796C213.437 72.523 214.31 72.4153 215.157 72.571C215.817 72.6653 216.221 72.854 216.262 72.7597C216.302 72.6653 215.992 72.3419 215.264 72.0859C214.312 71.7794 213.28 71.8371 212.367 72.2476C211.447 72.6575 210.718 73.4051 210.333 74.3362C210.05 75.0369 210.09 75.5085 210.184 75.522Z" fill="#263238"/>
<path d="M237.686 77.193C237.686 77.193 237.296 77.8667 237.808 78.8908C238.097 79.5036 238.607 79.9848 239.236 80.2383C239.628 80.3788 240.048 80.4263 240.462 80.3772C240.876 80.3281 241.272 80.1837 241.621 79.9553C241.976 79.7397 242.276 79.4452 242.498 79.0946C242.72 78.744 242.858 78.3468 242.901 77.9341C242.942 77.2686 242.746 76.61 242.349 76.0746C241.648 75.1853 240.866 75.1583 240.866 75.2392C240.866 75.32 241.459 75.5491 241.931 76.3576C242.204 76.8105 242.318 77.3417 242.254 77.8668C242.204 78.1743 242.088 78.4672 241.913 78.7255C241.739 78.9837 241.51 79.201 241.244 79.3625C240.981 79.5307 240.685 79.6417 240.376 79.6881C240.068 79.7345 239.752 79.7154 239.451 79.6319C238.954 79.4539 238.525 79.1239 238.225 78.6887C237.7 77.8533 237.794 77.193 237.686 77.193Z" fill="#AFABED"/>
<path d="M242.227 76.6675C242.16 76.6675 242.227 77.1256 242.861 77.422C243.172 77.5513 243.513 77.5889 243.845 77.5302C244.177 77.4715 244.485 77.3191 244.733 77.091C244.981 76.8629 245.159 76.5686 245.245 76.2428C245.331 75.917 245.322 75.5734 245.219 75.2526C245.087 74.8882 244.835 74.5794 244.505 74.3767C243.952 74.0399 243.534 74.1746 243.548 74.2555C243.561 74.3363 243.871 74.4306 244.208 74.7675C244.374 74.9746 244.475 75.226 244.498 75.4902C244.522 75.7544 244.467 76.0197 244.34 76.2528C244.214 76.4859 244.021 76.6764 243.787 76.8005C243.552 76.9246 243.286 76.9768 243.022 76.9504C242.564 76.8561 242.322 76.6136 242.227 76.6675Z" fill="#AFABED"/>
<path d="M227.418 196.337C227.418 196.337 194.055 198.277 174.328 198.452C159.061 198.601 152.243 194.545 149.197 184.722C146.637 176.489 152.135 160.683 152.135 160.683C162.47 160.683 168.844 162.165 175.487 165.278L173.721 172.5L227.513 177.135L227.418 196.337Z" fill="#FBDCC5"/>
<path d="M239.627 165.224C239.627 165.224 249.948 167.703 257.535 172.77L249.45 194.679C246.755 201.875 238.522 205.459 231.933 201.686C221.786 195.879 218.202 178.954 218.202 178.954L207.058 130.607L225.532 119.032L239.559 165.224" fill="#FBDCC5"/>
<path d="M225.6 119.033L224.845 103.132L228.982 86.9626C229.211 86.0733 229.319 84.9549 228.591 84.4159C228.23 84.1392 227.785 83.9961 227.33 84.0108C226.876 84.0255 226.44 84.1973 226.098 84.4967C224.98 85.6556 219.59 99.7906 219.59 99.7906C219.59 99.7906 211.411 94.8858 209.955 94.6432C208.5 94.4007 206.681 98.8069 206.56 99.1438C206.506 100.131 206.506 101.121 206.56 102.108C206.56 102.108 201.507 102.256 201.049 102.944C200.681 104.348 200.487 105.791 200.469 107.242C200.469 107.242 198.327 107.929 197.99 109.546C197.653 111.163 196.952 113.831 197.99 114.424C199.027 115.017 201.129 116.176 201.129 116.176C201.129 116.176 201.978 124.422 202.207 125.177C202.437 125.932 207.166 130.567 207.166 130.567L225.6 119.033Z" fill="#FBDCC5"/>
<path d="M242.793 202.01C242.793 202.01 242.295 202.306 241.244 202.643C239.707 203.125 238.081 203.254 236.487 203.02C233.927 202.655 231.529 201.55 229.588 199.84C227.023 197.513 224.856 194.782 223.174 191.756C222.183 189.976 221.349 188.114 220.681 186.19C219.98 184.074 219.4 181.919 218.943 179.736C217.892 175.195 216.746 170.304 215.534 165.102C213.108 154.713 210.386 143.098 207.449 130.58V130.486H207.382C206.452 129.57 205.522 128.64 204.592 127.67C204.134 127.184 203.676 126.699 203.245 126.201C203.029 125.945 202.8 125.689 202.625 125.433C202.489 125.179 202.41 124.898 202.396 124.611C202.032 121.916 201.749 119.127 201.453 116.31V116.135L201.291 116.054L198.717 114.613C198.529 114.491 198.232 114.357 198.111 114.249C197.982 114.132 197.897 113.975 197.868 113.804C197.806 113.357 197.806 112.904 197.868 112.457C197.999 111.468 198.202 110.491 198.475 109.533C198.933 108.694 199.703 108.07 200.617 107.794L200.846 107.713V107.484C200.846 106.703 200.927 105.894 201.021 105.099C201.058 104.701 201.117 104.305 201.197 103.914C201.228 103.741 201.282 103.573 201.358 103.415C201.358 103.321 201.358 103.415 201.439 103.334C201.512 103.296 201.589 103.264 201.668 103.24C203.289 102.887 204.941 102.702 206.6 102.687H206.95V102.337C206.95 101.502 206.95 100.572 206.95 99.6421C207.006 99.3249 207.115 99.0196 207.274 98.7393C207.408 98.4159 207.57 98.106 207.732 97.7826C208.047 97.1584 208.417 96.5632 208.837 96.0039C209.027 95.7432 209.26 95.5156 209.524 95.3302C209.622 95.2476 209.742 95.1958 209.869 95.1814C209.996 95.167 210.124 95.1906 210.238 95.2493C210.89 95.499 211.525 95.7916 212.138 96.1252C214.644 97.4727 217.097 98.8201 219.495 100.275L219.846 100.491L219.994 100.114C221.26 96.9202 222.527 93.7671 223.767 90.6814C224.387 89.1318 224.993 87.5822 225.613 86.0595C225.708 85.7184 225.898 85.4111 226.16 85.1728C226.422 84.9345 226.746 84.7748 227.095 84.7121C227.417 84.6052 227.766 84.611 228.084 84.7285C228.403 84.846 228.671 85.0683 228.847 85.3588C229.015 85.6479 229.086 85.9832 229.049 86.3156C229.049 86.612 228.86 87.0701 228.779 87.434C228.564 88.2155 228.362 88.9835 228.16 89.7516C227.755 91.3012 227.365 92.8239 226.96 94.333C226.17 97.3693 225.393 100.334 224.629 103.226V103.321C224.899 108.854 225.155 114.154 225.397 119.221V119.194L237.673 159.133L241.136 170.25C241.54 171.503 241.85 172.487 242.066 173.174C242.281 173.861 242.416 174.157 242.416 174.157C242.416 174.157 242.348 173.807 242.16 173.147L241.311 170.196C240.529 167.595 239.411 163.836 237.996 159.039C235.086 149.391 230.949 135.62 225.95 119.019V119.086C225.716 114.038 225.478 108.738 225.236 103.186V103.28C226.004 100.383 226.799 97.4188 227.594 94.4004L228.806 89.819C229.008 89.0509 229.211 88.2694 229.426 87.5013C229.542 87.0979 229.637 86.6886 229.709 86.2751C229.759 85.8074 229.66 85.3359 229.426 84.9277C229.177 84.5073 228.792 84.1843 228.335 84.0114C227.882 83.879 227.404 83.864 226.944 83.9677C226.484 84.0715 226.059 84.2905 225.707 84.6043C225.369 84.9215 225.118 85.3207 224.98 85.7631L223.133 90.3849C221.88 93.4841 220.627 96.6372 219.347 99.8173L219.846 99.6421C217.434 98.2138 215.008 96.7854 212.448 95.4514C211.801 95.1132 211.135 94.8118 210.454 94.5486C210.241 94.4601 210.009 94.4276 209.78 94.4543C209.549 94.4876 209.329 94.5704 209.133 94.6969C208.809 94.9297 208.522 95.2115 208.284 95.5323C207.834 96.1219 207.441 96.7537 207.112 97.4187C206.937 97.7556 206.775 98.079 206.627 98.4159C206.435 98.7727 206.307 99.1603 206.25 99.5612C206.25 100.518 206.25 101.407 206.25 102.256L206.586 101.892C204.854 101.904 203.129 102.103 201.439 102.485C201.323 102.526 201.21 102.575 201.102 102.633C200.954 102.714 200.833 102.836 200.752 102.984C200.647 103.203 200.57 103.433 200.523 103.671C200.442 104.102 200.388 104.506 200.334 104.924C200.253 105.746 200.199 106.555 200.159 107.363L200.402 107.04C199.851 107.201 199.338 107.473 198.896 107.84C198.453 108.206 198.09 108.658 197.828 109.169C197.533 110.193 197.316 111.238 197.181 112.295C197.088 112.834 197.088 113.386 197.181 113.925C197.24 114.252 197.412 114.548 197.666 114.761C197.887 114.909 198.117 115.044 198.353 115.165L200.914 116.499L200.738 116.243C201.048 119.059 201.331 121.822 201.709 124.557L201.789 125.082C201.821 125.295 201.909 125.495 202.046 125.662C202.244 125.957 202.465 126.236 202.706 126.497C203.164 127.009 203.622 127.508 204.053 127.993C204.983 128.963 205.913 129.893 206.856 130.809L206.762 130.647C209.726 143.152 212.475 154.767 214.941 165.156C216.167 170.344 217.339 175.235 218.417 179.763C218.878 181.962 219.472 184.131 220.196 186.258C220.889 188.2 221.746 190.079 222.756 191.877C224.478 194.942 226.695 197.702 229.318 200.042C231.317 201.763 233.777 202.859 236.393 203.196C238.021 203.414 239.678 203.248 241.23 202.71C241.625 202.565 242.008 202.39 242.375 202.185L242.793 202.01Z" fill="#CDB39F"/>
<path d="M206.546 102.148C206.546 102.242 207.004 102.296 207.718 102.323C208.625 102.34 209.528 102.449 210.413 102.647C211.268 102.857 212.056 103.278 212.704 103.873C213.189 104.331 213.405 104.722 213.513 104.681C213.62 104.641 213.513 104.156 213.068 103.536C212.44 102.751 211.567 102.201 210.589 101.973C209.645 101.74 208.666 101.695 207.705 101.838C206.977 101.932 206.546 102.054 206.546 102.148Z" fill="#CDB39F"/>
<path d="M210.454 102.296C210.629 102.229 210.642 101.811 210.454 101.367C210.265 100.922 209.995 100.612 209.82 100.679C209.645 100.747 209.618 101.164 209.82 101.609C210.022 102.054 210.319 102.364 210.454 102.296Z" fill="#CDB39F"/>
<path d="M200.24 107.188C201.548 107.593 202.914 107.779 204.282 107.741C204.713 107.726 205.141 107.815 205.53 108.001C205.92 108.186 206.259 108.462 206.519 108.805C206.869 109.357 206.748 109.816 206.856 109.843C206.964 109.87 207.287 109.398 206.95 108.589C206.765 108.134 206.427 107.758 205.994 107.525C205.495 107.251 204.944 107.086 204.377 107.04C203.001 106.829 201.597 106.879 200.24 107.188Z" fill="#CDB39F"/>
<path d="M201.129 112.039C200.94 112.039 200.833 113.036 200.887 114.262C200.94 115.488 201.143 116.458 201.331 116.458C201.52 116.458 201.641 115.448 201.587 114.222C201.533 112.995 201.331 112.025 201.129 112.039Z" fill="#CDB39F"/>
<path d="M265.7 124.584C265.7 124.584 266.199 125.096 266.899 126.187C267.84 127.742 268.459 129.469 268.718 131.267C269.102 133.945 269.184 136.657 268.961 139.352C268.813 142.411 268.57 145.753 268.193 149.256C267.555 155.239 266.606 161.185 265.35 167.07C264.878 169.333 264.447 171.112 264.15 172.46C264.016 173.025 263.894 173.497 263.8 173.901C263.706 174.306 263.692 174.413 263.692 174.413C263.692 174.413 263.76 174.252 263.854 173.928C263.948 173.605 264.097 173.039 264.245 172.486C264.582 171.233 265.04 169.428 265.592 167.164C266.902 161.281 267.878 155.33 268.516 149.337C268.894 145.833 269.123 142.478 269.257 139.419C269.462 136.722 269.362 134.01 268.961 131.335C268.671 129.513 268.011 127.77 267.021 126.214C266.656 125.614 266.212 125.065 265.7 124.584Z" fill="white"/>
<path d="M237.336 106.231L237.646 106.392L238.535 106.824C239.303 107.188 240.422 107.726 241.756 108.468C245.233 110.407 248.611 112.521 251.875 114.801C255.729 117.496 259.138 119.948 261.631 121.727L264.582 123.815L265.404 124.368C265.496 124.441 265.595 124.504 265.7 124.556C265.624 124.466 265.533 124.389 265.431 124.327L264.649 123.734L261.752 121.565C259.286 119.746 255.891 117.213 252.037 114.572C248.767 112.282 245.365 110.185 241.85 108.292C240.503 107.578 239.371 107.066 238.576 106.729L237.673 106.352C237.403 106.258 237.403 106.217 237.336 106.231Z" fill="white"/>
<path d="M173.074 115.003C173.159 114.956 173.236 114.897 173.304 114.828L173.91 114.302C174.661 113.668 175.448 113.079 176.268 112.537C179.003 110.793 181.906 109.326 184.932 108.158C187.949 106.963 191.031 105.937 194.162 105.085C195.375 104.749 196.345 104.506 197.033 104.344L197.801 104.142C197.894 104.123 197.985 104.091 198.07 104.048H197.787L197.006 104.196C196.318 104.331 195.335 104.546 194.122 104.856C190.961 105.654 187.855 106.658 184.824 107.861C181.781 109.029 178.875 110.529 176.16 112.335C175.03 113.1 173.995 113.995 173.074 115.003Z" fill="white"/>
</g>
<defs>
<clipPath id="clip0_6586_60835">
<rect width="277" height="164" fill="white"/>
</clipPath>
<clipPath id="clip1_6586_60835">
<rect width="144" height="120" fill="white" transform="translate(0 32)"/>
</clipPath>
</defs>
</svg>
