<svg width="277" height="164" viewBox="0 0 277 164" fill="none" xmlns="http://www.w3.org/2000/svg">
<g clip-path="url(#clip0_6586_59082)">
<g clip-path="url(#clip1_6586_59082)">
<path d="M155.2 32H4.8C2.14903 32 0 34.149 0 36.8V139.2C0 141.851 2.14903 144 4.8 144H155.2C157.851 144 160 141.851 160 139.2V36.8C160 34.149 157.851 32 155.2 32Z" fill="#263238"/>
<path d="M6.4 72.8C6.4 72.3582 6.04183 72 5.6 72C5.15817 72 4.8 72.3582 4.8 72.8V103.2C4.8 103.642 5.15817 104 5.6 104C6.04183 104 6.4 103.642 6.4 103.2V72.8Z" fill="#455A64"/>
<path d="M156.6 87.9999C156.6 85.4594 154.541 83.3999 152 83.3999C149.459 83.3999 147.4 85.4594 147.4 87.9999C147.4 90.5404 149.459 92.5999 152 92.5999C154.541 92.5999 156.6 90.5404 156.6 87.9999Z" stroke="#455A64"/>
<path d="M144 35.2H118.4V140.8H144V35.2Z" fill="#F7F7F7"/>
<path d="M140 53.5999H122.4C121.958 53.5999 121.6 53.958 121.6 54.3999V57.5999C121.6 58.0417 121.958 58.3999 122.4 58.3999H140C140.442 58.3999 140.8 58.0417 140.8 57.5999V54.3999C140.8 53.958 140.442 53.5999 140 53.5999Z" fill="#6B6B6B"/>
<path d="M130.8 49.5999H122C121.779 49.5999 121.6 49.7789 121.6 49.9999C121.6 50.2208 121.779 50.3999 122 50.3999H130.8C131.021 50.3999 131.2 50.2208 131.2 49.9999C131.2 49.7789 131.021 49.5999 130.8 49.5999Z" fill="#C6C6C6"/>
<path d="M130.8 63.2H122C121.779 63.2 121.6 63.379 121.6 63.6C121.6 63.8209 121.779 64 122 64H130.8C131.021 64 131.2 63.8209 131.2 63.6C131.2 63.379 131.021 63.2 130.8 63.2Z" fill="#C6C6C6"/>
<path d="M130.8 67.2H122C121.779 67.2 121.6 67.379 121.6 67.6C121.6 67.8209 121.779 68 122 68H130.8C131.021 68 131.2 67.8209 131.2 67.6C131.2 67.379 131.021 67.2 130.8 67.2Z" fill="#EBEBEB"/>
<path d="M137.2 69.5999H122C121.779 69.5999 121.6 69.7789 121.6 69.9999C121.6 70.2208 121.779 70.3999 122 70.3999H137.2C137.421 70.3999 137.6 70.2208 137.6 69.9999C137.6 69.7789 137.421 69.5999 137.2 69.5999Z" fill="#EBEBEB"/>
<path d="M130.8 72.3999H122C121.779 72.3999 121.6 72.579 121.6 72.7999C121.6 73.0208 121.779 73.1999 122 73.1999H130.8C131.021 73.1999 131.2 73.0208 131.2 72.7999C131.2 72.579 131.021 72.3999 130.8 72.3999Z" fill="#EBEBEB"/>
<path d="M137.2 74.8H122C121.779 74.8 121.6 74.9791 121.6 75.2C121.6 75.421 121.779 75.6 122 75.6H137.2C137.421 75.6 137.6 75.421 137.6 75.2C137.6 74.9791 137.421 74.8 137.2 74.8Z" fill="#EBEBEB"/>
<path d="M130.8 77.5999H122C121.779 77.5999 121.6 77.7789 121.6 77.9999C121.6 78.2208 121.779 78.3999 122 78.3999H130.8C131.021 78.3999 131.2 78.2208 131.2 77.9999C131.2 77.7789 131.021 77.5999 130.8 77.5999Z" fill="#EBEBEB"/>
<path d="M137.2 80H122C121.779 80 121.6 80.1791 121.6 80.4C121.6 80.6209 121.779 80.8 122 80.8H137.2C137.421 80.8 137.6 80.6209 137.6 80.4C137.6 80.1791 137.421 80 137.2 80Z" fill="#EBEBEB"/>
<path d="M130.8 82.8H122C121.779 82.8 121.6 82.9791 121.6 83.2C121.6 83.421 121.779 83.6 122 83.6H130.8C131.021 83.6 131.2 83.421 131.2 83.2C131.2 82.9791 131.021 82.8 130.8 82.8Z" fill="#EBEBEB"/>
<path d="M137.2 85.2H122C121.779 85.2 121.6 85.379 121.6 85.6C121.6 85.8209 121.779 86 122 86H137.2C137.421 86 137.6 85.8209 137.6 85.6C137.6 85.379 137.421 85.2 137.2 85.2Z" fill="#EBEBEB"/>
<path d="M130.8 88H122C121.779 88 121.6 88.1791 121.6 88.4C121.6 88.6209 121.779 88.8 122 88.8H130.8C131.021 88.8 131.2 88.6209 131.2 88.4C131.2 88.1791 131.021 88 130.8 88Z" fill="#EBEBEB"/>
<path d="M137.2 90.3999H122C121.779 90.3999 121.6 90.579 121.6 90.7999C121.6 91.0208 121.779 91.1999 122 91.1999H137.2C137.421 91.1999 137.6 91.0208 137.6 90.7999C137.6 90.579 137.421 90.3999 137.2 90.3999Z" fill="#EBEBEB"/>
<path d="M118.8 140.8V35.2H118V140.8H118.8Z" fill="#EBEBEB"/>
<path d="M118.4 44.8H11.2V140.8H118.4V44.8Z" fill="#EBEBEB"/>
<path d="M103.2 57.6001H26.4V140.8H103.2V57.6001Z" fill="white"/>
<path d="M70.8 67.2H33.2C32.9791 67.2 32.8 67.379 32.8 67.6C32.8 67.8209 32.9791 68 33.2 68H70.8C71.0209 68 71.2 67.8209 71.2 67.6C71.2 67.379 71.0209 67.2 70.8 67.2Z" fill="#EBEBEB"/>
<path d="M96.4 71.2H33.2C32.9791 71.2 32.8 71.379 32.8 71.6C32.8 71.8209 32.9791 72 33.2 72H96.4C96.6209 72 96.8 71.8209 96.8 71.6C96.8 71.379 96.6209 71.2 96.4 71.2Z" fill="#EBEBEB"/>
<path d="M70.8 75.2H33.2C32.9791 75.2 32.8 75.379 32.8 75.6C32.8 75.8209 32.9791 76 33.2 76H70.8C71.0209 76 71.2 75.8209 71.2 75.6C71.2 75.379 71.0209 75.2 70.8 75.2Z" fill="#EBEBEB"/>
<path d="M96.4 79.2H33.2C32.9791 79.2 32.8 79.379 32.8 79.6C32.8 79.8209 32.9791 80 33.2 80H96.4C96.6209 80 96.8 79.8209 96.8 79.6C96.8 79.379 96.6209 79.2 96.4 79.2Z" fill="#EBEBEB"/>
<path d="M70.8 83.2H33.2C32.9791 83.2 32.8 83.379 32.8 83.6C32.8 83.8209 32.9791 84 33.2 84H70.8C71.0209 84 71.2 83.8209 71.2 83.6C71.2 83.379 71.0209 83.2 70.8 83.2Z" fill="#EBEBEB"/>
<path d="M96.4 87.2H33.2C32.9791 87.2 32.8 87.379 32.8 87.6C32.8 87.8209 32.9791 88 33.2 88H96.4C96.6209 88 96.8 87.8209 96.8 87.6C96.8 87.379 96.6209 87.2 96.4 87.2Z" fill="#EBEBEB"/>
<path d="M70.8 91.2H33.2C32.9791 91.2 32.8 91.379 32.8 91.6C32.8 91.8209 32.9791 92 33.2 92H70.8C71.0209 92 71.2 91.8209 71.2 91.6C71.2 91.379 71.0209 91.2 70.8 91.2Z" fill="#EBEBEB"/>
<path d="M96.4 95.2H33.2C32.9791 95.2 32.8 95.379 32.8 95.6C32.8 95.8209 32.9791 96 33.2 96H96.4C96.6209 96 96.8 95.8209 96.8 95.6C96.8 95.379 96.6209 95.2 96.4 95.2Z" fill="#EBEBEB"/>
<path d="M118.4 44.8H11.2V51.2H118.4V44.8Z" fill="#AFABED"/>
<path d="M39.6 47.6001H14.8C14.5791 47.6001 14.4 47.7792 14.4 48.0001C14.4 48.221 14.5791 48.4001 14.8 48.4001H39.6C39.8209 48.4001 40 48.221 40 48.0001C40 47.7792 39.8209 47.6001 39.6 47.6001Z" fill="white"/>
<path d="M115.2 47.9999C115.2 47.1162 114.484 46.3999 113.6 46.3999C112.716 46.3999 112 47.1162 112 47.9999C112 48.8836 112.716 49.5999 113.6 49.5999C114.484 49.5999 115.2 48.8836 115.2 47.9999Z" fill="#EBEBEB"/>
<path d="M144 35.2H11.2V44.8H144V35.2Z" fill="white"/>
<path d="M17.6 39.9999C17.6 39.1162 16.8837 38.3999 16 38.3999C15.1163 38.3999 14.4 39.1162 14.4 39.9999C14.4 40.8836 15.1163 41.5999 16 41.5999C16.8837 41.5999 17.6 40.8836 17.6 39.9999Z" fill="#EBEBEB"/>
<path d="M71.2 39.2H21.6C21.1582 39.2 20.8 39.5581 20.8 40C20.8 40.4418 21.1582 40.8 21.6 40.8H71.2C71.6418 40.8 72 40.4418 72 40C72 39.5581 71.6418 39.2 71.2 39.2Z" fill="#C6C6C6"/>
</g>
<path d="M252.701 44.8246C253.804 43.1295 254.355 41.1337 254.276 39.1125C254.198 37.0913 253.494 35.1443 252.262 33.5399C251.27 32.3268 249.988 31.3826 248.535 30.7938C248.383 28.3025 247.446 25.9234 245.858 23.9976C243.435 21.286 238.785 20.3976 236.131 22.8437C235.592 21.791 234.847 20.8572 233.941 20.0976C233.034 19.338 231.984 18.7681 230.854 18.4217C229.723 18.0752 228.534 17.9592 227.357 18.0806C226.181 18.202 225.041 18.5583 224.004 19.1283C220.543 15.0206 213.124 15.286 209.916 19.6245C208.861 18.9067 207.619 18.5132 206.343 18.4925C205.067 18.4718 203.812 18.8246 202.734 19.5077C201.656 20.1908 200.802 21.1742 200.276 22.3369C199.75 23.4996 199.575 24.7908 199.774 26.0514C198.533 25.8465 197.261 25.9726 196.085 26.417C194.909 26.8614 193.871 27.6083 193.076 28.5823C192.281 29.5563 191.757 30.7229 191.558 31.9641C191.358 33.2054 191.489 34.4773 191.939 35.6515C190.898 35.7197 189.9 36.0953 189.072 36.7308C188.245 37.3663 187.624 38.2331 187.289 39.2215C186.954 40.2098 186.92 41.2753 187.192 42.283C187.463 43.2906 188.026 44.1953 188.812 44.8823C188.176 45.6848 187.711 46.6089 187.446 47.5978C187.181 48.5867 187.122 49.6194 187.271 50.6323C187.42 51.6452 187.775 52.6168 188.314 53.4873C188.853 54.3578 189.564 55.1087 190.404 55.6939C190.095 57.1944 190.349 58.7562 191.117 60.0817C191.885 61.4073 193.114 62.4041 194.57 62.8824L238.197 75.8517C245.524 75.3324 247.508 70.567 247.808 66.1362C248.723 65.814 249.557 65.2975 250.253 64.6222C250.949 63.9468 251.491 63.1287 251.841 62.2242C252.191 61.3196 252.34 60.35 252.279 59.382C252.219 58.4141 251.949 57.4708 251.489 56.617C252.469 56.0076 253.295 55.1808 253.903 54.2007C254.512 53.2206 254.886 52.1135 254.998 50.9653C255.109 49.8171 254.955 48.6586 254.547 47.5797C254.138 46.5008 253.487 45.5304 252.643 44.7438L252.701 44.8246Z" fill="#263238"/>
<path d="M235.67 34.9936L208.912 29.0974C200.373 28.4513 195.066 39.0898 194.731 47.6398C194.408 57.1476 194.396 68.7553 195.723 75.8053C198.4 89.9285 209.362 91.4054 209.362 91.4054C209.362 91.4054 209.362 91.6131 209.604 95.8362L209.8 102.759C209.833 105.537 210.837 108.215 212.639 110.329C216.85 115.082 223.946 115.267 232.047 111.621C236.743 109.509 236.454 106.844 237.031 100.29L240.839 38.3282C240.266 37.4345 239.509 36.6743 238.617 36.099C237.725 35.5236 236.72 35.1467 235.67 34.9936Z" fill="#886960"/>
<path d="M200.316 60.4244C200.325 60.9019 200.521 61.3567 200.862 61.6912C201.203 62.0256 201.661 62.2129 202.139 62.2129C202.371 62.2269 202.604 62.1937 202.823 62.115C203.042 62.0364 203.243 61.9141 203.414 61.7555C203.584 61.5969 203.721 61.4053 203.815 61.1923C203.909 60.9794 203.959 60.7495 203.962 60.5167C203.953 60.0412 203.758 59.5881 203.42 59.2539C203.081 58.9198 202.626 58.7311 202.15 58.7282C201.918 58.7174 201.686 58.7529 201.468 58.8325C201.249 58.9122 201.049 59.0345 200.878 59.1924C200.707 59.3502 200.57 59.5404 200.473 59.7519C200.377 59.9634 200.323 60.192 200.316 60.4244Z" fill="#263238"/>
<path d="M198.066 54.8859C198.296 55.1167 199.658 54.0551 201.62 54.0089C203.581 53.9628 205.081 54.8974 205.254 54.6436C205.427 54.3897 205.116 54.1128 204.47 53.6743C203.603 53.1109 202.583 52.8288 201.55 52.8666C200.529 52.8923 199.542 53.244 198.735 53.8705C198.146 54.3551 197.95 54.782 198.066 54.8859Z" fill="#263238"/>
<path d="M217.381 59.8708C217.39 60.3463 217.585 60.7995 217.923 61.1336C218.262 61.4677 218.717 61.6564 219.193 61.6593C219.425 61.6701 219.657 61.6346 219.876 61.555C220.094 61.4753 220.294 61.353 220.465 61.1951C220.636 61.0373 220.773 60.8471 220.87 60.6356C220.966 60.4241 221.02 60.1955 221.027 59.9631C221.018 59.4865 220.824 59.0321 220.486 58.6962C220.148 58.3602 219.692 58.169 219.216 58.1631C218.982 58.1507 218.749 58.1854 218.529 58.2652C218.309 58.345 218.107 58.4683 217.936 58.6276C217.765 58.787 217.628 58.9792 217.532 59.1928C217.437 59.4064 217.386 59.6369 217.381 59.8708Z" fill="#263238"/>
<path d="M216.643 54.8861C216.873 55.1169 218.223 54.0553 220.185 54.0092C222.147 53.963 223.647 54.8977 223.831 54.6438C224.016 54.39 223.693 54.113 223.047 53.6746C222.179 53.1125 221.16 52.8306 220.127 52.8669C219.106 52.8925 218.119 53.2443 217.312 53.8707C216.77 54.3553 216.527 54.7823 216.643 54.8861Z" fill="#263238"/>
<path d="M211.093 68.0515C210.048 67.7555 208.97 67.5927 207.885 67.5669C207.377 67.5669 206.904 67.4515 206.812 67.1054C206.753 66.5876 206.853 66.0641 207.1 65.6054C207.539 64.3823 207.989 63.09 208.473 61.7515C210.377 56.2476 211.739 51.7361 211.508 51.6668C211.277 51.5976 209.57 55.9822 207.666 61.4746C207.216 62.8361 206.777 64.1284 206.362 65.363C206.064 65.976 205.99 66.6744 206.154 67.3361C206.233 67.512 206.351 67.6676 206.499 67.7915C206.647 67.9154 206.821 68.0043 207.008 68.0515C207.289 68.1128 207.575 68.1438 207.862 68.1438C208.938 68.2509 210.024 68.2198 211.093 68.0515Z" fill="#263238"/>
<path d="M209.304 91.4055C216.01 91.3176 222.558 89.3638 228.216 85.7632C228.216 85.7632 223.797 95.8594 209.512 94.994L209.304 91.4055Z" fill="#6C544D"/>
<path d="M217.739 71.963C217.471 71.5776 217.111 71.2651 216.692 71.0536C216.273 70.8421 215.808 70.7383 215.339 70.7514C214.677 70.7183 214.019 70.8649 213.434 71.1757C212.849 71.4865 212.359 71.95 212.016 72.5168C211.766 73.0361 211.729 73.6321 211.912 74.1784C212.039 74.4668 211.912 74.3284 212.166 74.513C212.926 75.246 213.852 75.7843 214.866 76.0822C215.41 76.2006 215.978 76.154 216.495 75.9485C217.013 75.743 217.458 75.3878 217.773 74.9284C218.039 74.4781 218.176 73.9636 218.17 73.4408C218.164 72.9181 218.015 72.4069 217.739 71.963Z" fill="#6C544D"/>
<path d="M217.266 69.2978C216.943 69.2978 216.989 71.4209 215.2 72.9786C213.412 74.5363 211.139 74.3517 211.127 74.6517C211.116 74.9517 211.646 75.0555 212.604 75.0555C213.872 75.0586 215.1 74.6085 216.066 73.7863C216.977 73.0054 217.548 71.9004 217.658 70.7055C217.658 69.8055 217.416 69.2863 217.266 69.2978Z" fill="#263238"/>
<path d="M216.354 46.3245C216.527 46.8668 218.501 46.6707 220.797 47.0168C223.093 47.363 224.939 48.0322 225.262 47.5707C225.401 47.3399 225.089 46.8322 224.351 46.2899C223.372 45.6197 222.249 45.1889 221.074 45.0322C219.911 44.8695 218.727 44.9761 217.612 45.3437C216.712 45.6668 216.274 46.0707 216.354 46.3245Z" fill="#263238"/>
<path d="M198.458 47.8825C198.862 48.3094 200.35 47.7671 202.162 47.6402C203.973 47.5133 205.531 47.7556 205.866 47.271C206.004 47.0402 205.739 46.6017 205.046 46.221C204.101 45.7492 203.041 45.5533 201.989 45.6556C200.934 45.7237 199.921 46.0921 199.07 46.7171C198.458 47.2017 198.308 47.6748 198.458 47.8825Z" fill="#263238"/>
<path d="M208.693 27.5281C208.687 27.6318 208.687 27.7358 208.693 27.8396V27.5281Z" fill="#263238"/>
<path d="M237.054 60.3783C237.025 59.9344 237.158 59.4951 237.427 59.1411C237.696 58.787 238.084 58.5421 238.52 58.4513C240.827 57.9552 244.889 57.9552 245.293 63.736C245.858 71.7322 237.712 70.6591 237.677 70.4168C237.643 70.1745 237.239 63.436 237.054 60.3783Z" fill="#886960"/>
<path d="M239.847 67.1748C239.847 67.1748 239.997 67.2555 240.239 67.3479C240.576 67.4845 240.952 67.4845 241.289 67.3479C241.781 66.9827 242.168 66.4933 242.409 65.9297C242.651 65.3661 242.738 64.7485 242.662 64.1401C242.638 63.4505 242.457 62.7755 242.131 62.1671C242.036 61.9191 241.881 61.6985 241.68 61.5253C241.478 61.3521 241.237 61.2317 240.977 61.1748C240.815 61.1443 240.646 61.1713 240.501 61.2513C240.356 61.3313 240.243 61.4592 240.181 61.6132C240.089 61.844 240.181 62.0055 240.112 62.0171C240.043 62.0286 239.927 61.8901 239.974 61.5555C240.007 61.3569 240.104 61.1745 240.251 61.0363C240.457 60.8559 240.727 60.7647 241.001 60.7825C241.335 60.8263 241.654 60.9555 241.924 61.1575C242.195 61.3595 242.409 61.6277 242.547 61.9363C242.941 62.6061 243.163 63.3634 243.193 64.1401C243.193 65.7555 242.535 67.3248 241.393 67.7402C241.184 67.817 240.96 67.8455 240.738 67.8236C240.516 67.8016 240.302 67.7297 240.112 67.6133C239.939 67.4056 239.847 67.2325 239.847 67.1748Z" fill="#6C544D"/>
<path d="M191.916 52.3244C192.663 52.3384 193.403 52.1839 194.083 51.8724C194.762 51.5609 195.362 51.1003 195.839 50.525C196.315 49.9496 196.656 49.2742 196.836 48.549C197.016 47.8237 197.03 47.0673 196.877 46.3359C197.685 46.3527 198.485 46.1805 199.214 45.833C199.943 45.4855 200.581 44.9723 201.077 44.3344C201.572 43.6966 201.912 42.9517 202.068 42.1592C202.225 41.3668 202.193 40.5488 201.977 39.7705C202.848 40.1967 203.803 40.421 204.772 40.4267C205.74 40.4323 206.698 40.2193 207.573 39.8034C208.448 39.3875 209.218 38.7794 209.826 38.0245C210.433 37.2696 210.862 36.3874 211.081 35.4435C211.098 35.7666 211.2 36.0795 211.376 36.3509C211.553 36.6222 211.797 36.8425 212.085 36.9897C212.672 37.2776 213.328 37.3936 213.977 37.3243C215.038 37.2382 216.057 36.8725 216.931 36.2644C217.805 35.6564 218.501 34.8277 218.951 33.8628C219.628 34.9333 220.66 35.7321 221.866 36.12C223.072 36.508 224.376 36.4605 225.551 35.9858C226.404 35.6166 227.224 34.832 227.085 33.9089C227.012 33.5794 226.87 33.269 226.67 32.9974C224.235 29.3166 219.816 27.2281 215.431 26.905C211.01 26.6937 206.593 27.4049 202.462 28.9935C199.951 29.6843 197.63 30.9392 195.677 32.6627C193.704 34.6243 192.689 37.2782 191.731 39.9666C190.976 41.8544 190.4 43.8092 190.012 45.8051C189.633 47.8184 189.845 49.8984 190.623 51.7936H191.177" fill="#263238"/>
<path d="M225.551 33.7132C225.61 35.4342 226.258 37.0827 227.385 38.3844C228.513 39.686 230.052 40.5622 231.747 40.8671C230.867 41.1952 230.144 41.8431 229.721 42.6815C229.299 43.5198 229.208 44.4867 229.467 45.389C229.727 46.2912 230.317 47.0623 231.121 47.5481C231.924 48.0339 232.881 48.1987 233.801 48.0094C233.238 49.1421 232.919 50.3804 232.866 51.644C232.852 52.2748 233.03 52.8949 233.376 53.4223C233.722 53.9498 234.22 54.3597 234.804 54.5979C234.411 55.0112 234.122 55.5132 233.964 56.0615C233.805 56.6098 233.781 57.1883 233.893 57.7479C234.041 58.4071 234.41 58.9957 234.939 59.4156C235.468 59.8355 236.125 60.0614 236.801 60.0556C237.954 60.0556 238.935 58.6018 240.101 58.3825C240.977 58.2269 241.879 58.2806 242.731 58.5393C243.583 58.7979 244.362 59.2542 245.004 59.871L246.47 44.9517L244.67 32.9863L237.678 27.8862L224.224 30.2516L225.551 33.7132Z" fill="#263238"/>
<path d="M247.924 34.1282C247.447 34.1067 246.973 34.0527 246.504 33.9667C245.909 33.8201 245.357 33.5345 244.894 33.1333C244.431 32.7322 244.069 32.2269 243.839 31.659L243.504 30.7705L243.377 31.7167C243.198 32.8767 242.583 33.9247 241.658 34.6474C241.13 35.0608 240.513 35.3441 239.855 35.4744C239.198 35.6047 238.519 35.5783 237.874 35.3975C237.019 35.1805 236.248 34.7146 235.658 34.059L235.393 33.759L235.185 34.0936C234.453 35.2147 233.382 36.072 232.127 36.5398C231.117 36.9104 230.027 37.0099 228.966 36.8282C228.006 36.619 227.084 36.2649 226.231 35.7782C226.231 35.7782 226.393 36.0205 226.831 36.3205C227.458 36.7406 228.159 37.0382 228.897 37.1975C230.021 37.4569 231.196 37.3969 232.289 37.0244C233.68 36.5538 234.874 35.6319 235.681 34.4052H235.208C235.871 35.1575 236.742 35.6957 237.712 35.9513C238.449 36.1531 239.224 36.1768 239.972 36.0203C240.721 35.8638 241.421 35.5317 242.016 35.0513C243.036 34.2292 243.695 33.0407 243.85 31.7397L243.389 31.7974C243.651 32.4298 244.069 32.9857 244.604 33.4133C245.138 33.841 245.772 34.1266 246.447 34.2436C246.939 34.3635 247.456 34.323 247.924 34.1282Z" fill="#455A64"/>
<path d="M226.981 18.4705C228.001 18.9483 228.992 19.4878 229.947 20.0859C230.927 20.7751 231.689 21.7326 232.139 22.8436C232.41 23.4966 232.496 24.2119 232.386 24.9104C232.276 25.609 231.975 26.2634 231.516 26.8013C231.203 27.1607 230.807 27.438 230.362 27.609L230.004 27.736L230.212 28.059C230.504 28.6038 230.657 29.2122 230.657 29.8302C230.657 30.4482 230.504 31.0566 230.212 31.6014C229.738 32.5072 229.068 33.2957 228.25 33.9091C226.843 34.9937 225.862 35.5245 225.943 35.6168C226.023 35.7091 226.22 35.5475 226.67 35.3168C227.322 34.989 227.944 34.6028 228.527 34.1629C229.453 33.5461 230.208 32.7044 230.72 31.7168C231.066 31.0897 231.248 30.385 231.248 29.6687C231.248 28.9523 231.066 28.2476 230.72 27.6206L230.57 28.0706C231.111 27.8668 231.594 27.5341 231.977 27.1013C232.524 26.4801 232.881 25.7142 233.003 24.8956C233.126 24.077 233.01 23.2404 232.67 22.4859C232.169 21.2872 231.31 20.272 230.212 19.5782C229.496 19.1157 228.719 18.7546 227.904 18.5052C227.327 18.4821 226.993 18.4244 226.981 18.4705Z" fill="#455A64"/>
<path d="M191.523 163.325C191.166 163.867 178.289 181.164 178.289 181.164L162.7 166.694L172.681 141.575L178.692 131.34L191.523 163.325Z" fill="#886960"/>
<path d="M261.597 106.221L237.239 96.8518C237.239 96.8518 231.1 107.456 220.277 106.533C209.212 105.586 209.57 97.5095 209.57 97.5095L178.958 106.198C178.958 106.198 176.939 147.587 178.958 154.048C180.977 160.51 186.712 168.933 186.712 168.933C186.712 168.933 180.654 182.998 180.504 186.875C180.354 190.752 182.05 189.783 182.05 189.783L255.897 190.671L261.597 106.221Z" fill="#AFABED"/>
<g opacity="0.3">
<path d="M196.635 148.637C197.581 147.783 199.07 148.348 200.2 148.96C206.558 152.421 212.893 155.883 218.974 159.829C226.6 164.848 233.627 170.698 241.093 175.983C245.493 179.06 250.028 181.948 254.697 184.648L256.278 187.406C254.604 190.141 251.12 191.375 247.924 191.133C244.73 190.713 241.685 189.526 239.051 187.671C226.508 179.733 217.681 166.902 205.15 158.952C202.047 156.991 198.597 155.202 196.716 152.029C196.081 150.967 195.735 149.456 196.635 148.637Z" fill="black"/>
</g>
<path d="M272.685 156.356C272.685 156.356 265.866 175.602 262.843 180.506C259.82 185.41 258.528 191.733 248.847 189.16C239.166 186.587 234.251 180.252 223.693 171.587C213.135 162.921 206.281 156.356 206.281 156.356L213.735 147.333L244.612 161.41L251.974 145.256L272.685 156.356Z" fill="#886960"/>
<path d="M179.304 127.463L200.523 138.713L217.923 149.71C217.923 149.71 209.304 157.348 206.87 157.164C204.435 156.979 201.1 153.61 201.1 153.61C200.967 153.923 200.771 154.206 200.525 154.442C200.279 154.678 199.988 154.862 199.669 154.983C198.608 155.352 197.362 154.106 197.362 154.106C196.624 154.393 195.845 154.56 195.054 154.602C193.993 154.602 192.746 150.54 192.135 147.863C191.913 147.209 191.836 146.513 191.91 145.826C191.984 145.139 192.206 144.476 192.562 143.883L191.731 143.41L190.577 145.452L192.389 151.925C193.346 155.479 189.908 154.994 189.908 154.994C189.908 154.994 186.135 148.429 185.754 144.702C185.373 140.975 189.089 138.587 189.089 138.587C189.089 138.587 181.242 131.836 179.316 130.51C177.389 129.183 179.304 127.463 179.304 127.463Z" fill="#886960"/>
<path d="M247.151 175.544C247.519 174.885 247.754 174.16 247.843 173.41C248.488 169.792 247.693 166.065 245.627 163.025C245.248 162.376 244.737 161.814 244.127 161.375C245.526 163.43 246.553 165.715 247.162 168.125C247.584 170.58 247.58 173.09 247.151 175.544Z" fill="#6C544D"/>
<path d="M260.339 105.736C260.339 105.736 273.989 109.763 276.62 124.198C278.189 132.725 274.393 160.637 274.393 160.637L248.027 150.829L260.339 105.736Z" fill="#AFABED"/>
<path d="M255.908 124.867C255.472 126.134 255.125 127.429 254.87 128.744C254.247 131.317 253.462 134.571 252.562 138.171C251.662 141.771 250.808 145.163 250.139 147.552C249.723 148.821 249.377 150.111 249.1 151.417C249.298 151.117 249.453 150.791 249.562 150.448C249.827 149.802 250.162 148.844 250.554 147.667C251.327 145.302 252.239 141.99 253.139 138.31C254.039 134.629 254.754 131.271 255.239 128.836C255.57 127.534 255.793 126.206 255.908 124.867Z" fill="#263238"/>
<path d="M178.519 180.852C178.519 180.852 177.562 175.083 174.723 171.748C172.239 169.125 169.537 166.716 166.646 164.548H165.192L161.362 155.952L150.596 155.433C150.596 155.433 152.904 176.41 158.073 182.791C163.242 189.172 168.527 188.837 170.766 188.191C173.004 187.545 178.519 180.852 178.519 180.852Z" fill="#886960"/>
<path d="M197.073 99.8403L205.577 141.76C205.685 142.301 205.671 142.859 205.537 143.395C205.403 143.93 205.152 144.429 204.802 144.856C204.453 145.283 204.013 145.627 203.514 145.863C203.016 146.1 202.471 146.224 201.92 146.225H143.465C142.619 146.222 141.798 145.932 141.137 145.401C140.477 144.871 140.016 144.132 139.831 143.306L130.438 101.386C130.318 100.842 130.32 100.277 130.447 99.7341C130.573 99.1909 130.82 98.683 131.169 98.2479C131.518 97.8127 131.96 97.4613 132.462 97.2197C132.965 96.9781 133.515 96.8524 134.073 96.8518H193.427C194.287 96.849 195.122 97.1457 195.787 97.6911C196.452 98.2364 196.907 98.9963 197.073 99.8403Z" fill="#455A64"/>
<path d="M197.073 99.8403C197.06 99.6428 197.017 99.4483 196.946 99.2634C196.754 98.7119 196.434 98.2137 196.012 97.8096C195.313 97.1462 194.39 96.7711 193.427 96.7595H189.619L165.296 96.6557H148.508H134.258C133.369 96.6195 132.493 96.8767 131.766 97.3876C131.038 97.8985 130.498 98.6347 130.231 99.4826C130.024 100.365 130.064 101.287 130.346 102.148C130.531 102.979 130.715 103.821 130.911 104.675C131.281 106.371 131.673 108.137 132.065 109.821C132.838 113.283 133.635 116.825 134.431 120.425L139.427 142.741C139.51 143.246 139.658 143.738 139.865 144.206C140.089 144.687 140.411 145.116 140.812 145.464C141.599 146.167 142.629 146.539 143.685 146.502H181.992H201.262C202.049 146.569 202.84 146.446 203.57 146.144C204.288 145.818 204.891 145.284 205.3 144.61C205.715 143.956 205.92 143.191 205.889 142.417C205.806 141.703 205.683 140.994 205.52 140.294L203.893 132.402C201.827 122.364 200.143 114.229 198.977 108.587C198.389 105.794 197.927 103.625 197.604 102.113C197.443 101.398 197.327 100.844 197.235 100.44C197.198 100.249 197.147 100.06 197.085 99.8749C197.085 99.8749 197.085 100.071 197.177 100.452C197.269 100.833 197.35 101.421 197.489 102.137C197.777 103.648 198.204 105.829 198.746 108.633C199.9 114.287 201.481 122.479 203.477 132.483C203.985 134.998 204.516 137.641 205.058 140.387C205.219 141.059 205.338 141.742 205.416 142.429C205.437 143.114 205.254 143.791 204.891 144.372C204.527 144.953 203.999 145.414 203.373 145.694C202.71 145.97 201.988 146.077 201.273 146.006H182.004H160.704H143.673C142.761 146.048 141.87 145.729 141.192 145.117C140.858 144.821 140.587 144.46 140.396 144.056C140.218 143.625 140.086 143.176 140.004 142.717C138.285 135.079 136.612 127.614 134.996 120.402C134.188 116.802 133.392 113.26 132.619 109.798C132.227 108.067 131.835 106.337 131.465 104.652C131.281 103.81 131.085 102.967 130.9 102.125C130.633 101.356 130.593 100.527 130.785 99.7365C130.992 98.9856 131.446 98.3265 132.074 97.8659C132.702 97.4053 133.468 97.17 134.246 97.198H139.138H148.496H165.285L189.608 97.1057H193.416C194.341 97.0966 195.236 97.4388 195.919 98.0634C196.458 98.5398 196.857 99.1542 197.073 99.8403Z" fill="#455A64"/>
<path d="M162.273 118.948C162.273 118.948 155.223 130.948 154.496 132.54C153.769 134.133 151.658 136.579 151.519 138.09C151.381 139.602 149.696 148.244 149.846 151.371C150.104 153.785 150.735 156.143 151.715 158.364L161.408 155.952C162.926 154.561 164.154 152.882 165.019 151.014C165.761 149.021 167.054 147.281 168.746 145.994C169.981 145.048 174.85 141.99 175.427 140.883C175.641 140.525 175.753 140.116 175.753 139.7C175.753 139.284 175.641 138.875 175.427 138.517C175.427 138.517 177.735 137.433 178.058 136.21C178.381 134.987 178.058 133.083 175.508 134.248C172.958 135.413 163.589 142.106 162.642 141.379C161.696 140.652 162.862 138.887 162.862 138.887C162.862 138.887 172.819 129.817 173.327 128.213C173.835 126.61 172.381 124.36 170.062 126.321C167.742 128.283 160.092 135.99 159.296 135.99C158.5 135.99 159.366 133.74 159.366 133.74C159.366 133.74 163.289 125.306 163.981 123.056C164.673 120.806 164.235 117.783 162.273 118.948Z" fill="#886960"/>
<path d="M130.288 99.3208H131.119L134.338 99.3785L146.165 99.4708L185.166 99.5632H190.808C191.226 99.5192 191.648 99.5655 192.046 99.6988C192.444 99.8322 192.809 100.05 193.116 100.336C193.413 100.619 193.642 100.966 193.785 101.352C193.9 101.721 193.981 102.217 194.085 102.632C194.881 106.094 195.619 109.556 196.312 112.752C197.673 119.19 198.896 125.006 199.923 129.909C200.95 134.813 201.862 138.725 202.508 141.448C202.831 142.763 203.096 143.756 203.281 144.563L203.5 145.371C203.515 145.468 203.546 145.562 203.593 145.648C203.608 145.552 203.608 145.455 203.593 145.36C203.593 145.14 203.5 144.875 203.431 144.54L202.773 141.39L200.373 129.852C199.381 124.948 198.204 119.121 196.912 112.671C196.243 109.44 195.516 106.048 194.719 102.54C194.604 102.09 194.558 101.686 194.396 101.19C194.229 100.717 193.952 100.29 193.589 99.9439C193.223 99.6017 192.79 99.3405 192.317 99.1775C191.843 99.0144 191.341 98.9532 190.843 98.9978H185.2L146.2 99.0901L134.373 99.1824L131.154 99.2401H130.323C130.288 99.3208 130.391 99.2761 130.288 99.3208Z" fill="#263238"/>
<path d="M177.112 173.225C177.062 172.896 176.961 172.577 176.812 172.279C176.446 171.464 175.993 170.69 175.462 169.971C173.685 167.533 171.135 165.767 168.227 164.964C167.363 164.736 166.477 164.601 165.585 164.56L165.816 164.698C164.5 162.298 163.508 160.014 162.7 158.467C162.316 157.613 161.885 156.781 161.408 155.975C161.612 156.896 161.93 157.787 162.354 158.629C163.058 160.244 163.969 162.483 165.319 165.021L165.389 165.137H165.562C166.411 165.185 167.253 165.317 168.077 165.529C170.86 166.319 173.325 167.962 175.127 170.225C176.512 171.944 177.008 173.329 177.112 173.225Z" fill="#6C544D"/>
<path d="M164.569 144.99C166.514 144.166 168.373 143.154 170.119 141.967C171.975 140.962 173.725 139.775 175.346 138.425C173.408 139.258 171.553 140.274 169.808 141.459C167.957 142.473 166.204 143.655 164.569 144.99Z" fill="#6C544D"/>
<path d="M161.385 109.44C161.539 109.779 161.788 110.065 162.102 110.265C162.415 110.465 162.78 110.57 163.152 110.568C163.524 110.565 163.887 110.455 164.198 110.25C164.508 110.046 164.753 109.755 164.903 109.415C165.052 109.074 165.1 108.698 165.04 108.33C164.98 107.963 164.815 107.621 164.565 107.346C164.315 107.07 163.991 106.873 163.631 106.778C163.272 106.683 162.892 106.694 162.539 106.809C162.041 107.01 161.641 107.398 161.425 107.89C161.21 108.381 161.195 108.938 161.385 109.44Z" fill="#E0E0E0"/>
<path d="M247.924 63.5285C248.211 63.1906 248.427 62.7982 248.558 62.3747C248.972 61.2132 249.067 59.9624 248.835 58.7516C248.663 57.8462 248.308 56.9857 247.79 56.2235C247.271 55.4613 246.602 54.8137 245.824 54.3208C244.901 53.7291 243.855 53.358 242.766 53.2362C242.177 53.1529 241.578 53.1843 241.001 53.3285C240.667 53.4035 240.362 53.5694 240.117 53.8077C239.873 54.046 239.699 54.3475 239.616 54.6785C239.579 54.8567 239.579 55.0404 239.615 55.2188C239.65 55.3971 239.721 55.5665 239.824 55.717C240.015 55.9948 240.273 56.2208 240.574 56.3747C241.131 56.6511 241.762 56.7401 242.374 56.6285C242.908 56.5363 243.413 56.3155 243.843 55.985C244.274 55.6545 244.617 55.2243 244.844 54.7314C245.071 54.2386 245.175 53.6979 245.147 53.156C245.118 52.6141 244.959 52.0872 244.681 51.6208C244.28 50.8501 243.635 50.2336 242.847 49.8669C242.26 49.6504 241.633 49.564 241.009 49.6138C240.386 49.6636 239.78 49.8484 239.235 50.1554C238.828 50.3514 238.478 50.6495 238.22 51.0208C238.22 51.0208 238.589 50.7208 239.374 50.3631C239.892 50.1155 240.456 49.9785 241.03 49.9606C241.604 49.9427 242.176 50.0444 242.708 50.2592C243.417 50.5864 243.994 51.1434 244.347 51.84C244.551 52.2261 244.67 52.6514 244.695 53.0872C244.721 53.5231 244.654 53.9595 244.497 54.367C244.296 54.7997 243.994 55.1778 243.617 55.469C243.239 55.7603 242.797 55.9562 242.327 56.0401C241.841 56.1259 241.339 56.0531 240.897 55.8324C240.69 55.7509 240.515 55.6045 240.398 55.4151C240.282 55.2258 240.23 55.0037 240.251 54.7823C240.315 54.5604 240.438 54.3598 240.606 54.2015C240.775 54.0432 240.983 53.933 241.208 53.8823C241.716 53.7724 242.239 53.749 242.754 53.8131C243.755 53.9234 244.717 54.2587 245.57 54.7939C246.301 55.2378 246.935 55.8257 247.433 56.5218C247.931 57.218 248.282 58.008 248.466 58.8439C248.717 59.9876 248.689 61.1748 248.385 62.3055C248.108 63.0901 247.924 63.5055 247.924 63.5285Z" fill="#263238"/>
</g>
<defs>
<clipPath id="clip0_6586_59082">
<rect width="277" height="164" fill="white"/>
</clipPath>
<clipPath id="clip1_6586_59082">
<rect width="160" height="112" fill="white" transform="translate(0 32)"/>
</clipPath>
</defs>
</svg>
