<svg width="256" height="128" viewBox="0 0 256 128" fill="none" xmlns="http://www.w3.org/2000/svg">
<path d="M208 17.5V32C208 36.4183 211.582 40 216 40H230.5" stroke="#372CD1" stroke-width="2" stroke-linecap="round" stroke-linejoin="round"/>
<mask id="path-2-inside-1_7033_61677" fill="white">
<path fill-rule="evenodd" clip-rule="evenodd" d="M172 16C165.373 16 160 21.3726 160 28V94C160 100.627 165.373 106 172 106H220C226.627 106 232 100.627 232 94V40L208 16L172 16Z"/>
</mask>
<path fill-rule="evenodd" clip-rule="evenodd" d="M172 16C165.373 16 160 21.3726 160 28V94C160 100.627 165.373 106 172 106H220C226.627 106 232 100.627 232 94V40L208 16L172 16Z" fill="white"/>
<path d="M172 16V18V16ZM232 40H234V39.1716L233.414 38.5858L232 40ZM208 16L209.414 14.5858L208.828 14H208V16ZM162 28C162 22.4772 166.477 18 172 18V14C164.268 14 158 20.268 158 28H162ZM162 94V28H158V94H162ZM172 104C166.477 104 162 99.5229 162 94H158C158 101.732 164.268 108 172 108V104ZM220 104H172V108H220V104ZM230 94C230 99.5229 225.523 104 220 104V108C227.732 108 234 101.732 234 94H230ZM230 40V94H234V40H230ZM233.414 38.5858L209.414 14.5858L206.586 17.4142L230.586 41.4142L233.414 38.5858ZM172 18L208 18V14L172 14V18Z" fill="#372CD1" mask="url(#path-2-inside-1_7033_61677)"/>
<mask id="path-4-inside-2_7033_61677" fill="white">
<path fill-rule="evenodd" clip-rule="evenodd" d="M36 16C29.3726 16 24 21.3726 24 28V94C24 100.627 29.3726 106 36 106H84C90.6274 106 96 100.627 96 94V40L72 16L36 16Z"/>
</mask>
<path fill-rule="evenodd" clip-rule="evenodd" d="M36 16C29.3726 16 24 21.3726 24 28V94C24 100.627 29.3726 106 36 106H84C90.6274 106 96 100.627 96 94V40L72 16L36 16Z" fill="white"/>
<path d="M36 16V18V16ZM96 40H98V39.1716L97.4142 38.5858L96 40ZM72 16L73.4142 14.5858L72.8284 14H72V16ZM26 28C26 22.4772 30.4772 18 36 18V14C28.268 14 22 20.268 22 28H26ZM26 94V28H22V94H26ZM36 104C30.4772 104 26 99.5229 26 94H22C22 101.732 28.268 108 36 108V104ZM84 104H36V108H84V104ZM94 94C94 99.5229 89.5229 104 84 104V108C91.732 108 98 101.732 98 94H94ZM94 40V94H98V40H94ZM97.4142 38.5858L73.4142 14.5858L70.5858 17.4142L94.5858 41.4142L97.4142 38.5858ZM36 18L72 18V14L36 14V18Z" fill="#0199CC" mask="url(#path-4-inside-2_7033_61677)"/>
<path d="M72 17.5V32C72 36.4183 75.5817 40 80 40H94.5" stroke="#0199CC" stroke-width="2" stroke-linecap="round" stroke-linejoin="round"/>
<path d="M208 17.5V32C208 36.4183 211.582 40 216 40H230.5" stroke="#372CD1" stroke-width="2" stroke-linecap="round" stroke-linejoin="round"/>
<line x1="44" y1="56" x2="76" y2="56" stroke="#C6C6C6" stroke-width="2"/>
<line x1="44" y1="48" x2="76" y2="48" stroke="#C6C6C6" stroke-width="2"/>
<line x1="44" y1="72" x2="76" y2="72" stroke="#C6C6C6" stroke-width="2"/>
<line x1="44" y1="64" x2="76" y2="64" stroke="#C6C6C6" stroke-width="2"/>
<line x1="180" y1="56" x2="212" y2="56" stroke="#C6C6C6" stroke-width="2"/>
<line x1="180" y1="48" x2="212" y2="48" stroke="#C6C6C6" stroke-width="2"/>
<line x1="180" y1="72" x2="212" y2="72" stroke="#C6C6C6" stroke-width="2"/>
<line x1="180" y1="64" x2="212" y2="64" stroke="#C6C6C6" stroke-width="2"/>
<path d="M104 40L152 40" stroke="#C6C6C6" stroke-width="2" stroke-linecap="round"/>
<path d="M148 44L152 40L148 36" stroke="#C6C6C6" stroke-width="2"/>
<path d="M108 36L104 40L108 44" stroke="#C6C6C6" stroke-width="2"/>
<path d="M104 64L152 64" stroke="#C6C6C6" stroke-width="2" stroke-linecap="round"/>
<path d="M148 68L152 64L148 60" stroke="#C6C6C6" stroke-width="2"/>
<path d="M108 60L104 64L108 68" stroke="#C6C6C6" stroke-width="2"/>
<path d="M104 88L152 88" stroke="#C6C6C6" stroke-width="2" stroke-linecap="round"/>
<path d="M148 92L152 88L148 84" stroke="#C6C6C6" stroke-width="2"/>
<path d="M108 84L104 88L108 92" stroke="#C6C6C6" stroke-width="2"/>
<circle cx="128" cy="40" r="6" fill="white"/>
<path fill-rule="evenodd" clip-rule="evenodd" d="M128 33.3333C124.318 33.3333 121.333 36.3181 121.333 40C121.333 43.6819 124.318 46.6666 128 46.6666C131.682 46.6666 134.667 43.6819 134.667 40C134.667 36.3181 131.682 33.3333 128 33.3333ZM126.334 42.9428L131.472 37.8047L130.529 36.8619L126.334 41.0571L125.138 39.8619L124.195 40.8047L126.334 42.9428Z" fill="#008649"/>
<circle cx="128" cy="64" r="6" fill="white"/>
<path fill-rule="evenodd" clip-rule="evenodd" d="M128 57.3333C124.318 57.3333 121.333 60.3181 121.333 64C121.333 67.6819 124.318 70.6666 128 70.6666C131.682 70.6666 134.667 67.6819 134.667 64C134.667 60.3181 131.682 57.3333 128 57.3333ZM126.334 66.9428L131.472 61.8047L130.529 60.8619L126.334 65.0571L125.138 63.8619L124.195 64.8047L126.334 66.9428Z" fill="#008649"/>
<circle cx="128" cy="88" r="6" fill="white"/>
<path fill-rule="evenodd" clip-rule="evenodd" d="M128 81.3333C124.318 81.3333 121.333 84.3181 121.333 88C121.333 91.6819 124.318 94.6666 128 94.6666C131.682 94.6666 134.667 91.6819 134.667 88C134.667 84.3181 131.682 81.3333 128 81.3333ZM126.334 90.9428L131.472 85.8047L130.529 84.8619L126.334 89.0571L125.138 87.8619L124.195 88.8047L126.334 90.9428Z" fill="#008649"/>
</svg>
