<svg width="277" height="164" viewBox="0 0 277 164" fill="none" xmlns="http://www.w3.org/2000/svg">
<g clip-path="url(#clip0_6586_60058)">
<g clip-path="url(#clip1_6586_60058)">
<path d="M108.308 32H19.6923C8.81655 32 0 40.8165 0 51.6923V268.308C0 279.183 8.81655 288 19.6923 288H108.308C119.183 288 128 279.183 128 268.308V51.6923C128 40.8165 119.183 32 108.308 32Z" fill="#455A64"/>
<path d="M108.308 36.9231H19.6923C10.176 36.9231 2.46154 44.6376 2.46154 54.1539V265.846C2.46154 275.362 10.176 283.077 19.6923 283.077H108.308C117.824 283.077 125.538 275.362 125.538 265.846V54.1539C125.538 44.6376 117.824 36.9231 108.308 36.9231Z" fill="#263238"/>
<path d="M73.8461 41.8462H56.6154C55.9356 41.8462 55.3846 42.3972 55.3846 43.077C55.3846 43.7567 55.9356 44.3077 56.6154 44.3077H73.8461C74.5259 44.3077 75.0769 43.7567 75.0769 43.077C75.0769 42.3972 74.5259 41.8462 73.8461 41.8462Z" fill="#455A64"/>
<path d="M78.7692 43.077C78.7692 42.3972 78.2182 41.8462 77.5385 41.8462C76.8587 41.8462 76.3077 42.3972 76.3077 43.077C76.3077 43.7567 76.8587 44.3077 77.5385 44.3077C78.2182 44.3077 78.7692 43.7567 78.7692 43.077Z" fill="#455A64"/>
<path d="M78.7692 43.077C78.7692 42.3972 78.2182 41.8462 77.5385 41.8462C76.8587 41.8462 76.3077 42.3972 76.3077 43.077C76.3077 43.7567 76.8587 44.3077 77.5385 44.3077C78.2182 44.3077 78.7692 43.7567 78.7692 43.077Z" fill="#455A64"/>
<path d="M54.1538 43.077C54.1538 42.3972 53.6028 41.8462 52.9231 41.8462C52.2433 41.8462 51.6923 42.3972 51.6923 43.077C51.6923 43.7567 52.2433 44.3077 52.9231 44.3077C53.6028 44.3077 54.1538 43.7567 54.1538 43.077Z" fill="#455A64"/>
<path d="M54.1538 43.077C54.1538 42.3972 53.6028 41.8462 52.9231 41.8462C52.2433 41.8462 51.6923 42.3972 51.6923 43.077C51.6923 43.7567 52.2433 44.3077 52.9231 44.3077C53.6028 44.3077 54.1538 43.7567 54.1538 43.077Z" fill="#455A64"/>
<mask id="mask0_6586_60058" style="mask-type:alpha" maskUnits="userSpaceOnUse" x="4" y="39" width="120" height="242">
<path d="M35.5217 39.3845H19.6923C11.5355 39.3845 4.92308 45.997 4.92308 54.1538V265.767C4.92308 273.954 11.5834 280.58 19.7708 280.537L108.386 280.065C116.512 280.022 123.077 273.423 123.077 265.296V54.1538C123.077 45.997 116.464 39.3845 108.308 39.3845H92.4783C90.2105 39.3845 88.2359 40.9338 87.6965 43.1365L87.0727 45.6837C86.5333 47.8866 84.5588 49.4358 82.2909 49.4358H45.709C43.4412 49.4358 41.4667 47.8866 40.9273 45.6837L40.3035 43.1366C39.7641 40.9338 37.7895 39.3845 35.5217 39.3845Z" fill="white"/>
</mask>
<g mask="url(#mask0_6586_60058)">
<path d="M123.077 39.3845H4.92308V49.2307H123.077V39.3845Z" fill="#EBEBEB"/>
<path d="M123.077 39.3845H4.92308V280.615H123.077V39.3845Z" fill="white"/>
<path d="M123.077 137.846H4.92308V206.769H123.077V137.846Z" fill="#EBEBEB"/>
<path d="M103.385 151.385H30.7692C30.0895 151.385 29.5385 151.936 29.5385 152.615C29.5385 153.295 30.0895 153.846 30.7692 153.846H103.385C104.064 153.846 104.615 153.295 104.615 152.615C104.615 151.936 104.064 151.385 103.385 151.385Z" fill="white"/>
<path d="M114.462 152.615C114.462 151.256 113.359 150.154 112 150.154C110.641 150.154 109.538 151.256 109.538 152.615C109.538 153.975 110.641 155.077 112 155.077C113.359 155.077 114.462 153.975 114.462 152.615Z" fill="#AFABED"/>
<path d="M24.6154 152.615C24.6154 149.896 22.4112 147.692 19.6923 147.692C16.9734 147.692 14.7692 149.896 14.7692 152.615C14.7692 155.334 16.9734 157.538 19.6923 157.538C22.4112 157.538 24.6154 155.334 24.6154 152.615Z" fill="#C6C6C6"/>
<path d="M19.024 154.484C18.7138 154.793 18.4692 155.077 18.4692 155.077L16.6154 153.192L17.177 152.628L18.4622 153.92L22.2076 150.154L22.7692 150.718L19.0238 154.484H19.024Z" fill="white"/>
<path d="M36.5132 109.128V118.974C36.5132 120.787 37.9826 122.256 39.7953 122.256H49.6415" stroke="#AFABED" stroke-width="2"/>
<path d="M80.8209 122.256H90.6671C92.4796 122.256 93.9492 120.787 93.9492 118.974V109.128" stroke="#AFABED" stroke-width="2"/>
<path d="M93.9492 77.9486V68.1024C93.9492 66.2897 92.4796 64.8203 90.6671 64.8203H80.8209" stroke="#AFABED" stroke-width="2"/>
<path d="M49.6415 64.8203H39.7953C37.9826 64.8203 36.5132 66.2897 36.5132 68.1024V77.9486" stroke="#AFABED" stroke-width="2"/>
<path d="M42.256 111.676H44.6743V116.513H42.256V111.676Z" fill="#455A64"/>
<path d="M42.256 97.166H44.6743V102.003H42.256V97.166Z" fill="#455A64"/>
<path d="M42.256 92.3293H44.6743V94.7477H42.256V92.3293Z" fill="#455A64"/>
<path d="M42.256 85.074H44.6743V87.4923H42.256V85.074Z" fill="#455A64"/>
<path d="M42.256 70.5642H43.8682V82.6559H42.256V70.5642Z" fill="#455A64"/>
<path d="M42.256 70.5642H54.3477V72.1764H42.256V70.5642Z" fill="#455A64"/>
<path d="M52.7356 70.5642H54.3478V82.6559H52.7356V70.5642Z" fill="#455A64"/>
<path d="M54.3477 81.0437H42.256V82.656H54.3477V81.0437Z" fill="#455A64"/>
<path d="M78.5312 85.074H80.9497V87.4923H78.5312V85.074Z" fill="#455A64"/>
<path d="M71.2764 82.6555H73.6948V85.0739H71.2764V82.6555Z" fill="#455A64"/>
<path d="M66.4399 85.074H68.8583V87.4923H66.4399V85.074Z" fill="#455A64"/>
<path d="M66.4399 89.9111H71.2766V92.3296H66.4399V89.9111Z" fill="#455A64"/>
<path d="M78.5312 92.3293H80.9497V94.7477H78.5312V92.3293Z" fill="#455A64"/>
<path d="M76.113 94.7476H78.5313V97.166H76.113V94.7476Z" fill="#455A64"/>
<path d="M71.2764 94.7476H73.6948V97.166H71.2764V94.7476Z" fill="#455A64"/>
<path d="M68.8582 97.166H71.2764V99.5842H68.8582V97.166Z" fill="#455A64"/>
<path d="M76.113 87.4929H78.5313V92.3296H76.113V87.4929Z" fill="#455A64"/>
<path d="M76.1131 87.4929H73.6948V89.9113H76.1131V87.4929Z" fill="#455A64"/>
<path d="M85.7872 99.5842H88.2057V102.003H85.7872V99.5842Z" fill="#455A64"/>
<path d="M78.5312 97.166H85.7863V99.5842H78.5312V97.166Z" fill="#455A64"/>
<path d="M83.369 85.074H85.7873V89.9106H83.369V85.074Z" fill="#455A64"/>
<path d="M85.7872 92.3293H88.2057V97.166H85.7872V92.3293Z" fill="#455A64"/>
<path d="M66.4399 70.5642H68.8583V72.9825H66.4399V70.5642Z" fill="#455A64"/>
<path d="M61.6033 75.4009H64.0218V77.8192H61.6033V75.4009Z" fill="#455A64"/>
<path d="M59.1851 77.8191H61.6034V80.2376H59.1851V77.8191Z" fill="#455A64"/>
<path d="M61.6033 80.2373H66.4401V82.6555H61.6033V80.2373Z" fill="#455A64"/>
<path d="M54.3485 85.074H61.6036V87.4923H54.3485V85.074Z" fill="#455A64"/>
<path d="M59.1851 89.9111H64.0218V92.3296H59.1851V89.9111Z" fill="#455A64"/>
<path d="M66.44 85.074H64.0217V92.329H66.44V85.074Z" fill="#455A64"/>
<path d="M64.0217 77.8191H68.8583V80.2376H64.0217V77.8191Z" fill="#455A64"/>
<path d="M68.8582 72.9824H71.2764V75.4008H68.8582V72.9824Z" fill="#455A64"/>
<path d="M66.4399 75.4009H73.695V77.8192H66.4399V75.4009Z" fill="#455A64"/>
<path d="M71.2764 70.5642H73.6948V72.9825H71.2764V70.5642Z" fill="#455A64"/>
<path d="M47.0926 85.074H51.9294V87.4923H47.0926V85.074Z" fill="#455A64"/>
<path d="M59.1851 70.5642H64.0218V72.9825H59.1851V70.5642Z" fill="#455A64"/>
<path d="M56.7668 72.9824H61.6034V75.4008H56.7668V72.9824Z" fill="#455A64"/>
<path d="M47.0926 111.676H49.5109V116.513H47.0926V111.676Z" fill="#455A64"/>
<path d="M49.512 109.258H51.9303V114.094H49.512V109.258Z" fill="#455A64"/>
<path d="M47.0926 106.84H49.5109V109.258H47.0926V106.84Z" fill="#455A64"/>
<path d="M47.0926 102.003H49.5109V104.421H47.0926V102.003Z" fill="#455A64"/>
<path d="M59.1851 102.003H64.0218V104.421H59.1851V102.003Z" fill="#455A64"/>
<path d="M61.6033 106.84H64.0218V104.421H61.6033V106.84Z" fill="#455A64"/>
<path d="M49.512 97.166H51.9303V99.5842H49.512V97.166Z" fill="#455A64"/>
<path d="M54.3485 97.166H56.7669V99.5842H54.3485V97.166Z" fill="#455A64"/>
<path d="M56.7668 82.6555H59.1852V97.1657H56.7668V82.6555Z" fill="#455A64"/>
<path d="M68.8582 80.2373H71.2764V87.4923H68.8582V80.2373Z" fill="#455A64"/>
<path d="M56.7668 111.676H59.1852V114.094H56.7668V111.676Z" fill="#455A64"/>
<path d="M68.8582 111.676H73.6949V114.094H68.8582V111.676Z" fill="#455A64"/>
<path d="M68.8582 102.003H73.6949V104.421H68.8582V102.003Z" fill="#455A64"/>
<path d="M71.2764 99.5842H78.5314V102.003H71.2764V99.5842Z" fill="#455A64"/>
<path d="M61.6033 97.166H66.4401V99.5842H61.6033V97.166Z" fill="#455A64"/>
<path d="M64.0217 94.7476H68.8583V97.166H64.0217V94.7476Z" fill="#455A64"/>
<path d="M68.8582 111.676H71.2764V109.258H68.8582V111.676Z" fill="#455A64"/>
<path d="M66.4399 106.84H68.8583V104.421H66.4399V106.84Z" fill="#455A64"/>
<path d="M59.1851 109.258H66.4401V111.676H59.1851V109.258Z" fill="#455A64"/>
<path d="M64.0217 106.84H73.695V109.258H64.0217V106.84Z" fill="#455A64"/>
<path d="M46.2873 74.595H50.3179V78.6256H46.2873V74.595Z" fill="#455A64"/>
<path d="M76.113 70.5642H77.7252V82.6559H76.113V70.5642Z" fill="#455A64"/>
<path d="M76.113 70.5642H88.2047V72.1764H76.113V70.5642Z" fill="#455A64"/>
<path d="M86.5925 70.5642H88.2048V82.6559H86.5925V70.5642Z" fill="#455A64"/>
<path d="M88.2047 81.0437H76.113V82.656H88.2047V81.0437Z" fill="#455A64"/>
<path d="M80.1443 74.595H84.1749V78.6256H80.1443V74.595Z" fill="#455A64"/>
<path d="M76.113 104.421H77.7252V116.513H76.113V104.421Z" fill="#455A64"/>
<path d="M76.113 104.421H88.2047V106.034H76.113V104.421Z" fill="#455A64"/>
<path d="M49.512 99.5842H59.1855V101.196H49.512V99.5842Z" fill="#455A64"/>
<path d="M49.512 107.646H59.1855V109.258H49.512V107.646Z" fill="#455A64"/>
<path d="M49.512 109.258V99.5842H51.1242V109.258H49.512Z" fill="#455A64"/>
<path d="M57.5721 109.258V99.5842H59.1844V109.258H57.5721Z" fill="#455A64"/>
<path d="M44.6743 87.4929H54.3477V89.1051H44.6743V87.4929Z" fill="#455A64"/>
<path d="M44.6743 95.5535H54.3477V97.1658H44.6743V95.5535Z" fill="#455A64"/>
<path d="M44.6743 97.1664V87.4929H46.2865V97.1664H44.6743Z" fill="#455A64"/>
<path d="M52.7356 97.1664V87.4929H54.3478V97.1664H52.7356Z" fill="#455A64"/>
<path d="M86.5925 104.421H88.2048V116.513H86.5925V104.421Z" fill="#455A64"/>
<path d="M88.2047 114.901H76.113V116.513H88.2047V114.901Z" fill="#455A64"/>
<path d="M80.1443 108.451H84.1749V112.482H80.1443V108.451Z" fill="#455A64"/>
</g>
</g>
<path d="M194.232 39.5618C194.232 39.5618 188.938 62.2966 188.938 78.2545V83.5738C188.938 83.5738 202.607 94.1869 213.783 94.5065L222.376 71.209L194.232 39.5618Z" fill="#263238"/>
<path d="M155.36 133.238L175.218 147.457L174.707 152.776L168.978 163.786C168.978 163.786 166.421 166.023 159.49 158.454C152.56 150.884 143.98 136 143.98 136L155.36 133.238Z" fill="#C8A992"/>
<path d="M117.269 99.8644C117.41 99.5718 117.624 99.3204 117.89 99.1345C118.157 98.9486 118.467 98.8345 118.79 98.8031L130.004 97.6907C130.492 97.6476 130.984 97.7085 131.447 97.8694C131.91 98.0303 132.333 98.2875 132.689 98.6241L163.557 127.867L162.048 129.248L149.952 131.806L117 100.376L117.269 99.8644Z" fill="#263238"/>
<path d="M126.027 102.525C125.897 102.646 125.726 102.713 125.548 102.713C125.37 102.713 125.199 102.646 125.068 102.525C125.001 102.435 124.96 102.329 124.95 102.218C124.939 102.106 124.96 101.995 125.01 101.894C125.06 101.794 125.136 101.71 125.232 101.651C125.327 101.592 125.436 101.561 125.548 101.561C125.66 101.561 125.769 101.592 125.864 101.651C125.959 101.71 126.036 101.794 126.086 101.894C126.136 101.995 126.157 102.106 126.146 102.218C126.136 102.329 126.095 102.435 126.027 102.525Z" fill="white"/>
<path d="M117 100.376C117.734 100.409 118.47 100.379 119.199 100.287L125.171 99.8008L129.288 99.43C129.629 99.378 129.978 99.4038 130.308 99.5057C130.638 99.6076 130.941 99.7828 131.193 100.018L132.958 101.693L140.847 109.186C146.486 114.493 151.524 119.262 155.36 122.676L159.785 126.704C160.306 127.224 160.871 127.699 161.472 128.124C161.01 127.553 160.506 127.019 159.964 126.525C158.877 125.451 157.406 124.032 155.68 122.331C152.049 118.802 146.998 113.981 141.384 108.675L133.457 101.22C132.856 100.645 132.255 100.095 131.666 99.5451C131.349 99.263 130.975 99.0539 130.568 98.9324C130.162 98.8109 129.733 98.78 129.314 98.8418L125.209 99.3021L119.25 100.005C118.491 100.064 117.738 100.188 117 100.376Z" fill="#455A64"/>
<path d="M132.037 109.89C132.037 109.89 132.971 109.48 134.134 111.999C135.298 114.518 138.827 121.705 138.827 121.705L143.251 117.792L149.798 117.101C149.798 117.101 151.486 118.048 150.642 118.981C149.182 120.03 147.608 120.91 145.949 121.602L144.018 126.564L151.524 120.426C151.524 120.426 154.529 120.49 154.082 122.421C153.634 124.351 149.235 131.128 149.235 131.128L153.417 129.85L157.726 125.566C157.726 125.566 159.299 125.259 159.005 126.717C158.71 128.175 154.631 134.21 154.631 134.21L149.005 138.839C149.005 138.839 145.463 139.401 144.875 138.455C144.455 137.7 144.117 136.903 143.865 136.077C143.865 136.077 141.896 136.077 141.308 135.207C140.928 134.503 140.698 133.728 140.63 132.931C140.63 132.931 137.855 134.133 137.101 132.599C136.367 130.645 135.956 128.585 135.886 126.5C135.886 125.221 131.577 113.994 131.615 113.623C131.654 113.253 130.042 109.544 132.037 109.89Z" fill="#C8A992"/>
<path d="M144.722 138.455C145.299 138.642 145.915 138.682 146.512 138.57C147.96 138.432 149.369 138.024 150.668 137.368C151.967 136.711 153.13 135.812 154.094 134.721C154.823 133.877 155.117 133.264 155.053 133.212C153.644 134.588 152.067 135.783 150.361 136.767C148.557 137.557 146.663 138.124 144.722 138.455Z" fill="#976558"/>
<path d="M145.681 135.797C145.821 135.924 146.806 135.068 147.778 133.789C148.75 132.51 149.312 131.321 149.159 131.232C149.005 131.142 148.187 132.14 147.241 133.393C146.295 134.646 145.54 135.681 145.681 135.797Z" fill="#976558"/>
<path d="M141.013 131.104C141.141 131.232 142.126 130.388 143.008 129.071C143.89 127.754 144.287 126.513 144.133 126.437C143.98 126.36 143.302 127.421 142.446 128.687C141.589 129.953 140.873 130.976 141.013 131.104Z" fill="#9B8372"/>
<path d="M136.423 127.525C136.933 126.61 137.361 125.651 137.702 124.661C138.205 123.751 138.633 122.802 138.98 121.822C138.84 121.707 137.791 122.743 137.062 124.379C136.509 125.329 136.285 126.435 136.423 127.525Z" fill="#9B8372"/>
<path d="M202.671 98.2655C202.671 98.2655 192.314 96.5904 186.292 101.411C183.607 103.514 181.383 106.146 179.757 109.144C178.132 112.142 177.139 115.442 176.842 118.839C176.088 125.476 171.293 151.075 171.293 151.075L161.933 138.416L151.601 147.482C151.601 147.482 160.322 189.269 168.505 192.082C176.689 194.895 185.575 185.689 187.685 184.052C189.795 182.415 202.671 98.2655 202.671 98.2655Z" fill="#AFABED"/>
<path d="M202.671 98.2668C202.671 98.2668 185.563 117.447 183.99 122.357C182.417 127.267 170.947 136.282 171.203 148.02C171.302 153.376 171.785 158.717 172.648 164.004C173.139 167.011 173.078 170.083 172.469 173.069L167.162 198.643C168.483 200.572 170.22 202.18 172.245 203.348C174.27 204.517 176.531 205.216 178.862 205.394C187.187 206.302 208.425 211.302 222.529 205.394L232.669 200.446V160.807L239.625 144.644L256.542 111.68C256.542 111.68 231.301 100.07 202.671 98.2668Z" fill="#AFABED"/>
<path d="M168.147 193.552C168.169 193.251 168.212 192.952 168.275 192.657L168.735 190.1L170.577 180.765C170.909 178.783 171.561 176.686 171.855 174.372L172.124 172.595C172.124 171.994 172.226 171.38 172.29 170.766C172.39 169.49 172.42 168.21 172.38 166.93C172.252 164.177 171.788 161.451 170.999 158.811C170.02 155.958 169.51 152.965 169.49 149.949C169.7 146.932 170.454 143.978 171.715 141.229C172.835 138.672 174.143 136.202 175.627 133.838C178.44 129.311 181.279 125.463 183.619 122.202C185.959 118.941 187.839 116.371 189.181 114.53L190.78 112.446C190.939 112.19 191.128 111.954 191.342 111.742C191.205 112.008 191.052 112.264 190.882 112.51L189.463 114.683C188.184 116.55 186.368 119.223 184.067 122.509C181.765 125.795 178.952 129.682 176.203 134.183C174.747 136.533 173.465 138.986 172.367 141.523C171.15 144.207 170.418 147.086 170.206 150.026C170.231 152.977 170.731 155.904 171.689 158.695C172.479 161.383 172.934 164.157 173.044 166.956C173.084 168.261 173.046 169.568 172.929 170.868C172.929 171.495 172.802 172.147 172.75 172.723C172.699 173.298 172.546 173.925 172.456 174.513C172.111 176.865 171.433 178.975 171.075 180.906C170.231 184.742 169.541 187.939 169.042 190.189C168.799 191.238 168.607 192.082 168.467 192.747C168.392 193.027 168.284 193.297 168.147 193.552Z" fill="#263238"/>
<g opacity="0.3">
<path d="M174.541 163.658C177.571 172.878 183.057 180.089 189.284 187.531C195.511 194.973 204.18 200.241 212.632 201.712C198.835 189.871 187.327 176.739 174.541 163.658Z" fill="black"/>
</g>
<path d="M250.571 109.225C250.571 109.225 277.615 117.204 268.216 148.084C260.723 172.686 234.05 208.437 224.473 206.583C205.766 202.965 163.531 149.925 163.378 150.859L172.98 137.624C172.98 137.624 220.726 178.363 222.542 177.583C224.358 176.803 241.223 134.773 241.223 134.773C241.223 134.773 246.683 110.261 250.571 109.225Z" fill="#AFABED"/>
<path d="M172.738 138.021L164.477 124.838L150.079 112.051C150.079 112.051 149.351 114.609 150.079 115.695C150.808 116.782 152.266 119.532 152.266 119.532C152.266 119.532 140.029 110.21 138.201 110.21C136.372 110.21 136.922 112.038 137.101 112.946C137.28 113.854 147.33 122.268 147.33 122.268L136.883 122.626L130.337 125.912C130.337 125.912 130.707 128.29 132.894 128.111C134.658 127.837 136.378 127.329 138.009 126.603L146.959 127.689L137.011 131.756L132.804 138.008C132.804 138.008 134.275 140.566 136.091 138.878C137.24 137.835 138.285 136.683 139.211 135.438L146.653 133.827L139.748 138.341L138.29 143.814C138.29 143.814 140.668 146.192 141.576 143.814C142.484 141.435 143.034 140.348 143.034 140.348L147.049 139.428C148.813 141.364 151.093 142.757 153.621 143.443C157.93 144.658 164.375 149.389 164.375 149.389L172.738 138.021Z" fill="#C8A992"/>
<path d="M160.117 123.404C158.532 122.956 157.014 122.298 155.603 121.448C154.112 120.747 152.743 119.81 151.55 118.673C153.033 119.35 154.472 120.119 155.859 120.975C157.343 121.665 158.768 122.478 160.117 123.404Z" fill="#9B8372"/>
<path d="M150.246 127.01C150.246 127.01 149.913 127.01 149.542 126.703C149.046 126.296 148.73 125.71 148.661 125.072C148.591 124.434 148.775 123.794 149.172 123.289C149.466 122.918 149.76 122.79 149.798 122.854C149.836 122.918 149.069 123.762 149.197 125.015C149.325 126.268 150.348 126.882 150.246 127.01Z" fill="#9B8372"/>
<path d="M253.294 48.8204C251.069 39.3965 248.806 29.6402 240.993 23.8606C234.037 18.7459 226.263 17.4672 217.67 18.1833C213.425 18.4902 208.72 20.6 205.075 22.8121C200.114 25.8426 198.158 31.7628 195.882 37.0949C191.33 47.8358 192.416 62.1314 195.882 66.0058L240.84 87.9224C248.512 83.5876 253.703 81.529 255.494 72.8851C256.708 66.9904 254.662 54.6639 253.294 48.8204Z" fill="#263238"/>
<path d="M240.328 32.6324L212.198 25.3312C203.247 24.3083 197.122 35.3688 196.495 44.4091C195.792 54.4467 195.332 66.7476 196.495 74.2534C198.835 89.3418 210.343 91.3365 210.343 91.3365C210.343 91.3365 210.343 91.5667 210.433 96.042L210.343 106.131C214.052 118.355 226.455 116.884 241.927 110.529L245.034 38.0412C245.071 36.7138 244.608 35.4209 243.736 34.4191C242.865 33.4172 241.648 32.7795 240.328 32.6324Z" fill="#C8A992"/>
<path d="M200.191 57.6693C200.18 58.175 200.369 58.6646 200.715 59.0328C201.062 59.401 201.539 59.6185 202.045 59.6385C202.29 59.6577 202.537 59.6282 202.771 59.5517C203.005 59.4752 203.221 59.3532 203.408 59.1928C203.594 59.0324 203.747 58.8367 203.858 58.6169C203.968 58.3972 204.035 58.1577 204.052 57.9123C204.06 57.4075 203.87 56.9198 203.524 56.5523C203.178 56.1848 202.703 55.9663 202.198 55.9431C201.952 55.9204 201.704 55.9474 201.469 56.0225C201.234 56.0977 201.016 56.2194 200.828 56.3805C200.641 56.5415 200.488 56.7386 200.379 56.9601C200.269 57.1815 200.205 57.4227 200.191 57.6693Z" fill="#263238"/>
<path d="M199.155 53.4095C199.385 53.6652 200.856 52.5911 202.991 52.6039C205.127 52.6167 206.597 53.678 206.827 53.4223C207.057 53.1665 206.699 52.8597 206.034 52.3738C205.142 51.7394 204.073 51.3996 202.978 51.402C201.896 51.3944 200.84 51.7302 199.961 52.361C199.257 52.8469 199.027 53.2944 199.155 53.4095Z" fill="#263238"/>
<path d="M218.527 57.1952C218.516 57.6987 218.703 58.1865 219.047 58.5543C219.391 58.9222 219.865 59.1411 220.368 59.1644C220.614 59.1871 220.862 59.1601 221.098 59.0849C221.333 59.0098 221.551 58.8881 221.738 58.727C221.925 58.5659 222.078 58.3688 222.188 58.1474C222.297 57.926 222.361 57.6848 222.376 57.4382C222.386 56.9346 222.2 56.4469 221.856 56.079C221.512 55.7111 221.038 55.4922 220.534 55.469C220.288 55.4463 220.04 55.4733 219.805 55.5484C219.57 55.6235 219.352 55.7453 219.165 55.9063C218.977 56.0674 218.824 56.2645 218.715 56.486C218.605 56.7074 218.541 56.9486 218.527 57.1952Z" fill="#263238"/>
<path d="M219.601 52.9893C219.831 53.2451 221.315 52.171 223.437 52.1966C225.56 52.2221 227.043 53.2579 227.273 53.0149C227.503 52.772 227.145 52.4395 226.48 51.9536C225.58 51.3243 224.51 50.9852 223.412 50.9818C222.33 50.9742 221.273 51.31 220.394 51.9408C219.703 52.4267 219.486 52.8743 219.601 52.9893Z" fill="#263238"/>
<path d="M211.942 66.7214C210.846 66.3755 209.713 66.1651 208.566 66.0949C208.042 66.0949 207.53 65.9287 207.454 65.5578C207.411 65.0094 207.536 64.4609 207.812 63.9851L209.41 60.0212C211.635 54.2799 213.246 49.5488 213.016 49.4593C212.786 49.3698 210.791 53.9602 208.566 59.6887C208.046 61.1123 207.535 62.4677 207.032 63.7549C206.694 64.3945 206.595 65.133 206.75 65.8392C206.823 66.0289 206.94 66.1986 207.091 66.3342C207.242 66.4699 207.423 66.5676 207.62 66.6192C207.911 66.7003 208.212 66.7432 208.515 66.747C209.653 66.8905 210.806 66.8819 211.942 66.7214Z" fill="#263238"/>
<path d="M210.343 91.3363C217.438 91.4961 224.437 89.6811 230.559 86.0938C230.559 86.0938 225.445 96.6045 210.42 95.0445L210.343 91.3363Z" fill="#9B8372"/>
<path d="M218.795 70.6613C218.495 70.1971 218.084 69.8142 217.6 69.5465C217.116 69.2789 216.574 69.1347 216.021 69.1268C215.246 69.065 214.469 69.2115 213.77 69.5509C213.07 69.8904 212.475 70.4106 212.044 71.0577C211.739 71.6632 211.67 72.3608 211.852 73.014C212.006 73.3465 211.852 73.1803 212.146 73.4104C213.003 74.3017 214.066 74.969 215.241 75.354C215.878 75.5135 216.549 75.4767 217.165 75.2486C217.781 75.0204 218.313 74.6115 218.693 74.0753C219.017 73.5687 219.198 72.9837 219.216 72.3824C219.234 71.7812 219.089 71.1864 218.795 70.6613Z" fill="#9B8372"/>
<path d="M218.437 68.2805C218.092 68.2805 218.067 70.5182 216.11 72.1165C214.154 73.7149 211.75 73.3952 211.737 73.7277C211.724 74.0601 212.261 74.1752 213.284 74.2136C214.613 74.2363 215.906 73.7827 216.929 72.9349C217.923 72.1451 218.57 70.998 218.732 69.7382C218.834 68.8303 218.591 68.2677 218.437 68.2805Z" fill="#263238"/>
<path d="M218.565 45.4068C218.732 45.995 220.829 45.8544 223.245 46.3019C225.662 46.7494 227.58 47.5806 227.938 47.0691C228.104 46.8262 227.797 46.2763 227.03 45.6753C226.018 44.9305 224.843 44.4354 223.603 44.2304C222.37 43.996 221.098 44.0617 219.895 44.4222C218.975 44.678 218.489 45.1383 218.565 45.4068Z" fill="#263238"/>
<path d="M199.142 47.8106C199.628 48.207 201.111 47.4398 202.978 47.0818C204.845 46.7237 206.533 46.7749 206.814 46.225C206.929 45.9565 206.597 45.5346 205.817 45.2149C204.761 44.8464 203.623 44.7799 202.531 45.0231C201.432 45.2241 200.415 45.7393 199.603 46.5064C199.053 47.0945 198.925 47.6188 199.142 47.8106Z" fill="#263238"/>
<path d="M234.421 96.6434C234.715 92.6795 233.002 88.7668 233.334 84.8029C233.679 80.6088 236.275 76.939 237.247 72.8345C238.82 66.2749 236.147 59.4467 235.035 52.7464C231.169 52.2509 227.62 50.3535 225.061 47.4144C221.928 43.9875 219.946 39.7423 218.041 35.4587C218.305 39.6658 219.868 43.6871 222.516 46.9668C221.674 47.1244 220.806 47.0827 219.982 46.8451C219.159 46.6076 218.402 46.1807 217.773 45.5986C216.528 44.4173 215.543 42.9887 214.883 41.4046C213.125 37.6457 212.088 33.5903 211.827 29.4489C211.456 35.4065 212.327 41.3763 214.384 46.9796C213.289 46.814 212.171 46.8926 211.111 47.2098C210.578 47.364 210.018 47.3935 209.472 47.2959C208.927 47.1984 208.411 46.9763 207.965 46.6472C207.482 46.0851 207.167 45.3981 207.057 44.6652C205.847 39.6455 205.51 34.4551 206.06 29.3211C204.709 32.0741 203.643 34.9575 202.876 37.9266C202.107 40.911 202.187 44.0509 203.106 46.9924C202.986 47.1201 202.842 47.222 202.681 47.2916C202.521 47.3612 202.348 47.3972 202.173 47.3972C201.998 47.3972 201.825 47.3612 201.664 47.2916C201.503 47.222 201.359 47.1201 201.239 46.9924C200.742 46.4883 200.431 45.8299 200.357 45.1255C200.013 42.5723 200.095 39.9798 200.6 37.4535C199.181 40.1643 198.784 43.2842 198.043 46.2635C197.301 49.2429 196.086 52.2989 193.58 54.0635C193.023 50.2476 193.023 46.3712 193.58 42.5554C194.161 39.3343 195.198 36.2127 196.662 33.285C198.023 30.0323 200.003 27.075 202.492 24.5772C206.801 20.5493 208.72 22.1605 211.597 23.5542L211.942 23.6821C211.935 23.6141 211.935 23.5456 211.942 23.4775L212.044 22.8638C219.41 20.9606 227.151 21.071 234.459 23.1834C240.603 25.3448 245.88 29.4413 249.497 34.8577L249.65 35.1391C256.376 46.4042 261.491 62.4644 257.539 88.6773L234.421 96.6434Z" fill="#263238"/>
<path d="M264.572 157.79C264.572 157.79 264.572 158.02 264.355 158.442C264.137 158.864 263.971 159.516 263.613 160.334C262.542 162.709 261.347 165.027 260.033 167.277C255.189 175.542 249.825 183.49 243.973 191.074C242.119 193.478 240.137 195.971 237.95 198.464C237.387 199.065 236.838 199.743 236.237 200.306C235.636 200.868 234.958 201.508 234.37 202.07C233.133 203.329 231.794 204.484 230.368 205.523C228.779 206.524 226.905 206.974 225.035 206.801C223.148 206.611 221.297 206.154 219.537 205.446C218.642 205.088 217.747 204.73 216.877 204.308C216.443 204.091 215.995 203.912 215.599 203.669L214.32 202.901L213.041 202.134L211.865 201.226C211.072 200.625 210.254 200.037 209.487 199.398C203.135 193.913 197.07 188.105 191.317 181.995C185.269 175.704 179.156 169.055 172.98 162.176C169.63 158.416 166.344 154.695 163.16 151.013L162.994 150.821L163.147 150.616C166.421 146.115 169.618 141.666 172.75 137.395L172.942 137.126L173.185 137.331L222.695 177.353L222.35 177.443C227.273 166.434 231.301 157.521 234.025 151.332L237.196 144.3C237.554 143.507 237.835 142.906 238.04 142.471C238.244 142.036 238.346 141.845 238.346 141.845C238.346 141.845 238.27 142.075 238.091 142.497C237.912 142.919 237.643 143.545 237.311 144.351C236.595 146 235.546 148.404 234.216 151.486L222.708 177.673L222.593 177.942L222.363 177.75L172.75 137.855H173.185L163.595 151.089V150.706C166.779 154.388 170.065 158.109 173.415 161.856C179.578 168.735 185.678 175.384 191.713 181.663C197.454 187.758 203.497 193.562 209.819 199.053C210.574 199.692 211.392 200.267 212.159 200.868L213.336 201.763L214.614 202.518L215.893 203.272C216.315 203.502 216.762 203.694 217.172 203.899C218.028 204.321 218.911 204.679 219.729 205.024C221.439 205.706 223.24 206.137 225.074 206.303C226.84 206.448 228.605 205.998 230.086 205.024C231.491 204.011 232.808 202.882 234.025 201.648C234.689 201.073 235.303 200.485 235.891 199.909C236.48 199.334 237.029 198.631 237.592 198.094C239.779 195.626 241.761 193.132 243.627 190.754C249.494 183.221 254.904 175.343 259.828 167.162C261.554 164.247 262.718 161.894 263.498 160.283C263.869 159.478 264.099 158.838 264.291 158.416C264.483 157.994 264.572 157.79 264.572 157.79Z" fill="#263238"/>
</g>
<defs>
<clipPath id="clip0_6586_60058">
<rect width="277" height="164" fill="white"/>
</clipPath>
<clipPath id="clip1_6586_60058">
<rect width="128" height="256" fill="white" transform="translate(0 32)"/>
</clipPath>
</defs>
</svg>
