<svg width="256" height="128" viewBox="0 0 256 128" fill="none" xmlns="http://www.w3.org/2000/svg">
<path d="M208 17.5V32C208 36.4183 211.582 40 216 40H230.5" stroke="#372CD1" stroke-width="2" stroke-linecap="round" stroke-linejoin="round"/>
<mask id="path-2-inside-1_7013_63586" fill="white">
<path fill-rule="evenodd" clip-rule="evenodd" d="M172 16C165.373 16 160 21.3726 160 28V94C160 100.627 165.373 106 172 106H220C226.627 106 232 100.627 232 94V40L208 16L172 16Z"/>
</mask>
<path fill-rule="evenodd" clip-rule="evenodd" d="M172 16C165.373 16 160 21.3726 160 28V94C160 100.627 165.373 106 172 106H220C226.627 106 232 100.627 232 94V40L208 16L172 16Z" fill="white"/>
<path d="M172 16V18V16ZM232 40H234V39.1716L233.414 38.5858L232 40ZM208 16L209.414 14.5858L208.828 14H208V16ZM162 28C162 22.4772 166.477 18 172 18V14C164.268 14 158 20.268 158 28H162ZM162 94V28H158V94H162ZM172 104C166.477 104 162 99.5229 162 94H158C158 101.732 164.268 108 172 108V104ZM220 104H172V108H220V104ZM230 94C230 99.5229 225.523 104 220 104V108C227.732 108 234 101.732 234 94H230ZM230 40V94H234V40H230ZM233.414 38.5858L209.414 14.5858L206.586 17.4142L230.586 41.4142L233.414 38.5858ZM172 18L208 18V14L172 14V18Z" fill="#372CD1" mask="url(#path-2-inside-1_7013_63586)"/>
<mask id="path-4-inside-2_7013_63586" fill="white">
<path fill-rule="evenodd" clip-rule="evenodd" d="M36 16C29.3726 16 24 21.3726 24 28V94C24 100.627 29.3726 106 36 106H84C90.6274 106 96 100.627 96 94V40L72 16L36 16Z"/>
</mask>
<path fill-rule="evenodd" clip-rule="evenodd" d="M36 16C29.3726 16 24 21.3726 24 28V94C24 100.627 29.3726 106 36 106H84C90.6274 106 96 100.627 96 94V40L72 16L36 16Z" fill="white"/>
<path d="M36 16V18V16ZM96 40H98V39.1716L97.4142 38.5858L96 40ZM72 16L73.4142 14.5858L72.8284 14H72V16ZM26 28C26 22.4772 30.4772 18 36 18V14C28.268 14 22 20.268 22 28H26ZM26 94V28H22V94H26ZM36 104C30.4772 104 26 99.5229 26 94H22C22 101.732 28.268 108 36 108V104ZM84 104H36V108H84V104ZM94 94C94 99.5229 89.5229 104 84 104V108C91.732 108 98 101.732 98 94H94ZM94 40V94H98V40H94ZM97.4142 38.5858L73.4142 14.5858L70.5858 17.4142L94.5858 41.4142L97.4142 38.5858ZM36 18L72 18V14L36 14V18Z" fill="#0199CC" mask="url(#path-4-inside-2_7013_63586)"/>
<path d="M72 17.5V32C72 36.4183 75.5817 40 80 40H94.5" stroke="#0199CC" stroke-width="2" stroke-linecap="round" stroke-linejoin="round"/>
<path d="M208 17.5V32C208 36.4183 211.582 40 216 40H230.5" stroke="#372CD1" stroke-width="2" stroke-linecap="round" stroke-linejoin="round"/>
<path d="M70.3711 74.6666H67.4079V73.7053C67.3023 69.7177 63.988 66.5689 60.0004 66.6689C56.0128 66.5689 52.6985 69.7188 52.5929 73.7053V74.6666H49.6297C47.9931 74.6666 46.6665 75.9932 46.6665 77.6298V90.3701C46.6665 92.0067 47.9931 93.3333 49.6297 93.3333H70.37C72.0066 93.3333 73.3332 92.0067 73.3332 90.3701V77.6298C73.3332 75.9932 72.0077 74.6666 70.3711 74.6666ZM55.5572 73.7064C55.6695 71.3587 57.6527 69.5399 60.0015 69.6322C62.3503 69.5399 64.3335 71.3587 64.4458 73.7064V74.6677H55.5572V73.7064ZM70.6665 90.6666H49.3332V77.3333H70.6665V90.6666Z" fill="#323232"/>
<path d="M58.6673 84.9756V88.0153H61.3341V84.9756C62.379 84.3726 62.889 83.1417 62.576 81.9758C62.263 80.8099 61.2071 80 60.0002 80C58.7933 80 57.7374 80.8109 57.4244 81.9758C57.1115 83.1407 57.6224 84.3716 58.6673 84.9756Z" fill="#323232"/>
<path d="M153 83.6569C153 82.8612 153.316 82.0981 153.879 81.5355L159.536 75.8787C160.098 75.3161 160.861 75 161.657 75H236C237.657 75 239 76.3431 239 78V102C239 103.657 237.657 105 236 105H161.657C160.861 105 160.098 104.684 159.536 104.121L158.828 104.828L159.536 104.121L153.879 98.4645C153.316 97.9019 153 97.1388 153 96.3431V83.6569Z" fill="white" stroke="#6B6B6B" stroke-width="2"/>
<path d="M226.778 86H224.556V85.279C224.477 82.2883 221.991 79.9267 219 80.0017C216.01 79.9267 213.524 82.2891 213.445 85.279V86H211.222C209.995 86 209 86.995 209 88.2224V97.7776C209 99.005 209.995 100 211.222 100H226.778C228.005 100 229 99.005 229 97.7776V88.2224C229 86.995 228.006 86 226.778 86ZM215.668 85.2799C215.752 83.5191 217.24 82.155 219.001 82.2241C220.763 82.155 222.25 83.5191 222.334 85.2799V86.0008H215.668V85.2799ZM227 98H211V88H227V98Z" fill="#323232"/>
<path d="M218.001 93.7317V96.0115H220.001V93.7317C220.784 93.2795 221.167 92.3563 220.932 91.4819C220.697 90.6075 219.905 90 219 90C218.095 90 217.303 90.6082 217.068 91.4819C216.834 92.3556 217.217 93.2787 218.001 93.7317Z" fill="#323232"/>
<line x1="75" y1="89" x2="207" y2="89" stroke="#C6C6C6" stroke-width="2" stroke-dasharray="4 4"/>
<line x1="44" y1="56" x2="76" y2="56" stroke="#C6C6C6" stroke-width="2"/>
<line x1="44" y1="48" x2="76" y2="48" stroke="#C6C6C6" stroke-width="2"/>
<line x1="180" y1="56" x2="212" y2="56" stroke="#C6C6C6" stroke-width="2"/>
<line x1="180" y1="48" x2="212" y2="48" stroke="#C6C6C6" stroke-width="2"/>
<line x1="98" y1="41" x2="158" y2="41" stroke="#C6C6C6" stroke-width="2" stroke-dasharray="4 4"/>
</svg>
