<svg width="48" height="48" viewBox="0 0 48 48" fill="none" xmlns="http://www.w3.org/2000/svg">
<path d="M25 6.5V4.5C25 4.23478 24.8946 3.98043 24.7071 3.79289C24.5196 3.60536 24.2652 3.5 24 3.5C23.7348 3.5 23.4804 3.60536 23.2929 3.79289C23.1054 3.98043 23 4.23478 23 4.5V6.5C23 6.76522 23.1054 7.01957 23.2929 7.20711C23.4804 7.39464 23.7348 7.5 24 7.5C24.2652 7.5 24.5196 7.39464 24.7071 7.20711C24.8946 7.01957 25 6.76522 25 6.5Z" fill="#008196"/>
<path d="M11.9778 12.4781C12.0708 12.3852 12.1446 12.2749 12.1949 12.1535C12.2452 12.0321 12.2711 11.902 12.2711 11.7706C12.2711 11.6392 12.2452 11.509 12.1949 11.3876C12.1446 11.2662 12.0708 11.1559 11.9778 11.0631L10.5648 9.65107C10.3762 9.46892 10.1236 9.36812 9.86143 9.3704C9.59923 9.37268 9.34842 9.47785 9.16301 9.66325C8.9776 9.84866 8.87243 10.0995 8.87015 10.3617C8.86788 10.6239 8.96867 10.8765 9.15083 11.0651L10.5628 12.4781C10.6557 12.571 10.766 12.6448 10.8874 12.6951C11.0088 12.7455 11.1389 12.7714 11.2703 12.7714C11.4017 12.7714 11.5319 12.7455 11.6533 12.6951C11.7747 12.6448 11.885 12.571 11.9778 12.4781Z" fill="#008196"/>
<path d="M4 25.5H6C6.26522 25.5 6.51957 25.3946 6.70711 25.2071C6.89464 25.0196 7 24.7652 7 24.5C7 24.2348 6.89464 23.9804 6.70711 23.7929C6.51957 23.6054 6.26522 23.5 6 23.5H4C3.73478 23.5 3.48043 23.6054 3.29289 23.7929C3.10536 23.9804 3 24.2348 3 24.5C3 24.7652 3.10536 25.0196 3.29289 25.2071C3.48043 25.3946 3.73478 25.5 4 25.5Z" fill="#008196"/>
<path d="M38.8491 9.65094C38.6615 9.46347 38.4072 9.35815 38.1421 9.35815C37.8769 9.35815 37.6226 9.46347 37.4351 9.65094L36.0221 11.0629C35.8344 11.2506 35.729 11.5051 35.729 11.7704C35.729 12.0358 35.8344 12.2903 36.0221 12.4779C36.2097 12.6656 36.4642 12.771 36.7296 12.771C36.9949 12.771 37.2494 12.6656 37.4371 12.4779L38.8491 11.0649C39.0365 10.8774 39.1418 10.6231 39.1418 10.3579C39.1418 10.0928 39.0365 9.83847 38.8491 9.65094Z" fill="#008196"/>
<path d="M42 25.5H44C44.2652 25.5 44.5196 25.3946 44.7071 25.2071C44.8946 25.0196 45 24.7652 45 24.5C45 24.2348 44.8946 23.9804 44.7071 23.7929C44.5196 23.6054 44.2652 23.5 44 23.5H42C41.7348 23.5 41.4804 23.6054 41.2929 23.7929C41.1054 23.9804 41 24.2348 41 24.5C41 24.7652 41.1054 25.0196 41.2929 25.2071C41.4804 25.3946 41.7348 25.5 42 25.5Z" fill="#008196"/>
<path d="M21.9998 43.5H25.9998C27.3254 43.4984 28.5963 42.9711 29.5336 42.0338C30.471 41.0964 30.9983 39.8256 30.9998 38.5V37.225C31.0057 36.743 31.1257 36.2693 31.3501 35.8427C31.5746 35.4161 31.8969 35.0488 32.2908 34.771C34.0564 33.4686 35.4925 31.7707 36.4838 29.8135C37.4752 27.8562 37.9944 25.694 37.9998 23.5C38.0146 20.6969 37.1833 17.9546 35.6145 15.6316C34.0457 13.3086 31.8125 11.513 29.2068 10.4796C26.6011 9.44618 23.7443 9.22305 21.0098 9.83936C18.2752 10.4557 15.7903 11.8827 13.8798 13.934C12.5941 15.2849 11.59 16.8781 10.9259 18.6209C10.2618 20.3636 9.95113 22.221 10.0118 24.085C10.0954 26.1868 10.6543 28.2423 11.6464 30.0971C12.6385 31.9519 14.038 33.5578 15.7398 34.794C16.1252 35.0717 16.4399 35.436 16.6588 35.8575C16.8776 36.279 16.9945 36.7461 16.9998 37.221V38.5C17.0014 39.8256 17.5287 41.0964 18.4661 42.0338C19.4034 42.9711 20.6743 43.4984 21.9998 43.5ZM25.9998 41.5H21.9998C21.2042 41.5 20.4411 41.1839 19.8785 40.6213C19.3159 40.0587 18.9998 39.2956 18.9998 38.5V37.5H28.9998V38.5C28.9998 39.2956 28.6838 40.0587 28.1212 40.6213C27.5586 41.1839 26.7955 41.5 25.9998 41.5ZM16.9198 33.18C15.461 32.1203 14.2613 30.7437 13.4109 29.1537C12.5605 27.5637 12.0815 25.8017 12.0098 24C11.9226 20.7792 13.1155 17.6551 15.3273 15.3121C17.5391 12.9691 20.5893 11.5983 23.8098 11.5H23.9998C27.1824 11.5 30.2347 12.7643 32.4851 15.0147C34.7356 17.2652 35.9998 20.3174 35.9998 23.5C35.9948 25.3807 35.5494 27.2341 34.6994 28.9117C33.8494 30.5893 32.6183 32.0446 31.1048 33.161C30.2927 33.75 29.6697 34.5628 29.3118 35.5H24.9998V31.736C25.9607 31.5436 26.8431 31.0711 27.5358 30.378L28.7069 29.207C28.889 29.0184 28.9898 28.7658 28.9875 28.5036C28.9852 28.2414 28.8801 27.9906 28.6947 27.8052C28.5093 27.6198 28.2584 27.5146 27.9963 27.5123C27.7341 27.51 27.4815 27.6108 27.2928 27.793L26.1218 28.964C25.8432 29.2428 25.5124 29.4639 25.1483 29.6148C24.7842 29.7657 24.394 29.8434 23.9998 29.8434C23.6057 29.8434 23.2155 29.7657 22.8514 29.6148C22.4873 29.4639 22.1565 29.2428 21.8778 28.964L20.7069 27.793C20.5182 27.6108 20.2656 27.51 20.0034 27.5123C19.7413 27.5146 19.4904 27.6198 19.305 27.8052C19.1196 27.9906 19.0145 28.2414 19.0122 28.5036C19.0099 28.7658 19.1107 29.0184 19.2928 29.207L20.4639 30.378C21.1566 31.0711 22.039 31.5436 22.9998 31.736V35.5H18.6848C18.3344 34.5716 17.7211 33.7654 16.9198 33.18Z" fill="#008196"/>
</svg>
