<svg width="28" height="27" viewBox="0 0 28 27" fill="none" xmlns="http://www.w3.org/2000/svg">
<path d="M14.6673 2V0.666667C14.6673 0.489856 14.5971 0.320286 14.4721 0.195262C14.347 0.0702379 14.1775 0 14.0007 0C13.8238 0 13.6543 0.0702379 13.5292 0.195262C13.4042 0.320286 13.334 0.489856 13.334 0.666667V2C13.334 2.17681 13.4042 2.34638 13.5292 2.4714C13.6543 2.59643 13.8238 2.66667 14.0007 2.66667C14.1775 2.66667 14.347 2.59643 14.4721 2.4714C14.5971 2.34638 14.6673 2.17681 14.6673 2Z" fill="white"/>
<path d="M5.98587 5.98538C6.04785 5.92347 6.09703 5.84994 6.13058 5.76901C6.16413 5.68808 6.1814 5.60133 6.1814 5.51372C6.1814 5.42611 6.16413 5.33935 6.13058 5.25842C6.09703 5.17749 6.04785 5.10396 5.98587 5.04205L5.04387 4.10072C4.91814 3.97928 4.74973 3.91208 4.57494 3.9136C4.40014 3.91512 4.23293 3.98523 4.10932 4.10884C3.98572 4.23244 3.91561 4.39965 3.91409 4.57445C3.91257 4.74925 3.97977 4.91765 4.1012 5.04338L5.04254 5.98538C5.10445 6.04737 5.17798 6.09654 5.25891 6.13009C5.33984 6.16364 5.42659 6.18091 5.5142 6.18091C5.60181 6.18091 5.68857 6.16364 5.7695 6.13009C5.85043 6.09654 5.92395 6.04737 5.98587 5.98538Z" fill="white"/>
<path d="M0.666667 14.6667H2C2.17681 14.6667 2.34638 14.5964 2.4714 14.4714C2.59643 14.3464 2.66667 14.1768 2.66667 14C2.66667 13.8232 2.59643 13.6536 2.4714 13.5286C2.34638 13.4036 2.17681 13.3333 2 13.3333H0.666667C0.489856 13.3333 0.320286 13.4036 0.195262 13.5286C0.0702379 13.6536 0 13.8232 0 14C0 14.1768 0.0702379 14.3464 0.195262 14.4714C0.320286 14.5964 0.489856 14.6667 0.666667 14.6667Z" fill="white"/>
<path d="M23.8984 4.10071C23.7734 3.97573 23.6038 3.90552 23.4271 3.90552C23.2503 3.90552 23.0808 3.97573 22.9557 4.10071L22.0137 5.04204C21.8886 5.16714 21.8184 5.3368 21.8184 5.51371C21.8184 5.69062 21.8886 5.86028 22.0137 5.98537C22.1388 6.11047 22.3085 6.18075 22.4854 6.18075C22.6623 6.18075 22.832 6.11047 22.9571 5.98537L23.8984 5.04338C24.0234 4.91836 24.0936 4.74882 24.0936 4.57204C24.0936 4.39527 24.0234 4.22573 23.8984 4.10071Z" fill="white"/>
<path d="M26.0007 14.6666H27.334C27.5108 14.6666 27.6804 14.5963 27.8054 14.4713C27.9304 14.3463 28.0007 14.1767 28.0007 13.9999C28.0007 13.8231 27.9304 13.6535 27.8054 13.5285C27.6804 13.4035 27.5108 13.3333 27.334 13.3333H26.0007C25.8238 13.3333 25.6543 13.4035 25.5292 13.5285C25.4042 13.6535 25.334 13.8231 25.334 13.9999C25.334 14.1767 25.4042 14.3463 25.5292 14.4713C25.6543 14.5963 25.8238 14.6666 26.0007 14.6666Z" fill="white"/>
<path d="M12.6667 26.6667H15.3333C16.2171 26.6656 17.0643 26.3141 17.6892 25.6892C18.3141 25.0643 18.6656 24.2171 18.6667 23.3333V22.4833C18.6705 22.162 18.7506 21.8462 18.9002 21.5618C19.0498 21.2774 19.2647 21.0325 19.5273 20.8473C20.7044 19.979 21.6617 18.8471 22.3227 17.5423C22.9836 16.2375 23.3297 14.796 23.3333 13.3333C23.3432 11.4646 22.789 9.63641 21.7431 8.08774C20.6972 6.53906 19.2084 5.342 17.4713 4.65306C15.7342 3.96412 13.8296 3.81537 12.0066 4.22624C10.1836 4.63711 8.52696 5.5885 7.25333 6.956C6.39617 7.85661 5.72675 8.91875 5.28404 10.0806C4.84133 11.2424 4.63419 12.4807 4.67467 13.7233C4.7304 15.1245 5.10296 16.4949 5.76435 17.7314C6.42575 18.9679 7.35877 20.0385 8.49333 20.8627C8.75022 21.0478 8.96006 21.2906 9.10596 21.5717C9.25186 21.8527 9.32974 22.164 9.33333 22.4807V23.3333C9.33439 24.2171 9.68592 25.0643 10.3108 25.6892C10.9357 26.3141 11.7829 26.6656 12.6667 26.6667ZM15.3333 25.3333H12.6667C12.1362 25.3333 11.6275 25.1226 11.2525 24.7475C10.8774 24.3725 10.6667 23.8638 10.6667 23.3333V22.6667H17.3333V23.3333C17.3333 23.8638 17.1226 24.3725 16.7475 24.7475C16.3725 25.1226 15.8638 25.3333 15.3333 25.3333ZM9.28 19.7867C8.30743 19.0802 7.50763 18.1625 6.94068 17.1025C6.37374 16.0425 6.0544 14.8678 6.00667 13.6667C5.94851 11.5194 6.7438 9.4367 8.21831 7.87472C9.69282 6.31274 11.7263 5.39888 13.8733 5.33333H14C16.1217 5.33333 18.1566 6.17619 19.6569 7.67648C21.1571 9.17677 22 11.2116 22 13.3333C21.9966 14.5871 21.6997 15.8227 21.133 16.9411C20.5664 18.0596 19.7457 19.0297 18.7367 19.774C18.1953 20.1667 17.7799 20.7085 17.5413 21.3333H14.6667V18.824C15.3072 18.6957 15.8955 18.3807 16.3573 17.9187L17.138 17.138C17.2594 17.0123 17.3266 16.8439 17.3251 16.6691C17.3236 16.4943 17.2535 16.3271 17.1299 16.2035C17.0063 16.0798 16.8391 16.0097 16.6643 16.0082C16.4895 16.0067 16.3211 16.0739 16.1953 16.1953L15.4147 16.976C15.2289 17.1619 15.0084 17.3093 14.7657 17.4099C14.5229 17.5105 14.2628 17.5622 14 17.5622C13.7372 17.5622 13.4771 17.5105 13.2343 17.4099C12.9916 17.3093 12.7711 17.1619 12.5853 16.976L11.8047 16.1953C11.6789 16.0739 11.5105 16.0067 11.3357 16.0082C11.1609 16.0097 10.9937 16.0798 10.8701 16.2035C10.7465 16.3271 10.6764 16.4943 10.6749 16.6691C10.6734 16.8439 10.7406 17.0123 10.862 17.138L11.6427 17.9187C12.1045 18.3807 12.6928 18.6957 13.3333 18.824V21.3333H10.4567C10.223 20.7144 9.81416 20.177 9.28 19.7867Z" fill="white"/>
</svg>
