<svg width="128" height="30" viewBox="0 0 128 30" fill="none" xmlns="http://www.w3.org/2000/svg">
<g clip-path="url(#clip0_9547_132612)">
<path d="M0 5.00106C0 2.24119 2.2412 0 5.00107 0H24.9989C27.7588 0 30 2.24119 30 5.00106V24.9989C30 27.7588 27.7588 30 24.9989 30H5.00107C2.2412 30 0 27.7588 0 24.9989V5.00106Z" fill="#372CD1"/>
<path d="M10 19.9968L19.9968 10H30V24.9984C30 27.7586 27.7586 30 24.9984 30H10V19.9968Z" fill="#AAA6E8"/>
<path d="M18.1294 19.9936H10L20 10V18.1242C20 19.1613 19.1608 20 18.123 20L18.1294 19.9936Z" fill="white"/>
<path d="M83.6308 25.9048C82.117 25.9048 80.8 25.6094 79.6677 25.0124C78.56 24.4217 77.6985 23.5663 77.0831 22.4586C76.4677 21.3509 76.1662 20.0094 76.1662 18.4401C76.1662 16.8709 76.4739 15.5294 77.0831 14.4217C77.6985 13.314 78.5477 12.4586 79.637 11.8678C80.7447 11.2771 82.0124 10.9755 83.4277 10.9755C84.8431 10.9755 86.117 11.2709 87.1323 11.8678C88.1477 12.4401 88.9231 13.234 89.4585 14.2494C89.9939 15.2463 90.2647 16.3848 90.2647 17.6648C90.2647 18.0463 90.2524 18.4094 90.2339 18.754C90.2154 19.0986 90.1847 19.4063 90.1477 19.6709H78.6954V16.9448H88.4308L86.5354 17.634C86.5354 16.4278 86.2585 15.4986 85.7047 14.8463C85.1693 14.194 84.4062 13.8678 83.4093 13.8678C82.6831 13.8678 82.0493 14.0401 81.5139 14.3848C80.997 14.7294 80.6031 15.2463 80.3385 15.9355C80.0677 16.6063 79.9385 17.4555 79.9385 18.4894C79.9385 19.5232 80.08 20.3478 80.3693 21.0186C80.677 21.6709 81.0954 22.1571 81.6308 22.4832C82.1847 22.8094 82.8431 22.9694 83.6123 22.9694C84.4554 22.9694 85.1324 22.8094 85.6493 22.4832C86.1662 22.1571 86.5662 21.7078 86.8554 21.1355L89.9877 22.3417C89.68 23.0863 89.2124 23.7263 88.5785 24.2678C87.9631 24.8032 87.2308 25.2155 86.3693 25.5048C85.5262 25.7755 84.6154 25.9048 83.6431 25.9048H83.6308Z" fill="#1E1E1E"/>
<path d="M72.0124 5V21.1723C72.0124 21.8431 72.0924 22.3169 72.3262 22.5877C72.5539 22.8585 72.9416 22.9939 73.477 22.9939C73.8031 22.9939 74.0739 22.9754 74.2831 22.9385C74.4924 22.8831 74.7631 22.8031 75.0893 22.7108L74.7447 25.3015C74.4185 25.4923 74.0062 25.64 73.5078 25.7323C73.0278 25.8492 72.5478 25.9046 72.0678 25.9046C70.6647 25.9046 69.637 25.5662 68.9847 24.8954C68.3508 24.2062 68.037 23.1108 68.037 21.6092V5H72.0185H72.0124Z" fill="#1E1E1E"/>
<path d="M60.0123 8.71078C60.4246 9.05539 61.0462 9.2277 61.8831 9.2277C62.7201 9.2277 63.3477 9.05539 63.7539 8.71078C64.1662 8.3477 64.3693 7.81847 64.3693 7.12924C64.3693 6.44 64.1662 5.89231 63.7539 5.54769C63.3416 5.18462 62.7201 5 61.8831 5C61.0462 5 60.4185 5.18462 60.0123 5.54769C59.6 5.89231 59.3969 6.42154 59.3969 7.12924C59.3969 7.83693 59.6 8.3477 60.0123 8.71078Z" fill="#1E1E1E"/>
<path d="M59.8954 10.9754H63.877V25.96H59.8954V10.9754Z" fill="#1E1E1E"/>
<path d="M57.9015 8.18154H47.3108V14.4646H55.7846V17.1846H47.3169V25.9046H43.3661V5H57.9015V8.17539V8.18154Z" fill="#1E1E1E"/>
<path d="M118.486 14.4462V17.5047H123.465V18.6493C123.465 19.3078 123.36 19.8986 123.126 20.397C122.892 20.8955 122.572 21.3078 122.16 21.6278C121.748 21.9478 121.262 22.1878 120.695 22.3478C120.148 22.5078 119.551 22.5878 118.911 22.5878C117.723 22.5878 116.714 22.3355 115.895 21.837C115.095 21.3201 114.492 20.5447 114.08 19.5293C113.668 18.4893 113.465 17.2216 113.465 15.7201C113.465 15.6401 113.465 15.5662 113.465 15.4862C113.465 15.4001 113.465 15.3201 113.465 15.2339C113.465 13.7755 113.68 12.5447 114.111 11.5478C114.542 10.5262 115.157 9.75702 115.957 9.2401C116.757 8.69856 117.705 8.42779 118.794 8.42779C119.883 8.42779 120.806 8.68625 121.545 9.20933C122.308 9.70779 122.843 10.4893 123.157 11.5478L126.708 9.98471L126.905 9.89856C126.142 8.23702 125.12 7.01856 123.834 6.23699C122.548 5.43699 120.855 5.03699 118.769 5.03699C116.874 5.03699 115.206 5.44929 113.766 6.26776C112.345 7.08625 111.237 8.26779 110.455 9.80625C109.674 11.3262 109.286 13.1478 109.286 15.2647C109.286 15.3509 109.286 15.4309 109.286 15.517C109.286 15.597 109.286 15.6709 109.286 15.757C109.286 17.8986 109.655 19.7262 110.4 21.2463C111.139 22.7662 112.179 23.9232 113.502 24.7232C114.849 25.5232 116.412 25.9232 118.185 25.9232C119.822 25.9232 121.182 25.5724 122.252 24.8709C122.886 24.4524 123.409 23.9293 123.822 23.3016L123.963 25.8986H126.948V14.4462H118.486Z" fill="#372CD1"/>
<path d="M100.166 5.03698C101.926 5.03698 103.471 5.35698 104.8 5.99083C106.129 6.62467 107.262 7.56618 108.203 8.81541L105.945 11.5477C105.145 10.4831 104.265 9.70772 103.305 9.21541C102.363 8.70464 101.274 8.44618 100.019 8.44618C99.2001 8.44618 98.5108 8.55695 97.9631 8.78464C97.4339 9.01234 97.0462 9.30772 96.7878 9.67695C96.5539 10.0462 96.437 10.4523 96.437 10.9016C96.437 11.4554 96.6401 11.9231 97.0524 12.3108C97.4647 12.68 98.1662 12.9877 99.1631 13.2339L102.769 14.0954C104.683 14.5446 106.055 15.2216 106.874 16.12C107.717 17 108.135 18.1446 108.135 19.5539C108.135 20.8831 107.803 22.0277 107.139 22.9877C106.474 23.9293 105.545 24.6554 104.351 25.1662C103.157 25.6585 101.791 25.9046 100.246 25.9046C98.8985 25.9046 97.6555 25.7385 96.5231 25.4123C95.4093 25.0616 94.4124 24.5939 93.5324 24.0031C92.6524 23.4123 91.9201 22.7231 91.3354 21.9477L93.6247 19.0923C94.0739 19.7446 94.6339 20.3293 95.2985 20.84C95.9631 21.3508 96.7139 21.7631 97.557 22.0646C98.4185 22.3539 99.317 22.4954 100.252 22.4954C101.052 22.4954 101.729 22.4031 102.277 22.2185C102.843 22.0154 103.262 21.7385 103.539 21.3877C103.834 21.0185 103.975 20.5816 103.975 20.0708C103.975 19.56 103.803 19.0862 103.446 18.7231C103.114 18.3354 102.486 18.04 101.569 17.8308L97.6431 16.9077C96.5108 16.6185 95.5324 16.2554 94.7139 15.8062C93.9139 15.3385 93.2985 14.7416 92.8678 14.0277C92.4555 13.2893 92.2524 12.4216 92.2524 11.4185C92.2524 10.2123 92.5662 9.12926 93.1878 8.16311C93.8155 7.20311 94.7139 6.44621 95.8831 5.89237C97.077 5.32006 98.5047 5.03082 100.166 5.03082V5.03698Z" fill="#372CD1"/>
</g>
<defs>
<clipPath id="clip0_9547_132612">
<rect width="128" height="30" fill="white"/>
</clipPath>
</defs>
</svg>
