<svg width="122" height="48" viewBox="0 0 122 48" fill="none" xmlns="http://www.w3.org/2000/svg">
<path fill-rule="evenodd" clip-rule="evenodd" d="M1.60432 11.1081C2.49036 11.1081 3.20864 11.8185 3.20864 12.6949V34.9095C3.20864 35.7859 2.49036 36.4963 1.60432 36.4963C0.71828 36.4963 0 35.7859 0 34.9095V12.6949C0 11.8185 0.718267 11.1081 1.60432 11.1081Z" fill="white"/>
<path fill-rule="evenodd" clip-rule="evenodd" d="M14.7215 3.17319C15.6076 3.17319 16.3259 3.88361 16.3259 4.75996V42.8426C16.3259 43.7188 15.6076 44.4293 14.7215 44.4293C13.8355 44.4293 13.1172 43.7188 13.1172 42.8426V4.75996C13.1172 3.88361 13.8355 3.17319 14.7215 3.17319Z" fill="white"/>
<path fill-rule="evenodd" clip-rule="evenodd" d="M21.2814 0C22.1582 0 22.8707 0.69572 22.8855 1.55948L24.0782 45.6013C24.0853 45.6727 24.0889 45.7451 24.0889 45.8181C24.0889 45.8512 24.0882 45.884 24.0867 45.9167L24.0885 45.9844C24.0941 46.1869 24.0481 46.3789 23.9623 46.5481C23.6589 47.3941 22.8425 48 21.883 48C21.1218 48 20.4507 47.6187 20.0542 47.0388C19.8189 46.7625 19.677 46.406 19.677 46.0165V1.58677C19.677 0.710413 20.3953 0 21.2814 0Z" fill="white"/>
<path fill-rule="evenodd" clip-rule="evenodd" d="M28.0876 3.17319C28.8629 3.17319 29.4915 3.79481 29.4915 4.56161V42.5528C29.4915 42.5673 29.4912 42.5817 29.4908 42.596C29.4912 42.612 29.4915 42.628 29.4915 42.6443C29.4915 43.6301 28.6833 44.4293 27.6865 44.4293C26.6897 44.4293 25.8816 43.6301 25.8816 42.6443C25.8816 42.5813 25.8849 42.5192 25.8913 42.458L26.6839 4.74377V4.56161C26.6839 3.79481 27.3124 3.17319 28.0876 3.17319Z" fill="white"/>
<path fill-rule="evenodd" clip-rule="evenodd" d="M9.75164 7.93447C9.75164 7.05812 9.03335 6.34766 8.1473 6.34766C7.26126 6.34766 6.54297 7.05812 6.54297 7.93447V20.2085H9.75164V7.93447ZM9.75164 23.3821H6.54297V39.67C6.54297 40.5463 7.26126 41.2567 8.1473 41.2567C9.03335 41.2567 9.75164 40.5463 9.75164 39.67V23.3821Z" fill="white"/>
<path fill-rule="evenodd" clip-rule="evenodd" d="M34.3974 6.34766C35.2834 6.34766 36.0016 7.05812 36.0016 7.93447V20.2724H32.793V7.93447C32.793 7.05812 33.5114 6.34766 34.3974 6.34766ZM36.0016 26.6163H39.3712V34.9096C39.3712 35.786 40.0895 36.4964 40.9756 36.4964C41.8616 36.4964 42.5799 35.786 42.5799 34.9096V12.6948C42.5799 11.8184 41.8616 11.108 40.9756 11.108C40.0895 11.108 39.3712 11.8184 39.3712 12.6948V23.4427H34.3046V23.4459H32.793V39.67C32.793 40.5463 33.5114 41.2567 34.3974 41.2567C35.2834 41.2567 36.0016 40.5463 36.0016 39.67V26.6163Z" fill="white"/>
<path d="M58.2345 15.7828C57.6148 15.7828 57.0626 15.6649 56.578 15.4292C56.1013 15.1856 55.7198 14.8594 55.4338 14.4508C55.1477 14.0421 54.9333 13.5904 54.7902 13.0952C54.6473 12.6001 54.5757 12.0736 54.5757 11.5157C54.5757 11.107 54.6194 10.7024 54.7069 10.3016C54.8022 9.90082 54.9492 9.51576 55.1477 9.14639C55.3465 8.7771 55.5848 8.45492 55.8629 8.17984C56.1409 7.89694 56.4826 7.67298 56.8878 7.50798C57.301 7.33503 57.7498 7.24866 58.2345 7.24866C58.9654 7.24866 59.5534 7.3979 59.9984 7.69658C60.4433 7.98732 60.8286 8.39206 61.1544 8.91067L59.8792 9.62966C59.4184 8.95386 58.8701 8.61602 58.2345 8.61602C57.8372 8.61602 57.4876 8.7063 57.1857 8.88707C56.8917 9.06002 56.6653 9.29572 56.5064 9.5943C56.3476 9.88514 56.2322 10.1916 56.1608 10.5137C56.0893 10.836 56.0536 11.17 56.0536 11.5157C56.0536 12.3329 56.2364 13.0205 56.6018 13.5785C56.9672 14.1365 57.5116 14.4154 58.2345 14.4154C58.6953 14.4154 59.0766 14.2661 59.3786 13.9676C59.6885 13.6689 59.8434 13.3034 59.8434 12.8712V12.7416H58.3776V11.4096H61.2973V12.5529C61.2973 13.5668 61.0114 14.3604 60.4393 14.9341C59.8672 15.4998 59.1322 15.7828 58.2345 15.7828Z" fill="white"/>
<path d="M65.3683 15.7828C64.5103 15.7828 63.8309 15.5039 63.3305 14.946C62.8299 14.388 62.5796 13.6179 62.5796 12.6356C62.5796 11.6533 62.8299 10.8832 63.3305 10.3252C63.8309 9.75947 64.5103 9.47656 65.3683 9.47656C66.2264 9.47656 66.9057 9.75947 67.4063 10.3252C67.9148 10.8832 68.1691 11.6533 68.1691 12.6356C68.1691 13.6179 67.9188 14.388 67.4183 14.946C66.9177 15.5039 66.2344 15.7828 65.3683 15.7828ZM65.3683 14.4625C65.8053 14.4625 66.1471 14.3015 66.3933 13.9793C66.6476 13.6572 66.7747 13.2092 66.7747 12.6356C66.7747 12.0619 66.6476 11.6101 66.3933 11.28C66.1471 10.95 65.8053 10.7849 65.3683 10.7849C64.9472 10.7849 64.6096 10.9539 64.3553 11.2919C64.1012 11.6219 63.974 12.0697 63.974 12.6356C63.974 13.2015 64.0972 13.6493 64.3435 13.9793C64.5976 14.3015 64.9393 14.4625 65.3683 14.4625Z" fill="white"/>
<path d="M71.2363 15.6405L69.0078 9.61719H70.4259L71.7726 13.3773C71.8679 13.6917 71.9237 13.8725 71.9395 13.9196C71.9871 13.7153 72.0427 13.5345 72.1063 13.3773L73.4293 9.61719H74.8474L72.6189 15.6405H71.2363Z" fill="white"/>
<path d="M78.4977 15.7828C77.6316 15.7828 76.9444 15.5039 76.4359 14.946C75.9353 14.3801 75.6851 13.606 75.6851 12.6239C75.6851 11.6493 75.9393 10.8832 76.4477 10.3252C76.9563 9.75947 77.6396 9.47656 78.4977 9.47656C79.2763 9.47656 79.912 9.71619 80.4045 10.1955C80.9051 10.6749 81.1553 11.3783 81.1553 12.3056C81.1553 12.6277 81.1395 12.9107 81.1076 13.1541H77.0676C77.0913 13.5787 77.2384 13.9204 77.5085 14.1797C77.7865 14.4391 78.1163 14.5688 78.4977 14.5688C79.038 14.5688 79.4669 14.3604 79.7848 13.944L80.6667 14.8399C80.1344 15.4685 79.4113 15.7828 78.4977 15.7828ZM77.0795 12.0108H79.7729C79.7411 11.5787 79.606 11.2524 79.3677 11.0325C79.1293 10.8045 78.8393 10.6907 78.4977 10.6907C78.1004 10.6907 77.7707 10.8007 77.5085 11.0207C77.2543 11.2329 77.1112 11.5629 77.0795 12.0108Z" fill="white"/>
<path d="M82.582 15.6413V9.61798H83.9764V10.2427C84.2227 9.73196 84.6399 9.47656 85.2279 9.47656C85.6568 9.47656 86.0343 9.61406 86.36 9.88914L86.1575 11.1503C85.8556 10.9383 85.5099 10.832 85.1206 10.832C84.8027 10.832 84.5327 10.9421 84.3102 11.1621C84.0876 11.3823 83.9764 11.7515 83.9764 12.2701V15.6413H82.582Z" fill="white"/>
<path d="M91.1542 15.6413V12.1876C91.1542 11.2524 90.7769 10.7849 90.0221 10.7849C89.1958 10.7849 88.7826 11.2447 88.7826 12.164V15.6413H87.3882V9.61798H88.7826V10.1838C89.1799 9.71227 89.7162 9.47656 90.3915 9.47656C91.0271 9.47656 91.5435 9.673 91.9408 10.0659C92.346 10.4589 92.5487 11.0836 92.5487 11.9401V15.6413H91.1542Z" fill="white"/>
<path d="M101.429 15.6413V12.1876C101.429 11.2524 101.083 10.7849 100.392 10.7849C100.034 10.7849 99.7524 10.9068 99.5459 11.1503C99.3471 11.3861 99.2471 11.7397 99.2471 12.2112V15.6413H97.8527V12.1876C97.8527 11.2524 97.508 10.7849 96.8165 10.7849C96.4592 10.7849 96.1771 10.9068 95.9705 11.1503C95.7717 11.3861 95.6719 11.7397 95.6719 12.2112V15.6413H94.2773V9.61798H95.6719V10.172C96.0215 9.70836 96.5179 9.47656 97.1623 9.47656C97.9085 9.47656 98.4412 9.75947 98.7585 10.3252C99.1483 9.75947 99.7603 9.47656 100.595 9.47656C101.277 9.47656 101.818 9.66518 102.215 10.0423C102.621 10.4117 102.822 10.9971 102.822 11.7987V15.6413H101.429Z" fill="white"/>
<path d="M107.07 15.7828C106.204 15.7828 105.517 15.5039 105.008 14.946C104.508 14.3801 104.258 13.606 104.258 12.6239C104.258 11.6493 104.512 10.8832 105.02 10.3252C105.529 9.75947 106.212 9.47656 107.07 9.47656C107.849 9.47656 108.484 9.71619 108.977 10.1955C109.477 10.6749 109.728 11.3783 109.728 12.3056C109.728 12.6277 109.711 12.9107 109.68 13.1541H105.64C105.664 13.5787 105.811 13.9204 106.081 14.1797C106.359 14.4391 106.688 14.5688 107.07 14.5688C107.61 14.5688 108.04 14.3604 108.357 13.944L109.239 14.8399C108.707 15.4685 107.984 15.7828 107.07 15.7828ZM105.651 12.0108H108.345C108.313 11.5787 108.179 11.2524 107.94 11.0325C107.702 10.8045 107.412 10.6907 107.07 10.6907C106.673 10.6907 106.343 10.8007 106.081 11.0207C105.827 11.2329 105.684 11.5629 105.651 12.0108Z" fill="white"/>
<path d="M114.919 15.6413V12.1876C114.919 11.2524 114.542 10.7849 113.787 10.7849C112.961 10.7849 112.547 11.2447 112.547 12.164V15.6413H111.154V9.61798H112.547V10.1838C112.945 9.71227 113.482 9.47656 114.156 9.47656C114.792 9.47656 115.309 9.673 115.706 10.0659C116.111 10.4589 116.314 11.0836 116.314 11.9401V15.6413H114.919Z" fill="white"/>
<path d="M119.833 15.7834C118.887 15.7834 118.415 15.2688 118.415 14.2393V10.8209H117.509V9.61862H118.415V7.7916L119.81 7.13147V9.61862H121.216V10.8209H119.81V13.9682C119.81 14.3533 119.98 14.5458 120.322 14.5458C120.631 14.5458 120.949 14.4554 121.275 14.2746L121.108 15.5124C120.758 15.6932 120.333 15.7834 119.833 15.7834Z" fill="white"/>
<path d="M54.8735 19.1783H57.4478C58.0118 19.1783 58.5243 19.257 58.9851 19.4141C59.4459 19.5713 59.8274 19.7795 60.1293 20.0389C60.4313 20.2982 60.6814 20.6086 60.8802 20.9701C61.0866 21.3237 61.2337 21.697 61.3211 22.0899C61.4163 22.4749 61.4641 22.8797 61.4641 23.3039C61.4641 23.6969 61.4203 24.0819 61.333 24.4591C61.2535 24.8363 61.1106 25.2097 60.9039 25.579C60.7054 25.9405 60.455 26.2587 60.1531 26.5338C59.8513 26.8009 59.4618 27.017 58.9851 27.1821C58.5163 27.3471 57.9881 27.4297 57.4001 27.4297H54.8735V19.1783ZM57.6027 26.0977C58.0238 26.0977 58.3933 26.0151 58.711 25.8501C59.0369 25.685 59.287 25.465 59.4618 25.1899C59.6446 24.9071 59.7757 24.6085 59.8551 24.2941C59.9426 23.9798 59.9862 23.6498 59.9862 23.3039C59.9862 22.5339 59.7955 21.8777 59.4143 21.3354C59.0329 20.7854 58.4727 20.5103 57.7338 20.5103H56.3037V26.0977H57.6027Z" fill="white"/>
<path d="M64.3753 20.3455C64.2164 20.5026 64.0217 20.5813 63.7913 20.5813C63.5609 20.5813 63.3622 20.5026 63.1953 20.3455C63.0365 20.1805 62.957 19.9841 62.957 19.7562C62.957 19.5282 63.0365 19.3357 63.1953 19.1785C63.3622 19.0214 63.5609 18.9427 63.7913 18.9427C64.0217 18.9427 64.2164 19.0214 64.3753 19.1785C64.5341 19.3357 64.6136 19.5282 64.6136 19.7562C64.6136 19.9841 64.5341 20.1805 64.3753 20.3455ZM63.0881 27.4298V21.4063H64.4825V27.4298H63.0881Z" fill="white"/>
<path d="M68.3974 29.7853L67.6584 28.6773C68.4927 28.6223 69.0687 28.4927 69.3866 28.2884C69.7123 28.092 69.8752 27.7855 69.8752 27.3689V27.0271C69.5415 27.3887 69.0807 27.5693 68.4927 27.5693C67.7459 27.5693 67.138 27.2983 66.6694 26.756C66.2084 26.2059 65.978 25.424 65.978 24.4103C65.978 23.4359 66.2084 22.6696 66.6694 22.1117C67.138 21.5459 67.7498 21.2631 68.5047 21.2631C69.0767 21.2631 69.5335 21.432 69.8752 21.7699V21.4044H71.2696V26.8267C71.2696 27.8247 71.0511 28.5477 70.614 28.9956C70.1851 29.4435 69.4462 29.7068 68.3974 29.7853ZM68.7311 26.2492C69.2316 26.2492 69.613 26.0527 69.8752 25.6597V23.1608C69.5971 22.7679 69.2156 22.5715 68.7311 22.5715C68.2942 22.5715 67.9564 22.7285 67.7182 23.0429C67.4876 23.3573 67.3724 23.8131 67.3724 24.4103C67.3724 24.9761 67.4916 25.424 67.7299 25.754C67.9683 26.0841 68.302 26.2492 68.7311 26.2492Z" fill="white"/>
<path d="M74.3611 20.3455C74.2022 20.5026 74.0075 20.5813 73.7771 20.5813C73.5467 20.5813 73.3482 20.5026 73.1813 20.3455C73.0223 20.1805 72.9429 19.9841 72.9429 19.7562C72.9429 19.5282 73.0223 19.3357 73.1813 19.1785C73.3482 19.0214 73.5467 18.9427 73.7771 18.9427C74.0075 18.9427 74.2022 19.0214 74.3611 19.1785C74.5201 19.3357 74.5994 19.5282 74.5994 19.7562C74.5994 19.9841 74.5201 20.1805 74.3611 20.3455ZM73.0739 27.4298V21.4063H74.4683V27.4298H73.0739Z" fill="white"/>
<path d="M78.049 27.5713C77.1035 27.5713 76.6307 27.0565 76.6307 26.0272V22.6088H75.7251V21.4064H76.6307V19.5793L78.0251 18.9193V21.4064H79.4315V22.6088H78.0251V25.756C78.0251 26.141 78.1959 26.3336 78.5376 26.3336C78.8474 26.3336 79.1652 26.2432 79.491 26.0625L79.3242 27.3002C78.9746 27.4809 78.5495 27.5713 78.049 27.5713Z" fill="white"/>
<path d="M84.2344 27.4279V26.9447C83.8291 27.3611 83.2888 27.5693 82.6135 27.5693C81.962 27.5693 81.4296 27.3964 81.0164 27.0507C80.6114 26.6971 80.4087 26.202 80.4087 25.5655C80.4087 24.9132 80.6392 24.4181 81.0999 24.0803C81.5687 23.7423 82.1328 23.5735 82.7923 23.5735C83.3723 23.5735 83.853 23.6795 84.2344 23.8917V23.5735C84.2344 23.1884 84.1351 22.9093 83.9364 22.7364C83.7458 22.5636 83.4478 22.4771 83.0426 22.4771C82.3831 22.4771 81.7792 22.6657 81.2311 23.0429L80.802 21.9232C81.4615 21.4831 82.2559 21.2631 83.1856 21.2631C83.5034 21.2631 83.7815 21.2905 84.0198 21.3456C84.266 21.3927 84.5164 21.4909 84.7706 21.6403C85.0328 21.7896 85.2355 22.0253 85.3784 22.3475C85.5215 22.6696 85.593 23.0704 85.593 23.5499V27.4279H84.2344ZM82.8758 26.3552C83.408 26.3552 83.861 26.1627 84.2344 25.7776V24.9996C83.8848 24.8347 83.4795 24.7521 83.0187 24.7521C82.6454 24.7521 82.3434 24.8189 82.113 24.9525C81.8826 25.0861 81.7674 25.2904 81.7674 25.5655C81.7674 25.8091 81.8627 26.0016 82.0534 26.1431C82.2442 26.2845 82.5182 26.3552 82.8758 26.3552Z" fill="white"/>
<path d="M87.3202 27.4298V19.5676L88.7146 18.9193V27.4298H87.3202Z" fill="white"/>
<path d="M57.5432 39.3584C56.7806 39.3584 56.121 39.1698 55.5648 38.7926C55.0167 38.4076 54.6274 37.8849 54.397 37.2249L55.7198 36.7416C55.8946 37.1265 56.145 37.437 56.4706 37.6728C56.7964 37.9006 57.1698 38.0145 57.5908 38.0145C58.0279 38.0145 58.3735 37.9164 58.6278 37.7198C58.89 37.5234 59.021 37.2405 59.021 36.8712C59.021 36.722 58.9852 36.5844 58.9138 36.4586C58.8423 36.325 58.7588 36.215 58.6635 36.1286C58.5762 36.0421 58.4411 35.9557 58.2583 35.8693C58.0755 35.7828 57.9206 35.716 57.7935 35.6689C57.6664 35.6138 57.4796 35.547 57.2334 35.4685C56.9156 35.3585 56.6694 35.272 56.4946 35.2092C56.3276 35.1462 56.1091 35.0441 55.839 34.9028C55.5768 34.7534 55.3742 34.6041 55.2311 34.4548C55.0962 34.3054 54.973 34.109 54.8618 33.8654C54.7584 33.614 54.7068 33.3389 54.7068 33.0402C54.7068 32.4116 54.9531 31.8852 55.4458 31.4608C55.9383 31.0364 56.6058 30.8242 57.4479 30.8242C58.1471 30.8242 58.7271 30.9893 59.1879 31.3193C59.6487 31.6414 59.9586 32.0658 60.1175 32.5924L58.8303 33.0166C58.5762 32.4509 58.0835 32.168 57.3526 32.168C56.9791 32.168 56.6851 32.2466 56.4706 32.4037C56.264 32.553 56.1608 32.7692 56.1608 33.052C56.1608 33.2406 56.2402 33.4097 56.3991 33.5589C56.566 33.7082 56.7408 33.8222 56.9235 33.9008C57.1142 33.9714 57.3923 34.0657 57.7578 34.1837C57.9962 34.2701 58.175 34.3369 58.2942 34.384C58.4212 34.4234 58.596 34.4941 58.8184 34.5962C59.0408 34.6984 59.2156 34.7926 59.3428 34.8792C59.4699 34.9577 59.613 35.0677 59.7719 35.2092C59.9387 35.3506 60.0659 35.4998 60.1532 35.657C60.2406 35.8064 60.316 35.9872 60.3796 36.1993C60.4432 36.4037 60.475 36.6276 60.475 36.8712C60.475 37.6413 60.197 38.2504 59.6408 38.6982C59.0926 39.1384 58.3934 39.3584 57.5432 39.3584Z" fill="white"/>
<path d="M64.4845 39.3572C63.6185 39.3572 62.9312 39.0781 62.4227 38.5201C61.9221 37.9544 61.6719 37.1804 61.6719 36.198C61.6719 35.2237 61.9261 34.4574 62.4347 33.8994C62.9432 33.3337 63.6264 33.0508 64.4845 33.0508C65.2632 33.0508 65.8988 33.2905 66.3913 33.7698C66.8919 34.2492 67.1421 34.9525 67.1421 35.8797C67.1421 36.202 67.1263 36.4849 67.0945 36.7285H63.0543C63.0783 37.1528 63.2252 37.4946 63.4953 37.754C63.7733 38.0133 64.1031 38.1429 64.4845 38.1429C65.0248 38.1429 65.4539 37.9348 65.7716 37.5182L66.6535 38.4141C66.1212 39.0428 65.3981 39.3572 64.4845 39.3572ZM63.0663 35.5851H65.7597C65.7279 35.1529 65.5929 34.8268 65.3545 34.6068C65.1161 34.3788 64.8261 34.2649 64.4845 34.2649C64.0872 34.2649 63.7575 34.3749 63.4953 34.5949C63.2411 34.8072 63.0981 35.1372 63.0663 35.5851Z" fill="white"/>
<path d="M68.5679 39.2156V33.1922H69.9623V33.817C70.2085 33.3061 70.6257 33.0508 71.2136 33.0508C71.6427 33.0508 72.02 33.1884 72.3457 33.4633L72.1432 34.7246C71.8412 34.5124 71.4956 34.4064 71.1063 34.4064C70.7885 34.4064 70.5184 34.5164 70.296 34.7364C70.0735 34.9564 69.9623 35.3258 69.9623 35.8444V39.2156H68.5679Z" fill="white"/>
<path d="M75.1012 39.2162L72.8726 33.1927H74.2908L75.6375 36.953C75.733 37.2673 75.7886 37.4481 75.8044 37.4951C75.852 37.2909 75.9078 37.1102 75.9712 36.953L77.2942 33.1927H78.7123L76.4838 39.2162H75.1012Z" fill="white"/>
<path d="M81.2048 32.132C81.046 32.289 80.8512 32.3677 80.6208 32.3677C80.3904 32.3677 80.1918 32.289 80.0249 32.132C79.866 31.9668 79.7866 31.7704 79.7866 31.5425C79.7866 31.3146 79.866 31.1221 80.0249 30.9649C80.1918 30.8078 80.3904 30.7292 80.6208 30.7292C80.8512 30.7292 81.046 30.8078 81.2048 30.9649C81.3637 31.1221 81.443 31.3146 81.443 31.5425C81.443 31.7704 81.3637 31.9668 81.2048 32.132ZM79.9177 39.2161V33.1928H81.3121V39.2161H79.9177Z" fill="white"/>
<path d="M85.5258 39.3572C84.6915 39.3572 84.0281 39.0781 83.5355 38.5201C83.0509 37.9622 82.8086 37.1922 82.8086 36.2098C82.8086 35.2276 83.0509 34.4574 83.5355 33.8994C84.0281 33.3337 84.6915 33.0508 85.5258 33.0508C86.7811 33.0508 87.5875 33.6048 87.9451 34.7129L86.6222 35.1489C86.4237 34.6304 86.0741 34.371 85.5735 34.371C85.1523 34.371 84.8226 34.536 84.5842 34.866C84.3459 35.1961 84.2267 35.6441 84.2267 36.2098C84.2267 36.7677 84.3419 37.2117 84.5723 37.5419C84.8107 37.8641 85.1285 38.0252 85.5258 38.0252C86.0899 38.0252 86.4594 37.7344 86.6342 37.1528L87.969 37.5536C87.6194 38.756 86.8049 39.3572 85.5258 39.3572Z" fill="white"/>
<path d="M91.9389 39.3572C91.073 39.3572 90.3857 39.0781 89.8771 38.5201C89.3767 37.9544 89.1263 37.1804 89.1263 36.198C89.1263 35.2237 89.3806 34.4574 89.8892 33.8994C90.3975 33.3337 91.0809 33.0508 91.9389 33.0508C92.7177 33.0508 93.3531 33.2905 93.8462 33.7698C94.3466 34.2492 94.5963 34.9525 94.5963 35.8797C94.5963 36.202 94.5808 36.4849 94.5494 36.7285H90.5089C90.5327 37.1528 90.6797 37.4946 90.9498 37.754C91.228 38.0133 91.5577 38.1429 91.9389 38.1429C92.4792 38.1429 92.9084 37.9348 93.2261 37.5182L94.1077 38.4141C93.5757 39.0428 92.8528 39.3572 91.9389 39.3572ZM90.5208 35.5851H93.2142C93.1825 35.1529 93.0474 34.8268 92.809 34.6068C92.5706 34.3788 92.2806 34.2649 91.9389 34.2649C91.5418 34.2649 91.2121 34.3749 90.9498 34.5949C90.6956 34.8072 90.5525 35.1372 90.5208 35.5851Z" fill="white"/>
<path d="M97.9425 39.3572C97.4499 39.3572 96.9858 39.2628 96.549 39.0742C96.1191 38.8856 95.7939 38.6341 95.5717 38.3198L96.5245 37.5182C96.9534 37.9426 97.4265 38.1548 97.9425 38.1548C98.6025 38.1548 98.9326 37.9584 98.9326 37.5655C98.9326 37.4318 98.8729 37.31 98.7533 37.2C98.6417 37.09 98.5193 37.0074 98.3842 36.9525C98.2569 36.8896 98.0463 36.7992 97.7525 36.6814C97.0533 36.4534 96.5402 36.1941 96.2151 35.9033C95.8969 35.6048 95.7382 35.2119 95.7382 34.7247C95.7382 34.1981 95.9408 33.7896 96.3463 33.4988C96.7595 33.2001 97.2795 33.0508 97.9072 33.0508C98.8287 33.0508 99.5554 33.3612 100.088 33.982L99.1224 34.76C98.7651 34.4221 98.3596 34.253 97.9072 34.253C97.3588 34.253 97.0846 34.4181 97.0846 34.7482C97.0846 34.9132 97.1846 35.0546 97.3823 35.1725C97.589 35.2904 97.8876 35.4122 98.2764 35.538C98.9364 35.758 99.433 36.0173 99.7659 36.316C100.108 36.6145 100.279 37.0311 100.279 37.5655C100.279 38.1391 100.068 38.583 99.6474 38.8973C99.2263 39.2038 98.6583 39.3572 97.9425 39.3572Z" fill="white"/>
</svg>
