<svg width="192" height="192" viewBox="0 0 192 192" fill="none" xmlns="http://www.w3.org/2000/svg">
<path d="M0 96C0 42.9807 42.9807 0 96 0C149.019 0 192 42.9807 192 96C192 149.019 149.019 192 96 192C42.9807 192 0 149.019 0 96Z" fill="white"/>
<mask id="mask0_22744_9265" style="mask-type:alpha" maskUnits="userSpaceOnUse" x="0" y="0" width="192" height="192">
<rect width="192" height="192" rx="96" fill="white"/>
</mask>
<g mask="url(#mask0_22744_9265)">
<rect width="80" height="112" transform="translate(56 40)" fill="#F7F7F7"/>
<path d="M66 61.1556C66 60.4683 66.5596 59.9111 67.25 59.9111H124.75C125.44 59.9111 126 60.4683 126 61.1556C126 61.8429 125.44 62.4 124.75 62.4H67.25C66.5596 62.4 66 61.8429 66 61.1556Z" fill="#EBEBEB"/>
<path d="M66 69.8667C66 69.1794 66.5596 68.6222 67.25 68.6222H124.75C125.44 68.6222 126 69.1794 126 69.8667C126 70.554 125.44 71.1111 124.75 71.1111H67.25C66.5596 71.1111 66 70.554 66 69.8667Z" fill="#EBEBEB"/>
<path d="M96 78.5778C96 77.8905 96.5596 77.3334 97.25 77.3334H124.75C125.44 77.3334 126 77.8905 126 78.5778C126 79.2651 125.44 79.8222 124.75 79.8222H97.25C96.5596 79.8222 96 79.2651 96 78.5778Z" fill="#EBEBEB"/>
<path d="M96 87.2889C96 86.6016 96.5596 86.0445 97.25 86.0445H124.75C125.44 86.0445 126 86.6016 126 87.2889C126 87.9762 125.44 88.5334 124.75 88.5334H97.25C96.5596 88.5334 96 87.9762 96 87.2889Z" fill="#EBEBEB"/>
<path d="M96 96C96 95.3127 96.5596 94.7556 97.25 94.7556H124.75C125.44 94.7556 126 95.3127 126 96C126 96.6873 125.44 97.2445 124.75 97.2445H97.25C96.5596 97.2445 96 96.6873 96 96Z" fill="#EBEBEB"/>
<path d="M66 104.711C66 104.024 66.5596 103.467 67.25 103.467H124.75C125.44 103.467 126 104.024 126 104.711C126 105.398 125.44 105.956 124.75 105.956H67.25C66.5596 105.956 66 105.398 66 104.711Z" fill="#EBEBEB"/>
<path d="M66 113.422C66 112.735 66.5596 112.178 67.25 112.178H124.75C125.44 112.178 126 112.735 126 113.422C126 114.11 125.44 114.667 124.75 114.667H67.25C66.5596 114.667 66 114.11 66 113.422Z" fill="#EBEBEB"/>
<path d="M66 122.133C66 121.446 66.5596 120.889 67.25 120.889H124.75C125.44 120.889 126 121.446 126 122.133C126 122.821 125.44 123.378 124.75 123.378H67.25C66.5596 123.378 66 122.821 66 122.133Z" fill="#EBEBEB"/>
<path d="M66 130.844C66 130.157 66.5596 129.6 67.25 129.6H124.75C125.44 129.6 126 130.157 126 130.844C126 131.532 125.44 132.089 124.75 132.089H67.25C66.5596 132.089 66 131.532 66 130.844Z" fill="#EBEBEB"/>
<path d="M66 79.8222C66 78.4477 67.1193 77.3334 68.5 77.3334H88.5C89.8807 77.3334 91 78.4477 91 79.8222V94.7556C91 96.1302 89.8807 97.2445 88.5 97.2445H68.5C67.1193 97.2445 66 96.1302 66 94.7556V79.8222Z" fill="#EBEBEB"/>
<path fill-rule="evenodd" clip-rule="evenodd" d="M114 96C114 105.941 105.941 114 96 114C86.0589 114 78 105.941 78 96C78 86.0589 86.0589 78 96 78C105.941 78 114 86.0589 114 96ZM110.078 112.907C106.263 116.087 101.355 118 96 118C83.8497 118 74 108.15 74 96C74 83.8497 83.8497 74 96 74C108.15 74 118 83.8497 118 96C118 101.355 116.087 106.263 112.907 110.078L126.974 124.145C127.755 124.926 127.755 126.193 126.974 126.974C126.193 127.755 124.926 127.755 124.145 126.974L110.078 112.907Z" fill="#AFABED"/>
<path d="M96 94.5455L102.545 88L104 89.4545L97.4545 96L104 102.545L102.545 104L96 97.4545L89.4545 104L88 102.545L94.5455 96L88 89.4545L89.4545 88L96 94.5455Z" fill="#372CD1"/>
</g>
</svg>
