<svg width="359" height="800" viewBox="0 0 359 800" fill="none" xmlns="http://www.w3.org/2000/svg">
<g clip-path="url(#clip0_2960_23302)">
<rect width="359" height="800" fill="url(#paint0_linear_2960_23302)"/>
<g opacity="0.28">
<path d="M355.046 700.509C355.046 759.69 342.966 813.243 323.459 851.983C303.938 890.751 277.061 914.543 247.52 914.543C217.978 914.543 191.101 890.751 171.58 851.983C152.073 813.243 139.993 759.69 139.993 700.509C139.993 641.328 152.073 587.775 171.58 549.035C191.101 510.267 217.978 486.475 247.52 486.475C277.061 486.475 303.938 510.267 323.459 549.035C342.966 587.775 355.046 641.328 355.046 700.509Z" stroke="#AFC5D3"/>
<path d="M357.921 720.228C357.921 779.408 345.842 832.962 326.335 871.702C306.813 910.47 279.936 934.262 250.395 934.262C220.854 934.262 193.977 910.47 174.455 871.702C154.948 832.962 142.869 779.408 142.869 720.228C142.869 661.047 154.948 607.494 174.455 568.754C193.977 529.985 220.854 506.193 250.395 506.193C279.936 506.193 306.813 529.985 326.335 568.754C345.842 607.494 357.921 661.047 357.921 720.228Z" stroke="#AFC5D3"/>
<path d="M365.038 735.115C365.038 794.296 352.959 847.849 333.452 886.589C313.93 925.358 287.053 949.15 257.512 949.15C227.971 949.15 201.094 925.358 181.572 886.589C162.065 847.849 149.986 794.296 149.986 735.115C149.986 675.935 162.065 622.381 181.572 583.642C201.094 544.873 227.971 521.081 257.512 521.081C287.053 521.081 313.93 544.873 333.452 583.642C352.959 622.381 365.038 675.935 365.038 735.115Z" stroke="#AFC5D3"/>
<path d="M374.211 744.584C374.211 803.765 362.131 857.318 342.624 896.058C323.102 934.827 296.225 958.618 266.684 958.618C237.143 958.618 210.266 934.827 190.745 896.058C171.238 857.318 159.158 803.765 159.158 744.584C159.158 685.403 171.238 631.85 190.745 593.11C210.266 554.342 237.143 530.55 266.684 530.55C296.225 530.55 323.102 554.342 342.624 593.11C362.131 631.85 374.211 685.403 374.211 744.584Z" stroke="#AFC5D3"/>
<path d="M384.181 750.009C384.181 809.19 372.102 862.743 352.595 901.483C333.073 940.251 306.196 964.043 276.655 964.043C247.114 964.043 220.237 940.251 200.715 901.483C181.208 862.743 169.129 809.19 169.129 750.009C169.129 690.828 181.208 637.275 200.715 598.535C220.237 559.767 247.114 535.975 276.655 535.975C306.196 535.975 333.073 559.767 352.595 598.535C372.102 637.275 384.181 690.828 384.181 750.009Z" stroke="#AFC5D3"/>
<path d="M394.434 752.611C394.434 811.792 382.355 865.346 362.848 904.085C343.326 942.854 316.449 966.646 286.908 966.646C257.367 966.646 230.49 942.854 210.968 904.085C191.461 865.346 179.382 811.792 179.382 752.611C179.382 693.431 191.461 639.877 210.968 601.138C230.49 562.369 257.367 538.577 286.908 538.577C316.449 538.577 343.326 562.369 362.848 601.138C382.355 639.877 394.434 693.431 394.434 752.611Z" stroke="#AFC5D3"/>
<path d="M404.768 753.2C404.768 812.381 392.688 865.934 373.181 904.674C353.659 943.443 326.782 967.235 297.241 967.235C267.7 967.235 240.823 943.443 221.302 904.674C201.795 865.934 189.715 812.381 189.715 753.2C189.715 694.02 201.795 640.466 221.302 601.727C240.823 562.958 267.7 539.166 297.241 539.166C326.782 539.166 353.659 562.958 373.181 601.727C392.688 640.466 404.768 694.02 404.768 753.2Z" stroke="#AFC5D3"/>
<path d="M415.095 752.277C415.095 811.457 403.015 865.011 383.508 903.75C363.986 942.519 337.109 966.311 307.568 966.311C278.027 966.311 251.15 942.519 231.629 903.75C212.122 865.011 200.042 811.457 200.042 752.277C200.042 693.096 212.122 639.542 231.629 600.803C251.15 562.034 278.027 538.242 307.568 538.242C337.109 538.242 363.986 562.034 383.508 600.803C403.015 639.542 415.095 693.096 415.095 752.277Z" stroke="#AFC5D3"/>
<path d="M425.378 750.184C425.378 809.364 413.298 862.918 393.791 901.658C374.27 940.426 347.393 964.218 317.852 964.218C288.311 964.218 261.434 940.426 241.912 901.658C222.405 862.918 210.325 809.364 210.325 750.184C210.325 691.003 222.405 637.45 241.912 598.71C261.434 559.941 288.311 536.149 317.852 536.149C347.393 536.149 374.27 559.941 393.791 598.71C413.298 637.45 425.378 691.003 425.378 750.184Z" stroke="#AFC5D3"/>
<path d="M435.602 747.156C435.602 806.337 423.522 859.891 404.015 898.63C384.493 937.399 357.616 961.191 328.075 961.191C298.534 961.191 271.657 937.399 252.135 898.63C232.629 859.891 220.549 806.337 220.549 747.156C220.549 687.976 232.629 634.422 252.135 595.683C271.657 556.914 298.534 533.122 328.075 533.122C357.616 533.122 384.493 556.914 404.015 595.683C423.522 634.422 435.602 687.976 435.602 747.156Z" stroke="#AFC5D3"/>
<path d="M445.763 743.361C445.763 802.542 433.683 856.096 414.176 894.835C394.654 933.604 367.777 957.396 338.236 957.396C308.695 957.396 281.818 933.604 262.297 894.835C242.79 856.096 230.71 802.542 230.71 743.361C230.71 684.181 242.79 630.627 262.297 591.888C281.818 553.119 308.695 529.327 338.236 529.327C367.777 529.327 394.654 553.119 414.176 591.888C433.683 630.627 445.763 684.181 445.763 743.361Z" stroke="#AFC5D3"/>
<path d="M455.855 738.922C455.855 798.103 443.775 851.656 424.268 890.396C404.747 929.164 377.87 952.956 348.329 952.956C318.788 952.956 291.911 929.164 272.389 890.396C252.882 851.656 240.802 798.103 240.802 738.922C240.802 679.741 252.882 626.188 272.389 587.448C291.911 548.68 318.788 524.888 348.329 524.888C377.87 524.888 404.747 548.68 424.268 587.448C443.775 626.188 455.855 679.741 455.855 738.922Z" stroke="#AFC5D3"/>
<path d="M465.883 733.934C465.883 793.114 453.803 846.668 434.296 885.408C414.774 924.176 387.897 947.968 358.356 947.968C328.815 947.968 301.938 924.176 282.417 885.408C262.91 846.668 250.83 793.114 250.83 733.934C250.83 674.753 262.91 621.2 282.417 582.46C301.938 543.691 328.815 519.899 358.356 519.899C387.897 519.899 414.774 543.691 434.296 582.46C453.803 621.2 465.883 674.753 465.883 733.934Z" stroke="#AFC5D3"/>
<path d="M475.847 728.47C475.847 787.651 463.768 841.204 444.261 879.944C424.739 918.712 397.862 942.504 368.321 942.504C338.78 942.504 311.903 918.712 292.381 879.944C272.874 841.204 260.795 787.651 260.795 728.47C260.795 669.289 272.874 615.736 292.381 576.996C311.903 538.227 338.78 514.436 368.321 514.436C397.862 514.436 424.739 538.227 444.261 576.996C463.768 615.736 475.847 669.289 475.847 728.47Z" stroke="#AFC5D3"/>
<path d="M485.752 722.592C485.752 781.773 473.673 835.326 454.166 874.066C434.644 912.834 407.767 936.626 378.226 936.626C348.685 936.626 321.808 912.834 302.286 874.066C282.779 835.326 270.7 781.773 270.7 722.592C270.7 663.411 282.779 609.858 302.286 571.118C321.808 532.35 348.685 508.558 378.226 508.558C407.767 508.558 434.644 532.35 454.166 571.118C473.673 609.858 485.752 663.411 485.752 722.592Z" stroke="#AFC5D3"/>
<path d="M495.599 716.344C495.599 775.525 483.519 829.078 464.012 867.818C444.491 906.586 417.614 930.378 388.072 930.378C358.531 930.378 331.654 906.586 312.133 867.818C292.626 829.078 280.546 775.525 280.546 716.344C280.546 657.163 292.626 603.61 312.133 564.87C331.654 526.101 358.531 502.31 388.072 502.31C417.614 502.31 444.491 526.101 464.012 564.87C483.519 603.61 495.599 657.163 495.599 716.344Z" stroke="#AFC5D3"/>
<path d="M505.392 709.771C505.392 768.951 493.312 822.505 473.805 861.244C454.284 900.013 427.407 923.805 397.866 923.805C368.325 923.805 341.448 900.013 321.926 861.244C302.419 822.505 290.339 768.951 290.339 709.771C290.339 650.59 302.419 597.037 321.926 558.297C341.448 519.528 368.325 495.736 397.866 495.736C427.407 495.736 454.284 519.528 473.805 558.297C493.312 597.037 505.392 650.59 505.392 709.771Z" stroke="#AFC5D3"/>
<path d="M515.134 702.901C515.134 762.081 503.054 815.635 483.547 854.374C464.026 893.143 437.149 916.935 407.608 916.935C378.066 916.935 351.189 893.143 331.668 854.374C312.161 815.635 300.081 762.081 300.081 702.901C300.081 643.72 312.161 590.166 331.668 551.427C351.189 512.658 378.066 488.866 407.608 488.866C437.149 488.866 464.026 512.658 483.547 551.427C503.054 590.166 515.134 643.72 515.134 702.901Z" stroke="#AFC5D3"/>
<path d="M528.828 692.861C528.828 752.042 516.748 805.596 497.241 844.335C477.72 883.104 450.843 906.896 421.301 906.896C391.76 906.896 364.883 883.104 345.362 844.335C325.855 805.596 313.775 752.042 313.775 692.861C313.775 633.681 325.855 580.127 345.362 541.388C364.883 502.619 391.76 478.827 421.301 478.827C450.843 478.827 477.72 502.619 497.241 541.388C516.748 580.127 528.828 633.681 528.828 692.861Z" stroke="#AFC5D3"/>
<path d="M538.471 685.698C538.471 744.879 526.392 798.432 506.885 837.172C487.363 875.941 460.486 899.733 430.945 899.733C401.404 899.733 374.527 875.941 355.005 837.172C335.499 798.432 323.419 744.879 323.419 685.698C323.419 626.518 335.499 572.964 355.005 534.225C374.527 495.456 401.404 471.664 430.945 471.664C460.486 471.664 487.363 495.456 506.885 534.225C526.392 572.964 538.471 626.518 538.471 685.698Z" stroke="#AFC5D3"/>
<path d="M548.084 678.441C548.084 737.621 536.005 791.175 516.498 829.914C496.976 868.683 470.099 892.475 440.558 892.475C411.017 892.475 384.14 868.683 364.618 829.914C345.111 791.175 333.032 737.621 333.032 678.441C333.032 619.26 345.111 565.706 364.618 526.967C384.14 488.198 411.017 464.406 440.558 464.406C470.099 464.406 496.976 488.198 516.498 526.967C536.005 565.706 548.084 619.26 548.084 678.441Z" stroke="#AFC5D3"/>
<path d="M557.635 671.035C557.635 730.216 545.555 783.769 526.048 822.509C506.527 861.278 479.65 885.07 450.109 885.07C420.568 885.07 393.691 861.278 374.169 822.509C354.662 783.769 342.582 730.216 342.582 671.035C342.582 611.855 354.662 558.301 374.169 519.561C393.691 480.793 420.568 457.001 450.109 457.001C479.65 457.001 506.527 480.793 526.048 519.561C545.555 558.301 557.635 611.855 557.635 671.035Z" stroke="#AFC5D3"/>
<path d="M567.043 663.4C567.043 722.58 554.963 776.134 535.456 814.873C515.934 853.642 489.057 877.434 459.516 877.434C429.975 877.434 403.098 853.642 383.577 814.873C364.07 776.134 351.99 722.58 351.99 663.4C351.99 604.219 364.07 550.665 383.577 511.926C403.098 473.157 429.975 449.365 459.516 449.365C489.057 449.365 515.934 473.157 535.456 511.926C554.963 550.665 567.043 604.219 567.043 663.4Z" stroke="#AFC5D3"/>
<path d="M567.357 606.952C567.357 666.133 555.277 719.686 535.77 758.426C516.249 797.195 489.372 820.987 459.831 820.987C430.29 820.987 403.413 797.195 383.891 758.426C364.384 719.686 352.304 666.133 352.304 606.952C352.304 547.772 364.384 494.218 383.891 455.478C403.413 416.71 430.29 392.918 459.831 392.918C489.372 392.918 516.249 416.71 535.77 455.478C555.277 494.218 567.357 547.772 567.357 606.952Z" stroke="#AFC5D3"/>
<path d="M557.533 601.172C557.533 660.353 545.454 713.906 525.947 752.646C506.425 791.414 479.548 815.206 450.007 815.206C420.466 815.206 393.589 791.414 374.067 752.646C354.56 713.906 342.481 660.353 342.481 601.172C342.481 541.991 354.56 488.438 374.067 449.698C393.589 410.93 420.466 387.138 450.007 387.138C479.548 387.138 506.425 410.93 525.947 449.698C545.454 488.438 557.533 541.991 557.533 601.172Z" stroke="#AFC5D3"/>
<path d="M547.66 595.47C547.66 654.651 535.58 708.204 516.073 746.944C496.552 785.712 469.675 809.504 440.133 809.504C410.592 809.504 383.715 785.712 364.194 746.944C344.687 708.204 332.607 654.651 332.607 595.47C332.607 536.289 344.687 482.736 364.194 443.996C383.715 405.227 410.592 381.436 440.133 381.436C469.675 381.436 496.552 405.227 516.073 443.996C535.58 482.736 547.66 536.289 547.66 595.47Z" stroke="#AFC5D3"/>
<path d="M537.776 589.705C537.776 648.886 525.697 702.439 506.19 741.179C486.668 779.948 459.791 803.74 430.25 803.74C400.709 803.74 373.832 779.948 354.31 741.179C334.803 702.439 322.724 648.886 322.724 589.705C322.724 530.524 334.803 476.971 354.31 438.231C373.832 399.463 400.709 375.671 430.25 375.671C459.791 375.671 486.668 399.463 506.19 438.231C525.697 476.971 537.776 530.524 537.776 589.705Z" stroke="#AFC5D3"/>
<path d="M527.902 583.797C527.902 642.978 515.822 696.531 496.315 735.271C476.794 774.039 449.917 797.831 420.376 797.831C390.835 797.831 363.958 774.039 344.436 735.271C324.929 696.531 312.849 642.978 312.849 583.797C312.849 524.616 324.929 471.063 344.436 432.323C363.958 393.555 390.835 369.763 420.376 369.763C449.917 369.763 476.794 393.555 496.315 432.323C515.822 471.063 527.902 524.616 527.902 583.797Z" stroke="#AFC5D3"/>
<path d="M518.051 577.697C518.051 636.878 505.971 690.432 486.464 729.171C466.943 767.94 440.066 791.732 410.525 791.732C380.984 791.732 354.107 767.94 334.585 729.171C315.078 690.432 302.998 636.878 302.998 577.697C302.998 518.517 315.078 464.963 334.585 426.224C354.107 387.455 380.984 363.663 410.525 363.663C440.066 363.663 466.943 387.455 486.464 426.224C505.971 464.963 518.051 518.517 518.051 577.697Z" stroke="#AFC5D3"/>
<path d="M508.231 571.377C508.231 630.558 496.151 684.111 476.644 722.851C457.122 761.62 430.245 785.411 400.704 785.411C371.163 785.411 344.286 761.62 324.765 722.851C305.258 684.111 293.178 630.558 293.178 571.377C293.178 512.196 305.258 458.643 324.765 419.903C344.286 381.135 371.163 357.343 400.704 357.343C430.245 357.343 457.122 381.135 476.644 419.903C496.151 458.643 508.231 512.196 508.231 571.377Z" stroke="#AFC5D3"/>
<path d="M498.446 564.815C498.446 623.995 486.366 677.549 466.859 716.288C447.337 755.057 420.46 778.849 390.919 778.849C361.378 778.849 334.501 755.057 314.98 716.288C295.473 677.549 283.393 623.995 283.393 564.815C283.393 505.634 295.473 452.081 314.98 413.341C334.501 374.572 361.378 350.78 390.919 350.78C420.46 350.78 447.337 374.572 466.859 413.341C486.366 452.081 498.446 505.634 498.446 564.815Z" stroke="#AFC5D3"/>
<path d="M488.706 557.997C488.706 617.178 476.626 670.731 457.119 709.471C437.597 748.24 410.72 772.032 381.179 772.032C351.638 772.032 324.761 748.24 305.239 709.471C285.733 670.731 273.653 617.178 273.653 557.997C273.653 498.816 285.733 445.263 305.239 406.523C324.761 367.755 351.638 343.963 381.179 343.963C410.72 343.963 437.597 367.755 457.119 406.523C476.626 445.263 488.706 498.816 488.706 557.997Z" stroke="#AFC5D3"/>
<path d="M479.011 550.914C479.011 610.095 466.931 663.648 447.424 702.388C427.902 741.157 401.025 764.949 371.484 764.949C341.943 764.949 315.066 741.157 295.545 702.388C276.038 663.648 263.958 610.095 263.958 550.914C263.958 491.733 276.038 438.18 295.545 399.44C315.066 360.672 341.943 336.88 371.484 336.88C401.025 336.88 427.902 360.672 447.424 399.44C466.931 438.18 479.011 491.733 479.011 550.914Z" stroke="#AFC5D3"/>
<path d="M469.365 543.563C469.365 602.743 457.285 656.297 437.778 695.036C418.257 733.805 391.38 757.597 361.839 757.597C332.298 757.597 305.421 733.805 285.899 695.036C266.392 656.297 254.312 602.743 254.312 543.563C254.312 484.382 266.392 430.829 285.899 392.089C305.421 353.32 332.298 329.528 361.839 329.528C391.38 329.528 418.257 353.32 437.778 392.089C457.285 430.829 469.365 484.382 469.365 543.563Z" stroke="#AFC5D3"/>
<path d="M459.774 535.934C459.774 595.114 447.694 648.668 428.187 687.408C408.665 726.176 381.788 749.968 352.247 749.968C322.706 749.968 295.829 726.176 276.308 687.408C256.801 648.668 244.721 595.114 244.721 535.934C244.721 476.753 256.801 423.2 276.308 384.46C295.829 345.691 322.706 321.899 352.247 321.899C381.788 321.899 408.665 345.691 428.187 384.46C447.694 423.2 459.774 476.753 459.774 535.934Z" stroke="#AFC5D3"/>
<path d="M450.238 528.027C450.238 587.207 438.158 640.761 418.651 679.5C399.13 718.269 372.253 742.061 342.712 742.061C313.171 742.061 286.294 718.269 266.772 679.5C247.265 640.761 235.185 587.207 235.185 528.027C235.185 468.846 247.265 415.292 266.772 376.553C286.294 337.784 313.171 313.992 342.712 313.992C372.253 313.992 399.13 337.784 418.651 376.553C438.158 415.292 450.238 468.846 450.238 528.027Z" stroke="#AFC5D3"/>
<path d="M440.763 519.835C440.763 579.016 428.683 632.569 409.176 671.309C389.655 710.078 362.778 733.869 333.237 733.869C303.696 733.869 276.819 710.078 257.297 671.309C237.79 632.569 225.71 579.016 225.71 519.835C225.71 460.654 237.79 407.101 257.297 368.361C276.819 329.593 303.696 305.801 333.237 305.801C362.778 305.801 389.655 329.593 409.176 368.361C428.683 407.101 440.763 460.654 440.763 519.835Z" stroke="#AFC5D3"/>
<path d="M431.35 511.365C431.35 570.546 419.27 624.099 399.764 662.839C380.242 701.608 353.365 725.4 323.824 725.4C294.283 725.4 267.406 701.608 247.884 662.839C228.377 624.099 216.297 570.546 216.297 511.365C216.297 452.185 228.377 398.631 247.884 359.892C267.406 321.123 294.283 297.331 323.824 297.331C353.365 297.331 380.242 321.123 399.764 359.892C419.27 398.631 431.35 452.185 431.35 511.365Z" stroke="#AFC5D3"/>
<path d="M422.003 502.613C422.003 561.794 409.923 615.348 390.416 654.087C370.895 692.856 344.018 716.648 314.477 716.648C284.936 716.648 258.059 692.856 238.537 654.087C219.03 615.348 206.95 561.794 206.95 502.613C206.95 443.433 219.03 389.879 238.537 351.14C258.059 312.371 284.936 288.579 314.477 288.579C344.018 288.579 370.895 312.371 390.416 351.14C409.923 389.879 422.003 443.433 422.003 502.613Z" stroke="#AFC5D3"/>
<path d="M412.723 493.583C412.723 552.764 400.643 606.317 381.136 645.057C361.615 683.826 334.738 707.617 305.197 707.617C275.655 707.617 248.778 683.826 229.257 645.057C209.75 606.317 197.67 552.764 197.67 493.583C197.67 434.402 209.75 380.849 229.257 342.109C248.778 303.341 275.655 279.549 305.197 279.549C334.738 279.549 361.615 303.341 381.136 342.109C400.643 380.849 412.723 434.402 412.723 493.583Z" stroke="#AFC5D3"/>
<path d="M403.513 484.27C403.513 543.45 391.433 597.004 371.926 635.743C352.405 674.512 325.528 698.304 295.986 698.304C266.445 698.304 239.568 674.512 220.047 635.743C200.54 597.004 188.46 543.45 188.46 484.27C188.46 425.089 200.54 371.536 220.047 332.796C239.568 294.027 266.445 270.235 295.986 270.235C325.528 270.235 352.405 294.027 371.926 332.796C391.433 371.536 403.513 425.089 403.513 484.27Z" stroke="#AFC5D3"/>
<path d="M394.376 474.679C394.376 533.86 382.296 587.413 362.789 626.153C343.268 664.921 316.391 688.713 286.849 688.713C257.308 688.713 230.431 664.921 210.91 626.153C191.403 587.413 179.323 533.86 179.323 474.679C179.323 415.498 191.403 361.945 210.91 323.205C230.431 284.436 257.308 260.645 286.849 260.645C316.391 260.645 343.268 284.436 362.789 323.205C382.296 361.945 394.376 415.498 394.376 474.679Z" stroke="#AFC5D3"/>
<path d="M385.314 464.812C385.314 523.992 373.234 577.546 353.727 616.285C334.205 655.054 307.328 678.846 277.787 678.846C248.246 678.846 221.369 655.054 201.848 616.285C182.341 577.546 170.261 523.992 170.261 464.812C170.261 405.631 182.341 352.078 201.848 313.338C221.369 274.569 248.246 250.777 277.787 250.777C307.328 250.777 334.205 274.569 353.727 313.338C373.234 352.078 385.314 405.631 385.314 464.812Z" stroke="#AFC5D3"/>
<path d="M376.326 454.668C376.326 513.849 364.246 567.402 344.739 606.142C325.218 644.911 298.341 668.702 268.8 668.702C239.259 668.702 212.382 644.911 192.86 606.142C173.353 567.402 161.273 513.849 161.273 454.668C161.273 395.487 173.353 341.934 192.86 303.194C212.382 264.426 239.259 240.634 268.8 240.634C298.341 240.634 325.218 264.426 344.739 303.194C364.246 341.934 376.326 395.487 376.326 454.668Z" stroke="#AFC5D3"/>
<path d="M367.419 444.255C367.419 503.436 355.339 556.989 335.832 595.729C316.311 634.497 289.434 658.289 259.893 658.289C230.352 658.289 203.475 634.497 183.953 595.729C164.446 556.989 152.366 503.436 152.366 444.255C152.366 385.074 164.446 331.521 183.953 292.781C203.475 254.013 230.352 230.221 259.893 230.221C289.434 230.221 316.311 254.013 335.832 292.781C355.339 331.521 367.419 385.074 367.419 444.255Z" stroke="#AFC5D3"/>
<path d="M358.523 433.487C358.523 492.668 346.443 546.222 326.936 584.961C307.414 623.73 280.537 647.522 250.996 647.522C221.455 647.522 194.578 623.73 175.057 584.961C155.55 546.222 143.47 492.668 143.47 433.487C143.47 374.307 155.55 320.753 175.057 282.014C194.578 243.245 221.455 219.453 250.996 219.453C280.537 219.453 307.414 243.245 326.936 282.014C346.443 320.753 358.523 374.307 358.523 433.487Z" stroke="#AFC5D3"/>
<path d="M348.427 420.753C348.427 479.934 336.347 533.487 316.84 572.227C297.318 610.996 270.441 634.787 240.9 634.787C211.359 634.787 184.482 610.996 164.961 572.227C145.454 533.487 133.374 479.934 133.374 420.753C133.374 361.572 145.454 308.019 164.961 269.279C184.482 230.511 211.359 206.719 240.9 206.719C270.441 206.719 297.318 230.511 316.84 269.279C336.347 308.019 348.427 361.572 348.427 420.753Z" stroke="#AFC5D3"/>
<path d="M339.894 409.319C339.894 468.5 327.815 522.054 308.308 560.793C288.786 599.562 261.909 623.354 232.368 623.354C202.827 623.354 175.95 599.562 156.428 560.793C136.921 522.054 124.842 468.5 124.842 409.319C124.842 350.139 136.921 296.585 156.428 257.846C175.95 219.077 202.827 195.285 232.368 195.285C261.909 195.285 288.786 219.077 308.308 257.846C327.815 296.585 339.894 350.139 339.894 409.319Z" stroke="#AFC5D3"/>
<path d="M331.578 397.346C331.578 456.527 319.498 510.08 299.991 548.82C280.469 587.588 253.592 611.38 224.051 611.38C194.51 611.38 167.633 587.588 148.112 548.82C128.605 510.08 116.525 456.527 116.525 397.346C116.525 338.165 128.605 284.612 148.112 245.872C167.633 207.103 194.51 183.312 224.051 183.312C253.592 183.312 280.469 207.103 299.991 245.872C319.498 284.612 331.578 338.165 331.578 397.346Z" stroke="#AFC5D3"/>
<path d="M323.568 384.669C323.568 443.85 311.489 497.403 291.982 536.143C272.46 574.912 245.583 598.703 216.042 598.703C186.501 598.703 159.624 574.912 140.102 536.143C120.595 497.403 108.516 443.85 108.516 384.669C108.516 325.488 120.595 271.935 140.102 233.195C159.624 194.427 186.501 170.635 216.042 170.635C245.583 170.635 272.46 194.427 291.982 233.195C311.489 271.935 323.568 325.488 323.568 384.669Z" stroke="#AFC5D3"/>
<path d="M316.001 370.979C316.001 430.159 303.921 483.713 284.414 522.452C264.893 561.221 238.016 585.013 208.474 585.013C178.933 585.013 152.056 561.221 132.535 522.452C113.028 483.713 100.948 430.159 100.948 370.979C100.948 311.798 113.028 258.245 132.535 219.505C152.056 180.736 178.933 156.944 208.474 156.944C238.016 156.944 264.893 180.736 284.414 219.505C303.921 258.245 316.001 311.798 316.001 370.979Z" stroke="#AFC5D3"/>
<path d="M309.267 355.931C309.267 415.112 297.187 468.665 277.68 507.405C258.159 546.173 231.282 569.965 201.741 569.965C172.2 569.965 145.323 546.173 125.801 507.405C106.294 468.665 94.2142 415.112 94.2142 355.931C94.2142 296.75 106.294 243.197 125.801 204.457C145.323 165.688 172.2 141.896 201.741 141.896C231.282 141.896 258.159 165.688 277.68 204.457C297.187 243.197 309.267 296.75 309.267 355.931Z" stroke="#AFC5D3"/>
<path d="M304.355 339.379C304.355 398.56 292.275 452.113 272.768 490.853C253.247 529.621 226.37 553.413 196.829 553.413C167.288 553.413 140.411 529.621 120.889 490.853C101.382 452.113 89.3022 398.56 89.3022 339.379C89.3022 280.198 101.382 226.645 120.889 187.905C140.411 149.137 167.288 125.345 196.829 125.345C226.37 125.345 253.247 149.137 272.768 187.905C292.275 226.645 304.355 280.198 304.355 339.379Z" stroke="#AFC5D3"/>
<path d="M303.553 319.011C303.553 378.192 291.473 431.745 271.966 470.485C252.445 509.253 225.568 533.045 196.026 533.045C166.485 533.045 139.608 509.253 120.087 470.485C100.58 431.745 88.5 378.192 88.5 319.011C88.5 259.83 100.58 206.277 120.087 167.537C139.608 128.768 166.485 104.977 196.026 104.977C225.568 104.977 252.445 128.768 271.966 167.537C291.473 206.277 303.553 259.83 303.553 319.011Z" stroke="#AFC5D3"/>
<path d="M309.682 303.196C309.682 362.377 297.602 415.931 278.095 454.67C258.573 493.439 231.696 517.231 202.155 517.231C172.614 517.231 145.737 493.439 126.216 454.67C106.709 415.931 94.6289 362.377 94.6289 303.196C94.6289 244.016 106.709 190.462 126.216 151.723C145.737 112.954 172.614 89.1621 202.155 89.1621C231.696 89.1621 258.573 112.954 278.095 151.723C297.602 190.462 309.682 244.016 309.682 303.196Z" stroke="#AFC5D3"/>
<path d="M318.628 293.831C318.628 353.012 306.549 406.565 287.042 445.305C267.52 484.074 240.643 507.866 211.102 507.866C181.561 507.866 154.684 484.074 135.162 445.305C115.656 406.565 103.576 353.012 103.576 293.831C103.576 234.65 115.656 181.097 135.162 142.357C154.684 103.589 181.561 79.7969 211.102 79.7969C240.643 79.7969 267.52 103.589 287.042 142.357C306.549 181.097 318.628 234.65 318.628 293.831Z" stroke="#AFC5D3"/>
<path d="M328.397 287.871C328.397 347.052 316.318 400.605 296.811 439.345C277.289 478.114 250.412 501.906 220.871 501.906C191.33 501.906 164.453 478.114 144.931 439.345C125.424 400.605 113.345 347.052 113.345 287.871C113.345 228.691 125.424 175.137 144.931 136.397C164.453 97.6288 191.33 73.8369 220.871 73.8369C250.412 73.8369 277.289 97.6288 296.811 136.397C316.318 175.137 328.397 228.691 328.397 287.871Z" stroke="#AFC5D3"/>
<path d="M338.474 283.877C338.474 343.058 326.394 396.611 306.887 435.351C287.366 474.12 260.489 497.911 230.947 497.911C201.406 497.911 174.529 474.12 155.008 435.351C135.501 396.611 123.421 343.058 123.421 283.877C123.421 224.696 135.501 171.143 155.008 132.403C174.529 93.6347 201.406 69.8428 230.947 69.8428C260.489 69.8428 287.366 93.6347 306.887 132.403C326.394 171.143 338.474 224.696 338.474 283.877Z" stroke="#AFC5D3"/>
<path d="M348.683 281.164C348.683 340.345 336.603 393.898 317.096 432.638C297.574 471.407 270.697 495.199 241.156 495.199C211.615 495.199 184.738 471.407 165.217 432.638C145.71 393.898 133.63 340.345 133.63 281.164C133.63 221.983 145.71 168.43 165.217 129.69C184.738 90.9218 211.615 67.1299 241.156 67.1299C270.697 67.1299 297.574 90.9218 317.096 129.69C336.603 168.43 348.683 221.983 348.683 281.164Z" stroke="#AFC5D3"/>
<path d="M358.957 279.361C358.957 338.542 346.877 392.096 327.37 430.835C307.849 469.604 280.972 493.396 251.431 493.396C221.89 493.396 195.013 469.604 175.491 430.835C155.984 392.096 143.904 338.542 143.904 279.361C143.904 220.181 155.984 166.627 175.491 127.888C195.013 89.119 221.89 65.3271 251.431 65.3271C280.972 65.3271 307.849 89.119 327.37 127.888C346.877 166.627 358.957 220.181 358.957 279.361Z" stroke="#AFC5D3"/>
<path d="M369.264 278.241C369.264 337.422 357.185 390.975 337.678 429.715C318.156 468.484 291.279 492.276 261.738 492.276C232.197 492.276 205.32 468.484 185.798 429.715C166.291 390.975 154.212 337.422 154.212 278.241C154.212 219.061 166.291 165.507 185.798 126.768C205.32 87.9989 232.197 64.207 261.738 64.207C291.279 64.207 318.156 87.9989 337.678 126.768C357.185 165.507 369.264 219.061 369.264 278.241Z" stroke="#AFC5D3"/>
<path d="M379.588 277.666C379.588 336.847 367.508 390.4 348.001 429.14C328.479 467.909 301.602 491.701 272.061 491.701C242.52 491.701 215.643 467.909 196.122 429.14C176.615 390.4 164.535 336.847 164.535 277.666C164.535 218.485 176.615 164.932 196.122 126.192C215.643 87.4237 242.52 63.6318 272.061 63.6318C301.602 63.6318 328.479 87.4237 348.001 126.192C367.508 164.932 379.588 218.485 379.588 277.666Z" stroke="#AFC5D3"/>
<path d="M389.918 277.534C389.918 336.715 377.838 390.268 358.331 429.008C338.81 467.777 311.933 491.569 282.392 491.569C252.851 491.569 225.974 467.777 206.452 429.008C186.945 390.268 174.865 336.715 174.865 277.534C174.865 218.354 186.945 164.8 206.452 126.061C225.974 87.2919 252.851 63.5 282.392 63.5C311.933 63.5 338.81 87.2919 358.331 126.061C377.838 164.8 389.918 218.354 389.918 277.534Z" stroke="#AFC5D3"/>
<path d="M400.251 277.77C400.251 336.95 388.171 390.504 368.664 429.243C349.142 468.012 322.265 491.804 292.724 491.804C263.183 491.804 236.306 468.012 216.785 429.243C197.278 390.504 185.198 336.95 185.198 277.77C185.198 218.589 197.278 165.036 216.785 126.296C236.306 87.5273 263.183 63.7354 292.724 63.7354C322.265 63.7354 349.142 87.5273 368.664 126.296C388.171 165.036 400.251 218.589 400.251 277.77Z" stroke="#AFC5D3"/>
<path d="M410.582 278.329C410.582 337.51 398.502 391.063 378.995 429.803C359.474 468.572 332.597 492.364 303.056 492.364C273.514 492.364 246.637 468.572 227.116 429.803C207.609 391.063 195.529 337.51 195.529 278.329C195.529 219.149 207.609 165.595 227.116 126.855C246.637 88.0868 273.514 64.2949 303.056 64.2949C332.597 64.2949 359.474 88.0868 378.995 126.855C398.502 165.595 410.582 219.149 410.582 278.329Z" stroke="#AFC5D3"/>
<path d="M420.909 279.165C420.909 338.346 408.829 391.899 389.322 430.639C369.801 469.408 342.924 493.2 313.382 493.2C283.841 493.2 256.964 469.408 237.443 430.639C217.936 391.899 205.856 338.346 205.856 279.165C205.856 219.984 217.936 166.431 237.443 127.691C256.964 88.9228 283.841 65.1309 313.382 65.1309C342.924 65.1309 369.801 88.9228 389.322 127.691C408.829 166.431 420.909 219.984 420.909 279.165Z" stroke="#AFC5D3"/>
<path d="M431.232 280.245C431.232 339.426 419.152 392.979 399.645 431.719C380.124 470.488 353.247 494.28 323.706 494.28C294.165 494.28 267.288 470.488 247.766 431.719C228.259 392.979 216.179 339.426 216.179 280.245C216.179 221.065 228.259 167.511 247.766 128.771C267.288 90.0028 294.165 66.2109 323.706 66.2109C353.247 66.2109 380.124 90.0028 399.645 128.771C419.152 167.511 431.232 221.065 431.232 280.245Z" stroke="#AFC5D3"/>
<path d="M441.547 281.548C441.547 340.729 429.467 394.282 409.96 433.022C390.438 471.79 363.561 495.582 334.02 495.582C304.479 495.582 277.602 471.79 258.081 433.022C238.574 394.282 226.494 340.729 226.494 281.548C226.494 222.367 238.574 168.814 258.081 130.074C277.602 91.3056 304.479 67.5137 334.02 67.5137C363.561 67.5137 390.438 91.3056 409.96 130.074C429.467 168.814 441.547 222.367 441.547 281.548Z" stroke="#AFC5D3"/>
<path d="M451.857 283.055C451.857 342.236 439.777 395.789 420.27 434.529C400.749 473.297 373.872 497.089 344.331 497.089C314.79 497.089 287.913 473.297 268.391 434.529C248.884 395.789 236.804 342.236 236.804 283.055C236.804 223.874 248.884 170.321 268.391 131.581C287.913 92.8124 314.79 69.0205 344.331 69.0205C373.872 69.0205 400.749 92.8124 420.27 131.581C439.777 170.321 451.857 223.874 451.857 283.055Z" stroke="#AFC5D3"/>
<path d="M462.159 284.746C462.159 343.927 450.079 397.48 430.572 436.22C411.051 474.989 384.174 498.781 354.633 498.781C325.091 498.781 298.214 474.989 278.693 436.22C259.186 397.48 247.106 343.927 247.106 284.746C247.106 225.566 259.186 172.012 278.693 133.272C298.214 94.5038 325.091 70.7119 354.633 70.7119C384.174 70.7119 411.051 94.5038 430.572 133.272C450.079 172.012 462.159 225.566 462.159 284.746Z" stroke="#AFC5D3"/>
<path d="M472.453 286.612C472.453 345.793 460.374 399.347 440.867 438.086C421.345 476.855 394.468 500.647 364.927 500.647C335.386 500.647 308.509 476.855 288.987 438.086C269.48 399.347 257.401 345.793 257.401 286.612C257.401 227.432 269.48 173.878 288.987 135.139C308.509 96.37 335.386 72.5781 364.927 72.5781C394.468 72.5781 421.345 96.37 440.867 135.139C460.374 173.878 472.453 227.432 472.453 286.612Z" stroke="#AFC5D3"/>
<path d="M482.74 288.641C482.74 347.822 470.66 401.375 451.153 440.115C431.632 478.883 404.755 502.675 375.213 502.675C345.672 502.675 318.795 478.883 299.274 440.115C279.767 401.375 267.687 347.822 267.687 288.641C267.687 229.46 279.767 175.907 299.274 137.167C318.795 98.3983 345.672 74.6064 375.213 74.6064C404.755 74.6064 431.632 98.3983 451.153 137.167C470.66 175.907 482.74 229.46 482.74 288.641Z" stroke="#AFC5D3"/>
<path d="M493.019 290.824C493.019 350.005 480.939 403.558 461.432 442.298C441.911 481.067 415.034 504.859 385.492 504.859C355.951 504.859 329.074 481.067 309.553 442.298C290.046 403.558 277.966 350.005 277.966 290.824C277.966 231.644 290.046 178.09 309.553 139.351C329.074 100.582 355.951 76.79 385.492 76.79C415.034 76.79 441.911 100.582 461.432 139.351C480.939 178.09 493.019 231.644 493.019 290.824Z" stroke="#AFC5D3"/>
<path d="M503.288 293.16C503.288 352.341 491.208 405.894 471.701 444.634C452.18 483.403 425.303 507.195 395.762 507.195C366.221 507.195 339.344 483.403 319.822 444.634C300.315 405.894 288.235 352.341 288.235 293.16C288.235 233.98 300.315 180.426 319.822 141.686C339.344 102.918 366.221 79.126 395.762 79.126C425.303 79.126 452.18 102.918 471.701 141.686C491.208 180.426 503.288 233.98 503.288 293.16Z" stroke="#AFC5D3"/>
<path d="M513.548 295.642C513.548 354.822 501.469 408.376 481.962 447.116C462.44 485.884 435.563 509.676 406.022 509.676C376.481 509.676 349.604 485.884 330.082 447.116C310.575 408.376 298.496 354.822 298.496 295.642C298.496 236.461 310.575 182.908 330.082 144.168C349.604 105.399 376.481 81.6074 406.022 81.6074C435.563 81.6074 462.44 105.399 481.962 144.168C501.469 182.908 513.548 236.461 513.548 295.642Z" stroke="#AFC5D3"/>
<path d="M523.8 298.269C523.8 357.449 511.72 411.003 492.213 449.743C472.691 488.511 445.814 512.303 416.273 512.303C386.732 512.303 359.855 488.511 340.334 449.743C320.827 411.003 308.747 357.449 308.747 298.269C308.747 239.088 320.827 185.535 340.334 146.795C359.855 108.026 386.732 84.2344 416.273 84.2344C445.814 84.2344 472.691 108.026 492.213 146.795C511.72 185.535 523.8 239.088 523.8 298.269Z" stroke="#AFC5D3"/>
<path d="M534.019 301.033C534.019 360.214 521.939 413.767 502.432 452.507C482.911 491.276 456.034 515.068 426.493 515.068C396.952 515.068 370.075 491.276 350.553 452.507C331.046 413.767 318.966 360.214 318.966 301.033C318.966 241.853 331.046 188.299 350.553 149.56C370.075 110.791 396.952 86.999 426.493 86.999C456.034 86.999 482.911 110.791 502.432 149.56C521.939 188.299 534.019 241.853 534.019 301.033Z" stroke="#AFC5D3"/>
<path d="M544.221 303.946C544.221 363.127 532.141 416.681 512.634 455.42C493.113 494.189 466.236 517.981 436.694 517.981C407.153 517.981 380.276 494.189 360.755 455.42C341.248 416.681 329.168 363.127 329.168 303.946C329.168 244.766 341.248 191.212 360.755 152.473C380.276 113.704 407.153 89.9121 436.694 89.9121C466.236 89.9121 493.113 113.704 512.634 152.473C532.141 191.212 544.221 244.766 544.221 303.946Z" stroke="#AFC5D3"/>
</g>
</g>
<defs>
<linearGradient id="paint0_linear_2960_23302" x1="-1.05533e-05" y1="394.421" x2="359" y2="394.421" gradientUnits="userSpaceOnUse">
<stop stop-color="#BAE8D4"/>
<stop offset="0.248512" stop-color="#BFF0D2"/>
<stop offset="1" stop-color="#C3DAD4"/>
</linearGradient>
<clipPath id="clip0_2960_23302">
<rect width="359" height="800" fill="white"/>
</clipPath>
</defs>
</svg>
