<svg width="128" height="128" viewBox="0 0 128 128" fill="none" xmlns="http://www.w3.org/2000/svg">
<path d="M128 64C128 99.3462 99.3462 128 64 128C28.6538 128 0 99.3462 0 64C0 28.6538 28.6538 0 64 0C99.3462 0 128 28.6538 128 64Z" fill="white"/>
<mask id="mask0_9827_140353" style="mask-type:alpha" maskUnits="userSpaceOnUse" x="0" y="0" width="128" height="128">
<path d="M128 64C128 99.3462 99.3462 128 64 128C28.6538 128 0 99.3462 0 64C0 28.6538 28.6538 0 64 0C99.3462 0 128 28.6538 128 64Z" fill="white"/>
</mask>
<g mask="url(#mask0_9827_140353)">
<path d="M29.3869 120.741C28.4909 122.533 31.8328 124.002 33.759 124.585C35.7243 125.067 37.7581 125.206 39.7708 124.997C42.4586 124.853 45.2091 124.602 47.5296 123.276C49.5618 122.018 51.1861 120.197 52.2064 118.035C53.2124 115.88 54.0075 113.633 54.5806 111.325C54.5806 111.325 33.4096 112.704 29.3869 120.741Z" fill="#AFABED"/>
<g opacity="0.4">
<path d="M29.3869 120.741C28.4909 122.533 31.8328 124.002 33.759 124.585C35.7243 125.067 37.7581 125.206 39.7708 124.997C42.4586 124.853 45.2091 124.602 47.5296 123.276C49.5618 122.018 51.1861 120.197 52.2064 118.035C53.2124 115.88 54.0075 113.633 54.5806 111.325C54.5806 111.325 33.4096 112.704 29.3869 120.741Z" fill="black"/>
</g>
<path d="M89.182 115.007C92.6722 117.483 96.8549 118.793 101.134 118.752C103.185 118.866 105.207 118.229 106.823 116.96C107.513 116.324 108.032 115.518 108.74 114.908C109.224 114.496 109.789 114.183 110.245 113.744C110.487 113.536 110.673 113.272 110.787 112.975C110.901 112.678 110.94 112.357 110.899 112.041C110.723 111.263 110.287 110.568 109.663 110.07C107.235 108.691 104.332 108.744 101.537 108.807C98.7394 108.928 95.976 109.469 93.3391 110.411C91.171 111.146 88.9042 112.203 87.8022 114.174" fill="#AFABED"/>
<g opacity="0.4">
<path d="M110.899 112.041C110.583 111.286 110.025 110.656 109.314 110.25C106.886 108.87 104.332 108.744 101.537 108.807C98.7394 108.928 95.976 109.469 93.3391 110.411C91.171 111.145 88.9042 112.203 87.8022 114.174L89.182 115.007C92.6722 117.483 96.8549 118.793 101.134 118.752C103.185 118.866 105.207 118.229 106.823 116.96C107.513 116.324 108.032 115.518 108.74 114.908C109.224 114.496 109.789 114.183 110.245 113.744C110.487 113.536 110.673 113.272 110.787 112.975C110.901 112.678 110.94 112.357 110.899 112.041Z" fill="black"/>
</g>
<path d="M47.8434 147.162L92.5058 147.753C92.5967 147.753 92.6863 147.732 92.7675 147.691C92.8486 147.649 92.9189 147.59 92.9729 147.517C93.0269 147.444 93.063 147.359 93.0784 147.269C93.0937 147.18 93.0879 147.088 93.0613 147.001L87.8201 130.659C87.8201 130.659 88.5906 122.488 89.6568 112.668C91.2784 97.7511 93.4376 78.9992 93.4645 79.0529C90.4093 70.4878 72.3831 69.0364 72.3831 69.0364L51.8393 70.2549L51.1225 69.0453L45.2094 71.7959C43.9197 72.3959 42.6794 73.0969 41.5002 73.8923C37.5939 76.4995 28.1866 82.4933 26.4664 89.1681C22.4974 104.623 29.2169 121.87 29.2169 121.87L33.5353 118.492C34.6231 117.654 35.7665 116.891 36.9578 116.207L45.6125 139.403C45.0975 139.728 44.6613 140.163 44.3359 140.678C44.0104 141.193 43.8038 141.773 43.7311 142.378C43.6594 144.259 44.627 146.517 47.8434 147.162Z" fill="#AFABED"/>
<g opacity="0.3">
<path d="M67.0074 119.818C68.423 112.203 67.6793 104.372 66.9178 96.667C64.445 102.939 64.5346 110.106 61.9095 116.324C61.5877 116.98 61.3528 117.676 61.2107 118.393C61.1423 118.754 61.1602 119.125 61.263 119.477C61.3657 119.829 61.5504 120.151 61.802 120.418C62.5187 121.072 63.5939 120.714 64.5436 120.606C65.3937 120.444 66.221 120.179 67.0074 119.818Z" fill="black"/>
</g>
<path d="M109.609 109.103C105.963 100.887 93.1062 78.166 93.1062 78.166L83.1523 90.6464L85.4728 115.15C85.4728 115.15 90.732 109.282 105.434 109.165C106.503 109.208 107.548 109.489 108.494 109.989C109.439 110.488 110.261 111.192 110.899 112.05L109.609 109.103Z" fill="#AFABED"/>
<path d="M49.8413 104.757C49.1312 103.016 48.5678 101.218 48.157 99.3819C47.6005 97.5939 47.193 95.7629 46.9385 93.9077C47.6382 95.6525 48.1984 97.45 48.6139 99.2833C49.1704 101.072 49.581 102.903 49.8413 104.757Z" fill="#263238"/>
<path d="M82.3998 88.989C82.7239 89.2181 83.0241 89.4792 83.2958 89.7685C84.0873 90.5329 84.8294 91.3469 85.5177 92.2054C87.8344 95.0373 89.4629 98.3678 90.2751 101.935C90.6967 103.907 90.7906 105.935 90.5528 107.938C90.3289 109.775 89.9794 111.387 89.7465 112.749C89.5135 114.111 89.3702 115.222 89.2985 115.993C89.2965 116.393 89.2545 116.792 89.1731 117.184C89.1097 116.784 89.0917 116.379 89.1193 115.975C89.1588 114.877 89.2605 113.782 89.424 112.695C89.6121 111.325 89.9257 109.694 90.1318 107.893C90.339 105.936 90.2331 103.958 89.8182 102.034C89.0157 98.533 87.4595 95.2492 85.2579 92.4115C83.6183 90.2075 82.3281 89.0607 82.3998 88.989Z" fill="#263238"/>
<path d="M76.6478 113.78C76.1731 114.582 75.6401 115.349 75.053 116.073C74.5898 116.882 74.0657 117.655 73.4851 118.385C73.6572 117.439 74.0639 116.552 74.6677 115.804C75.1453 114.972 75.8267 114.276 76.6478 113.78Z" fill="#263238"/>
<path d="M45.9886 92.08C45.306 91.6791 44.6451 91.2425 44.0086 90.7719C40.8223 88.6785 37.2061 87.3282 33.4276 86.8208C32.6366 86.7632 31.8498 86.6585 31.0713 86.5072C31.8649 86.3977 32.6698 86.3977 33.4635 86.5072C37.345 86.8385 41.0624 88.2232 44.2147 90.5121C44.8759 90.9499 45.4729 91.4776 45.9886 92.08Z" fill="#263238"/>
<path d="M93.106 77.8706C91.5025 79.1619 90.0045 80.579 88.6263 82.1084C87.3573 83.7406 86.2218 85.4724 85.2307 87.2869C85.3368 86.6767 85.5458 86.0889 85.8489 85.5488C86.4976 84.2054 87.3101 82.9475 88.2679 81.8038C89.2286 80.6624 90.3304 79.6478 91.5471 78.7845C92.0102 78.3923 92.5376 78.0832 93.106 77.8706Z" fill="#263238"/>
<path d="M74.6676 70.488C74.7491 70.6173 74.8153 70.7556 74.8647 70.9002C75.0395 71.3059 75.1804 71.7255 75.2858 72.1545C75.6636 73.7511 75.6636 75.4138 75.2858 77.0105C74.7282 79.3939 73.4522 81.5487 71.6304 83.1834C69.3309 85.1314 66.401 86.176 63.3878 86.1221C60.3719 86.1325 57.4335 85.1677 55.0108 83.3716C53.0804 81.8977 51.5141 80.0004 50.4325 77.8258C49.7039 76.3697 49.1908 74.8154 48.9094 73.2117C48.8272 72.7796 48.7734 72.3427 48.7482 71.9036C48.7229 71.7493 48.7229 71.592 48.7482 71.4377C48.7482 71.4377 48.8467 72.0649 49.0976 73.1758C49.446 74.7343 49.9972 76.2404 50.7372 77.6555C51.8301 79.7647 53.3823 81.6017 55.2795 83.0311C57.6141 84.7599 60.4381 85.7012 63.343 85.719C66.2472 85.7723 69.0739 84.7803 71.3078 82.9236C73.0679 81.3488 74.316 79.2831 74.8916 76.9925C75.2902 75.4464 75.3453 73.8317 75.0529 72.262C74.8826 71.0794 74.6138 70.506 74.6676 70.488Z" fill="#263238"/>
<g opacity="0.3">
<path d="M77.8035 115.365C77.8035 114.917 77.7319 114.389 77.3376 114.165C77.2126 114.102 77.0745 114.069 76.9345 114.069C76.7944 114.069 76.6563 114.102 76.5313 114.165C76.2807 114.3 76.0587 114.483 75.8773 114.702C74.824 115.798 74.0094 117.101 73.4851 118.528L77.8752 118.143C77.8483 117.238 77.8304 116.288 77.8035 115.365Z" fill="black"/>
</g>
<g opacity="0.3">
<path d="M92.3802 106.128C91.9389 103.616 90.8382 101.266 89.1907 99.3191C91.0901 105.519 90.4539 109.022 89.3878 113.269L89.6207 112.678C90.8482 110.196 92.7117 108.637 92.3802 106.128Z" fill="black"/>
</g>
<path d="M80.4196 20.5217C81.432 18.0131 80.2046 14.9758 78.0274 13.3542C75.7329 11.8438 72.9351 11.2997 70.2417 11.8401C67.5846 12.3972 65.0122 13.3008 62.5904 14.5279C61.4643 13.3921 60.0447 12.5918 58.4901 12.2161C56.9354 11.8405 55.307 11.9044 53.7865 12.4007C52.2661 12.897 50.9136 13.8061 49.8799 15.0266C48.8462 16.247 48.1722 17.7308 47.9329 19.3122C46.9642 19.0683 45.9474 19.0929 44.9916 19.3831C44.0358 19.6734 43.1771 20.2185 42.5076 20.9598C41.8381 21.7011 41.3831 22.6108 41.1914 23.5911C40.9997 24.5715 41.0785 25.5855 41.4195 26.5244L53.5325 30.7801L66.7565 54.0745C68.7109 55.7419 71.2052 56.6413 73.774 56.6049C76.3427 56.5685 78.8104 55.5988 80.7168 53.8767C82.6232 52.1546 83.8379 49.7978 84.1344 47.2459C84.4308 44.6941 83.7887 42.1215 82.3279 40.0083C83.0688 39.3494 83.6982 38.5748 84.1915 37.7147C85.2482 37.0898 86.1702 36.2611 86.9039 35.2767C87.6376 34.2923 88.1682 33.172 88.4651 31.9807C89.6388 26.7932 85.625 21.1309 80.4196 20.5217Z" fill="#263238"/>
<path d="M72.4009 69.0364C71.6483 65.2466 71.1287 62.6483 71.1376 62.6752C71.1466 62.7021 78.3051 59.8978 77.7855 49.9261C77.5346 44.9626 75.6442 37.1411 73.8882 30.7978C72.3113 25.0818 66.9805 18.7833 61.3451 20.6021L44.2596 28.9343C42.5483 29.4898 42.2527 31.1024 42.6558 32.8495V33.7455L49.2947 61.2149L52.099 73.4892C52.6967 76.0095 54.2164 78.2148 56.3588 79.6707C58.5012 81.1266 61.1111 81.7276 63.6745 81.3555C65.0745 81.1586 66.4194 80.6777 67.6268 79.9422C68.8341 79.2068 69.8785 78.2324 70.6957 77.0787C71.5128 75.9251 72.0856 74.6167 72.3789 73.2337C72.6721 71.8507 72.6796 70.4224 72.4009 69.0364Z" fill="#FBDCC5"/>
<path d="M73.8254 37.4278C73.8973 37.7457 73.8445 38.0791 73.6778 38.3592C73.5111 38.6392 73.2432 38.8446 72.9295 38.933C72.7712 38.9772 72.6056 38.9889 72.4426 38.9675C72.2797 38.946 72.1227 38.8918 71.9813 38.8081C71.8398 38.7244 71.7168 38.6129 71.6195 38.4804C71.5223 38.3479 71.4528 38.1971 71.4154 38.0371C71.3438 37.7203 71.3969 37.3882 71.5637 37.1096C71.7306 36.8309 71.9983 36.6273 72.3113 36.5409C72.469 36.4952 72.6344 36.4821 72.7973 36.5025C72.9602 36.5228 73.1173 36.5761 73.2589 36.6591C73.4006 36.742 73.5239 36.853 73.6213 36.9852C73.7187 37.1173 73.7881 37.2679 73.8254 37.4278Z" fill="#263238"/>
<path d="M73.046 35.5194C72.9206 35.7165 71.8365 35.2237 70.5105 35.5194C69.1845 35.815 68.3423 36.6751 68.1631 36.5407C67.984 36.4063 68.1631 36.1555 68.5305 35.7613C69.0234 35.2404 69.6646 34.8838 70.3672 34.7399C71.0602 34.5904 71.783 34.669 72.4278 34.9639C72.9295 35.17 73.0998 35.4387 73.046 35.5194Z" fill="#263238"/>
<path d="M60.8164 40.3666C60.888 40.6833 60.8349 41.0155 60.668 41.2941C60.5012 41.5727 60.2335 41.7763 59.9205 41.8628C59.7658 41.9078 59.6036 41.9217 59.4435 41.9037C59.2834 41.8856 59.1284 41.836 58.9876 41.7577C58.8468 41.6794 58.7229 41.5739 58.6231 41.4474C58.5234 41.3209 58.4497 41.1758 58.4063 41.0206C58.3344 40.7027 58.3873 40.3693 58.554 40.0893C58.7207 39.8092 58.9886 39.6038 59.3023 39.5154C59.4576 39.4705 59.6203 39.457 59.7808 39.4756C59.9414 39.4942 60.0967 39.5446 60.2376 39.6238C60.3785 39.7031 60.5023 39.8095 60.6016 39.937C60.701 40.0645 60.774 40.2106 60.8164 40.3666Z" fill="#263238"/>
<path d="M60.1627 38.682C60.0462 38.8791 58.9532 38.3774 57.6272 38.682C56.3012 38.9866 55.459 39.8288 55.2798 39.7034C55.1007 39.5779 55.2798 39.3181 55.6472 38.9149C56.1424 38.3988 56.783 38.0456 57.4839 37.9025C58.1762 37.7554 58.8974 37.8306 59.5445 38.1176C60.0194 38.3326 60.2254 38.5745 60.1627 38.682Z" fill="#263238"/>
<path d="M66.9092 47.104C67.5661 46.7417 68.2639 46.4589 68.9878 46.2619C69.3193 46.1544 69.6329 46.02 69.6418 45.7781C69.5949 45.4217 69.442 45.0877 69.2028 44.8194L67.6528 42.4362C65.4847 39.0406 63.8362 36.2274 63.9706 36.1647C64.1049 36.1019 65.9775 38.7629 68.1456 42.1585L69.6598 44.5596C69.9572 44.927 70.1186 45.3859 70.1167 45.8587C70.0899 45.9876 70.0351 46.109 69.9562 46.2143C69.8772 46.3196 69.776 46.4062 69.6598 46.4679C69.4845 46.5607 69.2977 46.63 69.1043 46.674C68.3956 46.9166 67.6571 47.0613 66.9092 47.104Z" fill="#263238"/>
<path d="M71.1377 62.6753C66.6061 63.6995 61.8792 63.4452 57.4836 61.9407C57.4836 61.9407 62.1783 68.0689 71.6484 65.1392L71.1377 62.6753Z" fill="#CDB39F"/>
<path d="M60.3864 36.7827C60.2968 37.168 58.9261 37.159 57.3671 37.5443C55.8082 37.9295 54.5718 38.5119 54.321 38.2073C54.2134 38.0639 54.3926 37.6876 54.8675 37.3113C55.4986 36.7798 56.2484 36.408 57.0535 36.2272C57.8518 36.0379 58.6833 36.0379 59.4815 36.2272C60.1176 36.3437 60.4491 36.6035 60.3864 36.7827Z" fill="#263238"/>
<path d="M72.5353 31.2908C72.3203 31.6492 71.1735 31.5596 69.8475 31.8194C68.5215 32.0792 67.4733 32.5272 67.1597 32.2674C67.0164 32.133 67.1597 31.7925 67.5449 31.3715C68.1365 30.8739 68.8516 30.5458 69.6146 30.4218C70.3649 30.2706 71.1423 30.3263 71.8634 30.583C72.4099 30.8339 72.6249 31.1116 72.5353 31.2908Z" fill="#263238"/>
<path d="M48.4797 22.5195C48.6779 23.49 49.0875 24.405 49.6792 25.1995C50.271 25.9939 51.0304 26.6482 51.9036 27.116C52.7768 27.5838 53.7423 27.8536 54.7315 27.9062C55.7207 27.9588 56.7093 27.7929 57.6272 27.4203C59.0428 26.8469 60.5121 25.7717 61.9456 26.2914C63.3791 26.811 63.9704 28.8538 65.3412 29.6153C67.357 30.7442 69.8209 28.791 72.0697 28.9881C73.8615 29.1405 75.2144 30.5112 76.6031 31.676C77.9918 32.8407 79.9091 33.7187 81.477 32.8765C81.118 31.3803 80.5858 29.9311 79.8912 28.5581C79.1905 27.1759 78.0314 26.0801 76.612 25.4582C75.8236 25.1446 74.9725 25.0371 74.2199 24.6518C72.5983 23.8276 71.8726 21.964 70.6989 20.5574C69.9281 19.671 68.9571 18.981 67.8664 18.5448C66.7757 18.1085 65.5968 17.9385 64.4273 18.0488C62.4921 18.2459 60.6554 19.2224 58.7023 19.1418C57.2598 19.0791 55.8801 18.434 54.4376 18.4609C51.6333 18.4609 49.5279 20.9695 47.969 23.3079" fill="#263238"/>
<path d="M57.9227 24.5712C56.6325 24.4727 53.9985 24.2039 53.1294 23.29C52.2465 22.3026 51.1197 21.5643 49.8619 21.1492C48.604 20.7341 47.2591 20.6567 45.9619 20.9248C44.6747 21.3085 43.5447 22.0954 42.7382 23.1696C41.9318 24.2438 41.4915 25.5485 41.4822 26.8917C39.9146 27.2743 38.4794 28.0731 37.3282 29.2038C36.177 30.3345 35.3526 31.7551 34.9419 33.3156C34.5249 34.9492 34.5108 36.6596 34.901 38.2998C35.2912 39.9401 36.0738 41.461 37.1817 42.7319C37.72 43.4049 38.2109 44.1143 38.6511 44.8552C38.0436 45.6089 37.5095 46.4189 37.0563 47.2743C35.0046 51.8077 40.5684 53.5458 40.5684 53.5458C40.5684 56.592 43.3906 56.5741 45.1914 56.5651C46.9922 56.5562 47.9867 61.3673 49.3934 61.1792L47.9688 46.3335C48.1774 46.4146 48.399 46.4571 48.6228 46.459C52.0184 46.5217 51.1315 40.0888 50.0384 38.3955C51.0501 37.1361 51.9045 35.7582 52.5829 34.2921C53.1979 32.051 53.241 29.6914 52.7083 27.4293C53.8461 27.2859 58.4781 24.6071 57.9227 24.5712Z" fill="#263238"/>
<path d="M48.4167 47.1218C48.301 46.6501 48.0677 46.2153 47.7386 45.8581C47.4094 45.5009 46.9952 45.2329 46.5345 45.079C46.0738 44.9252 45.5817 44.8905 45.1039 44.9782C44.6262 45.066 44.1785 45.2733 43.8026 45.5808C42.9066 46.3513 42.4318 47.6414 42.9693 49.8006C44.4208 55.5705 49.9128 52.9275 49.877 52.7662C49.8412 52.6049 49.0438 49.505 48.4167 47.1218Z" fill="#FBDCC5"/>
<path d="M47.5657 51.0193C47.5657 51.0193 47.485 51.1178 47.3327 51.2343C47.1209 51.3967 46.8543 51.4706 46.5891 51.4404C45.9261 51.3687 45.1645 50.5444 44.8779 49.4962C44.7412 49.0064 44.7137 48.4926 44.7972 47.991C44.8063 47.7962 44.8624 47.6064 44.9607 47.4379C45.059 47.2694 45.1965 47.1272 45.3617 47.0234C45.4705 46.9648 45.5963 46.9461 45.7175 46.9707C45.8386 46.9952 45.9473 47.0614 46.0246 47.1578C46.1411 47.2922 46.1322 47.4176 46.168 47.4266C46.2038 47.4355 46.2666 47.2922 46.168 47.0682C46.0993 46.9354 45.9892 46.8284 45.8544 46.7636C45.6648 46.6869 45.4527 46.6869 45.2631 46.7636C45.0381 46.8704 44.8437 47.0324 44.6981 47.2345C44.5524 47.4365 44.4601 47.6721 44.4299 47.9193C44.3137 48.4836 44.3352 49.0675 44.4926 49.6216C44.5926 50.1419 44.844 50.621 45.2154 50.9988C45.5869 51.3766 46.0616 51.6362 46.5801 51.745C46.7488 51.7518 46.9168 51.7208 47.0718 51.6541C47.2269 51.5874 47.365 51.4868 47.4761 51.3597C47.5925 51.1626 47.5925 51.0282 47.5657 51.0193Z" fill="#CDB39F"/>
<path d="M79.3535 39.0674C79.3535 39.0674 79.8821 38.6642 80.6167 37.7683C81.6305 36.4774 82.2524 34.9226 82.4086 33.2886C82.5273 32.1732 82.4175 31.0453 82.0861 29.9737C81.7034 28.7444 80.9943 27.6421 80.0344 26.7841C78.9261 25.8162 77.5841 25.1549 76.1413 24.8657C74.6986 24.5765 73.2054 24.6696 71.8097 25.1356C71.5409 25.2252 71.2901 25.3596 71.0392 25.4671C70.7883 25.5746 70.5643 25.7359 70.3314 25.8703L69.973 26.0674V25.6732C69.9653 24.9791 69.7077 24.3111 69.2473 23.7917C68.7758 23.2876 68.1971 22.8957 67.554 22.6449C66.3371 22.1378 64.989 22.0373 63.7104 22.3582C61.2376 22.9226 59.1411 24.0515 57.1611 24.2845C55.6084 24.5543 54.0109 24.2348 52.6814 23.3885C52.3306 23.1471 52.0269 22.8435 51.7855 22.4926C51.6422 22.2507 51.5705 22.1163 51.5884 22.1073C51.913 22.5498 52.3098 22.9344 52.7621 23.2452C54.0701 24.0002 55.6067 24.2579 57.0895 23.9709C58.1211 23.7768 59.1299 23.4765 60.0998 23.0749C61.2384 22.6198 62.4056 22.2397 63.5939 21.9371C64.2564 21.7768 64.9376 21.7075 65.6188 21.731C66.3375 21.769 67.0441 21.9328 67.7063 22.2148C68.3914 22.5075 69.0033 22.9481 69.4982 23.505C70.028 24.1115 70.3263 24.8859 70.3403 25.6911L69.982 25.494L70.7256 25.0639C71.0033 24.9564 71.2632 24.8131 71.5499 24.7145C73.0208 24.2108 74.5989 24.1054 76.1237 24.4091C77.6485 24.7128 79.0658 25.4148 80.2315 26.4437C81.2391 27.3559 81.9767 28.5274 82.3638 29.8303C82.7659 31.2112 82.82 32.6701 82.5215 34.0771C82.2229 35.484 81.5808 36.7952 80.6526 37.8937C80.3575 38.2305 80.0237 38.5312 79.6581 38.7897C79.5682 38.8942 79.4659 38.9875 79.3535 39.0674Z" fill="#455A64"/>
<path d="M78.1888 18.8104C77.6006 18.5118 76.9733 18.2976 76.3253 18.1742C75.5845 18.073 74.8304 18.1435 74.1212 18.3803C73.2028 18.6613 72.4048 19.2416 71.8545 20.0288L71.6305 20.3424L71.4961 19.984C71.0284 18.8827 70.2753 17.926 69.3147 17.2126C68.354 16.4992 67.2205 16.0549 66.0309 15.9254C64.1626 15.8552 62.3214 16.3893 60.7808 17.4485C59.4682 18.3041 58.0724 19.0246 56.6147 19.5988C55.6097 19.9789 54.5271 20.1081 53.4609 19.9751C53.1768 19.9226 52.8979 19.8446 52.6277 19.7421C52.4485 19.6615 52.35 19.6167 52.359 19.5988C52.3679 19.5809 52.7621 19.7152 53.4878 19.7869C54.5185 19.8513 55.5504 19.6829 56.5071 19.2942C57.9238 18.6764 59.2821 17.9328 60.5657 17.0722C61.3586 16.5799 62.199 16.1687 63.0743 15.8448C64.0366 15.4939 65.0651 15.3623 66.0847 15.4595C67.3554 15.5983 68.5647 16.079 69.5839 16.8505C70.603 17.622 71.394 18.6554 71.8724 19.8407H71.523C72.1391 18.9987 73.0189 18.3869 74.0227 18.1026C74.7854 17.8814 75.5892 17.8416 76.37 17.9861C76.8644 18.08 77.3378 18.262 77.7677 18.5237C77.921 18.5987 78.0628 18.6952 78.1888 18.8104Z" fill="#455A64"/>
<path d="M66.3895 49.7558C66.1802 49.5809 65.9364 49.4521 65.6739 49.378C65.4114 49.3039 65.1362 49.2861 64.8664 49.3258C64.5509 49.3931 64.253 49.5261 63.9922 49.7159C63.7314 49.9057 63.5133 50.1483 63.3522 50.4278C63.3522 50.4278 63.3075 50.4726 63.2985 50.4995C63.1751 50.7041 63.1187 50.9421 63.1372 51.1804C63.1762 51.4399 63.2783 51.6859 63.4345 51.8968C63.5907 52.1076 63.7963 52.277 64.0332 52.3899C64.4118 52.5819 64.8406 52.6522 65.2607 52.5912C65.6809 52.5303 66.072 52.3411 66.3805 52.0494C66.6734 51.7399 66.8373 51.3305 66.839 50.9044C66.8407 50.4783 66.6799 50.0676 66.3895 49.7558Z" fill="#CDB39F"/>
<path d="M66.8372 52.5423C66.7655 52.5423 66.6849 52.2735 66.443 51.9061C66.1517 51.4137 65.7162 51.0225 65.1955 50.7854C64.6748 50.5482 64.0939 50.4766 63.5312 50.5802C63.0922 50.6429 62.8234 50.7683 62.7965 50.7056C62.7696 50.6429 62.9757 50.4279 63.4595 50.2576C64.0928 50.0538 64.7791 50.0922 65.3857 50.3651C65.9979 50.6377 66.4822 51.1348 66.7386 51.7538C66.9268 52.2197 66.8999 52.5333 66.8372 52.5423Z" fill="#263238"/>
<path d="M48.5511 53.6533C48.5511 53.6533 48.8109 54.1013 48.4705 54.7822C48.2778 55.1897 47.9388 55.5096 47.5208 55.6781C47.2599 55.7715 46.9809 55.8031 46.7057 55.7705C46.4306 55.7378 46.1667 55.6418 45.935 55.49C45.6992 55.3466 45.4997 55.1508 45.3521 54.9177C45.2044 54.6846 45.1127 54.4205 45.0838 54.1461C45.0568 53.7036 45.1868 53.2657 45.4511 52.9097C45.917 52.3184 46.4367 52.3005 46.4367 52.3542C46.4367 52.408 46.0425 52.5603 45.7289 53.0978C45.5473 53.399 45.4716 53.7522 45.5139 54.1013C45.5473 54.3058 45.6247 54.5006 45.7407 54.6723C45.8567 54.8439 46.0086 54.9884 46.1858 55.0958C46.3607 55.2077 46.5572 55.2814 46.7625 55.3123C46.9678 55.3432 47.1774 55.3305 47.3774 55.275C47.7082 55.1566 47.9934 54.9372 48.1927 54.6478C48.5421 54.0923 48.4794 53.6533 48.5511 53.6533Z" fill="#AFABED"/>
<path d="M45.5319 53.3038C45.5767 53.3038 45.5319 53.6084 45.1108 53.8055C44.904 53.8915 44.6768 53.9165 44.4562 53.8775C44.2356 53.8385 44.0307 53.7371 43.8658 53.5854C43.701 53.4338 43.583 53.2381 43.5257 53.0215C43.4685 52.8049 43.4745 52.5764 43.543 52.3631C43.6307 52.1208 43.7981 51.9155 44.0178 51.7807C44.3851 51.5567 44.6629 51.6463 44.6539 51.7001C44.645 51.7539 44.4389 51.8166 44.2149 52.0405C44.1047 52.1782 44.0375 52.3454 44.0219 52.5211C44.0063 52.6968 44.0429 52.8731 44.1271 53.0281C44.2112 53.1831 44.3393 53.3098 44.4952 53.3923C44.651 53.4748 44.8278 53.5095 45.0033 53.492C45.3079 53.4293 45.4692 53.268 45.5319 53.3038Z" fill="#AFABED"/>
<path d="M55.3784 132.872C55.3784 132.872 77.5618 134.162 90.6783 134.279C100.829 134.377 105.363 131.68 107.387 125.149C109.09 119.675 105.434 109.166 105.434 109.166C98.5625 109.166 94.3247 110.151 89.9078 112.221L91.0815 117.023L55.3157 120.105L55.3784 132.872Z" fill="#FBDCC5"/>
<path d="M98.5355 122.148C97.5734 120.897 96.4497 119.779 95.1937 118.824C93.8462 117.999 92.3936 117.36 90.8752 116.924C91.3534 116.856 91.841 116.899 92.2998 117.05C93.427 117.316 94.4959 117.787 95.4535 118.439C96.4128 119.092 97.2422 119.919 97.8994 120.876C98.4011 121.61 98.5892 122.121 98.5355 122.148Z" fill="#CDB39F"/>
<path d="M47.261 112.185C47.261 112.185 40.3981 113.833 35.354 117.202L40.7296 131.77C42.5215 136.554 47.9957 138.938 52.3768 136.429C59.1232 132.567 61.5064 121.314 61.5064 121.314L68.9158 89.1683L56.6325 81.4722L47.3058 112.185" fill="#FBDCC5"/>
<path d="M56.5877 81.4722L57.0894 70.9001L54.3389 60.1489C54.1866 59.5576 54.1149 58.814 54.5987 58.4556C54.8387 58.2716 55.1349 58.1764 55.4371 58.1862C55.7392 58.196 56.0287 58.3102 56.2562 58.5093C56.9999 59.2798 60.5836 68.6782 60.5836 68.6782C60.5836 68.6782 66.0219 65.417 66.9895 65.2557C67.9571 65.0945 69.1667 68.0242 69.2473 68.2482C69.2829 68.9047 69.2829 69.5627 69.2473 70.2192C69.2473 70.2192 72.6071 70.3178 72.9117 70.7747C73.1559 71.7082 73.2853 72.6679 73.2969 73.6327C73.2969 73.6327 74.7215 74.0897 74.9454 75.1648C75.1694 76.2399 75.6353 78.0139 74.9454 78.4081C74.2556 78.8023 72.8579 79.5728 72.8579 79.5728C72.8579 79.5728 72.2935 85.0559 72.1412 85.5576C71.9888 86.0594 68.8441 89.1414 68.8441 89.1414L56.5877 81.4722Z" fill="#FBDCC5"/>
<path d="M45.1555 136.644C45.1555 136.644 45.487 136.841 46.1858 137.065C47.2077 137.386 48.2888 137.471 49.3485 137.316C51.0509 137.073 52.6453 136.338 53.9357 135.201C55.641 133.654 57.0816 131.838 58.2003 129.826C58.8591 128.643 59.4137 127.405 59.8578 126.126C60.3238 124.718 60.7097 123.285 61.0136 121.834C61.7124 118.815 62.474 115.563 63.2803 112.104C64.893 105.197 66.7028 97.4736 68.6559 89.1504V89.0877H68.7007C69.3189 88.4784 69.9371 87.8602 70.5553 87.2151C70.8599 86.8926 71.1646 86.5701 71.4513 86.2386C71.5946 86.0684 71.7469 85.8981 71.8634 85.7279C71.9541 85.5593 72.0061 85.3726 72.0157 85.1814C72.2576 83.3895 72.4457 81.5349 72.6428 79.6624V79.5459L72.7503 79.4922L74.4616 78.5335C74.587 78.4529 74.7841 78.3633 74.8648 78.2916C74.9504 78.2142 75.0072 78.1099 75.026 77.996C75.0677 77.6988 75.0677 77.3972 75.026 77.1C74.9392 76.443 74.8045 75.7932 74.6229 75.1559C74.3182 74.5985 73.8065 74.1834 73.1983 74.0001L73.046 73.9463V73.794C73.046 73.2744 72.9923 72.7368 72.9295 72.2082C72.9052 71.9435 72.8663 71.6803 72.8131 71.4198C72.7922 71.305 72.756 71.1935 72.7056 71.0883C72.7056 71.0256 72.7056 71.0883 72.6518 71.0345C72.6031 71.009 72.5521 70.988 72.4995 70.9718C71.422 70.737 70.3231 70.6139 69.2204 70.6045H68.9874V70.3716C68.9874 69.8161 68.9874 69.1979 68.9874 68.5797C68.9504 68.3688 68.8777 68.1658 68.7724 67.9794C68.6828 67.7644 68.5753 67.5583 68.4678 67.3433C68.258 66.9283 68.0122 66.5326 67.7331 66.1607C67.6063 65.9873 67.452 65.836 67.2762 65.7127C67.2112 65.6578 67.1314 65.6234 67.0469 65.6138C66.9624 65.6042 66.8769 65.6199 66.8013 65.6589C66.3679 65.825 65.9458 66.0195 65.5381 66.2413C63.8716 67.1372 62.241 68.0332 60.6463 69.0008L60.4133 69.1441L60.3148 68.8933C59.4726 66.7699 58.6304 64.6734 57.8061 62.6217C57.394 61.5914 56.9908 60.5611 56.5787 59.5487C56.5151 59.3218 56.389 59.1175 56.2147 58.9591C56.0404 58.8006 55.825 58.6945 55.5932 58.6527C55.379 58.5817 55.1471 58.5855 54.9355 58.6637C54.7238 58.7418 54.545 58.8896 54.4285 59.0828C54.3168 59.275 54.2697 59.4979 54.2941 59.7189C54.2941 59.916 54.4195 60.2206 54.4732 60.4625C54.6166 60.9821 54.751 61.4928 54.8854 62.0035C55.1542 63.0338 55.414 64.0463 55.6828 65.0497C56.2084 67.0685 56.725 69.0396 57.2327 70.9629V71.0256C57.0536 74.7049 56.8833 78.2289 56.7221 81.5976V81.5797L48.5601 108.135L46.2575 115.527C45.9887 116.36 45.7827 117.014 45.6393 117.471C45.496 117.928 45.4064 118.125 45.4064 118.125C45.4064 118.125 45.4512 117.892 45.5766 117.453L46.1411 115.491C46.6607 113.762 47.4043 111.262 48.345 108.073C50.2803 101.658 53.0308 92.5012 56.3547 81.4632V81.508C56.51 78.1513 56.6683 74.6273 56.8296 70.936V70.9987C56.3189 69.0725 55.7903 67.1014 55.2617 65.0945L54.4553 62.0483C54.3209 61.5376 54.1866 61.018 54.0432 60.5073C53.9661 60.2391 53.9033 59.9669 53.8551 59.692C53.822 59.381 53.8879 59.0675 54.0432 58.7961C54.2091 58.5166 54.465 58.3018 54.7689 58.1868C55.0696 58.0988 55.3878 58.0888 55.6935 58.1578C55.9991 58.2268 56.2822 58.3724 56.516 58.581C56.7409 58.792 56.9075 59.0574 56.9998 59.3515L58.2272 62.4246C59.0604 64.4853 59.8937 66.5817 60.7448 68.6962L60.4133 68.5797C62.017 67.63 63.6297 66.6803 65.332 65.7933C65.7623 65.5684 66.205 65.368 66.658 65.1931C66.7995 65.1342 66.9537 65.1126 67.106 65.1303C67.2592 65.1525 67.406 65.2075 67.536 65.2916C67.7518 65.4464 67.9422 65.6338 68.1004 65.8471C68.4 66.2391 68.661 66.6592 68.8799 67.1014C68.9964 67.3254 69.1039 67.5404 69.2024 67.7644C69.33 68.0016 69.4149 68.2594 69.4533 68.5259C69.4533 69.162 69.4533 69.7534 69.4533 70.3178L69.2293 70.0759C70.381 70.0836 71.5285 70.2158 72.6518 70.4701C72.7289 70.497 72.8038 70.53 72.8758 70.5687C72.9742 70.6223 73.0551 70.7032 73.1087 70.8016C73.1782 70.947 73.2294 71.1005 73.261 71.2585C73.3148 71.5452 73.3506 71.814 73.3865 72.0918C73.4402 72.6383 73.4761 73.1758 73.503 73.7134L73.3417 73.4984C73.708 73.6059 74.0487 73.7868 74.3429 74.0302C74.6371 74.2735 74.8787 74.5742 75.0529 74.914C75.2492 75.5948 75.393 76.2897 75.483 76.9925C75.5452 77.3512 75.5452 77.7179 75.483 78.0766C75.444 78.2939 75.3298 78.4905 75.1604 78.6321C75.0134 78.7305 74.8609 78.8202 74.7035 78.9009L73.0012 79.7878L73.1177 79.6176C72.9116 81.4901 72.7235 83.3268 72.4726 85.1455L72.4188 85.495C72.3981 85.6364 72.3392 85.7696 72.2486 85.8802C72.1167 86.0763 71.97 86.262 71.8096 86.4357C71.505 86.7761 71.2004 87.1076 70.9137 87.4302C70.2955 88.0753 69.6773 88.6934 69.0501 89.3027L69.1128 89.1952C67.1418 97.5095 65.3141 105.232 63.6745 112.14C62.8592 115.589 62.0797 118.842 61.363 121.852C61.0564 123.314 60.6615 124.756 60.1804 126.17C59.7193 127.462 59.1499 128.711 58.4781 129.907C57.3335 131.945 55.8592 133.78 54.1149 135.336C52.7859 136.48 51.1505 137.209 49.4112 137.432C48.3286 137.578 47.227 137.467 46.1948 137.11C45.9323 137.013 45.6776 136.897 45.4333 136.76L45.1555 136.644Z" fill="#CDB39F"/>
<path d="M69.2563 70.246C69.2563 70.3087 68.9517 70.3446 68.4769 70.3625C67.8739 70.374 67.2736 70.446 66.685 70.5775C66.1169 70.7171 65.5931 70.9975 65.1619 71.3928C64.8394 71.6974 64.696 71.9572 64.6244 71.9304C64.5527 71.9035 64.6244 71.581 64.92 71.1688C65.3372 70.6471 65.9179 70.281 66.5685 70.1295C67.1957 69.975 67.847 69.9445 68.4859 70.0399C68.9697 70.1026 69.2563 70.1833 69.2563 70.246Z" fill="#CDB39F"/>
<path d="M66.6581 70.3447C66.5417 70.2999 66.5327 70.0221 66.6581 69.7265C66.7836 69.4308 66.9627 69.2248 67.0792 69.2695C67.1957 69.3143 67.2136 69.5921 67.0792 69.8877C66.9448 70.1834 66.7477 70.3895 66.6581 70.3447Z" fill="#CDB39F"/>
<path d="M73.4492 73.5968C72.5795 73.8659 71.6714 73.99 70.7614 73.9641C70.4749 73.9546 70.1904 74.0139 69.9316 74.137C69.6728 74.2602 69.4474 74.4436 69.2742 74.6719C69.0412 75.0393 69.1218 75.3439 69.0502 75.3618C68.9785 75.3797 68.7635 75.0662 68.9874 74.5286C69.1108 74.2259 69.3357 73.9757 69.6236 73.8208C69.9552 73.6388 70.3216 73.5289 70.6987 73.4983C71.6136 73.3582 72.5467 73.3916 73.4492 73.5968Z" fill="#CDB39F"/>
<path d="M72.8581 76.8221C72.9835 76.8221 73.0552 77.4851 73.0194 78.3004C72.9835 79.1157 72.8491 79.7608 72.7237 79.7608C72.5983 79.7608 72.5176 79.0888 72.5535 78.2735C72.5893 77.4582 72.7237 76.8132 72.8581 76.8221Z" fill="#CDB39F"/>
<path d="M29.9248 85.1633C29.9248 85.1633 29.5933 85.5038 29.1274 86.2295C28.5019 87.263 28.0906 88.4116 27.9179 89.6072C27.6626 91.3873 27.6084 93.1906 27.7566 94.9828C27.8552 97.0166 28.0164 99.2385 28.2673 101.568C28.6917 105.546 29.3227 109.5 30.1577 113.412C30.4713 114.917 30.758 116.1 30.9551 116.996C31.0447 117.372 31.1253 117.686 31.1881 117.955C31.2508 118.223 31.2597 118.295 31.2597 118.295C31.2597 118.295 31.2149 118.188 31.1522 117.973C31.0895 117.757 30.9909 117.381 30.8924 117.014C30.6684 116.181 30.3638 114.98 29.9964 113.475C29.1256 109.564 28.4765 105.606 28.0523 101.622C27.8014 99.2922 27.6491 97.0614 27.5595 95.0276C27.4237 93.234 27.4898 91.4308 27.7566 89.652C27.9491 88.4408 28.3882 87.282 29.0468 86.2474C29.2894 85.8482 29.5847 85.4836 29.9248 85.1633Z" fill="white"/>
<path d="M48.784 72.9607L48.578 73.0682L47.9866 73.3549C47.476 73.5968 46.7323 73.9551 45.8453 74.4479C43.5331 75.7375 41.2874 77.1429 39.1169 78.6588C36.5545 80.4507 34.2878 82.0813 32.6303 83.2639L30.6682 84.6526L30.1217 85.02C30.0606 85.0687 29.9946 85.1107 29.9246 85.1454C29.9756 85.0852 30.0361 85.0338 30.1038 84.9931L30.6234 84.5989L32.5496 83.1564C34.1892 81.9469 36.447 80.2625 39.0094 78.5065C41.1839 76.9841 43.4455 75.59 45.7826 74.3314C46.6786 73.8566 47.4312 73.5161 47.9598 73.2922L48.56 73.0413C48.7392 72.9786 48.7392 72.9517 48.784 72.9607Z" fill="white"/>
<path d="M91.5114 78.7932C91.4552 78.7621 91.4039 78.7229 91.3592 78.6768L90.956 78.3274C90.4567 77.9059 89.9332 77.514 89.3881 77.1537C87.5693 75.994 85.6395 75.0186 83.6272 74.2419C81.6211 73.4472 79.5722 72.7653 77.4901 72.1992C76.6837 71.9752 76.0386 71.8139 75.5817 71.7064L75.071 71.572C75.0088 71.5591 74.9485 71.538 74.8918 71.5093H75.08L75.5996 71.6078C76.0566 71.6974 76.7106 71.8408 77.5169 72.0468C79.6189 72.5775 81.6839 73.2449 83.6989 74.0448C85.7228 74.8213 87.6548 75.8188 89.4598 77.0193C90.211 77.5279 90.8997 78.1233 91.5114 78.7932Z" fill="white"/>
</g>
</svg>
