<svg width="288" height="288" viewBox="0 0 288 288" fill="none" xmlns="http://www.w3.org/2000/svg">
<path d="M0 144C0 223.53 64.4699 288 144 288C223.53 288 288 223.53 288 144C288 64.47 223.53 0 144 0C64.4699 0 0 64.47 0 144Z" fill="#F4F4F4"/>
<mask id="mask0_9656_131741" style="mask-type:alpha" maskUnits="userSpaceOnUse" x="0" y="0" width="288" height="288">
<path d="M0 144C0 223.53 64.4699 288 144 288C223.53 288 288 223.53 288 144C288 64.47 223.53 0 144 0C64.4699 0 0 64.47 0 144Z" fill="#F4F4F4"/>
</mask>
<g mask="url(#mask0_9656_131741)">
<path d="M275.83 223.9L53.8301 262.4L145.33 306.9L230.33 270.4L275.83 223.9Z" fill="#BFBFBF"/>
<path d="M131 254L177.73 239.04C177.86 239 177.99 238.98 178.13 238.99L215.23 241.74C221.75 225.94 229.92 206.19 233.63 197.17C234.25 195.69 235.25 194.4 236.52 193.43C237.8 192.46 239.31 191.84 240.9 191.64L281.08 186.39C281.56 186.33 282.04 186.4 282.48 186.59C282.92 186.78 283.31 187.08 283.6 187.46C283.89 187.84 284.07 188.3 284.13 188.77C284.19 189.25 284.12 189.73 283.94 190.18L261.32 242.93C261.02 243.63 260.58 244.26 260.02 244.78C259.47 245.3 258.81 245.7 258.09 245.95L212.14 264.29C211.09 264.71 209.95 264.86 208.83 264.73L205.89 264.41C195.71 263.35 148.23 258.15 132.5 256.5C132.25 256.49 132.18 256.68 132 256.5C131.82 256.33 131.53 255.75 131.5 255.5C131.47 255.25 131.36 255.2 131.5 255C131.65 254.78 131 254 131 254Z" fill="#DDDDDD"/>
<path d="M194 244.5L173.299 252.62L150.862 249.432L171.5 242.5L194 244.5Z" fill="#BFBFBF"/>
<path d="M205.21 259.27L169.9 256.08L203.62 242.71L214.46 243.53L208.73 257.35L205.21 259.27Z" fill="#BFBFBF"/>
<path d="M133 254.49L133.24 254.53L133.96 254.62L136.71 254.9L146.92 255.9L180.58 259.04L207.04 261.43H207.15L207.19 261.33L213.05 247.03L214.66 243.03C214.84 242.57 214.98 242.22 215.07 241.98C215.12 241.86 215.16 241.74 215.2 241.61C215.2 241.61 215.14 241.73 215.03 241.96L214.58 243L212.9 246.96C211.46 250.39 209.4 255.31 206.92 261.22L207.07 261.12L180.62 258.67L146.92 255.63L136.73 254.76L133.98 254.54L133.26 254.49H133Z" fill="black"/>
<path d="M282.77 188.29H282.47L281.58 188.39L278.14 188.84L265.54 190.56C260.22 191.3 253.86 192.2 246.86 193.23L241.47 194.06L240.1 194.29C239.87 194.32 239.63 194.38 239.41 194.43C239.29 194.43 239.17 194.48 239.05 194.51C238.47 194.74 237.94 195.09 237.5 195.53C237.32 195.72 237.18 195.94 237.08 196.18L236.81 196.87C235.37 200.46 233.89 204.17 232.37 207.97C226.3 223.19 220.81 236.97 216.82 246.96C214.85 251.94 213.25 255.98 212.14 258.78C211.61 260.15 211.19 261.25 210.89 262.01C210.75 262.37 210.65 262.64 210.57 262.85C210.53 262.94 210.5 263.04 210.47 263.14C210.52 263.05 210.56 262.96 210.6 262.86L210.95 262.03L212.26 258.84C213.39 256.04 215.01 252.02 217.07 247.05L232.65 208.11C234.18 204.31 235.66 200.59 237.1 197.01L237.37 196.32C237.45 196.12 237.57 195.93 237.72 195.77C238.03 195.44 238.4 195.17 238.81 194.98C238.91 194.93 239.02 194.89 239.13 194.85L239.46 194.77C239.68 194.72 239.9 194.67 240.15 194.64L241.52 194.4L246.91 193.55L265.57 190.8L278.16 188.97L281.59 188.46L282.48 188.32L282.77 188.29Z" fill="black"/>
<path d="M244.67 222.04C241.05 226.9 240.32 232.48 243.03 234.51C245.74 236.54 250.9 234.27 254.53 229.41C258.15 224.55 258.88 218.98 256.17 216.94C253.46 214.89 248.29 217.19 244.67 222.04Z" fill="white"/>
<path d="M29.9199 180.64C32.2199 167.59 46.6499 159.72 51.4199 155.38L44.2498 164.96C40.5798 180.08 39.1898 195.67 40.1298 211.21C40.2298 212.91 40.0399 215.19 38.8299 215.43C38.3899 215.47 37.9598 215.33 37.6198 215.05C33.3898 212.34 30.6399 206.12 30.0299 199.72C29.4199 193.32 28.8699 186.68 29.9199 180.64Z" fill="#ACA8EA"/>
<path d="M40.4897 166.02C41.1797 164.71 40.8997 160.53 44.6097 164.89L44.8498 163.25L67.8198 145.6L119.01 148.26C123.92 148.57 131.3 157.07 133.14 160.63C134.65 173.84 134.95 185.57 134.95 185.57C134.95 185.57 136.71 200.26 134.95 207.2C133.19 214.14 131.11 216.65 128.39 222.05C126.4 225.74 123.92 229.14 121.01 232.16L118.62 250.71L65.1498 255.52L40.6698 254.15C40.6698 254.15 42.8597 217.57 42.8597 216.92C42.8597 216.62 39.7997 209.56 36.5197 202.06C30.9397 189.23 34.0797 178.4 40.4897 166.02Z" fill="#455A64"/>
<path d="M174.77 232.55C174.5 232.55 171.83 214.49 170.08 210.39C168.43 206.52 133.13 160.62 133.13 160.62L124.82 187.41L128.38 201.74L147.62 224.88L153.05 241.66L174.77 232.55Z" fill="#455A64"/>
<path d="M33.37 179.75C35.9 163.68 48.42 164.38 48.42 164.38L60.86 186.03V230.79L120.88 235.98L121.99 251.05C121.99 251.05 62.19 264.72 48.37 260.14C39.23 257.11 31.5 249.46 30.66 236.97C29.82 224.47 30.83 195.82 33.37 179.75Z" fill="#455A64"/>
<path d="M147.56 224.86C147.73 223.84 147.96 222.82 148.25 221.82C149 219.42 150.36 217.25 152.2 215.53C154.04 213.81 156.28 212.59 158.72 211.99C159.74 211.76 160.76 211.59 161.8 211.47C161.52 211.44 161.23 211.44 160.95 211.47C160.18 211.5 159.41 211.6 158.66 211.77C156.15 212.32 153.84 213.55 151.97 215.31C150.1 217.07 148.74 219.3 148.04 221.77C147.82 222.51 147.68 223.27 147.6 224.04C147.55 224.31 147.54 224.58 147.56 224.86Z" fill="black"/>
<path d="M118.83 235.36C118.74 235.34 118.66 235.32 118.57 235.31L117.81 235.2L114.87 234.81L104.04 233.44L68.3198 229.1L60.3798 228.15L60.5398 228.32C60.0798 216.15 59.8498 205.42 59.9398 197.73C59.9398 193.89 60.0198 190.81 60.0698 188.68C60.0698 187.64 60.1198 186.82 60.1298 186.25V185.62C60.1298 185.48 60.1298 185.41 60.1298 185.4C60.1198 185.47 60.1198 185.55 60.1298 185.62C60.1298 185.78 60.1299 185.98 60.0899 186.24C60.0899 186.82 60.0199 187.61 59.9699 188.68C59.8799 190.8 59.7799 193.88 59.7299 197.73C59.6099 205.42 59.7699 216.16 60.2199 228.33V228.48H60.3698L68.3098 229.43L104.07 233.67L114.91 234.91L117.86 235.23L118.63 235.31L118.83 235.36Z" fill="black"/>
<path d="M29.85 235.36C29.84 235.45 29.84 235.54 29.85 235.64C29.85 235.83 29.8499 236.1 29.8899 236.44C29.9499 237.47 30.0699 238.49 30.2399 239.5C30.5099 241.11 30.9 242.69 31.41 244.23C32.11 246.27 33.05 248.22 34.21 250.04C35.62 252.26 37.4 254.21 39.48 255.82C41.86 257.67 44.62 258.99 47.56 259.67C49.14 260.05 50.7499 260.32 52.3699 260.47C54.0599 260.62 55.75 260.68 57.44 260.66C60.99 260.59 64.53 260.26 68.03 259.67L88.3 256.34L97.1399 254.87L104.84 253.45C109.53 252.57 113.34 251.9 115.98 251.51L119.02 251.06L119.81 250.95C119.9 250.94 119.99 250.92 120.08 250.89H119.81L119.01 250.97C118.32 251.05 117.28 251.16 115.95 251.35C113.3 251.71 109.49 252.34 104.79 253.18L97.1 254.55L88.2499 255.99L67.98 259.3C64.49 259.89 60.97 260.23 57.43 260.31C55.71 260.31 54.0399 260.26 52.3899 260.13C50.7899 259.98 49.1999 259.72 47.6399 259.35C44.7399 258.68 42.02 257.39 39.66 255.57C37.6 253.99 35.83 252.07 34.43 249.89C33.27 248.09 32.3199 246.17 31.6099 244.15C31.0899 242.62 30.6699 241.05 30.3799 239.46C30.1499 238.15 30.02 237.12 29.97 236.42L29.8899 235.62C29.8799 235.54 29.87 235.45 29.85 235.36Z" fill="black"/>
<path d="M120.45 236.47C120.48 236.38 120.5 236.28 120.51 236.19C120.54 235.98 120.59 235.7 120.64 235.35C120.75 234.58 120.91 233.51 121.1 232.15V232.2L125.65 227.16C126.54 225.9 127.34 224.57 128.05 223.2C128.84 221.64 129.55 220.03 130.15 218.39C131.49 214.68 132.41 210.83 132.9 206.91C133.38 202.67 133.48 198.4 133.19 194.14C132.98 190.22 132.57 186.71 132.19 183.77C131.81 180.83 131.44 178.46 131.18 176.82L130.87 174.94C130.84 174.74 130.81 174.58 130.78 174.45C130.78 174.39 130.76 174.34 130.74 174.28C130.73 174.33 130.73 174.39 130.74 174.45C130.74 174.59 130.74 174.75 130.79 174.94C130.85 175.41 130.93 176.04 131.03 176.84C131.25 178.48 131.57 180.86 131.93 183.81C132.29 186.76 132.61 190.26 132.82 194.18C133.08 198.42 132.98 202.67 132.5 206.88C132.02 210.77 131.12 214.6 129.81 218.3C129.22 219.93 128.53 221.52 127.75 223.06C127.06 224.42 126.27 225.74 125.41 227L120.92 232.1L120.55 235.31C120.52 235.66 120.49 235.94 120.46 236.15C120.44 236.25 120.43 236.36 120.45 236.47Z" fill="black"/>
<path d="M51.72 238.14C52.17 237.64 52.59 237.1 52.96 236.54C53.71 235.53 54.7599 234.16 55.9899 232.69C57.2199 231.23 58.3799 229.94 59.2399 229.03C59.7299 228.56 60.1899 228.05 60.6099 227.52C60.0499 227.91 59.5399 228.35 59.0699 228.85C57.8899 229.99 56.77 231.19 55.72 232.46C54.66 233.71 53.6799 235.02 52.7599 236.38C52.3599 236.93 52.01 237.52 51.72 238.14Z" fill="black"/>
<path d="M160.09 234.76C160.6 231.83 163.27 229.54 163.27 229.54C163.27 229.54 164.55 225.97 166.46 225.03C168.37 224.09 169.9 225.97 171.56 225.46C173.22 224.95 176.79 224.82 177.94 225.46C179.09 226.1 180.49 229.66 180.49 229.66C181.65 229.71 182.78 230.01 183.8 230.55C184.67 231 185.42 231.64 185.99 232.43C186.49 232.24 187.03 232.2 187.55 232.32C188.07 232.44 188.54 232.72 188.9 233.12C189.6 233.93 190.12 234.88 190.43 235.91L191.34 238.34C191.52 238.71 191.6 239.12 191.57 239.53C191.5 239.87 191.32 240.17 191.05 240.39C190.79 240.61 190.45 240.73 190.11 240.74C189.76 240.74 189.41 240.67 189.09 240.53C188.77 240.39 188.48 240.18 188.25 239.92C187.78 239.46 187.37 238.94 187.02 238.39L186.79 239.98C186.79 239.98 186.41 242.5 184.37 242.65C182.96 242.76 181.44 241.12 181.44 241.12L177.88 240.73L177.37 244.3C177.14 244.99 176.69 245.58 176.09 245.99C175.49 246.4 174.78 246.61 174.05 246.59C172.77 246.59 171.12 244.43 171.12 244.43L167.8 245.7C167.8 245.7 163.98 248.38 162.2 247.49C161.7 247.24 161.3 246.82 161.07 246.31C160.84 245.8 160.78 245.23 160.92 244.68C160.16 243.82 159.56 242.82 159.14 241.75C158.67 240.24 159.55 237.69 160.09 234.76Z" fill="#F8D9C2"/>
<path d="M186.88 239.37C187.02 238.11 186.98 236.83 186.75 235.59C186.63 234.33 186.32 233.09 185.83 231.92C185.73 231.92 186.11 233.59 186.4 235.64C186.69 237.7 186.75 239.37 186.88 239.37Z" fill="#CAB09C"/>
<path d="M181.31 236.02C181.09 236.89 180.99 237.78 181.01 238.67C180.94 239.32 181 239.97 181.2 240.59C181.4 241.07 181.68 241.28 181.7 241.22C181.72 241.16 181.56 240.95 181.44 240.53C181.32 239.93 181.3 239.32 181.37 238.71C181.47 237.82 181.45 236.91 181.31 236.02Z" fill="#CAB09C"/>
<path d="M178.93 234.5C178.86 234.57 179.33 235.19 179.98 235.82C180.63 236.45 181.21 236.96 181.29 236.89C181.36 236.82 180.89 236.2 180.24 235.57C179.58 234.94 179 234.43 178.93 234.5Z" fill="#CAB09C"/>
<path d="M178.46 227.65C178.38 228.29 178.36 228.94 178.38 229.59C178.38 230.79 178.33 232.44 178.24 234.26C178.14 236.08 178 237.73 177.9 238.92C177.8 239.56 177.76 240.21 177.78 240.86C177.97 240.24 178.09 239.6 178.15 238.95C178.32 237.76 178.5 236.11 178.6 234.28C178.7 232.45 178.69 230.79 178.64 229.59C178.64 228.93 178.58 228.28 178.46 227.65Z" fill="#CAB09C"/>
<path d="M165.09 229.01C165.09 229.01 165.24 229.35 165.48 229.97C165.81 230.85 166.08 231.75 166.28 232.66C166.4 233.25 166.54 233.89 166.68 234.57C166.82 235.31 167.02 236.05 167.28 236.75C167.58 237.55 168.08 238.26 168.73 238.81C169.09 239.12 169.51 239.34 169.97 239.45C170.43 239.56 170.91 239.57 171.37 239.46C171.85 239.35 172.28 239.1 172.61 238.73C172.91 238.37 173.1 237.93 173.17 237.46C173.27 236.63 173.28 235.78 173.22 234.95C173.14 233.54 172.93 232.15 172.57 230.79C172.33 229.87 172.03 228.97 171.66 228.1C171.53 227.79 171.43 227.56 171.34 227.41C171.3 227.33 171.26 227.25 171.2 227.18C171.29 227.51 171.39 227.84 171.52 228.16C171.83 229.04 172.1 229.95 172.31 230.86C172.62 232.21 172.81 233.59 172.87 234.98C172.93 235.79 172.9 236.6 172.81 237.41C172.75 237.81 172.59 238.2 172.33 238.51C172.05 238.82 171.68 239.03 171.28 239.13C170.87 239.22 170.45 239.22 170.04 239.12C169.63 239.02 169.26 238.82 168.94 238.55C168.33 238.03 167.85 237.37 167.57 236.63C167.14 235.31 166.78 233.96 166.51 232.6C166.29 231.68 165.99 230.78 165.6 229.91C165.49 229.67 165.37 229.44 165.24 229.22C165.16 229.08 165.1 229.01 165.09 229.01Z" fill="#CAB09C"/>
<path d="M163.74 230.56C163.84 231.32 164.17 232.03 164.7 232.59C165.23 233.15 165.92 233.53 166.67 233.66C166.07 233.26 165.5 232.82 164.96 232.34C164.51 231.78 164.1 231.18 163.74 230.56Z" fill="#CAB09C"/>
<path d="M171.12 239.44C170.89 240.39 170.84 241.38 170.95 242.35C170.99 243.22 171.11 244.08 171.31 244.92V244.97C171.34 244.98 171.36 244.99 171.39 244.99C171.42 244.99 171.45 244.98 171.47 244.97C171.5 244.96 171.52 244.94 171.54 244.92C171.56 244.9 171.57 244.87 171.58 244.84C171.58 244.77 171.58 244.74 171.58 244.74C171.58 244.74 171.58 244.77 171.53 244.8C171.48 244.83 171.43 244.86 171.41 244.8L171.45 244.86C171.45 244.39 171.35 243.42 171.28 242.29C171.31 241.35 171.25 240.39 171.12 239.44Z" fill="#CAB09C"/>
<path d="M163.03 236.6C163.3 237.04 163.61 237.44 163.96 237.81C164.75 238.73 165.44 239.72 166.02 240.78C166.6 241.84 166.93 243.01 166.98 244.21C166.98 245.14 166.82 245.7 166.88 245.71C167.12 245.25 167.24 244.73 167.23 244.21C167.25 242.95 166.94 241.71 166.33 240.6C165.73 239.52 164.98 238.52 164.1 237.63C163.8 237.25 163.44 236.9 163.03 236.6Z" fill="#CAB09C"/>
<path d="M164.44 242.93C164.65 242.16 164.62 241.34 164.34 240.59C164.06 239.84 163.55 239.2 162.88 238.76C160.48 237.06 153.3 232.58 153.15 232.58C153 232.58 144.72 229.83 141.24 229.47C137.76 229.11 122.51 236.68 122.51 236.68C122.51 236.68 118.97 241.78 119.54 246.67C120.11 251.56 123.3 251.84 123.3 251.84L127.72 250.76L132.28 249.89C132.28 249.89 142.37 252.7 143.96 252.19C145.55 251.67 146.1 249.95 144.38 249.02C142.66 248.09 137.72 246.62 137.72 246.62L133.92 245.01L146.29 246.78C146.29 246.78 156.75 248.84 157.97 248.55C159.19 248.26 159.38 247.35 159.48 246.49C159.48 246.49 163.69 248.55 164.94 247.42C166.19 246.29 166.74 243.84 164.44 242.93Z" fill="#F8D9C2"/>
<path d="M137.75 239.92C138.06 239.97 138.37 239.99 138.68 239.97C139.27 239.97 140.13 239.97 141.19 240.04C142.42 240.1 143.65 240.27 144.85 240.56C145.56 240.74 146.25 240.99 146.91 241.29C147.6 241.61 148.28 241.98 148.97 242.39C149.67 242.79 150.4 243.14 151.15 243.43C151.85 243.69 152.59 243.85 153.34 243.9C154.57 243.9 155.8 244.04 157.01 244.31C157.8 244.56 158.49 245.04 159 245.68C159.17 245.93 159.33 246.2 159.46 246.47C159.46 246.47 159.46 246.38 159.42 246.23C159.35 246.01 159.25 245.8 159.12 245.61C158.63 244.9 157.92 244.36 157.09 244.08C155.87 243.76 154.62 243.59 153.37 243.58C151.88 243.4 150.44 242.89 149.17 242.09C148.48 241.7 147.8 241.3 147.07 240.98C146.39 240.67 145.69 240.43 144.96 240.25C143.74 239.96 142.49 239.81 141.23 239.8C140.16 239.8 139.3 239.8 138.7 239.84C138.38 239.84 138.07 239.87 137.75 239.92Z" fill="#CAB09C"/>
<path d="M141.49 234.71C141.56 234.76 141.64 234.8 141.72 234.83C141.86 234.9 142.09 234.99 142.41 235.09C143.25 235.35 144.11 235.55 144.99 235.68C146.08 235.87 147.4 236.02 148.8 236.37C150.31 236.83 151.76 237.46 153.12 238.26C155.65 239.67 158.3 240.87 161.03 241.85C162.07 242.22 162.93 242.5 163.53 242.67C163.83 242.78 164.15 242.86 164.46 242.91C164.17 242.76 163.88 242.63 163.57 242.54L161.12 241.61C158.43 240.57 155.81 239.35 153.29 237.95C151.9 237.14 150.42 236.5 148.88 236.05C147.61 235.76 146.32 235.55 145.02 235.4C144.16 235.29 143.3 235.13 142.45 234.93C142.13 234.83 141.81 234.76 141.49 234.71Z" fill="#CAB09C"/>
<path d="M131.45 237.66C131.54 237.39 131.61 237.12 131.65 236.84C131.81 236.2 132.13 235.6 132.57 235.11C133.01 234.62 133.57 234.24 134.19 234C134.46 233.93 134.73 233.83 134.99 233.71C134.99 233.67 134.65 233.63 134.11 233.76C133.41 233.95 132.79 234.33 132.3 234.87C131.82 235.41 131.51 236.07 131.4 236.79C131.33 237.07 131.35 237.37 131.45 237.66Z" fill="#CAB09C"/>
<path d="M125.74 245.37C125.75 244.98 125.79 244.6 125.84 244.21C126.07 243.32 126.6 242.53 127.34 241.97C128.1 241.42 128.93 240.99 129.82 240.68C130.21 240.58 130.58 240.42 130.92 240.22C130.52 240.23 130.12 240.3 129.75 240.44C128.8 240.68 127.91 241.1 127.12 241.68C126.32 242.29 125.78 243.17 125.6 244.16C125.49 244.58 125.55 245 125.74 245.37Z" fill="#CAB09C"/>
<path d="M159.44 246.47C159.61 246.63 159.82 246.75 160.04 246.83C160.61 247.1 161.21 247.33 161.81 247.52C162.23 247.67 162.65 247.78 163.09 247.87C163.61 247.94 164.14 247.89 164.64 247.71C164.92 247.61 165.18 247.45 165.39 247.24C165.6 247.03 165.78 246.78 165.89 246.5C166.17 245.94 166.29 245.3 166.22 244.67C166.15 244.2 165.9 243.77 165.53 243.46C165.21 243.18 164.86 242.95 164.48 242.77L164.57 242.98C164.85 242.13 164.79 241.2 164.39 240.4C164.06 239.8 163.62 239.26 163.09 238.83C162.75 238.55 162.39 238.29 162.01 238.07C161.88 237.98 161.73 237.9 161.58 237.86C161.54 237.91 162.14 238.25 162.95 238.99C163.43 239.43 163.83 239.95 164.13 240.54C164.47 241.28 164.51 242.13 164.24 242.9L164.2 243.03L164.33 243.1C164.98 243.44 165.75 243.93 165.83 244.74C165.89 245.3 165.79 245.86 165.54 246.37C165.45 246.61 165.31 246.82 165.13 247C164.95 247.18 164.73 247.32 164.5 247.41C164.06 247.57 163.59 247.63 163.13 247.59C162.71 247.51 162.29 247.42 161.88 247.29C161.12 247.08 160.51 246.86 160.09 246.71C159.88 246.6 159.66 246.52 159.44 246.47Z" fill="#CAB09C"/>
<path d="M121.78 72.2401C121.1 69.1401 119.47 66.2601 117.06 63.8701C114.64 61.4901 111.53 59.7002 108.03 58.6802C104.53 57.6602 100.78 57.4601 97.17 58.0801C93.55 58.7101 90.1901 60.1401 87.4401 62.2401C85.2101 63.9401 83.38 66.0701 80.8 67.3701C77.88 68.8301 77.5 68.3401 74.29 69.2201C71.08 70.1001 64.78 77.2601 64.67 80.1501L62.17 92.6902C62.09 95.6502 66.42 97.5502 69.77 96.7902C73.12 96.0302 75.49 93.5001 77.41 91.0301C79.33 88.5601 81.16 85.8801 84.12 84.3301C89.03 81.7601 95.34 83.0701 100.9 84.3301C106.46 85.5901 112.93 86.6701 117.56 83.7401C121.51 81.1901 122.69 76.3901 121.78 72.2401Z" fill="#263238"/>
<path d="M123.55 89.27C123.55 79.6 117.86 67.3899 108.2 67.8299L77.7698 73.5999C76.3498 73.6599 75.0098 74.26 74.0098 75.26C73.0098 76.27 72.4198 77.61 72.3698 79.03L71.2198 151.51H71.0098C71.0098 151.51 81.5798 178.1 101.78 173.11C105.79 172.12 102.82 162.15 103.88 157.78L104.08 157.82C104.12 157.29 104.16 156.8 104.2 156.3C104.79 153.03 105.04 149.71 104.93 146.39C105.35 140.56 105.49 138.15 105.49 138.22C105.49 138.29 117.92 136.91 121.44 121.01C123.2 113.14 123.59 100.02 123.55 89.27Z" fill="#F8D9C2"/>
<path d="M122.07 77.9001C122.07 77.9001 126 50.2901 86.5501 57.0501L75.9701 80.7801C75.9701 80.7801 58.21 107.64 71.01 124.6L79.8001 129.45C79.8001 129.45 57.8101 67.6001 122.07 77.9001Z" fill="#ACA8EA"/>
<path d="M118.18 101.92C118.15 102.46 117.92 102.96 117.52 103.33C117.13 103.7 116.6 103.89 116.07 103.88C115.81 103.89 115.54 103.84 115.3 103.74C115.06 103.64 114.83 103.5 114.64 103.31C114.45 103.12 114.3 102.9 114.2 102.66C114.1 102.42 114.05 102.16 114.05 101.89C114.08 101.35 114.31 100.85 114.71 100.48C115.1 100.11 115.63 99.9202 116.16 99.9302C116.42 99.9202 116.69 99.9701 116.93 100.07C117.17 100.17 117.4 100.31 117.59 100.5C117.78 100.69 117.93 100.91 118.03 101.15C118.13 101.4 118.18 101.66 118.18 101.92Z" fill="#263238"/>
<path d="M120.3 95.91C120.03 96.16 118.54 94.91 116.32 94.79C114.1 94.67 112.41 95.67 112.2 95.39C112.08 95.26 112.38 94.7899 113.11 94.3199C114.11 93.7099 115.27 93.43 116.44 93.51C117.58 93.59 118.67 94.03 119.54 94.77C120.24 95.3 120.44 95.8 120.3 95.91Z" fill="#263238"/>
<path d="M98.1901 100.8C98.1601 101.34 97.93 101.84 97.53 102.21C97.14 102.58 96.6101 102.77 96.0801 102.76C95.8201 102.77 95.5501 102.72 95.3101 102.62C95.0701 102.52 94.84 102.38 94.65 102.19C94.46 102.01 94.3101 101.78 94.2101 101.54C94.1101 101.3 94.0601 101.03 94.0601 100.77C94.0901 100.23 94.3301 99.7199 94.7201 99.3499C95.1201 98.9799 95.6501 98.79 96.1901 98.81C96.4501 98.81 96.7101 98.8599 96.9501 98.9599C97.1901 99.0599 97.4101 99.2 97.6001 99.39C97.7901 99.57 97.93 99.79 98.03 100.04C98.14 100.28 98.1901 100.54 98.1901 100.8Z" fill="#263238"/>
<path d="M98.4897 95.0201C98.2197 95.2701 96.7298 94.0201 94.5098 93.8901C92.2898 93.7601 90.5998 94.7801 90.3898 94.4901C90.2798 94.3601 90.5598 93.8901 91.2998 93.4201C92.2998 92.8101 93.4598 92.5301 94.6298 92.6101C95.7798 92.6801 96.8798 93.11 97.7798 93.84C98.4198 94.4 98.6298 94.9001 98.4897 95.0201Z" fill="#263238"/>
<path d="M105.55 111.94C105.55 111.81 106.92 111.66 109.19 111.51C109.76 111.51 110.3 111.4 110.42 111.02C110.5 110.44 110.41 109.84 110.15 109.32C109.7 107.95 109.23 106.46 108.74 104.92C106.78 98.6401 105.41 93.5001 105.66 93.4201C105.91 93.3401 107.72 98.3701 109.66 104.64L111 109.08C111.32 109.78 111.37 110.57 111.16 111.31C111.07 111.51 110.93 111.68 110.76 111.81C110.59 111.94 110.39 112.04 110.18 112.08C109.86 112.15 109.54 112.17 109.21 112.15C106.94 112.14 105.55 112.06 105.55 111.94Z" fill="#263238"/>
<path d="M105.5 138.26C97.9298 137.92 90.6098 135.48 84.3398 131.23C84.3398 131.23 89.0898 142.74 105.25 142.22L105.5 138.26Z" fill="#CAB09C"/>
<path d="M104.29 117.22C103.9 116.66 103.38 116.21 102.76 115.92C102.15 115.62 101.47 115.49 100.79 115.52C100.3 115.53 99.81 115.64 99.37 115.85C98.92 116.06 98.52 116.35 98.19 116.71C97.87 117.06 97.67 117.5 97.61 117.97C97.55 118.44 97.64 118.92 97.86 119.34C98.19 119.76 98.64 120.07 99.15 120.23C99.66 120.39 100.21 120.4 100.72 120.25C101.79 119.94 102.79 119.42 103.65 118.72C103.92 118.56 104.15 118.35 104.34 118.1C104.43 117.98 104.48 117.84 104.49 117.69C104.5 117.54 104.46 117.4 104.39 117.27" fill="#CAB09C"/>
<path d="M98.95 113.08C99.31 113.08 99.1799 115.49 101.13 117.31C103.08 119.14 105.66 119.03 105.66 119.37C105.66 119.52 105.06 119.8 103.98 119.77C102.57 119.71 101.23 119.15 100.19 118.19C99.19 117.27 98.5999 116 98.5199 114.64C98.4699 113.64 98.77 113.05 98.95 113.08Z" fill="#263238"/>
<path d="M99.5599 86.6203C99.3099 87.2103 97.1099 86.7902 94.4899 86.9502C91.8699 87.1102 89.7199 87.6803 89.4099 87.1203C89.2699 86.8503 89.6699 86.3103 90.5499 85.7503C91.7299 85.1003 93.0299 84.7303 94.3699 84.6603C95.7099 84.5903 97.0499 84.8303 98.2799 85.3603C99.2099 85.8303 99.6299 86.3403 99.5599 86.6203Z" fill="#263238"/>
<path d="M119.88 89.4502C119.46 89.9302 117.96 89.3203 116.13 89.1803C114.3 89.0403 112.7 89.3202 112.39 88.7702C112.24 88.5002 112.52 88.0102 113.23 87.5802C114.18 87.0602 115.26 86.8403 116.33 86.9303C117.41 87.0303 118.43 87.4402 119.26 88.1302C119.89 88.6902 120.06 89.2202 119.88 89.4502Z" fill="#263238"/>
<path d="M60.4 73.28C70.39 59.28 77.16 57.5801 86.55 57.0601L73.5 86.33C71.54 91.04 68.85 96.76 68.43 101.84C67.94 107.86 70.0201 112.91 72.82 118.26C76.17 124.69 79.85 130.82 85.62 135.22C91.38 139.62 104.22 145.15 110.88 142.3L101.59 147.5L79.39 147.58L53.53 147.68C53.53 147.68 50.5101 145.03 47.8501 138.19C41.1701 121.03 49.26 88.89 60.4 73.28Z" fill="#ACA8EA"/>
<path d="M41.98 164.47C41.98 164.47 47.5399 153.05 54.8099 146.77C62.0699 140.49 66.5299 140.55 76.8899 141.43C87.2499 142.31 101.74 143.94 105.18 143.07L105.5 138.26C107.2 138.09 114.19 134.69 115.55 132.63C118.15 135.29 119.28 138.13 118.69 141.14L120.39 141.78C122.89 142.7 124.97 144.5 126.23 146.85C127.49 149.2 127.83 151.93 127.21 154.52C126.57 156.99 125.01 158.51 121.87 159.05C109.44 161.2 76.1899 152.21 66.1799 152.18C56.1699 152.16 41.98 164.47 41.98 164.47Z" fill="#ACA8EA"/>
<path d="M122.99 158.94C122.7 158.93 122.41 158.95 122.12 158.99C121.56 159.04 120.75 159.13 119.65 159.21C116.62 159.45 113.58 159.5 110.54 159.36C106.04 159.13 101.57 158.52 97.17 157.55C94.68 157.01 92.0901 156.35 89.4301 155.58L81.2301 153.04C75.6001 151.33 69.96 150.16 64.8 150.67C60.25 151.09 55.86 152.49 51.91 154.79C49.26 156.34 46.8701 158.29 44.8101 160.57C44.2501 161.19 43.73 161.83 43.24 162.51C43.06 162.73 42.9 162.96 42.75 163.2C42.97 163.01 43.1601 162.79 43.3301 162.55C43.6801 162.1 44.2401 161.48 44.9701 160.7C50.2101 155.21 57.2701 151.81 64.8401 151.15C69.9001 150.68 75.4501 151.84 81.05 153.54C83.8601 154.38 86.59 155.28 89.26 156.06C91.93 156.84 94.54 157.48 97.04 158.01C101.47 158.97 105.98 159.54 110.51 159.71C113.56 159.81 116.62 159.7 119.65 159.37C120.72 159.26 121.55 159.14 122.11 159.05C122.42 159.03 122.71 159 122.99 158.94Z" fill="#263238"/>
<path d="M41.3799 160.71C53.9199 144.4 77.9799 138.17 96.8699 146.33L116.79 150.56C122.05 151.47 130.48 153.18 130.87 158.05C131.23 163.21 130.11 168.36 127.64 172.9C123.01 180.96 125.52 191.77 120.89 199.84C118.7 203.65 116.47 207.52 113.29 210.55C110.1 213.58 105.77 215.7 101.41 215.23C96.5499 214.71 92.56 211.16 89.47 207.36C82.81 199.19 78.6599 189.27 72.4299 180.78C66.1999 172.29 58.8499 166.04 45.7499 165.23C43.3699 165.08 36.59 168.25 36.59 168.25C36.4 167.29 40.7899 161.48 41.3799 160.71Z" fill="#ACA8EA"/>
<g opacity="0.3">
<path d="M68.1998 151.02C76.8598 151.02 85.3698 155.18 93.7698 157.04C127.54 164.47 127.54 151.74 127.54 151.74C128.6 157.72 122.98 160.47 117.06 161.85C105.77 164.46 93.6998 165.86 85.5498 163.26C78.9798 161.2 72.1298 159.67 65.4998 157.76C58.8698 155.86 49.3198 156.58 44.2998 161.3C48.7998 153.9 59.5298 151 68.1998 151.02Z" fill="black"/>
</g>
<g opacity="0.3">
<path d="M112.09 150.1C111.69 150.99 111.1 151.77 110.36 152.41C109.63 153.05 108.76 153.52 107.83 153.79C105.96 154.33 104 154.5 102.07 154.28C95.0101 153.8 88.22 151.44 81.54 149.11C86.88 148.93 92.06 150.79 97.3 151.86C102.54 152.93 108.45 153 112.71 149.8" fill="black"/>
</g>
<path d="M39.6899 165.94C39.6899 165.94 39.75 165.89 39.85 165.79L40.2699 165.31C40.6299 164.88 41.1899 164.27 41.9299 163.5C43.9999 161.32 46.4999 159.6 49.2699 158.45C51.2099 157.72 53.2399 157.28 55.2999 157.15C57.6699 156.96 60.0499 157.03 62.3999 157.38C67.3899 158.07 72.6599 159.82 78.2499 161.41C83.8399 163 89.1799 164.67 94.2599 164.94C98.7399 165.13 103.22 164.81 107.62 163.99C111.37 163.3 114.36 162.51 116.43 161.99L118.81 161.39L119.42 161.22L119.63 161.15C119.56 161.14 119.48 161.14 119.41 161.15L118.79 161.28L116.4 161.82C114.34 162.29 111.33 163.04 107.58 163.7C103.2 164.49 98.7399 164.79 94.2899 164.58C89.2699 164.3 83.9199 162.71 78.3599 161.04C72.7999 159.37 67.49 157.69 62.46 157.02C60.08 156.68 57.6799 156.62 55.2899 156.83C52.7299 156.98 50.2199 157.63 47.9099 158.76C45.5999 159.88 43.54 161.46 41.85 163.39C41.12 164.18 40.5799 164.8 40.2399 165.24L39.85 165.74L39.6899 165.94Z" fill="black"/>
<path d="M52.3001 149.14C52.3501 149.11 52.4001 149.07 52.4401 149.02L52.8401 148.66C53.1801 148.33 53.7101 147.87 54.3901 147.29C56.3701 145.69 58.5401 144.34 60.8501 143.28C64.2801 141.71 67.9201 140.66 71.6601 140.18C76.2401 139.61 80.8801 139.62 85.4601 140.21C90.0401 140.82 94.5901 141.66 99.0901 142.75C101.08 143.22 103.12 143.38 105.16 143.23C106.95 143.1 108.67 142.47 110.13 141.43C111.3 140.54 112.3 139.45 113.08 138.2C113.67 137.27 114.18 136.29 114.61 135.28C114.96 134.45 115.19 133.78 115.35 133.33L115.51 132.81C115.53 132.75 115.55 132.69 115.55 132.63C115.55 132.63 115.51 132.69 115.47 132.8C115.43 132.91 115.35 133.1 115.28 133.31C115.11 133.75 114.85 134.4 114.48 135.23C114.03 136.22 113.51 137.18 112.91 138.09C112.13 139.3 111.13 140.36 109.98 141.22C108.55 142.22 106.87 142.81 105.13 142.93C103.13 143.06 101.12 142.89 99.1701 142.42C94.6701 141.31 90.1101 140.45 85.5101 139.85C80.9001 139.25 76.23 139.25 71.62 139.85C67.85 140.36 64.19 141.44 60.75 143.06C58.43 144.15 56.2701 145.53 54.3101 147.18C53.7801 147.63 53.2701 148.11 52.7901 148.61L52.4201 149C52.3401 149.09 52.2901 149.13 52.3001 149.14Z" fill="black"/>
<path d="M56.3501 148.8H56.52L57.03 148.72L58.99 148.4C61.39 148.03 63.8101 147.79 66.2301 147.67C69.8301 147.49 73.44 147.61 77.02 148.01C81.4 148.6 85.74 149.45 90.02 150.56C94.58 151.66 99.02 152.62 103.13 152.56C105.07 152.57 107.01 152.34 108.89 151.87C110.53 151.41 112.05 150.58 113.34 149.46C115.19 147.85 116.69 145.87 117.75 143.66C118.15 142.86 118.47 142.02 118.7 141.15C118.67 141.2 118.64 141.25 118.62 141.31L118.43 141.79C118.26 142.22 118 142.83 117.61 143.59C116.51 145.75 115 147.68 113.16 149.26C111.89 150.34 110.4 151.13 108.8 151.58C106.94 152.03 105.03 152.25 103.11 152.23C99.04 152.23 94.6401 151.32 90.0601 150.21C85.7701 149.09 81.41 148.24 77.01 147.67C73.41 147.28 69.7901 147.19 66.1801 147.4C63.7501 147.54 61.3301 147.82 58.9301 148.24C58.0801 148.4 57.4301 148.53 56.9801 148.63L56.4801 148.75C56.4001 148.77 56.3501 148.8 56.3501 148.8Z" fill="black"/>
<path d="M55.72 117.97C55.78 118.36 55.87 118.75 55.98 119.12C56.09 119.57 56.2199 120.02 56.3799 120.45C56.5599 120.97 56.7299 121.56 57.0099 122.18C57.2799 122.8 57.5499 123.51 57.9199 124.24C58.2899 124.97 58.6899 125.71 59.1399 126.5C61.1499 129.88 63.76 132.85 66.84 135.29C67.56 135.84 68.2099 136.37 68.8999 136.79C69.5899 137.22 70.2099 137.62 70.7999 137.96C71.3999 138.3 71.9499 138.57 72.4299 138.81C72.8399 139.03 73.27 139.22 73.7 139.38C74.06 139.55 74.4299 139.68 74.8099 139.79C74.4699 139.58 74.1199 139.4 73.7599 139.25C73.4199 139.09 72.9999 138.89 72.5199 138.63C72.0499 138.36 71.4999 138.11 70.9299 137.74C70.3599 137.37 69.7099 137.01 69.0699 136.54C68.4199 136.07 67.7399 135.57 67.0099 135.03C63.9799 132.59 61.3999 129.64 59.3799 126.32C58.9299 125.54 58.4899 124.81 58.1499 124.1C57.8099 123.38 57.46 122.73 57.21 122.09C56.96 121.46 56.7399 120.9 56.5199 120.39C56.3099 119.89 56.1799 119.44 56.0699 119.08C55.9799 118.72 55.87 118.34 55.72 117.97Z" fill="black"/>
<path d="M56.7598 158.92C56.9498 158.92 57.1298 158.9 57.3198 158.87L58.0098 158.78C58.2698 158.75 58.5798 158.78 58.9198 158.73C60.8598 158.68 62.7998 158.98 64.6398 159.62C65.9098 160.05 67.1398 160.58 68.3298 161.2C69.6898 161.92 71.0198 162.71 72.2898 163.56C74.9998 165.37 77.8297 167.58 80.8597 169.81L96.3597 181.32L101.09 184.75L102.39 185.64C102.54 185.76 102.69 185.86 102.86 185.94C102.73 185.81 102.59 185.69 102.44 185.58L101.18 184.6L96.5198 181.06L81.0598 169.51C78.0198 167.28 75.1898 165.07 72.4498 163.27C71.1598 162.41 69.8198 161.63 68.4398 160.91C67.2298 160.3 65.9798 159.78 64.6898 159.36C62.8198 158.74 60.8598 158.48 58.8898 158.58C58.5498 158.58 58.2399 158.61 57.9799 158.66L57.2898 158.78C57.1098 158.82 56.9298 158.87 56.7598 158.92Z" fill="black"/>
<path d="M34.5898 179.99C34.7198 179.68 34.8198 179.35 34.8898 179.02C35.0498 178.39 35.2898 177.48 35.6198 176.37C35.9898 175.06 36.4598 173.79 37.0298 172.56C37.7198 171.06 38.6598 169.69 39.8098 168.51C40.9598 167.32 42.3898 166.45 43.9698 165.99C45.2698 165.64 46.6298 165.52 47.9698 165.64C49.2098 165.78 50.4498 165.99 51.6698 166.27C51.5998 166.22 51.5198 166.18 51.4298 166.16C51.2698 166.1 51.0197 166.01 50.7397 165.93C49.8397 165.66 48.9197 165.48 47.9897 165.39C46.6097 165.23 45.2098 165.32 43.8698 165.67C42.2298 166.13 40.7298 167.03 39.5398 168.25C38.3598 169.46 37.3998 170.87 36.7098 172.42C36.1498 173.67 35.6898 174.97 35.3398 176.3C35.0398 177.43 34.8498 178.36 34.7198 178.99C34.6498 179.32 34.6098 179.65 34.5898 179.99Z" fill="black"/>
<path d="M131.03 254.03V254.83C131.03 255.89 131.84 256.79 132.9 256.89L207.08 264.36C209.11 264.56 211.02 263.39 211.76 261.5L236.27 198.58C237.27 196.01 239.58 194.19 242.31 193.83L281.88 188.5C282.82 188.37 283.33 187.33 282.84 186.51C282.57 186.05 282.05 185.8 281.52 185.88L239.32 191.85C236.65 192.23 234.38 194 233.37 196.49L208.35 258C207.6 259.85 205.72 260.99 203.73 260.8L131.03 254.03Z" fill="#455A64"/>
<path d="M112.18 70.4004L92.8899 79.3503C102.002 75.2306 116.14 76.6672 122.07 77.9004L112.18 70.4004Z" fill="black" fill-opacity="0.3"/>
</g>
</svg>
