<svg width="584" height="288" viewBox="0 0 584 288" fill="none" xmlns="http://www.w3.org/2000/svg">
<path d="M584 144C584 223.529 519.529 288 440 288C360.471 288 296 223.529 296 144C296 64.471 360.471 0 440 0C519.529 0 584 64.471 584 144Z" fill="#FAE6E8"/>
<mask id="mask0_16229_394433" style="mask-type:alpha" maskUnits="userSpaceOnUse" x="296" y="0" width="288" height="288">
<circle cx="440" cy="144" r="144" fill="white"/>
</mask>
<g mask="url(#mask0_16229_394433)">
<path d="M388.796 160.097L395.26 167.037C395.26 167.037 422.311 212.403 426.161 215.318C430.012 218.233 436.476 221.582 440.359 221.064C444.243 220.546 454.507 213.548 454.507 213.548L445.537 185.987L435.332 183.256L407.771 151.319L388.796 160.097Z" fill="#FBDCC5"/>
<path d="M393.974 165.567C391.669 162.794 385.748 157.107 385.748 157.107L383.242 154.443C383.133 154.664 383.041 154.892 382.967 155.127C382.863 155.584 382.645 156.007 382.332 156.355C381.97 156.606 381.54 156.74 381.1 156.74C380.66 156.74 380.23 156.606 379.868 156.355C379.074 155.913 378.409 155.27 377.94 154.491C377.471 153.712 377.214 152.824 377.196 151.915C377.177 151.005 377.397 150.107 377.834 149.31C378.271 148.512 378.909 147.843 379.685 147.369C379.819 146.879 380.052 146.421 380.369 146.024C382.482 143.301 387.452 143.669 387.452 143.669L386.708 142.608C386.708 142.608 383.326 140.504 377.697 144.07C376.859 144.618 375.848 144.838 374.857 144.688C374.553 144.655 374.26 144.556 373.999 144.397C373.738 144.238 373.515 144.024 373.346 143.769C372.511 142.374 373.304 141.431 376.787 139.159C380.269 136.887 384.378 135.818 386.984 136.804C388.21 137.225 389.405 137.733 390.558 138.324C390.558 138.324 384.412 128.402 384.044 127.759C382.992 125.897 382.942 123.867 384.119 123.04C384.871 122.514 386.207 122.397 387.502 124.527C388.613 126.373 402.468 143.794 402.468 143.794L408.147 151.854L393.974 165.567Z" fill="#FBDCC5"/>
<path d="M406.101 152.137C405.266 153.056 403.695 152.973 402.568 152.363C401.441 151.753 400.547 150.834 399.461 150.175C396.229 148.195 391.803 149.005 388.662 146.876C388.228 146.575 387.786 146.041 387.978 145.581C388.17 145.122 388.754 145.038 389.247 145.022L401.775 144.504" fill="#FBDCC5"/>
<path d="M401.758 144.504C401.31 144.414 400.852 144.386 400.397 144.42C399.52 144.42 398.259 144.42 396.689 144.462L391.202 144.604L389.615 144.663C389.295 144.623 388.97 144.646 388.659 144.732C388.348 144.818 388.057 144.965 387.802 145.164C387.666 145.324 387.58 145.522 387.556 145.732C387.532 145.942 387.571 146.154 387.669 146.341C387.831 146.65 388.066 146.914 388.354 147.11C388.874 147.455 389.435 147.735 390.024 147.945C392.354 148.847 394.676 148.88 396.639 149.381C397.567 149.577 398.46 149.915 399.286 150.384C400.046 150.826 400.689 151.394 401.341 151.845C401.831 152.268 402.409 152.578 403.032 152.754C403.655 152.93 404.309 152.967 404.948 152.864C405.859 152.622 406.134 152.104 406.101 152.104C405.73 152.337 405.32 152.501 404.89 152.588C404.299 152.633 403.705 152.555 403.145 152.358C402.586 152.161 402.074 151.85 401.641 151.444C400.987 150.886 400.304 150.362 399.595 149.874C398.726 149.355 397.782 148.972 396.797 148.738C394.759 148.195 392.438 148.12 390.291 147.285C389.769 147.077 389.271 146.814 388.805 146.5C388.379 146.208 388.153 145.773 388.362 145.59C388.571 145.406 389.139 145.331 389.673 145.314L391.26 145.231L396.747 144.93C398.309 144.838 399.57 144.746 400.439 144.663C400.884 144.671 401.328 144.618 401.758 144.504V144.504Z" fill="#CDB39F"/>
<path d="M387.627 143.602C387.14 142.967 386.518 142.448 385.806 142.082C385.013 141.751 384.136 141.681 383.301 141.882C382.266 142.141 381.279 142.564 380.378 143.134C379.44 143.718 378.447 144.208 377.413 144.596C376.539 144.914 375.597 144.995 374.682 144.83C374.368 144.767 374.072 144.632 373.82 144.435C373.568 144.238 373.365 143.984 373.229 143.694C373.118 143.492 373.066 143.264 373.078 143.034C373.078 143.034 373.179 143.26 373.387 143.61C373.535 143.85 373.733 144.054 373.969 144.209C374.204 144.363 374.47 144.464 374.749 144.504C375.596 144.605 376.456 144.499 377.254 144.195C378.251 143.792 379.21 143.3 380.119 142.725C381.068 142.136 382.11 141.71 383.201 141.464C384.116 141.261 385.073 141.376 385.915 141.79C386.472 142.069 386.952 142.482 387.31 142.992C387.46 143.169 387.569 143.377 387.627 143.602Z" fill="#CDB39F"/>
<path d="M383.66 126.999C384.127 127.62 384.54 128.279 384.896 128.97L387.744 133.764L390.667 138.524C391.115 139.159 391.507 139.833 391.836 140.537C391.293 139.981 390.811 139.368 390.4 138.708C389.564 137.539 388.479 135.877 387.351 134.006C386.224 132.135 385.263 130.398 384.612 129.12C384.21 128.454 383.89 127.742 383.66 126.999V126.999Z" fill="#CDB39F"/>
<path d="M386.725 147.219C386.491 147.29 386.25 147.332 386.007 147.344C385.7 147.362 385.402 147.447 385.131 147.591C384.86 147.735 384.623 147.935 384.437 148.179C384.335 148.353 384.282 148.55 384.282 148.751C384.282 148.952 384.335 149.15 384.437 149.323C384.678 149.767 384.973 150.179 385.314 150.551C385.745 151.004 386 151.597 386.032 152.221C385.997 152.561 385.885 152.889 385.704 153.178C385.523 153.468 385.278 153.712 384.988 153.892C384.696 154.07 384.37 154.186 384.031 154.234C383.692 154.281 383.347 154.259 383.017 154.167C382.41 154.017 381.862 153.692 381.438 153.232C380.811 152.45 380.302 151.581 379.927 150.651C379.656 150.034 379.49 149.377 379.434 148.705C379.406 148.458 379.443 148.207 379.542 147.979C379.581 148.214 379.606 148.451 379.618 148.689C379.734 149.327 379.939 149.945 380.227 150.526C380.627 151.398 381.141 152.212 381.756 152.948C382.123 153.354 382.614 153.629 383.152 153.73C383.691 153.831 384.247 153.753 384.737 153.508C384.971 153.363 385.168 153.167 385.313 152.933C385.458 152.7 385.546 152.436 385.572 152.163C385.557 151.633 385.346 151.127 384.979 150.743C384.626 150.335 384.326 149.883 384.086 149.399C383.971 149.167 383.92 148.909 383.936 148.651C383.952 148.393 384.035 148.144 384.178 147.929C384.396 147.656 384.675 147.438 384.993 147.293C385.31 147.148 385.658 147.08 386.007 147.094C386.252 147.089 386.496 147.131 386.725 147.219Z" fill="#CDB39F"/>
<path d="M383 153.867C383 153.867 383.2 154.034 383.284 154.46C383.336 154.769 383.315 155.087 383.222 155.387C383.129 155.688 382.967 155.962 382.749 156.188C382.412 156.514 381.996 156.745 381.542 156.859C381.088 156.974 380.611 156.967 380.16 156.84C379.072 156.523 378.15 155.795 377.588 154.81C377.007 153.859 376.738 152.749 376.82 151.637C376.899 150.736 377.213 149.872 377.73 149.131C378.075 148.638 378.508 148.214 379.008 147.878C379.359 147.645 379.584 147.569 379.593 147.594C378.986 148.091 378.452 148.67 378.006 149.315C377.511 150.103 377.249 151.015 377.249 151.946C377.249 152.876 377.511 153.788 378.006 154.576C378.511 155.46 379.327 156.123 380.294 156.439C380.679 156.557 381.089 156.575 381.483 156.492C381.877 156.409 382.244 156.227 382.549 155.963C382.746 155.774 382.9 155.545 383 155.291C383.101 155.038 383.147 154.765 383.134 154.493C383.084 154.092 382.967 153.883 383 153.867Z" fill="#CDB39F"/>
<path d="M393.916 156.356C393.916 156.314 394.208 156.03 394.876 155.788C395.796 155.469 396.796 155.469 397.716 155.788L397.44 156.088C397.21 155.615 397.012 155.127 396.847 154.627C396.196 152.9 396.031 151.028 396.371 149.215C396.49 150.996 396.798 152.76 397.29 154.476C397.457 154.986 397.649 155.47 397.841 155.905L398.05 156.381L397.565 156.205C396.727 155.903 395.818 155.854 394.951 156.063C394.308 156.205 393.949 156.406 393.916 156.356Z" fill="#CDB39F"/>
<path d="M383.384 139.502C383.456 139.825 383.451 140.161 383.368 140.482C383.285 140.803 383.128 141.1 382.908 141.348C382.265 142.266 381.355 142.534 381.321 142.417C381.288 142.3 381.973 141.882 382.524 141.08C383.075 140.279 383.276 139.494 383.384 139.502Z" fill="#CDB39F"/>
<path d="M439.341 258.781L455.543 222.626L446.147 191.608C443.301 182.202 443.966 172.082 448.018 163.129L463.836 132.47L477.959 127.459L511.098 123.041C511.683 123.233 513.353 123.333 523.166 126.599C531.416 129.34 538.403 134.957 542.851 142.425L516.076 220.522C516.076 220.522 534.241 260.259 531.944 278.474L439.341 258.781Z" fill="#AFABED"/>
<path d="M466.492 131.651C466.492 131.651 447.951 135.76 441.186 161.058L432.834 187.992L448.043 188.927L466.492 131.651Z" fill="#AFABED"/>
<path d="M446.707 189.804C446.638 189.685 446.582 189.559 446.54 189.428C446.448 189.178 446.289 188.81 446.139 188.317C445.726 186.927 445.462 185.496 445.354 184.05C445.116 179.242 446.098 174.453 448.21 170.127C448.812 168.903 449.475 167.71 450.198 166.553C450.866 165.425 451.509 164.331 452.077 163.271C453.106 161.404 453.961 159.447 454.632 157.424C455.2 155.696 455.61 154.276 455.91 153.299L456.261 152.171C456.303 152.04 456.353 151.912 456.411 151.787C456.409 151.927 456.384 152.065 456.336 152.196C456.261 152.497 456.169 152.873 456.061 153.341C455.802 154.326 455.426 155.762 454.891 157.516C454.249 159.572 453.41 161.56 452.386 163.454C451.818 164.523 451.183 165.626 450.515 166.795C449.847 167.964 449.179 169.1 448.577 170.353C446.5 174.629 445.496 179.348 445.654 184.1C445.737 185.531 445.955 186.952 446.306 188.342C446.465 188.822 446.599 189.31 446.707 189.804V189.804Z" fill="#263238"/>
<path d="M400.697 273.613C400.605 273.73 391.911 267.391 381.271 259.415C370.631 251.439 362.062 244.958 362.163 244.841C362.263 244.725 370.94 251.063 381.589 259.039C392.237 267.015 400.781 273.496 400.697 273.613Z" fill="#455A64"/>
<path d="M530.457 274.807L504.149 253.176C502.688 245.185 498.293 238.027 491.827 233.109C485.36 228.191 477.289 225.867 469.197 226.593V226.593C462.711 227.184 456.551 229.709 451.517 233.842L436.267 245.794C412.556 239.329 376.519 229.224 358.003 224.021C354.262 222.963 350.339 222.714 346.494 223.29C342.649 223.866 338.971 225.254 335.704 227.361L335.354 227.587C330.617 230.652 326.943 235.104 324.832 240.336C322.721 245.568 322.277 251.324 323.561 256.818V256.818C324.384 260.353 325.901 263.689 328.024 266.632C330.147 269.576 332.835 272.068 335.93 273.964C345.284 279.693 359.774 288.537 372.226 295.987L370.556 297.282L381.563 315.388L404.263 308.398C419.58 306.218 451.926 302.009 451.926 302.009L442.681 296.555L444.794 295.904C462.416 310.937 483.955 317.818 510.622 306.176C523.767 300.013 531.985 285.147 530.457 274.807Z" fill="#263238"/>
<path d="M485.383 272.394C485.383 272.394 485.316 272.469 485.166 272.594L484.506 273.137C483.888 273.63 483.028 274.323 481.925 275.191C481.366 275.642 480.739 276.135 480.055 276.67C479.37 277.204 478.568 277.714 477.741 278.34L475.052 280.177C474.568 280.503 474.091 280.845 473.574 281.18L471.97 282.148C469.774 283.46 467.393 284.963 464.704 286.324C463.368 287.017 462.007 287.786 460.528 288.496L456.052 290.617C449.897 293.423 442.99 296.246 435.59 298.76C420.808 303.854 407.136 307.529 397.348 310.494C394.893 311.212 392.679 311.889 390.742 312.507C388.804 313.125 387.134 313.617 385.781 314.085L382.641 315.096L381.806 315.355C381.799 315.392 381.779 315.425 381.749 315.448C381.72 315.471 381.682 315.482 381.645 315.479C381.607 315.476 381.572 315.459 381.547 315.431C381.521 315.403 381.507 315.367 381.507 315.329C381.507 315.292 381.521 315.255 381.547 315.228C381.572 315.2 381.607 315.183 381.645 315.18C381.682 315.177 381.72 315.188 381.749 315.211C381.779 315.234 381.799 315.267 381.806 315.304L382.641 315.004L385.748 313.893C387.092 313.4 388.754 312.849 390.692 312.223C392.629 311.596 394.826 310.886 397.273 310.143C407.044 307.078 420.699 303.353 435.457 298.267C442.84 295.762 449.73 292.955 455.885 290.174L460.361 288.078C461.798 287.376 463.159 286.625 464.537 285.94C467.226 284.604 469.607 283.117 471.811 281.831L473.423 280.879C473.933 280.561 474.417 280.219 474.902 279.902L477.608 278.098C478.443 277.521 479.278 277.037 479.946 276.503L481.842 275.066L484.473 273.087L485.166 272.586C485.23 272.513 485.303 272.449 485.383 272.394V272.394Z" fill="#455A64"/>
<path d="M487.346 280.862C487.091 281.047 486.81 281.191 486.511 281.288C485.976 281.53 485.183 281.856 484.189 282.224C481.603 283.178 478.951 283.946 476.255 284.52C473.557 285.1 470.822 285.49 468.07 285.69C467.018 285.756 466.158 285.79 465.565 285.79C465.255 285.821 464.941 285.801 464.638 285.731C465.76 285.537 466.892 285.4 468.028 285.322C470.116 285.088 473.039 284.679 476.138 284.011C479.236 283.343 482.059 282.524 484.064 281.873C485.137 281.474 486.233 281.136 487.346 280.862V280.862Z" fill="#455A64"/>
<path d="M448.277 236.882C448.369 236.998 431.039 250.612 409.592 267.29C388.145 283.968 370.665 297.356 370.573 297.281C370.481 297.206 387.811 283.551 409.274 266.872C430.738 250.194 448.193 236.773 448.277 236.882Z" fill="#455A64"/>
<path d="M510.58 295.302C510.531 295.12 510.511 294.931 510.522 294.743C510.522 294.308 510.522 293.774 510.48 293.131C510.48 291.728 510.405 289.698 510.28 287.201C509.654 274.155 507.24 261.256 503.105 248.867C502.27 246.487 501.636 244.574 501.143 243.263C500.926 242.662 500.742 242.152 500.6 241.743C500.527 241.569 500.474 241.387 500.441 241.2C500.441 241.2 500.55 241.367 500.709 241.701L501.352 243.18C501.911 244.474 502.646 246.37 503.49 248.733C507.864 261.089 510.292 274.05 510.689 287.151C510.764 289.657 510.764 291.694 510.689 293.097C510.689 293.741 510.639 294.275 510.622 294.709C510.63 294.908 510.616 295.107 510.58 295.302V295.302Z" fill="#455A64"/>
<path d="M443.758 295.026C443.839 295.074 443.914 295.13 443.984 295.193L444.61 295.728C445.153 296.187 445.913 296.914 446.965 297.774C449.937 300.189 453.121 302.33 456.478 304.171C461.473 306.868 466.811 308.874 472.346 310.134C473.123 310.343 473.916 310.485 474.726 310.619C475.536 310.752 476.347 310.919 477.173 311.045C478.844 311.22 480.514 311.504 482.268 311.546C485.853 311.78 489.452 311.673 493.016 311.228L495.739 310.844L498.403 310.301C500.134 309.941 501.843 309.483 503.523 308.932C506.715 307.906 509.794 306.554 512.71 304.898C517.67 302.128 521.921 298.246 525.129 293.556C527.278 290.39 528.832 286.857 529.714 283.133C530.006 281.814 530.165 280.77 530.248 280.06L530.348 279.225C530.354 279.131 530.371 279.039 530.399 278.949C530.414 279.04 530.414 279.134 530.399 279.225C530.399 279.442 530.399 279.709 530.399 280.06C530.319 281.104 530.173 282.141 529.964 283.167C529.163 286.95 527.649 290.547 525.504 293.765C522.294 298.553 518.003 302.518 512.977 305.341C510.042 307.026 506.941 308.406 503.723 309.458C502.027 310.018 500.301 310.483 498.554 310.853L495.864 311.404L493.117 311.788C489.516 312.239 485.88 312.342 482.26 312.097C480.506 312.047 478.794 311.763 477.115 311.579C476.28 311.454 475.445 311.287 474.609 311.137C473.803 311.01 473.003 310.843 472.212 310.635C466.637 309.346 461.268 307.285 456.261 304.514C452.92 302.633 449.77 300.432 446.857 297.941C445.821 297.056 445.086 296.271 444.56 295.811L443.975 295.235C443.895 295.175 443.822 295.105 443.758 295.026V295.026Z" fill="#455A64"/>
<path d="M462.015 123.007C462.24 122.263 462.3 121.479 462.19 120.71C462.024 119.81 461.668 118.956 461.146 118.205C460.409 117.235 459.569 116.347 458.641 115.557C457.481 114.553 456.476 113.382 455.659 112.083C454.75 110.547 454.162 108.842 453.931 107.072C453.674 105.119 453.868 103.133 454.499 101.267C455.201 99.3252 456.07 97.4474 457.096 95.6551C458.092 93.9137 458.893 92.068 459.485 90.1513C460.014 88.3942 460.054 86.5261 459.601 84.7478C458.674 81.3403 456.645 78.6511 455.609 76.062C454.639 74.0455 454.346 71.7694 454.774 69.5728C454.899 68.9831 455.122 68.4185 455.434 67.9025C455.524 67.7093 455.655 67.5382 455.818 67.4014C455.522 68.1263 455.287 68.8751 455.117 69.6396C454.848 71.7566 455.226 73.9054 456.202 75.8031C457.263 78.3086 459.359 80.906 460.378 84.5306C460.894 86.4481 460.873 88.4701 460.32 90.3768C459.718 92.3604 458.897 94.2708 457.873 96.0727C456.869 97.8186 456.015 99.6457 455.317 101.535C454.712 103.273 454.512 105.127 454.732 106.955C454.929 108.612 455.454 110.214 456.278 111.665C457.034 112.923 457.968 114.065 459.05 115.056C459.993 115.902 460.834 116.855 461.556 117.896C462.077 118.71 462.409 119.633 462.525 120.593C462.599 121.203 462.527 121.821 462.316 122.397C462.274 122.624 462.17 122.835 462.015 123.007Z" fill="#263238"/>
<path d="M509.636 106.479C510.27 107.962 511.324 109.228 512.669 110.118C514.014 111.009 515.59 111.486 517.203 111.49C518.81 111.449 520.383 111.019 521.788 110.238C523.192 109.457 524.388 108.348 525.271 107.005C527.003 104.278 527.625 100.99 527.008 97.8182C526.604 96.4235 526.408 94.9773 526.423 93.5255C526.666 91.4793 528.152 89.7923 528.662 87.7962C529.58 84.2134 526.95 80.4217 523.542 78.9852C520.135 77.5487 516.209 77.9914 512.635 78.9852" fill="#263238"/>
<path d="M457.631 64.9712C454.34 68.3119 455.593 72.6214 457.129 75.5612C458.666 78.5009 460.512 81.4825 460.545 84.7981C460.579 88.1137 458.716 91.279 457.789 94.5361C456.611 98.695 456.958 103.138 458.766 107.064C460.119 109.987 462.232 112.509 463.602 115.415C464.972 118.322 465.481 122.005 463.602 124.602C464.484 124.414 465.309 124.022 466.012 123.457C466.715 122.893 467.277 122.173 467.653 121.353C468.386 119.701 468.712 117.897 468.605 116.092C468.463 109.26 465.189 102.629 466.007 95.8474C466.483 91.9054 468.337 88.1137 468.079 84.155C467.82 80.1963 465.481 76.697 463.794 73.0807C462.107 69.4644 461.113 64.9712 463.36 61.6807" fill="#263238"/>
<path d="M465.715 52.0178C461.681 52.544 457.689 54.6486 455.743 58.2148C453.797 61.7809 454.465 66.8253 457.789 69.1555C460.929 71.352 465.381 70.6337 468.605 68.5625C471.041 67.0719 472.888 64.7854 473.833 62.0899C474.285 60.7459 474.408 59.3127 474.19 57.9114C473.972 56.5101 473.42 55.1819 472.58 54.0389C471.707 52.9203 470.511 52.098 469.154 51.684C467.797 51.27 466.345 51.2845 464.997 51.7255" fill="#263238"/>
<path d="M462.424 51.6086C464.203 46.7062 468.563 42.9981 473.474 41.2526C478.384 39.5071 483.788 39.5321 488.916 40.4926C494.044 41.453 498.938 43.3154 503.824 45.1612C507.373 46.5058 511.006 47.9005 513.846 50.3643C516.643 52.9024 518.744 56.1138 519.951 59.6931C522.389 66.316 522.456 71.1683 519.633 77.6241C518.389 80.4303 519.399 83.5789 518.289 86.4435C517.178 89.3081 512.008 92.7156 513.612 95.3297" fill="#263238"/>
<path d="M511.098 123.007L508.968 60.1521C508.922 58.7945 508.367 57.5038 507.414 56.5356C506.462 55.5674 505.18 54.9922 503.824 54.9239L474.676 49.2114C465.414 48.7353 459.902 60.4026 459.827 69.6813C459.735 79.9789 460.027 92.5649 461.656 100.157C464.938 115.432 476.848 116.751 476.848 116.751C476.848 116.751 477.182 122.714 477.499 128.093L476.998 151.762L511.098 123.007Z" fill="#FBDCC5"/>
<path d="M463.794 80.7563C463.82 81.271 464.044 81.7558 464.419 82.1092C464.794 82.4625 465.292 82.6571 465.807 82.6521C466.06 82.6577 466.311 82.6128 466.547 82.5201C466.782 82.4274 466.996 82.2888 467.177 82.1123C467.359 81.9358 467.503 81.725 467.602 81.4922C467.7 81.2594 467.752 81.0092 467.753 80.7563C467.727 80.2423 467.503 79.7585 467.127 79.4064C466.752 79.0544 466.255 78.8617 465.74 78.8688C465.488 78.8621 465.236 78.906 465.001 78.9977C464.766 79.0895 464.551 79.2273 464.37 79.4032C464.189 79.579 464.044 79.7893 463.946 80.0216C463.847 80.254 463.795 80.5038 463.794 80.7563Z" fill="#263238"/>
<path d="M462.842 75.0684C463.101 75.3106 464.512 74.1246 466.667 74.0161C468.822 73.9075 470.409 74.8512 470.626 74.609C470.734 74.4921 470.459 74.0411 469.749 73.5818C468.801 72.98 467.689 72.6881 466.567 72.7466C465.461 72.8027 464.402 73.2093 463.544 73.9075C462.917 74.4838 462.725 74.9598 462.842 75.0684Z" fill="#263238"/>
<path d="M483.479 80.4551C483.501 80.9705 483.723 81.4569 484.1 81.8098C484.476 82.1627 484.976 82.354 485.492 82.3426C485.744 82.3481 485.995 82.3032 486.23 82.2104C486.465 82.1176 486.679 81.9789 486.859 81.8023C487.04 81.6257 487.183 81.4148 487.281 81.182C487.379 80.9492 487.429 80.6992 487.429 80.4467C487.407 79.9313 487.184 79.4449 486.808 79.092C486.432 78.7392 485.932 78.5479 485.416 78.5593C485.164 78.5525 484.912 78.5967 484.677 78.6891C484.441 78.7814 484.227 78.9201 484.046 79.097C483.866 79.2738 483.722 79.4851 483.625 79.7184C483.527 79.9517 483.478 80.2023 483.479 80.4551V80.4551Z" fill="#263238"/>
<path d="M483.822 75.3274C484.081 75.578 485.492 74.3837 487.647 74.2751C489.801 74.1665 491.388 75.1103 491.597 74.8764C491.706 74.7512 491.438 74.3002 490.762 73.8408C489.809 73.2419 488.695 72.9503 487.572 73.0057C486.466 73.0612 485.407 73.4678 484.548 74.1665C483.888 74.7428 483.696 75.2189 483.822 75.3274Z" fill="#263238"/>
<path d="M476.923 91.5129C476.923 91.396 475.595 91.2373 473.44 91.0786C472.889 91.0786 472.371 90.9701 472.263 90.6026C472.184 90.0443 472.28 89.4752 472.538 88.974C472.973 87.6377 473.432 86.2263 473.916 84.7564C475.829 78.7516 477.182 73.8241 476.94 73.7489C476.698 73.6738 474.952 78.4843 473.039 84.4892L471.728 88.7318C471.418 89.4043 471.359 90.1658 471.561 90.8782C471.651 91.0643 471.782 91.2278 471.944 91.3565C472.106 91.4852 472.295 91.5757 472.497 91.6215C472.801 91.6847 473.113 91.71 473.424 91.6967C475.62 91.6967 476.923 91.6382 476.923 91.5129Z" fill="#263238"/>
<path d="M476.848 116.752C484.109 116.469 491.149 114.176 497.184 110.129C497.184 110.129 492.549 120.986 477.056 120.401L476.848 116.752Z" fill="#CDB39F"/>
<path d="M482.535 69.1555C482.777 69.7234 484.89 69.3392 487.396 69.5063C489.901 69.6733 491.964 70.2412 492.265 69.7067C492.399 69.4478 492.014 68.9217 491.171 68.4039C490.049 67.7767 488.798 67.4139 487.514 67.3429C486.231 67.272 484.948 67.4949 483.763 67.9946C482.869 68.4122 482.435 68.8883 482.535 69.1555Z" fill="#263238"/>
<path d="M463.352 69.8738C463.753 70.3331 465.189 69.7485 466.951 69.6316C468.714 69.5146 470.217 69.7819 470.534 69.2557C470.668 69.0052 470.409 68.5375 469.699 68.1116C468.794 67.61 467.761 67.389 466.73 67.4768C465.699 67.5645 464.718 67.957 463.911 68.6043C463.352 69.1388 463.176 69.6733 463.352 69.8738Z" fill="#263238"/>
<path d="M478.134 96.3984C478.485 95.9022 478.957 95.5037 479.505 95.2407C480.053 94.9776 480.659 94.8587 481.266 94.8951C481.705 94.9103 482.136 95.0143 482.534 95.2009C482.932 95.3875 483.287 95.6528 483.579 95.9808C483.864 96.2961 484.044 96.6911 484.096 97.1124C484.149 97.5336 484.07 97.9608 483.872 98.336C483.572 98.709 483.168 98.9838 482.711 99.1252C482.254 99.2666 481.766 99.268 481.308 99.1294C480.352 98.8492 479.461 98.3838 478.685 97.7597C478.453 97.6136 478.252 97.4235 478.092 97.2002C478.02 97.0915 477.981 96.9635 477.981 96.8327C477.981 96.7018 478.02 96.5739 478.092 96.4652" fill="#CDB39F"/>
<path d="M482.944 92.6732C482.627 92.6732 482.736 94.828 480.973 96.4566C479.211 98.0851 476.914 97.9682 476.914 98.2689C476.914 98.4025 477.449 98.6614 478.418 98.6363C479.679 98.582 480.881 98.0887 481.817 97.2416C482.711 96.4215 483.253 95.2871 483.329 94.0763C483.362 93.1744 483.095 92.6565 482.944 92.6732Z" fill="#263238"/>
<path d="M462.166 55.7424C463.168 60.5697 470.918 60.9371 475.704 59.7261C477.438 61.7058 479.644 63.217 482.116 64.1205C484.589 65.0239 487.249 65.2906 489.851 64.8958C490.545 64.7208 491.271 64.7208 491.964 64.8958C492.64 65.2383 493.216 65.7506 493.635 66.3824C495.838 68.9903 498.929 70.6893 502.312 71.1512C502.822 73.5653 504.041 75.7722 505.813 77.4892C507.586 79.2062 509.83 80.3552 512.259 80.789C512.259 80.789 513.796 79.9539 512.894 73.7235C511.992 67.4932 511.933 54.5147 511.933 54.5147L494.637 47.8334L474.259 45.2109C474.259 45.2109 460.462 47.5578 462.166 55.7424Z" fill="#263238"/>
<path d="M519.433 78.3338C519.2 76.8584 518.764 75.4223 518.138 74.0661C517.379 72.5415 516.272 71.2168 514.906 70.1993C513.138 68.8797 511.014 68.1205 508.81 68.0195H508.542L508.459 67.7522C507.727 65.0795 506.197 62.6934 504.074 60.9122C501.836 59.1416 498.312 58.4067 495.564 59.9685L495.105 60.2274L494.904 59.7262L494.679 59.175C493.768 57.1547 492.321 55.4225 490.496 54.1665C488.67 52.9106 486.535 52.1789 484.322 52.0511C483.323 52.0224 482.323 52.1036 481.341 52.2933C480.337 52.5189 479.296 52.5189 478.293 52.2933C477.375 51.972 476.555 51.4198 475.912 50.6897C475.367 50.0894 474.756 49.5516 474.092 49.0862C473.057 48.4319 471.893 48.0082 470.679 47.8439C469.466 47.6796 468.231 47.7786 467.06 48.1341C466.191 48.4402 465.352 48.8261 464.554 49.2867C464.554 49.2867 464.713 49.0946 465.08 48.7856C465.645 48.3754 466.263 48.0438 466.918 47.8001C468.146 47.3513 469.459 47.185 470.761 47.3137C472.062 47.4424 473.318 47.8627 474.434 48.5434C475.912 49.3785 476.856 51.1157 478.493 51.5667C480.13 52.0177 482.143 51.0322 484.339 51.1741C486.727 51.286 489.037 52.0599 491.011 53.4095C492.984 54.759 494.543 56.631 495.514 58.8159L495.764 59.4172L495.105 59.175C498.295 57.3794 502.162 58.2731 504.609 60.2274C506.861 62.1275 508.466 64.6815 509.202 67.5351L508.851 67.2595C511.197 67.3986 513.444 68.2525 515.29 69.7065C516.697 70.8134 517.812 72.2468 518.539 73.8823C519.011 74.9157 519.313 76.0184 519.433 77.1478C519.504 77.54 519.504 77.9416 519.433 78.3338V78.3338Z" fill="#455A64"/>
<path d="M491.897 63.5428C491.52 63.7893 491.097 63.9569 490.653 64.0355C489.465 64.3434 488.239 64.4812 487.012 64.4448C484.95 64.3933 482.922 63.9164 481.054 63.044C479.185 62.1716 477.517 60.9226 476.154 59.3753L476.722 59.4839L476.23 59.7344C474.099 60.7667 471.705 61.1278 469.365 60.77C467.469 60.4614 465.684 59.6737 464.178 58.4817C463.177 57.6889 462.328 56.7212 461.673 55.6254C461.395 55.2465 461.206 54.8096 461.121 54.3476C461.263 54.2474 462.074 56.1348 464.571 57.9638C466.185 59.1276 468.085 59.8309 470.068 59.9986C472.051 60.1663 474.042 59.7921 475.829 58.9159L476.28 58.6821L476.614 58.5151L476.848 58.7823C479.45 61.7126 483.094 63.5107 487.003 63.7933C490.043 64.0272 491.856 63.3674 491.897 63.5428Z" fill="#455A64"/>
<path d="M482.711 54.9245C482.711 55.1917 480.456 55.1249 477.867 55.8933C475.278 56.6616 473.415 57.8726 473.257 57.6555C473.098 57.4383 474.818 55.8097 477.616 55.0163C480.414 54.2229 482.769 54.6906 482.711 54.9245Z" fill="#455A64"/>
<path d="M476.848 54.749C476.656 54.9244 475.837 54.3147 474.802 53.6549C473.766 52.9951 472.881 52.494 472.956 52.2435C473.031 51.9929 474.15 52.1516 475.294 52.8865C476.439 53.6215 477.032 54.5903 476.848 54.749Z" fill="#455A64"/>
<path d="M501.293 62.3576C501.209 62.6082 499.222 62.0904 496.775 62.3075C494.328 62.5246 492.449 63.3348 492.332 63.1009C492.215 62.8671 494.002 61.6143 496.699 61.4306C499.397 61.2469 501.393 62.1572 501.293 62.3576Z" fill="#455A64"/>
<path d="M506.02 70.3579C506.02 70.5917 503.13 70.884 499.723 69.8818C496.315 68.8796 493.994 67.109 494.136 66.9253C494.278 66.7416 496.708 68.0778 499.982 69.0049C503.256 69.9319 506.028 70.0906 506.02 70.3579Z" fill="#455A64"/>
<path d="M516.877 75.661C516.677 75.8531 515.165 74.3331 512.701 73.6482C510.237 72.9634 508.183 73.3643 508.124 73.1054C508.066 72.8465 510.237 71.9529 512.96 72.7713C515.683 73.5898 517.086 75.519 516.877 75.661Z" fill="#455A64"/>
<path d="M515.341 53.5544C515.266 53.5544 515.065 53.0533 514.506 52.2598C513.623 51.1895 512.509 50.3329 511.248 49.7543C508.075 48.2176 503.072 47.2488 497.635 47.491C492.963 47.7815 488.347 48.6627 483.897 50.1135C480.447 51.1825 478.351 51.9675 478.301 51.8423C478.721 51.5174 479.192 51.2661 479.696 51.099C480.623 50.6814 481.976 50.1135 483.688 49.4954C488.154 47.8423 492.84 46.86 497.593 46.5807C503.181 46.3385 508.284 47.4159 511.549 49.1864C512.862 49.8624 513.98 50.8629 514.798 52.0928C515.101 52.5254 515.288 53.0287 515.341 53.5544V53.5544Z" fill="#455A64"/>
<path d="M517.011 61.8308C516.844 61.906 516.368 59.9684 514.397 57.655C511.751 54.666 508.224 52.5953 504.325 51.742C500.39 50.9737 496.353 50.8918 492.39 51.4998C489.325 51.9007 487.429 52.2682 487.379 52.1262C487.329 51.9842 489.2 51.433 492.273 50.8651C496.311 50.0541 500.47 50.0541 504.508 50.8651C508.599 51.7408 512.263 54.0002 514.881 57.2625C515.65 58.2528 516.259 59.3575 516.685 60.5363C516.88 60.9415 516.99 61.3818 517.011 61.8308V61.8308Z" fill="#455A64"/>
<path d="M459.71 71.5189C459.71 71.6024 458.282 71.2182 456.745 69.5562C455.721 68.4779 454.974 67.1669 454.568 65.736C454.162 64.305 454.109 62.797 454.415 61.3413C454.72 59.8856 455.375 58.5259 456.322 57.3791C457.269 56.2322 458.48 55.3324 459.852 54.7571C461.932 53.8467 463.377 54.0639 463.36 54.1474C463.343 54.2309 461.998 54.3395 460.128 55.3333C458.906 55.9312 457.836 56.8001 457.001 57.8739C456.166 58.9477 455.587 60.1981 455.308 61.5296C455.029 62.8611 455.058 64.2387 455.393 65.5574C455.727 66.876 456.358 68.1009 457.238 69.1386C458.549 70.7923 459.802 71.3435 459.71 71.5189Z" fill="#455A64"/>
<path d="M523.935 92.1643C523.843 92.0224 525.404 91.2039 527.609 89.5503C528.885 88.5977 529.944 87.385 530.716 85.9924C531.172 85.1697 531.434 84.2532 531.48 83.3134C531.527 82.3737 531.357 81.4359 530.983 80.5722C530.223 78.8142 528.796 77.4295 527.016 76.7221C525.533 76.19 523.928 76.0886 522.389 76.4298C519.717 77.0311 518.414 78.3173 518.322 78.1669C518.23 78.0166 518.556 77.7828 519.157 77.3318C520.069 76.6449 521.104 76.1402 522.206 75.8452C523.87 75.3746 525.638 75.4212 527.275 75.9788C528.278 76.3479 529.195 76.9175 529.97 77.6526C530.746 78.3878 531.363 79.2732 531.785 80.2549C532.212 81.2415 532.402 82.3144 532.34 83.3876C532.277 84.4609 531.964 85.5046 531.426 86.4351C530.563 87.9062 529.378 89.1626 527.96 90.1098C527.034 90.7432 526.06 91.3018 525.045 91.7802C524.369 92.0641 523.96 92.2228 523.935 92.1643Z" fill="#263238"/>
<path d="M524.653 92.2227C524.957 92.6259 525.196 93.0739 525.363 93.5506C525.922 94.8005 526.405 96.0835 526.808 97.3923C527.435 99.3499 527.762 101.392 527.776 103.447C527.818 106.022 527.094 108.551 525.697 110.713C524.973 111.794 524.032 112.713 522.933 113.41C521.834 114.108 520.603 114.569 519.316 114.764C518.254 114.919 517.17 114.82 516.154 114.474C515.137 114.128 514.218 113.546 513.47 112.776C512.451 111.771 511.813 110.442 511.666 109.018C511.587 108.506 511.654 107.982 511.858 107.506C511.942 107.506 511.858 108.057 512.017 108.976C512.36 110.557 513.291 111.948 514.621 112.868C515.952 113.788 517.583 114.167 519.183 113.929C520.341 113.725 521.447 113.291 522.434 112.651C523.422 112.011 524.27 111.179 524.928 110.204C526.225 108.186 526.915 105.838 526.916 103.439C526.934 101.466 526.684 99.4988 526.173 97.5928C525.304 94.3022 524.528 92.3062 524.653 92.2227Z" fill="#263238"/>
<path d="M500.792 63.4268C498.871 67.2518 500.341 71.887 502.312 75.6954C504.283 79.5037 506.797 83.2703 506.956 87.5464C507.24 94.7205 500.825 101.059 501.711 108.175C502.014 110.297 502.946 112.279 504.387 113.866C505.829 115.453 507.712 116.572 509.795 117.078C506.404 114.79 506.095 109.804 507.39 105.928C508.684 102.053 514.956 91.8391 515.867 87.847C518.924 74.4844 517.621 72.9059 512.944 68.2039" fill="#263238"/>
<path d="M513.67 72.9636C513.67 73.0721 512.727 73.2976 511.165 73.0721C509.137 72.7606 507.247 71.8511 505.739 70.4601C504.23 69.0691 503.171 67.2597 502.696 65.2633C502.354 63.735 502.496 62.7578 502.604 62.7578C502.713 62.7578 502.855 63.6765 503.339 65.0545C503.942 66.8493 504.987 68.4634 506.378 69.7478C507.769 71.0323 509.461 71.9458 511.298 72.404C512.76 72.7965 513.67 72.8216 513.67 72.9636Z" fill="#455A64"/>
<path d="M508.125 112.818C508.125 112.818 507.941 112.735 507.649 112.509C507.227 112.167 506.848 111.774 506.521 111.34C505.31 109.71 504.672 107.725 504.709 105.694C504.718 104.276 505.077 102.882 505.753 101.635C506.583 100.284 507.585 99.0456 508.734 97.9522C509.934 96.7965 510.913 95.4325 511.624 93.9267C512.335 92.2994 512.663 90.531 512.585 88.757C512.503 86.993 511.999 85.2744 511.115 83.746C510.24 82.302 509.24 80.9381 508.125 79.6704C506.156 77.4869 504.521 75.0244 503.272 72.3627C502.439 70.5505 501.949 68.5994 501.828 66.6084C501.749 65.8842 501.8 65.1517 501.978 64.4453C502.178 64.4453 501.711 67.6356 503.874 72.0787C505.177 74.6417 506.829 77.0112 508.785 79.1192C509.956 80.4105 511.005 81.8085 511.916 83.295C512.885 84.9562 513.435 86.8277 513.52 88.7487C513.606 90.6674 513.246 92.58 512.468 94.3359C511.7 95.9328 510.644 97.374 509.352 98.5869C508.239 99.6178 507.258 100.782 506.429 102.053C505.79 103.182 505.426 104.447 505.369 105.744C505.279 107.658 505.787 109.552 506.822 111.165C507.574 112.267 508.183 112.751 508.125 112.818Z" fill="#455A64"/>
<path d="M515.265 72.4622C515.265 72.4205 515.675 72.6877 516.243 73.2974C517.038 74.1698 517.687 75.1654 518.164 76.2455C519.679 79.8751 519.85 83.9258 518.648 87.6706C517.408 91.3351 515.43 94.7062 512.835 97.5757C510.914 99.7889 509.561 100.992 509.494 100.916C509.428 100.841 510.572 99.4548 512.342 97.1581C514.699 94.2408 516.528 90.9338 517.746 87.3867C518.867 83.8423 518.793 80.0281 517.537 76.5295C516.518 73.8486 515.123 72.5792 515.265 72.4622Z" fill="#455A64"/>
<path d="M451.208 186.93L442.581 171.062C442.3 170.543 441.884 170.109 441.377 169.806C440.869 169.503 440.29 169.343 439.699 169.342H378.298C377.702 169.342 377.117 169.505 376.608 169.815C376.098 170.124 375.683 170.567 375.408 171.096V171.096L436.267 212.019L463.201 215.117C463.485 214.575 463.637 213.973 463.646 213.361C463.655 212.749 463.519 212.143 463.251 211.593L451.208 186.93Z" fill="#263238"/>
<g opacity="0.3">
<path d="M516.176 223.344C505.394 218.642 492.992 217.957 482.853 211.986C478.978 209.706 475.545 206.708 471.578 204.586C467.611 202.465 462.8 201.246 458.616 202.916C454.432 204.586 451.258 210.85 453.43 214.792C454.265 216.897 458.232 218.859 460.479 218.667C462.725 218.475 464.855 217.548 467.101 217.264C471.912 216.654 476.53 219.026 480.865 221.198C490.217 225.865 499.877 229.886 509.779 233.232C512.084 234.009 514.514 234.761 516.928 234.402C519.341 234.043 521.713 232.222 521.88 229.783C522.022 226.735 518.949 224.572 516.176 223.344Z" fill="black"/>
</g>
<path d="M463.201 215.051L441.671 172.884C441.39 172.331 440.961 171.866 440.431 171.543C439.902 171.22 439.293 171.051 438.672 171.055H375.108L398.793 213.707L463.201 215.051V215.051Z" fill="#455A64"/>
<path d="M413.375 186.221C413.693 186.476 414.08 186.632 414.486 186.668C414.893 186.703 415.301 186.618 415.659 186.422C416.017 186.225 416.308 185.927 416.497 185.566C416.685 185.204 416.762 184.794 416.718 184.388C416.674 183.982 416.51 183.599 416.247 183.286C415.985 182.974 415.636 182.746 415.244 182.632C414.852 182.518 414.435 182.523 414.046 182.646C413.657 182.769 413.313 183.004 413.058 183.323C412.887 183.533 412.76 183.776 412.684 184.036C412.608 184.296 412.584 184.568 412.613 184.838C412.643 185.107 412.725 185.368 412.856 185.605C412.987 185.843 413.163 186.052 413.375 186.221V186.221Z" fill="#EBEBEB"/>
<path d="M469.306 193.052L462.909 188.108C461.612 186.499 459.971 185.201 458.106 184.31C456.242 183.418 454.202 182.955 452.135 182.955H448.652L446.272 185.628C446.272 185.628 429.218 186.371 428.592 188.476V189.152V189.553L443.182 190.53C443.182 190.53 430.771 190.53 430.028 190.53C429.285 190.53 426.562 190.321 426.612 191.783C426.662 192.977 428.074 193.921 430.22 194.23C431.106 194.363 441.854 195.299 441.854 195.299L430.02 195.19C428.692 195.19 428.867 197.303 429.652 197.571C430.27 197.788 445.429 202.206 445.429 202.206C445.429 202.206 442.923 203.918 440.802 203.767C438.681 203.617 435.156 200.945 434.413 202.206C433.67 203.467 433.82 204.21 434.262 204.511C436.507 205.769 438.84 206.861 441.245 207.776C442.915 208.227 456.227 210.34 456.227 210.34L467.293 208.92L469.306 193.052Z" fill="#FBDCC5"/>
<path d="M440.468 185.837C442.458 185.642 444.457 185.569 446.456 185.62C448.453 185.549 450.453 185.6 452.444 185.77C450.455 185.97 448.455 186.046 446.456 185.995C444.459 186.066 442.459 186.013 440.468 185.837V185.837Z" fill="#CDB39F"/>
<path d="M469.306 193.053L516.268 201.989L520.978 142.951C520.978 142.951 533.639 132.303 540.337 139.569C542.807 142.271 544.684 145.46 545.849 148.93C547.014 152.401 547.441 156.076 547.102 159.721C546.668 164.006 542.408 214.458 538.867 222.994C533.915 234.928 521.237 234.293 517.696 233.425C514.155 232.556 463.652 208.67 463.652 208.67L469.306 193.053Z" fill="#FBDCC5"/>
<path d="M519.241 142.642C517.571 156.004 514.339 176.374 514.155 189.804C514.155 190.355 546.451 193.052 546.451 193.052C546.451 193.052 548.121 162.636 546.918 153.39C545.54 142.892 537.681 135.651 537.681 135.651H527.551L519.241 142.642Z" fill="#AFABED"/>
<path d="M546.451 193.053C546.234 193.064 546.016 193.064 545.799 193.053L543.92 192.902L537.022 192.284L514.138 190.046H513.929V189.829C513.929 189.42 513.988 188.994 514.021 188.526C514.672 179.239 515.265 170.837 515.691 164.699C515.925 161.684 516.117 159.237 516.251 157.483C516.326 156.648 516.376 156.013 516.426 155.529C516.44 155.299 516.468 155.07 516.51 154.844C516.532 155.071 516.532 155.301 516.51 155.529C516.51 156.021 516.46 156.673 516.418 157.5C516.318 159.245 516.176 161.675 516 164.724C515.6 170.862 515.057 179.264 514.455 188.551C514.455 189.002 514.397 189.445 514.364 189.862L514.171 189.628L537.055 191.959L543.937 192.719L545.808 192.944C546.025 192.961 546.24 192.997 546.451 193.053Z" fill="#263238"/>
</g>
<path d="M-7.79472e-06 41.2141L-3.16714e-07 246.786C-1.41798e-07 251.594 3.89804 255.492 8.70651 255.492L311.293 255.492C316.102 255.492 320 251.594 320 246.786L320 41.2141C320 36.4056 316.102 32.5076 311.293 32.5076L8.7065 32.5076C3.89803 32.5076 -7.96964e-06 36.4056 -7.79472e-06 41.2141Z" fill="#263238"/>
<path d="M22.5691 40.9799L22.5691 249.898L289.81 249.898L289.81 40.9799L22.5691 40.9799Z" fill="white"/>
<path d="M304.389 135.726C303.628 135.801 302.872 135.925 302.127 136.096C300.89 136.417 299.733 136.994 298.732 137.789C297.731 138.584 296.907 139.579 296.313 140.711C295.718 141.843 295.368 143.087 295.282 144.363C295.197 145.638 295.38 146.918 295.818 148.119C296.115 148.943 296.534 149.718 297.062 150.418C297.6 151.159 298.254 151.808 298.999 152.34C300.555 153.49 302.439 154.11 304.374 154.11C306.308 154.11 308.192 153.49 309.748 152.34C310.489 151.805 311.14 151.157 311.678 150.418C312.208 149.72 312.628 148.945 312.922 148.119C313.481 146.588 313.621 144.935 313.329 143.332C313.078 141.933 312.5 140.613 311.64 139.48C310.396 137.818 308.627 136.626 306.62 136.096C305.875 135.925 305.119 135.801 304.358 135.726C304.557 135.708 304.756 135.708 304.954 135.726C305.194 135.725 305.433 135.742 305.67 135.779C305.998 135.814 306.323 135.872 306.642 135.952C308.387 136.376 309.974 137.292 311.214 138.591C312.454 139.89 313.295 141.517 313.638 143.279C313.954 144.94 313.819 146.656 313.246 148.247C312.607 150.008 311.464 151.542 309.959 152.657C308.337 153.856 306.372 154.503 304.355 154.503C302.337 154.503 300.373 153.856 298.75 152.657C297.245 151.542 296.102 150.008 295.463 148.247C294.894 146.655 294.759 144.941 295.072 143.279C295.414 141.517 296.256 139.89 297.496 138.591C298.736 137.292 300.322 136.376 302.067 135.952C302.387 135.872 302.712 135.814 303.039 135.779C303.289 135.74 303.541 135.723 303.793 135.726C303.991 135.708 304.191 135.708 304.389 135.726Z" fill="#455A64"/>
<path d="M8.95532 112.358L8.95532 177.676C8.95532 178.184 9.36706 178.596 9.87497 178.596L11.571 178.596C12.0789 178.596 12.4907 178.184 12.4907 177.676L12.4907 112.358C12.4907 111.85 12.0789 111.439 11.571 111.439L9.87497 111.439C9.36706 111.439 8.95532 111.85 8.95532 112.358Z" fill="#455A64"/>
<path d="M289.463 40.7998L22.6143 40.7998L22.6143 60.3989L289.463 60.3989L289.463 40.7998Z" fill="#E0E0E0"/>
<path d="M214.082 249.604L22.6143 249.604L22.6143 60.3981L214.082 60.3981L214.082 249.604Z" fill="#C6C6C6"/>
<path d="M214.082 60.3984L22.6143 60.3984L22.6143 76.2285L214.082 76.2285L214.082 60.3984Z" fill="#AFABED"/>
<path d="M97.2415 69.0673C97.2415 69.2703 82.5553 69.4442 64.4592 69.4442C46.3631 69.4442 31.66 69.2703 31.66 69.0673C31.66 68.8644 46.3462 68.6904 64.4592 68.6904C82.5722 68.6904 97.2415 68.8644 97.2415 69.0673Z" fill="white"/>
<path d="M204.741 68.7007L205.842 70.2083C205.877 70.2628 205.926 70.3075 205.983 70.3384C206.04 70.3693 206.104 70.3855 206.169 70.3855C206.235 70.3855 206.299 70.3693 206.356 70.3384C206.413 70.3075 206.462 70.2628 206.497 70.2083L207.409 68.7007C207.445 68.6404 207.464 68.5717 207.465 68.5016C207.466 68.4315 207.448 68.3624 207.414 68.3013C207.38 68.2402 207.33 68.1892 207.269 68.1534C207.209 68.1177 207.14 68.0985 207.07 68.0977L205.065 68.0977C204.996 68.101 204.93 68.1221 204.871 68.1588C204.813 68.1956 204.765 68.2469 204.733 68.3075C204.7 68.3682 204.684 68.4363 204.685 68.5052C204.687 68.5741 204.706 68.6415 204.741 68.7007V68.7007Z" fill="white"/>
<path d="M231.327 80.2177C234.478 78.9047 235.968 75.2857 234.655 72.1345C233.342 68.9833 229.723 67.4932 226.572 68.8062C223.421 70.1192 221.931 73.7382 223.244 76.8894C224.557 80.0406 228.176 81.5307 231.327 80.2177Z" fill="#E0E0E0"/>
<path d="M280.417 74.3437C280.417 74.5467 271.132 74.7206 259.694 74.7206C248.256 74.7206 238.958 74.5467 238.958 74.3437C238.958 74.1408 248.232 73.9668 259.694 73.9668C271.155 73.9668 280.417 74.1408 280.417 74.3437Z" fill="#263238"/>
<path d="M248.757 88.6669C248.757 88.8699 242.681 89.0438 235.189 89.0438C227.697 89.0438 221.62 88.8699 221.62 88.6669C221.62 88.464 227.691 88.29 235.189 88.29C242.686 88.29 248.757 88.464 248.757 88.6669Z" fill="#E0E0E0"/>
<path d="M36.7194 54.1512C36.5759 54.2947 35.5484 53.5133 34.4334 52.3982C33.3183 51.2832 32.5369 50.2557 32.6804 50.1122C32.8239 49.9687 33.8505 50.7493 34.9664 51.8652C36.0823 52.9811 36.8629 54.0077 36.7194 54.1512Z" fill="#263238"/>
<path d="M36.7194 46.3429C36.5759 46.1994 35.5484 46.9809 34.4334 48.0959C33.3183 49.211 32.5369 50.2384 32.6804 50.3819C32.8239 50.5254 33.8505 49.7449 34.9664 48.6289C36.0823 47.513 36.8629 46.4864 36.7194 46.3429Z" fill="#263238"/>
<path d="M132.671 50.9755C132.671 51.1785 112.752 51.3524 88.1958 51.3524C63.6394 51.3524 43.7209 51.1785 43.7209 50.9755C43.7209 50.7726 63.6201 50.5986 88.1958 50.5986C112.771 50.5986 132.671 50.7726 132.671 50.9755Z" fill="#263238"/>
<path d="M280.417 95.4511C280.417 95.6686 267.251 95.828 251.019 95.828C234.787 95.828 221.62 95.6686 221.62 95.4511C221.62 95.2337 234.774 95.0742 251.019 95.0742C267.264 95.0742 280.417 95.2482 280.417 95.4511Z" fill="#263238"/>
<path d="M248.757 102.235C248.757 102.438 242.681 102.612 235.189 102.612C227.697 102.612 221.62 102.438 221.62 102.235C221.62 102.032 227.691 101.858 235.189 101.858C242.686 101.858 248.757 102.032 248.757 102.235Z" fill="#E0E0E0"/>
<path d="M280.417 109.019C280.417 109.237 267.251 109.396 251.019 109.396C234.787 109.396 221.62 109.237 221.62 109.019C221.62 108.802 234.774 108.643 251.019 108.643C267.264 108.643 280.417 108.817 280.417 109.019Z" fill="#263238"/>
<path d="M248.004 115.804C248.004 116.007 241.927 116.181 234.435 116.181C226.943 116.181 220.866 116.007 220.866 115.804C220.866 115.601 226.937 115.427 234.435 115.427C241.933 115.427 248.004 115.601 248.004 115.804Z" fill="#E0E0E0"/>
<path d="M279.664 122.588C279.664 122.805 266.497 122.965 250.265 122.965C234.033 122.965 220.866 122.805 220.866 122.588C220.866 122.37 234.02 122.211 250.265 122.211C266.51 122.211 279.664 122.385 279.664 122.588Z" fill="#263238"/>
<path d="M248.004 129.372C248.004 129.575 241.927 129.749 234.435 129.749C226.943 129.749 220.866 129.575 220.866 129.372C220.866 129.169 226.937 128.995 234.435 128.995C241.933 128.995 248.004 129.169 248.004 129.372Z" fill="#E0E0E0"/>
<path d="M279.664 136.156C279.664 136.374 266.497 136.533 250.265 136.533C234.033 136.533 220.866 136.374 220.866 136.156C220.866 135.939 234.02 135.779 250.265 135.779C266.51 135.779 279.664 135.953 279.664 136.156Z" fill="#263238"/>
<path d="M248.004 142.94C248.004 143.143 241.927 143.317 234.435 143.317C226.943 143.317 220.866 143.143 220.866 142.94C220.866 142.737 226.937 142.563 234.435 142.563C241.933 142.563 248.004 142.737 248.004 142.94Z" fill="#E0E0E0"/>
<path d="M279.664 149.726C279.664 149.943 266.497 150.102 250.265 150.102C234.033 150.102 220.866 149.943 220.866 149.726C220.866 149.508 234.02 149.349 250.265 149.349C266.51 149.349 279.664 149.523 279.664 149.726Z" fill="#263238"/>
<path d="M247.25 156.51C247.25 156.713 241.173 156.887 233.681 156.887C226.189 156.887 220.113 156.713 220.113 156.51C220.113 156.307 226.183 156.133 233.681 156.133C241.179 156.133 247.25 156.307 247.25 156.51Z" fill="#E0E0E0"/>
<path d="M278.91 163.294C278.91 163.511 265.743 163.671 249.511 163.671C233.279 163.671 220.113 163.511 220.113 163.294C220.113 163.076 233.266 162.917 249.511 162.917C265.756 162.917 278.91 163.091 278.91 163.294Z" fill="#263238"/>
<path d="M214.5 249.492C214.212 249.492 214 207.181 214 154.998C214 102.815 214.212 60.4922 214.5 60.4922C214.788 60.4922 215 102.798 215 154.998C215 207.198 214.769 249.492 214.5 249.492Z" fill="#263238"/>
<rect x="61.0586" y="89.043" width="108.549" height="144.732" fill="white"/>
<path d="M131.163 102.235C131.163 102.461 117.822 102.612 101.387 102.612C84.9526 102.612 71.6119 102.612 71.6119 102.235C71.6119 101.858 84.9019 101.858 101.387 101.858C117.873 101.858 131.163 102.047 131.163 102.235Z" fill="#EBEBEB"/>
<path d="M159.808 115.05C159.808 115.05 140.09 115.427 115.735 115.427C91.3809 115.427 71.6119 115.238 71.6119 115.05C71.6119 114.861 91.3299 114.673 115.735 114.673C140.141 114.673 159.808 114.824 159.808 115.05Z" fill="#EBEBEB"/>
<path d="M159.808 127.845C159.808 128.083 140.09 128.241 115.735 128.241C91.3809 128.241 71.6119 128.241 71.6119 127.845C71.6119 127.449 91.3299 127.488 115.735 127.488C140.141 127.488 159.808 127.647 159.808 127.845Z" fill="#EBEBEB"/>
<path d="M159.808 140.68C159.808 140.868 140.09 141.057 115.735 141.057C91.3809 141.057 71.6119 140.868 71.6119 140.68C71.6119 140.491 91.3299 140.303 115.735 140.303C140.141 140.303 159.808 140.491 159.808 140.68Z" fill="#EBEBEB"/>
<path d="M159.808 153.514C159.808 153.712 140.09 153.871 115.735 153.871C91.3809 153.871 71.6119 153.871 71.6119 153.514C71.6119 153.157 91.3299 153.117 115.735 153.117C140.141 153.117 159.808 153.276 159.808 153.514Z" fill="#EBEBEB"/>
<path d="M159.808 166.309C159.808 166.535 140.09 166.685 115.735 166.685C91.3809 166.685 71.6119 166.685 71.6119 166.309C71.6119 165.932 91.3299 165.932 115.735 165.932C140.141 165.932 159.808 166.12 159.808 166.309Z" fill="#EBEBEB"/>
</svg>
