<svg width="192" height="192" viewBox="0 0 192 192" fill="none" xmlns="http://www.w3.org/2000/svg">
<g clip-path="url(#clip0_6464_86611)">
<path d="M0 96C0 42.9807 42.9807 0 96 0C149.019 0 192 42.9807 192 96C192 149.019 149.019 192 96 192C42.9807 192 0 149.019 0 96Z" fill="white"/>
<mask id="mask0_6464_86611" style="mask-type:alpha" maskUnits="userSpaceOnUse" x="0" y="0" width="192" height="192">
<rect width="192" height="192" rx="96" fill="white"/>
</mask>
<g mask="url(#mask0_6464_86611)">
<path d="M109.333 40H64C59.5817 40 56 43.5817 56 48V144C56 148.418 59.5817 152 64 152H128C132.418 152 136 148.418 136 144V66.9333L109.333 40Z" fill="#EBEBEB"/>
<path d="M109.333 40H64C59.5817 40 56 43.5817 56 48V144C56 148.418 59.5817 152 64 152H128C132.418 152 136 148.418 136 144V66.9333H113.333C111.124 66.9333 109.333 65.1425 109.333 62.9333V40Z" fill="#F7F7F7"/>
<path fill-rule="evenodd" clip-rule="evenodd" d="M114 96C114 105.941 105.941 114 96 114C86.0589 114 78 105.941 78 96C78 86.0589 86.0589 78 96 78C105.941 78 114 86.0589 114 96ZM110.078 112.907C106.263 116.087 101.355 118 96 118C83.8497 118 74 108.15 74 96C74 83.8497 83.8497 74 96 74C108.15 74 118 83.8497 118 96C118 101.355 116.087 106.263 112.907 110.078L126.974 124.145C127.755 124.926 127.755 126.193 126.974 126.974C126.193 127.755 124.926 127.755 124.145 126.974L110.078 112.907Z" fill="#AFABED"/>
<path d="M96.997 102V104H94.9977V102H96.997ZM94.9977 99.9996C94.9378 99.6186 94.9378 99.2309 94.9977 98.8499C95.1641 97.9222 95.5862 97.0597 96.2174 96.36C96.2976 96.2602 96.2976 96.2602 97.2871 95.2898L98.2368 94.3396C98.6087 93.9398 98.8703 93.4508 98.9962 92.9198C99.0179 92.2029 98.7428 91.5084 98.2368 90.9999C97.6589 90.3737 96.85 90.0122 95.9977 90.0002C94.3418 90.0002 92.9992 91.3434 92.9992 93.0001H91C91 90.2387 93.2376 88 95.9977 88C97.413 88.0202 98.7563 88.6292 99.7061 89.6799C100.585 90.5874 101.052 91.8174 100.995 93.0796C100.837 94.0373 100.406 94.929 99.7563 95.6498C99.6866 95.73 99.3868 96.0397 98.7571 96.6495L98.6769 96.7192L97.7473 97.6492C97.3598 98.0677 97.0997 98.5882 96.9977 99.1492C96.9572 99.4311 96.9572 99.7169 96.9977 99.9989H94.9985L94.9977 99.9996Z" fill="#372CD1"/>
</g>
</g>
<defs>
<clipPath id="clip0_6464_86611">
<rect width="192" height="192" rx="24" fill="white"/>
</clipPath>
</defs>
</svg>
