<svg width="192" height="192" viewBox="0 0 192 192" fill="none" xmlns="http://www.w3.org/2000/svg">
<g clip-path="url(#clip0_10200_135793)">
<path d="M0 96C0 42.9807 42.9807 0 96 0C149.019 0 192 42.9807 192 96C192 149.019 149.019 192 96 192C42.9807 192 0 149.019 0 96Z" fill="white"/>
<mask id="mask0_10200_135793" style="mask-type:alpha" maskUnits="userSpaceOnUse" x="0" y="0" width="192" height="192">
<rect width="192" height="192" rx="96" fill="white"/>
</mask>
<g mask="url(#mask0_10200_135793)">
<path d="M109.333 40H64C59.5817 40 56 43.5817 56 48V144C56 148.418 59.5817 152 64 152H128C132.418 152 136 148.418 136 144V66.9333L109.333 40Z" fill="#EBEBEB"/>
<path d="M109.333 40H64C59.5817 40 56 43.5817 56 48V144C56 148.418 59.5817 152 64 152H128C132.418 152 136 148.418 136 144V66.9333H113.333C111.124 66.9333 109.333 65.1425 109.333 62.9333V40Z" fill="#F7F7F7"/>
<path d="M110.892 83.5294L109.477 121.941C109.453 122.6 108.875 123.159 108.218 123.159H83.7821C83.1246 123.159 82.5473 122.598 82.5232 121.941L81.108 83.5294C81.0699 82.4688 80.1839 81.642 79.1295 81.6824C78.0751 81.7227 77.2532 82.6119 77.2933 83.6725L78.7085 122.084C78.8087 124.806 81.0719 127 83.7841 127H108.22C110.93 127 113.195 124.808 113.296 122.084L114.711 83.6725C114.749 82.6119 113.927 81.7207 112.875 81.6824C111.822 81.6441 110.934 82.4708 110.896 83.5294H110.892Z" fill="#AFABED"/>
<path d="M76.9084 84.3679H115.092C116.146 84.3679 117 83.509 117 82.4484C117 81.3878 116.146 80.5288 115.092 80.5288H76.9084C75.854 80.5288 75 81.3878 75 82.4484C75 83.509 75.854 84.3679 76.9084 84.3679Z" fill="#AFABED"/>
<path d="M90.1987 81.8235L90.9945 79.0248C91.1649 78.4259 91.9367 77.8391 92.5581 77.8391H99.4438C100.065 77.8391 100.837 78.4239 101.007 79.0248L101.803 81.8235L105.474 80.7689L104.678 77.9702C104.038 75.722 101.769 74 99.4438 74H92.5581C90.2328 74 87.9616 75.722 87.3241 77.9702L86.5283 80.7689L90.1987 81.8235Z" fill="#AFABED"/>
<path d="M96 101.545L102.545 95L104 96.4545L97.4545 103L104 109.545L102.545 111L96 104.455L89.4545 111L88 109.545L94.5455 103L88 96.4545L89.4545 95L96 101.545Z" fill="#372CD1"/>
</g>
</g>
<defs>
<clipPath id="clip0_10200_135793">
<rect width="192" height="192" rx="24" fill="white"/>
</clipPath>
</defs>
</svg>
