<svg width="192" height="192" viewBox="0 0 192 192" fill="none" xmlns="http://www.w3.org/2000/svg">
<g clip-path="url(#clip0_10284_135667)">
<path d="M0 96C0 42.9807 42.9807 0 96 0C149.019 0 192 42.9807 192 96C192 149.019 149.019 192 96 192C42.9807 192 0 149.019 0 96Z" fill="white"/>
<mask id="mask0_10284_135667" style="mask-type:alpha" maskUnits="userSpaceOnUse" x="0" y="0" width="192" height="192">
<rect width="192" height="192" rx="96" fill="white"/>
</mask>
<g mask="url(#mask0_10284_135667)">
<rect width="80" height="112" transform="translate(56 40)" fill="#F7F7F7"/>
<path d="M75.9518 124.792C75.1838 124.451 74.5438 124.227 74.0318 124.12C73.5411 123.992 73.0611 123.928 72.5918 123.928C71.9944 123.928 71.3651 124.109 70.7038 124.472C70.0424 124.835 69.4558 125.283 68.9438 125.816V123.32C69.9678 122.189 71.2478 121.624 72.7838 121.624C73.3811 121.624 73.9891 121.688 74.6078 121.816C75.2264 121.944 76.0264 122.221 77.0078 122.648C77.7758 122.989 78.4051 123.224 78.8958 123.352C79.4078 123.459 79.8878 123.512 80.3358 123.512C80.9544 123.512 81.5944 123.331 82.2558 122.968C82.9171 122.605 83.5038 122.157 84.0158 121.624V124.088C82.9704 125.24 81.6904 125.816 80.1758 125.816C79.5571 125.816 78.9384 125.752 78.3198 125.624C77.7011 125.475 76.9118 125.197 75.9518 124.792Z" fill="#372CD1"/>
<path d="M69 131.244C69 130.557 69.5596 130 70.25 130H97.75C98.4404 130 99 130.557 99 131.244C99 131.932 98.4404 132.489 97.75 132.489H70.25C69.5596 132.489 69 131.932 69 131.244Z" fill="#EBEBEB"/>
<path fill-rule="evenodd" clip-rule="evenodd" d="M105.198 70.5858C105.979 69.8047 107.245 69.8047 108.026 70.5858L119.44 81.9999C120.221 82.7809 120.221 84.0473 119.44 84.8283L111.799 92.4692L110.234 109.684C110.134 110.784 109.163 111.594 108.064 111.495C95.1516 110.337 88.0232 112.829 74.7114 117.895C73.9764 118.175 73.1458 117.998 72.5886 117.443C72.0315 116.888 71.8512 116.058 72.1281 115.322C77.1667 101.924 79.6489 94.7578 78.53 81.9577C78.434 80.86 79.244 79.8915 80.3413 79.7917L89.3095 78.9764L98.2777 78.1611C98.8689 78.1074 99.4533 78.319 99.873 78.7387L105.58 84.4457C106.361 85.2268 106.361 86.4931 105.58 87.2742C104.799 88.0552 103.533 88.0552 102.752 87.2742L97.707 82.2295L89.6717 82.96L82.6635 83.5971C83.265 93.3399 81.7459 100.196 78.7823 108.769L87.4379 100.113L87.5201 100.195C87.2153 99.5573 87.0447 98.8431 87.0447 98.089C87.0447 95.3874 89.2348 93.1973 91.9365 93.1973C94.6381 93.1973 96.8282 95.3874 96.8282 98.089C96.8282 100.791 94.6381 102.981 91.9365 102.981C91.1824 102.981 90.4682 102.81 89.8304 102.505L89.9127 102.588L81.3053 111.195C89.7985 108.236 96.639 106.729 106.429 107.358L107.881 91.3859C107.923 90.92 108.128 90.4836 108.459 90.1528L115.197 83.4141L106.612 74.8284L103.134 78.306C102.353 79.087 101.087 79.087 100.306 78.306C99.5247 77.5249 99.5247 76.2586 100.306 75.4775L105.198 70.5858ZM91.9365 98.9808C92.429 98.9808 92.8282 98.5815 92.8282 98.089C92.8282 97.5965 92.429 97.1973 91.9365 97.1973C91.444 97.1973 91.0447 97.5965 91.0447 98.089C91.0447 98.5815 91.444 98.9808 91.9365 98.9808Z" fill="#AFABED"/>
</g>
</g>
<defs>
<clipPath id="clip0_10284_135667">
<rect width="192" height="192" rx="24" fill="white"/>
</clipPath>
</defs>
</svg>
