<svg width="32" height="32" viewBox="0 0 32 32" fill="none" xmlns="http://www.w3.org/2000/svg">
<path d="M4.5 27V5C4.5 3.067 6.067 1.5 8 1.5H19.5858C19.7184 1.5 19.8456 1.55268 19.9393 1.64645L27.3536 9.06066C27.4473 9.15443 27.5 9.2816 27.5 9.41421V27C27.5 28.933 25.933 30.5 24 30.5H8C6.067 30.5 4.5 28.933 4.5 27Z" stroke="#0C5D31"/>
<path d="M20.5 2C20.5 1.72386 20.2761 1.5 20 1.5C19.7239 1.5 19.5 1.72386 19.5 2H20.5ZM27 9.5C27.2761 9.5 27.5 9.27614 27.5 9C27.5 8.72386 27.2761 8.5 27 8.5V9.5ZM19.5 2V7H20.5V2H19.5ZM22 9.5H27V8.5H22V9.5ZM19.5 7C19.5 8.38071 20.6193 9.5 22 9.5V8.5C21.1716 8.5 20.5 7.82843 20.5 7H19.5Z" fill="#0C5D31"/>
<path d="M14.7032 23H13.3192L11.9912 20.84L10.6632 23H9.36719L11.2632 20.056L9.48719 17.288H10.8232L12.0552 19.344L13.2632 17.288H14.5672L12.7752 20.12L14.7032 23ZM15.4231 23V17.288H16.6311V22H18.9511V23H15.4231ZM23.3146 21.416C23.3146 21.9227 23.1306 22.328 22.7626 22.632C22.3999 22.9307 21.8826 23.08 21.2106 23.08C20.6079 23.08 20.0692 22.9653 19.5946 22.736V21.608C19.8666 21.7253 20.1466 21.8347 20.4346 21.936C20.7279 22.032 21.0186 22.08 21.3066 22.08C21.6052 22.08 21.8159 22.024 21.9386 21.912C22.0666 21.7947 22.1306 21.648 22.1306 21.472C22.1306 21.328 22.0799 21.2053 21.9786 21.104C21.8826 21.0027 21.7519 20.9093 21.5866 20.824C21.4212 20.7333 21.2319 20.6373 21.0186 20.536C20.8852 20.472 20.7412 20.3973 20.5866 20.312C20.4319 20.2213 20.2826 20.112 20.1386 19.984C19.9999 19.8507 19.8852 19.6907 19.7946 19.504C19.7039 19.3173 19.6586 19.0933 19.6586 18.832C19.6586 18.32 19.8319 17.9227 20.1786 17.64C20.5252 17.352 20.9972 17.208 21.5946 17.208C21.8932 17.208 22.1759 17.2427 22.4426 17.312C22.7092 17.3813 22.9919 17.48 23.2906 17.608L22.8986 18.552C22.6372 18.4453 22.4026 18.3627 22.1946 18.304C21.9866 18.2453 21.7732 18.216 21.5546 18.216C21.3252 18.216 21.1492 18.2693 21.0266 18.376C20.9039 18.4827 20.8426 18.6213 20.8426 18.792C20.8426 18.9947 20.9332 19.1547 21.1146 19.272C21.2959 19.3893 21.5652 19.5333 21.9226 19.704C22.2159 19.8427 22.4639 19.9867 22.6666 20.136C22.8746 20.2853 23.0346 20.4613 23.1466 20.664C23.2586 20.8667 23.3146 21.1173 23.3146 21.416Z" fill="#0C5D31"/>
</svg>
