<svg width="16" height="16" viewBox="0 0 16 16" fill="none" xmlns="http://www.w3.org/2000/svg">
<path d="M0 4C0 1.79086 1.79086 0 4 0H12C14.2091 0 16 1.79086 16 4V12C16 14.2091 14.2091 16 12 16H4C1.79086 16 0 14.2091 0 12V4Z" fill="#0C5D31"/>
<path d="M6.65239 10H5.61439L4.61839 8.38L3.62239 10H2.65039L4.07239 7.792L2.74039 5.716H3.74239L4.66639 7.258L5.57239 5.716H6.55039L5.20639 7.84L6.65239 10ZM7.19234 10V5.716H8.09834V9.25H9.83834V10H7.19234ZM13.1109 8.812C13.1109 9.192 12.9729 9.496 12.6969 9.724C12.4249 9.948 12.0369 10.06 11.5329 10.06C11.0809 10.06 10.6769 9.974 10.3209 9.802V8.956C10.5249 9.044 10.7349 9.126 10.9509 9.202C11.1709 9.274 11.3889 9.31 11.6049 9.31C11.8289 9.31 11.9869 9.268 12.0789 9.184C12.1749 9.096 12.2229 8.986 12.2229 8.854C12.2229 8.746 12.1849 8.654 12.1089 8.578C12.0369 8.502 11.9389 8.432 11.8149 8.368C11.6909 8.3 11.5489 8.228 11.3889 8.152C11.2889 8.104 11.1809 8.048 11.0649 7.984C10.9489 7.916 10.8369 7.834 10.7289 7.738C10.6249 7.638 10.5389 7.518 10.4709 7.378C10.4029 7.238 10.3689 7.07 10.3689 6.874C10.3689 6.49 10.4989 6.192 10.7589 5.98C11.0189 5.764 11.3729 5.656 11.8209 5.656C12.0449 5.656 12.2569 5.682 12.4569 5.734C12.6569 5.786 12.8689 5.86 13.0929 5.956L12.7989 6.664C12.6029 6.584 12.4269 6.522 12.2709 6.478C12.1149 6.434 11.9549 6.412 11.7909 6.412C11.6189 6.412 11.4869 6.452 11.3949 6.532C11.3029 6.612 11.2569 6.716 11.2569 6.844C11.2569 6.996 11.3249 7.116 11.4609 7.204C11.5969 7.292 11.7989 7.4 12.0669 7.528C12.2869 7.632 12.4729 7.74 12.6249 7.852C12.7809 7.964 12.9009 8.096 12.9849 8.248C13.0689 8.4 13.1109 8.588 13.1109 8.812Z" fill="white"/>
</svg>
