<svg width="16" height="16" viewBox="0 0 16 16" fill="none" xmlns="http://www.w3.org/2000/svg">
<path d="M0 4C0 1.79086 1.79086 0 4 0H12C14.2091 0 16 1.79086 16 4V12C16 14.2091 14.2091 16 12 16H4C1.79086 16 0 14.2091 0 12V4Z" fill="#008196"/>
<path d="M3.41288 5.716C3.96488 5.716 4.36688 5.836 4.61888 6.076C4.87488 6.312 5.00288 6.638 5.00288 7.054C5.00288 7.306 4.95088 7.54 4.84688 7.756C4.74288 7.972 4.56888 8.146 4.32488 8.278C4.08488 8.41 3.75688 8.476 3.34088 8.476H2.95088V10H2.04488V5.716H3.41288ZM3.36488 6.46H2.95088V7.732H3.25088C3.50688 7.732 3.70888 7.682 3.85688 7.582C4.00888 7.478 4.08488 7.312 4.08488 7.084C4.08488 6.668 3.84488 6.46 3.36488 6.46ZM9.61046 10H8.45846L6.59246 6.76H6.56846C6.57646 6.964 6.58446 7.168 6.59246 7.372C6.60446 7.576 6.61446 7.78 6.62246 7.984V10H5.81246V5.716H6.95846L8.81846 8.926H8.83646C8.82846 8.73 8.82046 8.534 8.81246 8.338C8.80446 8.142 8.79846 7.944 8.79446 7.744V5.716H9.61046V10ZM12.3193 7.594H14.0173V9.814C13.7933 9.89 13.5593 9.95 13.3153 9.994C13.0713 10.038 12.7973 10.06 12.4933 10.06C11.8533 10.06 11.3613 9.872 11.0173 9.496C10.6733 9.12 10.5013 8.572 10.5013 7.852C10.5013 7.404 10.5873 7.016 10.7593 6.688C10.9313 6.36 11.1833 6.106 11.5153 5.926C11.8513 5.746 12.2593 5.656 12.7393 5.656C12.9673 5.656 13.1913 5.68 13.4113 5.728C13.6313 5.776 13.8313 5.84 14.0113 5.92L13.7113 6.646C13.5793 6.578 13.4293 6.522 13.2613 6.478C13.0933 6.434 12.9173 6.412 12.7333 6.412C12.4693 6.412 12.2393 6.472 12.0433 6.592C11.8513 6.712 11.7013 6.882 11.5933 7.102C11.4893 7.322 11.4373 7.578 11.4373 7.87C11.4373 8.15 11.4753 8.398 11.5513 8.614C11.6273 8.83 11.7473 9 11.9113 9.124C12.0753 9.244 12.2893 9.304 12.5533 9.304C12.6813 9.304 12.7893 9.298 12.8773 9.286C12.9653 9.274 13.0493 9.26 13.1293 9.244V8.35H12.3193V7.594Z" fill="white"/>
</svg>
