<svg width="32" height="32" viewBox="0 0 32 32" fill="none" xmlns="http://www.w3.org/2000/svg">
<path d="M20 1H8C5.79086 1 4 2.79086 4 5V27C4 29.2091 5.79086 31 8 31H24C26.2091 31 28 29.2091 28 27V9L20 1Z" fill="#E6F2F5"/>
<path d="M20 1H8C5.79086 1 4 2.79086 4 5V27C4 29.2091 5.79086 31 8 31H24C26.2091 31 28 29.2091 28 27V9H22C20.8954 9 20 8.10457 20 7V1Z" fill="#008196"/>
<path d="M9.38953 24.68C9.23486 24.68 9.09886 24.672 8.98153 24.656C8.8642 24.64 8.76286 24.6187 8.67753 24.592V23.584C8.76286 23.6053 8.85353 23.624 8.94953 23.64C9.0402 23.656 9.13886 23.664 9.24553 23.664C9.3842 23.664 9.50953 23.6373 9.62153 23.584C9.73886 23.5307 9.82953 23.4293 9.89353 23.28C9.95753 23.136 9.98953 22.9227 9.98953 22.64V17.288H11.1975V22.632C11.1975 23.1227 11.1202 23.5173 10.9655 23.816C10.8162 24.12 10.6055 24.3387 10.3335 24.472C10.0615 24.6107 9.74686 24.68 9.38953 24.68ZM14.462 17.288C15.198 17.288 15.734 17.448 16.07 17.768C16.4113 18.0827 16.582 18.5173 16.582 19.072C16.582 19.408 16.5126 19.72 16.374 20.008C16.2353 20.296 16.0033 20.528 15.678 20.704C15.358 20.88 14.9206 20.968 14.366 20.968H13.846V23H12.638V17.288H14.462ZM14.398 18.28H13.846V19.976H14.246C14.5873 19.976 14.8566 19.9093 15.054 19.776C15.2566 19.6373 15.358 19.416 15.358 19.112C15.358 18.5573 15.038 18.28 14.398 18.28ZM19.8294 19.792H22.0934V22.752C21.7947 22.8533 21.4827 22.9333 21.1574 22.992C20.8321 23.0507 20.4667 23.08 20.0614 23.08C19.2081 23.08 18.5521 22.8293 18.0934 22.328C17.6347 21.8267 17.4054 21.096 17.4054 20.136C17.4054 19.5387 17.5201 19.0213 17.7494 18.584C17.9787 18.1467 18.3147 17.808 18.7574 17.568C19.2054 17.328 19.7494 17.208 20.3894 17.208C20.6934 17.208 20.9921 17.24 21.2854 17.304C21.5787 17.368 21.8454 17.4533 22.0854 17.56L21.6854 18.528C21.5094 18.4373 21.3094 18.3627 21.0854 18.304C20.8614 18.2453 20.6267 18.216 20.3814 18.216C20.0294 18.216 19.7227 18.296 19.4614 18.456C19.2054 18.616 19.0054 18.8427 18.8614 19.136C18.7227 19.4293 18.6534 19.7707 18.6534 20.16C18.6534 20.5333 18.7041 20.864 18.8054 21.152C18.9067 21.44 19.0667 21.6667 19.2854 21.832C19.5041 21.992 19.7894 22.072 20.1414 22.072C20.3121 22.072 20.4561 22.064 20.5734 22.048C20.6907 22.032 20.8027 22.0133 20.9094 21.992V20.8H19.8294V19.792Z" fill="white"/>
</svg>
