<svg width="32" height="32" viewBox="0 0 32 32" fill="none" xmlns="http://www.w3.org/2000/svg">
<path d="M20 1H8C5.79086 1 4 2.79086 4 5V27C4 29.2091 5.79086 31 8 31H24C26.2091 31 28 29.2091 28 27V9L20 1Z" fill="#E6F5FA"/>
<path d="M20 1H8C5.79086 1 4 2.79086 4 5V27C4 29.2091 5.79086 31 8 31H24C26.2091 31 28 29.2091 28 27V9H22C20.8954 9 20 8.10457 20 7V1Z" fill="#0099CC"/>
<path d="M16.1735 20.136C16.1735 20.728 16.0749 21.2453 15.8775 21.688C15.6855 22.1253 15.3869 22.4667 14.9815 22.712C14.5815 22.9573 14.0722 23.08 13.4535 23.08C12.8349 23.08 12.3229 22.9573 11.9175 22.712C11.5175 22.4667 11.2189 22.1227 11.0215 21.68C10.8295 21.2373 10.7335 20.72 10.7335 20.128C10.7335 19.536 10.8295 19.0213 11.0215 18.584C11.2189 18.1467 11.5175 17.808 11.9175 17.568C12.3229 17.3227 12.8375 17.2 13.4615 17.2C14.0802 17.2 14.5895 17.3227 14.9895 17.568C15.3895 17.808 15.6855 18.1493 15.8775 18.592C16.0749 19.0293 16.1735 19.544 16.1735 20.136ZM12.0055 20.136C12.0055 20.7333 12.1202 21.2053 12.3495 21.552C12.5789 21.8933 12.9469 22.064 13.4535 22.064C13.9709 22.064 14.3415 21.8933 14.5655 21.552C14.7895 21.2053 14.9015 20.7333 14.9015 20.136C14.9015 19.5387 14.7895 19.0693 14.5655 18.728C14.3415 18.3813 13.9735 18.208 13.4615 18.208C12.9495 18.208 12.5789 18.3813 12.3495 18.728C12.1202 19.0693 12.0055 19.5387 12.0055 20.136ZM19.7807 18.216C19.3167 18.216 18.9621 18.3893 18.7167 18.736C18.4714 19.0827 18.3487 19.5573 18.3487 20.16C18.3487 20.768 18.4607 21.24 18.6847 21.576C18.9141 21.9067 19.2794 22.072 19.7807 22.072C20.0101 22.072 20.2421 22.0453 20.4767 21.992C20.7114 21.9387 20.9647 21.864 21.2367 21.768V22.784C20.9861 22.8853 20.7381 22.96 20.4927 23.008C20.2474 23.056 19.9727 23.08 19.6687 23.08C19.0767 23.08 18.5914 22.96 18.2127 22.72C17.8341 22.4747 17.5541 22.1333 17.3727 21.696C17.1914 21.2533 17.1007 20.7387 17.1007 20.152C17.1007 19.576 17.2047 19.0667 17.4127 18.624C17.6207 18.1813 17.9221 17.8347 18.3167 17.584C18.7167 17.3333 19.2047 17.208 19.7807 17.208C20.0634 17.208 20.3461 17.2453 20.6287 17.32C20.9167 17.3893 21.1914 17.4853 21.4527 17.608L21.0607 18.592C20.8474 18.4907 20.6314 18.4027 20.4127 18.328C20.1994 18.2533 19.9887 18.216 19.7807 18.216Z" fill="white"/>
</svg>
