<svg width="32" height="32" viewBox="0 0 32 32" fill="none" xmlns="http://www.w3.org/2000/svg">
<path d="M4.5 27V5C4.5 3.067 6.067 1.5 8 1.5H19.5858C19.7184 1.5 19.8456 1.55268 19.9393 1.64645L27.3536 9.06066C27.4473 9.15443 27.5 9.2816 27.5 9.41421V27C27.5 28.933 25.933 30.5 24 30.5H8C6.067 30.5 4.5 28.933 4.5 27Z" stroke="#767676"/>
<path d="M20.5 2C20.5 1.72386 20.2761 1.5 20 1.5C19.7239 1.5 19.5 1.72386 19.5 2H20.5ZM27 9.5C27.2761 9.5 27.5 9.27614 27.5 9C27.5 8.72386 27.2761 8.5 27 8.5V9.5ZM19.5 2V7H20.5V2H19.5ZM22 9.5H27V8.5H22V9.5ZM19.5 7C19.5 8.38071 20.6193 9.5 22 9.5V8.5C21.1716 8.5 20.5 7.82843 20.5 7H19.5Z" fill="#767676"/>
</svg>
