<svg width="32" height="32" viewBox="0 0 32 32" fill="none" xmlns="http://www.w3.org/2000/svg">
<path d="M20 1H8C5.79086 1 4 2.79086 4 5V27C4 29.2091 5.79086 31 8 31H24C26.2091 31 28 29.2091 28 27V9L20 1Z" fill="#E6F5FA"/>
<path d="M20 1H8C5.79086 1 4 2.79086 4 5V27C4 29.2091 5.79086 31 8 31H24C26.2091 31 28 29.2091 28 27V9H22C20.8954 9 20 8.10457 20 7V1Z" fill="#0199CC"/>
<path d="M16.0368 20.136C16.0368 20.728 15.9381 21.2453 15.7408 21.688C15.5488 22.1253 15.2501 22.4667 14.8448 22.712C14.4448 22.9573 13.9355 23.08 13.3168 23.08C12.6981 23.08 12.1861 22.9573 11.7808 22.712C11.3808 22.4667 11.0821 22.1227 10.8848 21.68C10.6928 21.2373 10.5968 20.72 10.5968 20.128C10.5968 19.536 10.6928 19.0213 10.8848 18.584C11.0821 18.1467 11.3808 17.808 11.7808 17.568C12.1861 17.3227 12.7008 17.2 13.3248 17.2C13.9435 17.2 14.4528 17.3227 14.8528 17.568C15.2528 17.808 15.5488 18.1493 15.7408 18.592C15.9381 19.0293 16.0368 19.544 16.0368 20.136ZM11.8688 20.136C11.8688 20.7333 11.9835 21.2053 12.2128 21.552C12.4421 21.8933 12.8101 22.064 13.3168 22.064C13.8341 22.064 14.2048 21.8933 14.4288 21.552C14.6528 21.2053 14.7648 20.7333 14.7648 20.136C14.7648 19.5387 14.6528 19.0693 14.4288 18.728C14.2048 18.3813 13.8368 18.208 13.3248 18.208C12.8128 18.208 12.4421 18.3813 12.2128 18.728C11.9835 19.0693 11.8688 19.5387 11.8688 20.136ZM20.5598 23L20.1438 21.64H18.0638L17.6478 23H16.3438L18.3598 17.264H19.8398L21.8638 23H20.5598ZM19.8558 20.624L19.4398 19.296C19.4131 19.2053 19.3784 19.0907 19.3358 18.952C19.2931 18.8133 19.2504 18.672 19.2078 18.528C19.1651 18.384 19.1304 18.2587 19.1038 18.152C19.0771 18.2587 19.0398 18.392 18.9918 18.552C18.9491 18.7067 18.9064 18.856 18.8638 19C18.8264 19.1387 18.7971 19.2373 18.7758 19.296L18.3678 20.624H19.8558Z" fill="white"/>
</svg>
