<svg width="32" height="32" viewBox="0 0 32 32" fill="none" xmlns="http://www.w3.org/2000/svg">
<path d="M20 1H8C5.79086 1 4 2.79086 4 5V27C4 29.2091 5.79086 31 8 31H24C26.2091 31 28 29.2091 28 27V9L20 1Z" fill="#FAE6E8"/>
<path d="M20 1H8C5.79086 1 4 2.79086 4 5V27C4 29.2091 5.79086 31 8 31H24C26.2091 31 28 29.2091 28 27V9H22C20.8954 9 20 8.10457 20 7V1Z" fill="#D0021B"/>
<path d="M10.876 17.288C11.612 17.288 12.148 17.448 12.484 17.768C12.8254 18.0827 12.996 18.5173 12.996 19.072C12.996 19.408 12.9267 19.72 12.788 20.008C12.6494 20.296 12.4174 20.528 12.092 20.704C11.772 20.88 11.3347 20.968 10.78 20.968H10.26V23H9.05203V17.288H10.876ZM10.812 18.28H10.26V19.976H10.66C11.0014 19.976 11.2707 19.9093 11.468 19.776C11.6707 19.6373 11.772 19.416 11.772 19.112C11.772 18.5573 11.452 18.28 10.812 18.28ZM18.8115 20.088C18.8115 21.0533 18.5368 21.7813 17.9875 22.272C17.4381 22.7573 16.6728 23 15.6915 23H14.0755V17.288H15.8675C16.4648 17.288 16.9821 17.3947 17.4195 17.608C17.8621 17.8213 18.2035 18.136 18.4435 18.552C18.6888 18.968 18.8115 19.48 18.8115 20.088ZM17.5555 20.12C17.5555 19.4907 17.4168 19.0267 17.1395 18.728C16.8621 18.4293 16.4595 18.28 15.9315 18.28H15.2835V22H15.8035C16.9715 22 17.5555 21.3733 17.5555 20.12ZM21.1893 23H19.9973V17.288H23.2693V18.28H21.1893V19.752H23.1253V20.744H21.1893V23Z" fill="white"/>
</svg>
