<svg width="16" height="16" viewBox="0 0 16 16" fill="none" xmlns="http://www.w3.org/2000/svg">
<path d="M0 4C0 1.79086 1.79086 0 4 0H12C14.2091 0 16 1.79086 16 4V12C16 14.2091 14.2091 16 12 16H4C1.79086 16 0 14.2091 0 12V4Z" fill="#008196"/>
<path d="M3.04215 11.26C2.92615 11.26 2.82415 11.254 2.73615 11.242C2.64815 11.23 2.57215 11.214 2.50815 11.194V10.438C2.57215 10.454 2.64015 10.468 2.71215 10.48C2.78015 10.492 2.85415 10.498 2.93415 10.498C3.03815 10.498 3.13215 10.478 3.21615 10.438C3.30415 10.398 3.37215 10.322 3.42015 10.21C3.46815 10.102 3.49215 9.942 3.49215 9.73V5.716H4.39815V9.724C4.39815 10.092 4.34015 10.388 4.22415 10.612C4.11215 10.84 3.95415 11.004 3.75015 11.104C3.54615 11.208 3.31015 11.26 3.04215 11.26ZM6.84648 5.716C7.39848 5.716 7.80048 5.836 8.05248 6.076C8.30848 6.312 8.43648 6.638 8.43648 7.054C8.43648 7.306 8.38448 7.54 8.28048 7.756C8.17648 7.972 8.00248 8.146 7.75848 8.278C7.51848 8.41 7.19048 8.476 6.77448 8.476H6.38448V10H5.47848V5.716H6.84648ZM6.79848 6.46H6.38448V7.732H6.68448C6.94048 7.732 7.14248 7.682 7.29048 7.582C7.44248 7.478 7.51848 7.312 7.51848 7.084C7.51848 6.668 7.27848 6.46 6.79848 6.46ZM10.8721 7.594H12.5701V9.814C12.3461 9.89 12.1121 9.95 11.8681 9.994C11.6241 10.038 11.3501 10.06 11.0461 10.06C10.4061 10.06 9.91405 9.872 9.57005 9.496C9.22605 9.12 9.05405 8.572 9.05405 7.852C9.05405 7.404 9.14005 7.016 9.31205 6.688C9.48405 6.36 9.73605 6.106 10.0681 5.926C10.4041 5.746 10.8121 5.656 11.2921 5.656C11.5201 5.656 11.7441 5.68 11.9641 5.728C12.1841 5.776 12.3841 5.84 12.5641 5.92L12.2641 6.646C12.1321 6.578 11.9821 6.522 11.8141 6.478C11.6461 6.434 11.4701 6.412 11.2861 6.412C11.0221 6.412 10.7921 6.472 10.5961 6.592C10.4041 6.712 10.2541 6.882 10.1461 7.102C10.0421 7.322 9.99005 7.578 9.99005 7.87C9.99005 8.15 10.0281 8.398 10.1041 8.614C10.1801 8.83 10.3001 9 10.4641 9.124C10.6281 9.244 10.8421 9.304 11.1061 9.304C11.2341 9.304 11.3421 9.298 11.4301 9.286C11.5181 9.274 11.6021 9.26 11.6821 9.244V8.35H10.8721V7.594Z" fill="white"/>
</svg>
