<svg width="16" height="16" viewBox="0 0 16 16" fill="none" xmlns="http://www.w3.org/2000/svg">
<path d="M0 4C0 1.79086 1.79086 0 4 0H12C14.2091 0 16 1.79086 16 4V12C16 14.2091 14.2091 16 12 16H4C1.79086 16 0 14.2091 0 12V4Z" fill="#0099CC"/>
<path d="M8.13015 7.852C8.13015 8.296 8.05615 8.684 7.90815 9.016C7.76415 9.344 7.54015 9.6 7.23615 9.784C6.93615 9.968 6.55415 10.06 6.09015 10.06C5.62615 10.06 5.24215 9.968 4.93815 9.784C4.63815 9.6 4.41415 9.342 4.26615 9.01C4.12215 8.678 4.05015 8.29 4.05015 7.846C4.05015 7.402 4.12215 7.016 4.26615 6.688C4.41415 6.36 4.63815 6.106 4.93815 5.926C5.24215 5.742 5.62815 5.65 6.09615 5.65C6.56015 5.65 6.94215 5.742 7.24215 5.926C7.54215 6.106 7.76415 6.362 7.90815 6.694C8.05615 7.022 8.13015 7.408 8.13015 7.852ZM5.00415 7.852C5.00415 8.3 5.09015 8.654 5.26215 8.914C5.43415 9.17 5.71015 9.298 6.09015 9.298C6.47815 9.298 6.75615 9.17 6.92415 8.914C7.09215 8.654 7.17615 8.3 7.17615 7.852C7.17615 7.404 7.09215 7.052 6.92415 6.796C6.75615 6.536 6.48015 6.406 6.09615 6.406C5.71215 6.406 5.43415 6.536 5.26215 6.796C5.09015 7.052 5.00415 7.404 5.00415 7.852ZM10.8355 6.412C10.4875 6.412 10.2215 6.542 10.0375 6.802C9.85354 7.062 9.76154 7.418 9.76154 7.87C9.76154 8.326 9.84554 8.68 10.0135 8.932C10.1855 9.18 10.4595 9.304 10.8355 9.304C11.0075 9.304 11.1815 9.284 11.3575 9.244C11.5335 9.204 11.7235 9.148 11.9275 9.076V9.838C11.7395 9.914 11.5535 9.97 11.3695 10.006C11.1855 10.042 10.9795 10.06 10.7515 10.06C10.3075 10.06 9.94354 9.97 9.65954 9.79C9.37554 9.606 9.16554 9.35 9.02954 9.022C8.89354 8.69 8.82554 8.304 8.82554 7.864C8.82554 7.432 8.90354 7.05 9.05954 6.718C9.21554 6.386 9.44154 6.126 9.73754 5.938C10.0375 5.75 10.4035 5.656 10.8355 5.656C11.0475 5.656 11.2595 5.684 11.4715 5.74C11.6875 5.792 11.8935 5.864 12.0895 5.956L11.7955 6.694C11.6355 6.618 11.4735 6.552 11.3095 6.496C11.1495 6.44 10.9915 6.412 10.8355 6.412Z" fill="white"/>
</svg>
