<svg width="16" height="16" viewBox="0 0 16 16" fill="none" xmlns="http://www.w3.org/2000/svg">
<path d="M0 4C0 1.79086 1.79086 0 4 0H12C14.2091 0 16 1.79086 16 4V12C16 14.2091 14.2091 16 12 16H4C1.79086 16 0 14.2091 0 12V4Z" fill="#0099CC"/>
<path d="M8.02761 7.852C8.02761 8.296 7.95361 8.684 7.80561 9.016C7.66161 9.344 7.43761 9.6 7.13361 9.784C6.83361 9.968 6.45161 10.06 5.98761 10.06C5.52361 10.06 5.13961 9.968 4.83561 9.784C4.53561 9.6 4.31161 9.342 4.16361 9.01C4.01961 8.678 3.94761 8.29 3.94761 7.846C3.94761 7.402 4.01961 7.016 4.16361 6.688C4.31161 6.36 4.53561 6.106 4.83561 5.926C5.13961 5.742 5.52561 5.65 5.99361 5.65C6.45761 5.65 6.83961 5.742 7.13961 5.926C7.43961 6.106 7.66161 6.362 7.80561 6.694C7.95361 7.022 8.02761 7.408 8.02761 7.852ZM4.90161 7.852C4.90161 8.3 4.98761 8.654 5.15961 8.914C5.33161 9.17 5.60761 9.298 5.98761 9.298C6.37561 9.298 6.65361 9.17 6.82161 8.914C6.98961 8.654 7.07361 8.3 7.07361 7.852C7.07361 7.404 6.98961 7.052 6.82161 6.796C6.65361 6.536 6.37761 6.406 5.99361 6.406C5.60961 6.406 5.33161 6.536 5.15961 6.796C4.98761 7.052 4.90161 7.404 4.90161 7.852ZM11.4198 10L11.1078 8.98H9.54781L9.23581 10H8.25781L9.76981 5.698H10.8798L12.3978 10H11.4198ZM10.8918 8.218L10.5798 7.222C10.5598 7.154 10.5338 7.068 10.5018 6.964C10.4698 6.86 10.4378 6.754 10.4058 6.646C10.3738 6.538 10.3478 6.444 10.3278 6.364C10.3078 6.444 10.2798 6.544 10.2438 6.664C10.2118 6.78 10.1798 6.892 10.1478 7C10.1198 7.104 10.0978 7.178 10.0818 7.222L9.77581 8.218H10.8918Z" fill="white"/>
</svg>
