<svg width="32" height="32" viewBox="0 0 32 32" fill="none" xmlns="http://www.w3.org/2000/svg">
<path d="M10.1716 4H5C2.79086 4 1 5.79086 1 8V24C1 26.2091 2.79086 28 5 28H27C29.2091 28 31 26.2091 31 24V10C31 7.79086 29.2091 6 27 6H13.8284C13.298 6 12.7893 5.78929 12.4142 5.41421L11.5858 4.58579C11.2107 4.21071 10.702 4 10.1716 4Z" fill="#F5A623"/>
<path d="M27 10H5C2.79086 10 1 11.7909 1 14V24C1 26.2091 2.79086 28 5 28H27C29.2091 28 31 26.2091 31 24V14C31 11.7909 29.2091 10 27 10Z" fill="#FDEDD3"/>
</svg>
