<svg width="32" height="32" viewBox="0 0 32 32" fill="none" xmlns="http://www.w3.org/2000/svg">
<rect x="4" y="1" width="24" height="30" rx="4" fill="#886960"/>
<path d="M14.5572 23H10.3092V22.216L13.0452 18.288H10.3812V17.288H14.4852V18.072L11.7492 22H14.5572V23ZM17.606 23H15.006V22.312L15.702 21.992V18.296L15.006 17.976V17.288H17.606V17.976L16.91 18.296V21.992L17.606 22.312V23ZM20.4034 17.288C21.1394 17.288 21.6754 17.448 22.0114 17.768C22.3527 18.0827 22.5234 18.5173 22.5234 19.072C22.5234 19.408 22.454 19.72 22.3154 20.008C22.1767 20.296 21.9447 20.528 21.6194 20.704C21.2994 20.88 20.862 20.968 20.3074 20.968H19.7874V23H18.5794V17.288H20.4034ZM20.3394 18.28H19.7874V19.976H20.1874C20.5287 19.976 20.798 19.9093 20.9954 19.776C21.198 19.6373 21.2994 19.416 21.2994 19.112C21.2994 18.5573 20.9794 18.28 20.3394 18.28Z" fill="white"/>
<line x1="14" y1="1.5" x2="16" y2="1.5" stroke="#EBEBEB"/>
<line x1="16" y1="2.5" x2="18" y2="2.5" stroke="#EBEBEB"/>
<line x1="14" y1="3.5" x2="16" y2="3.5" stroke="#EBEBEB"/>
<line x1="16" y1="4.5" x2="18" y2="4.5" stroke="#EBEBEB"/>
<line x1="14" y1="5.5" x2="16" y2="5.5" stroke="#EBEBEB"/>
<line x1="16" y1="6.5" x2="18" y2="6.5" stroke="#EBEBEB"/>
<line x1="14" y1="7.5" x2="16" y2="7.5" stroke="#EBEBEB"/>
<line x1="16" y1="8.5" x2="18" y2="8.5" stroke="#EBEBEB"/>
<path fill-rule="evenodd" clip-rule="evenodd" d="M18 9H14V12H18V9ZM17 10H15V11H17V10Z" fill="#EBEBEB"/>
</svg>
