<svg width="16" height="16" viewBox="0 0 16 16" fill="none" xmlns="http://www.w3.org/2000/svg">
<path d="M0 4C0 1.79086 1.79086 0 4 0H12C14.2091 0 16 1.79086 16 4V12C16 14.2091 14.2091 16 12 16H4C1.79086 16 0 14.2091 0 12V4Z" fill="#D0021B"/>
<path d="M4.15702 5.716C4.70902 5.716 5.11102 5.836 5.36302 6.076C5.61902 6.312 5.74702 6.638 5.74702 7.054C5.74702 7.306 5.69502 7.54 5.59102 7.756C5.48702 7.972 5.31302 8.146 5.06902 8.278C4.82902 8.41 4.50102 8.476 4.08502 8.476H3.69502V10H2.78902V5.716H4.15702ZM4.10902 6.46H3.69502V7.732H3.99502C4.25102 7.732 4.45302 7.682 4.60102 7.582C4.75302 7.478 4.82902 7.312 4.82902 7.084C4.82902 6.668 4.58902 6.46 4.10902 6.46ZM10.1086 7.816C10.1086 8.54 9.9026 9.086 9.4906 9.454C9.0786 9.818 8.5046 10 7.7686 10H6.5566V5.716H7.9006C8.3486 5.716 8.7366 5.796 9.0646 5.956C9.3966 6.116 9.6526 6.352 9.8326 6.664C10.0166 6.976 10.1086 7.36 10.1086 7.816ZM9.1666 7.84C9.1666 7.368 9.0626 7.02 8.8546 6.796C8.6466 6.572 8.3446 6.46 7.9486 6.46H7.4626V9.25H7.8526C8.7286 9.25 9.1666 8.78 9.1666 7.84ZM11.892 10H10.998V5.716H13.452V6.46H11.892V7.564H13.344V8.308H11.892V10Z" fill="white"/>
</svg>
