<svg width="16" height="16" viewBox="0 0 16 16" fill="none" xmlns="http://www.w3.org/2000/svg">
<path d="M0 4C0 1.79086 1.79086 0 4 0H12C14.2091 0 16 1.79086 16 4V12C16 14.2091 14.2091 16 12 16H4C1.79086 16 0 14.2091 0 12V4Z" fill="#185ABD"/>
<path d="M5.57345 7.816C5.57345 8.54 5.36745 9.086 4.95545 9.454C4.54345 9.818 3.96945 10 3.23345 10H2.02145V5.716H3.36545C3.81345 5.716 4.20145 5.796 4.52945 5.956C4.86145 6.116 5.11745 6.352 5.29745 6.664C5.48145 6.976 5.57345 7.36 5.57345 7.816ZM4.63145 7.84C4.63145 7.368 4.52745 7.02 4.31945 6.796C4.11145 6.572 3.80945 6.46 3.41345 6.46H2.92745V9.25H3.31745C4.19345 9.25 4.63145 8.78 4.63145 7.84ZM10.3509 7.852C10.3509 8.296 10.2769 8.684 10.1289 9.016C9.98485 9.344 9.76085 9.6 9.45685 9.784C9.15685 9.968 8.77485 10.06 8.31085 10.06C7.84685 10.06 7.46285 9.968 7.15885 9.784C6.85885 9.6 6.63485 9.342 6.48685 9.01C6.34285 8.678 6.27085 8.29 6.27085 7.846C6.27085 7.402 6.34285 7.016 6.48685 6.688C6.63485 6.36 6.85885 6.106 7.15885 5.926C7.46285 5.742 7.84885 5.65 8.31685 5.65C8.78085 5.65 9.16285 5.742 9.46285 5.926C9.76285 6.106 9.98485 6.362 10.1289 6.694C10.2769 7.022 10.3509 7.408 10.3509 7.852ZM7.22485 7.852C7.22485 8.3 7.31085 8.654 7.48285 8.914C7.65485 9.17 7.93085 9.298 8.31085 9.298C8.69885 9.298 8.97685 9.17 9.14485 8.914C9.31285 8.654 9.39685 8.3 9.39685 7.852C9.39685 7.404 9.31285 7.052 9.14485 6.796C8.97685 6.536 8.70085 6.406 8.31685 6.406C7.93285 6.406 7.65485 6.536 7.48285 6.796C7.31085 7.052 7.22485 7.404 7.22485 7.852ZM13.0562 6.412C12.7082 6.412 12.4422 6.542 12.2582 6.802C12.0742 7.062 11.9822 7.418 11.9822 7.87C11.9822 8.326 12.0662 8.68 12.2342 8.932C12.4062 9.18 12.6802 9.304 13.0562 9.304C13.2282 9.304 13.4022 9.284 13.5782 9.244C13.7542 9.204 13.9442 9.148 14.1482 9.076V9.838C13.9602 9.914 13.7742 9.97 13.5902 10.006C13.4062 10.042 13.2002 10.06 12.9722 10.06C12.5282 10.06 12.1642 9.97 11.8802 9.79C11.5962 9.606 11.3862 9.35 11.2502 9.022C11.1142 8.69 11.0462 8.304 11.0462 7.864C11.0462 7.432 11.1242 7.05 11.2802 6.718C11.4362 6.386 11.6622 6.126 11.9582 5.938C12.2582 5.75 12.6242 5.656 13.0562 5.656C13.2682 5.656 13.4802 5.684 13.6922 5.74C13.9082 5.792 14.1142 5.864 14.3102 5.956L14.0162 6.694C13.8562 6.618 13.6942 6.552 13.5302 6.496C13.3702 6.44 13.2122 6.412 13.0562 6.412Z" fill="white"/>
</svg>
