<svg width="32" height="32" viewBox="0 0 32 32" fill="none" xmlns="http://www.w3.org/2000/svg">
<path d="M4.5 27V5C4.5 3.067 6.067 1.5 8 1.5H19.5858C19.7184 1.5 19.8456 1.55268 19.9393 1.64645L27.3536 9.06066C27.4473 9.15443 27.5 9.2816 27.5 9.41421V27C27.5 28.933 25.933 30.5 24 30.5H8C6.067 30.5 4.5 28.933 4.5 27Z" stroke="#185ABD"/>
<path d="M20.5 2C20.5 1.72386 20.2761 1.5 20 1.5C19.7239 1.5 19.5 1.72386 19.5 2H20.5ZM27 9.5C27.2761 9.5 27.5 9.27614 27.5 9C27.5 8.72386 27.2761 8.5 27 8.5V9.5ZM19.5 2V7H20.5V2H19.5ZM22 9.5H27V8.5H22V9.5ZM19.5 7C19.5 8.38071 20.6193 9.5 22 9.5V8.5C21.1716 8.5 20.5 7.82843 20.5 7H19.5Z" fill="#185ABD"/>
<path d="M12.7646 20.088C12.7646 21.0533 12.4899 21.7813 11.9406 22.272C11.3913 22.7573 10.6259 23 9.64459 23H8.02859V17.288H9.82059C10.4179 17.288 10.9353 17.3947 11.3726 17.608C11.8153 17.8213 12.1566 18.136 12.3966 18.552C12.6419 18.968 12.7646 19.48 12.7646 20.088ZM11.5086 20.12C11.5086 19.4907 11.3699 19.0267 11.0926 18.728C10.8153 18.4293 10.4126 18.28 9.88459 18.28H9.23659V22H9.75659C10.9246 22 11.5086 21.3733 11.5086 20.12ZM19.1345 20.136C19.1345 20.728 19.0358 21.2453 18.8385 21.688C18.6465 22.1253 18.3478 22.4667 17.9425 22.712C17.5425 22.9573 17.0331 23.08 16.4145 23.08C15.7958 23.08 15.2838 22.9573 14.8785 22.712C14.4785 22.4667 14.1798 22.1227 13.9825 21.68C13.7905 21.2373 13.6945 20.72 13.6945 20.128C13.6945 19.536 13.7905 19.0213 13.9825 18.584C14.1798 18.1467 14.4785 17.808 14.8785 17.568C15.2838 17.3227 15.7985 17.2 16.4225 17.2C17.0411 17.2 17.5505 17.3227 17.9505 17.568C18.3505 17.808 18.6465 18.1493 18.8385 18.592C19.0358 19.0293 19.1345 19.544 19.1345 20.136ZM14.9665 20.136C14.9665 20.7333 15.0811 21.2053 15.3105 21.552C15.5398 21.8933 15.9078 22.064 16.4145 22.064C16.9318 22.064 17.3025 21.8933 17.5265 21.552C17.7505 21.2053 17.8625 20.7333 17.8625 20.136C17.8625 19.5387 17.7505 19.0693 17.5265 18.728C17.3025 18.3813 16.9345 18.208 16.4225 18.208C15.9105 18.208 15.5398 18.3813 15.3105 18.728C15.0811 19.0693 14.9665 19.5387 14.9665 20.136ZM22.7417 18.216C22.2777 18.216 21.923 18.3893 21.6777 18.736C21.4323 19.0827 21.3097 19.5573 21.3097 20.16C21.3097 20.768 21.4217 21.24 21.6457 21.576C21.875 21.9067 22.2403 22.072 22.7417 22.072C22.971 22.072 23.203 22.0453 23.4377 21.992C23.6723 21.9387 23.9257 21.864 24.1977 21.768V22.784C23.947 22.8853 23.699 22.96 23.4537 23.008C23.2083 23.056 22.9337 23.08 22.6297 23.08C22.0377 23.08 21.5523 22.96 21.1737 22.72C20.795 22.4747 20.515 22.1333 20.3337 21.696C20.1523 21.2533 20.0617 20.7387 20.0617 20.152C20.0617 19.576 20.1657 19.0667 20.3737 18.624C20.5817 18.1813 20.883 17.8347 21.2777 17.584C21.6777 17.3333 22.1657 17.208 22.7417 17.208C23.0243 17.208 23.307 17.2453 23.5897 17.32C23.8777 17.3893 24.1523 17.4853 24.4137 17.608L24.0217 18.592C23.8083 18.4907 23.5923 18.4027 23.3737 18.328C23.1603 18.2533 22.9497 18.216 22.7417 18.216Z" fill="#185ABD"/>
</svg>
