<svg width="32" height="32" viewBox="0 0 32 32" fill="none" xmlns="http://www.w3.org/2000/svg">
<path d="M20 1H8C5.79086 1 4 2.79086 4 5V27C4 29.2091 5.79086 31 8 31H24C26.2091 31 28 29.2091 28 27V9L20 1Z" fill="#E6F2F5"/>
<path d="M20 1H8C5.79086 1 4 2.79086 4 5V27C4 29.2091 5.79086 31 8 31H24C26.2091 31 28 29.2091 28 27V9H22C20.8954 9 20 8.10457 20 7V1Z" fill="#008196"/>
<path d="M9.88384 17.288C10.6198 17.288 11.1558 17.448 11.4918 17.768C11.8332 18.0827 12.0038 18.5173 12.0038 19.072C12.0038 19.408 11.9345 19.72 11.7958 20.008C11.6572 20.296 11.4252 20.528 11.0998 20.704C10.7798 20.88 10.3425 20.968 9.78784 20.968H9.26784V23H8.05984V17.288H9.88384ZM9.81984 18.28H9.26784V19.976H9.66784C10.0092 19.976 10.2785 19.9093 10.4758 19.776C10.6785 19.6373 10.7798 19.416 10.7798 19.112C10.7798 18.5573 10.4598 18.28 9.81984 18.28ZM18.1473 23H16.6113L14.1233 18.68H14.0913C14.1019 18.952 14.1126 19.224 14.1233 19.496C14.1393 19.768 14.1526 20.04 14.1633 20.312V23H13.0833V17.288H14.6113L17.0913 21.568H17.1153C17.1046 21.3067 17.0939 21.0453 17.0833 20.784C17.0726 20.5227 17.0646 20.2587 17.0593 19.992V17.288H18.1473V23ZM21.7591 19.792H24.0231V22.752C23.7244 22.8533 23.4124 22.9333 23.0871 22.992C22.7618 23.0507 22.3964 23.08 21.9911 23.08C21.1378 23.08 20.4818 22.8293 20.0231 22.328C19.5644 21.8267 19.3351 21.096 19.3351 20.136C19.3351 19.5387 19.4498 19.0213 19.6791 18.584C19.9084 18.1467 20.2444 17.808 20.6871 17.568C21.1351 17.328 21.6791 17.208 22.3191 17.208C22.6231 17.208 22.9218 17.24 23.2151 17.304C23.5084 17.368 23.7751 17.4533 24.0151 17.56L23.6151 18.528C23.4391 18.4373 23.2391 18.3627 23.0151 18.304C22.7911 18.2453 22.5564 18.216 22.3111 18.216C21.9591 18.216 21.6524 18.296 21.3911 18.456C21.1351 18.616 20.9351 18.8427 20.7911 19.136C20.6524 19.4293 20.5831 19.7707 20.5831 20.16C20.5831 20.5333 20.6338 20.864 20.7351 21.152C20.8364 21.44 20.9964 21.6667 21.2151 21.832C21.4338 21.992 21.7191 22.072 22.0711 22.072C22.2418 22.072 22.3858 22.064 22.5031 22.048C22.6204 22.032 22.7324 22.0133 22.8391 21.992V20.8H21.7591V19.792Z" fill="white"/>
</svg>
