<svg width="192" height="192" viewBox="0 0 192 192" fill="none" xmlns="http://www.w3.org/2000/svg">
<path d="M0 96C0 42.9807 42.9807 0 96 0C149.019 0 192 42.9807 192 96C192 149.019 149.019 192 96 192C42.9807 192 0 149.019 0 96Z" fill="white"/>
<mask id="mask0_23353_510494" style="mask-type:alpha" maskUnits="userSpaceOnUse" x="0" y="0" width="192" height="192">
<rect width="192" height="192" rx="96" fill="white"/>
</mask>
<g mask="url(#mask0_23353_510494)">
<path d="M79.3431 60H55C52.7909 60 51 61.7909 51 64V128C51 130.209 52.7909 132 55 132H137C139.209 132 141 130.209 141 128V70C141 67.7909 139.209 66 137 66H88.6569C87.596 66 86.5786 65.5786 85.8284 64.8284L82.1716 61.1716C81.4214 60.4214 80.404 60 79.3431 60Z" fill="#AFABED"/>
<rect x="61" y="70" width="72" height="41" fill="#EBEBEB"/>
<rect x="59" y="74" width="76" height="40" fill="#F7F7F7"/>
<rect x="57" y="78" width="80" height="40" fill="white"/>
<path d="M140.667 82H51.3329C48.9979 82 47.1594 83.9916 47.3456 86.3191L50.7066 128.319C50.8729 130.398 52.6084 132 54.6938 132H137.308C139.394 132 141.129 130.398 141.296 128.319L144.655 86.3189C144.841 83.9915 143.002 82 140.667 82Z" fill="#EBEAFA"/>
<path d="M95 99H97.4615V110.077H95V99ZM95 112.538H97.4615V115H95V112.538Z" fill="#372CD1"/>
</g>
</svg>
