<svg width="92" height="92" viewBox="0 0 92 92" fill="none" xmlns="http://www.w3.org/2000/svg">
<path d="M30.7966 11.5H6.875C4.66586 11.5 2.875 13.2909 2.875 15.5V76.5C2.875 78.7091 4.66586 80.5 6.875 80.5H85.125C87.3341 80.5 89.125 78.7091 89.125 76.5V21.25C89.125 19.0409 87.3341 17.25 85.125 17.25H38.2034C37.673 17.25 37.1643 17.0393 36.7892 16.6642L32.2108 12.0858C31.8357 11.7107 31.327 11.5 30.7966 11.5Z" fill="#F5A623"/>
<path d="M85.125 28.75H6.875C4.66586 28.75 2.875 30.5409 2.875 32.75V76.5C2.875 78.7091 4.66586 80.5 6.875 80.5H85.125C87.3341 80.5 89.125 78.7091 89.125 76.5V32.75C89.125 30.5409 87.3341 28.75 85.125 28.75Z" fill="#FDEDD3"/>
</svg>
