<svg width="64" height="64" viewBox="0 0 64 64" fill="none" xmlns="http://www.w3.org/2000/svg">
<path d="M1 76V4C1 2.34315 2.34315 1 4.00001 1L42.2524 0.999997L63 21.7475V76C63 77.6569 61.6569 79 60 79H4C2.34315 79 1 77.6569 1 76Z" fill="white" stroke="#C6C6C6" stroke-width="2"/>
<path d="M43.6667 2.66663C43.6667 2.11434 43.219 1.66663 42.6667 1.66663C42.1145 1.66663 41.6667 2.11434 41.6667 2.66663H43.6667ZM61.3334 22.3333C61.8857 22.3333 62.3334 21.8856 62.3334 21.3333C62.3334 20.781 61.8857 20.3333 61.3334 20.3333V22.3333ZM41.6667 2.66663V19.3333H43.6667V2.66663H41.6667ZM44.6667 22.3333H61.3334V20.3333H44.6667V22.3333ZM41.6667 19.3333C41.6667 20.9901 43.0099 22.3333 44.6667 22.3333V20.3333C44.1145 20.3333 43.6667 19.8856 43.6667 19.3333H41.6667Z" fill="#C6C6C6"/>
<line x1="14.3333" y1="33.6666" x2="49.6666" y2="33.6666" stroke="#C6C6C6" stroke-width="2" stroke-linecap="round"/>
<line x1="14.3333" y1="41.6666" x2="49.6666" y2="41.6666" stroke="#C6C6C6" stroke-width="2" stroke-linecap="round"/>
<line x1="14.3333" y1="49.6666" x2="49.6666" y2="49.6666" stroke="#C6C6C6" stroke-width="2" stroke-linecap="round"/>
</svg>
