<svg width="96" height="96" viewBox="0 0 96 96" fill="none" xmlns="http://www.w3.org/2000/svg">
<rect x="11.7385" y="11.7385" width="47.2615" height="64.9846" fill="#C6C6C6"/>
<rect x="11" y="11" width="47.2615" height="64.9846" fill="#EBEBEB"/>
<rect x="16.9077" y="16.9077" width="35.4462" height="0.738462" rx="0.369231" fill="#A6A6A6"/>
<rect x="21.3384" y="20.6001" width="26.5846" height="0.738462" rx="0.369231" fill="#A6A6A6"/>
<rect x="16.9077" y="27.2461" width="11.8154" height="0.738462" rx="0.369231" fill="#C6C6C6"/>
<rect x="16.9077" y="29.4614" width="8.86154" height="0.738462" rx="0.369231" fill="#C6C6C6"/>
<rect x="37.5847" y="27.2461" width="11.8154" height="0.738462" rx="0.369231" fill="#C6C6C6"/>
<rect x="37.5847" y="29.4614" width="8.86154" height="0.738462" rx="0.369231" fill="#C6C6C6"/>
<rect x="16.9077" y="31.677" width="11.8154" height="0.738462" rx="0.369231" fill="#C6C6C6"/>
<rect x="16.9077" y="33.8923" width="8.86154" height="0.738462" rx="0.369231" fill="#C6C6C6"/>
<rect x="37.5847" y="31.677" width="11.8154" height="0.738462" rx="0.369231" fill="#C6C6C6"/>
<rect x="37.5847" y="33.8923" width="8.86154" height="0.738462" rx="0.369231" fill="#C6C6C6"/>
<rect x="16.9077" y="36.1077" width="11.8154" height="0.738462" rx="0.369231" fill="#C6C6C6"/>
<rect x="16.9077" y="38.323" width="8.86154" height="0.738462" rx="0.369231" fill="#C6C6C6"/>
<rect x="16.9077" y="49.3999" width="35.4462" height="0.738462" rx="0.369231" fill="#C6C6C6"/>
<rect x="16.9077" y="51.6155" width="26.5846" height="0.738462" rx="0.369231" fill="#C6C6C6"/>
<rect x="37.5847" y="36.1077" width="11.8154" height="0.738462" rx="0.369231" fill="#C6C6C6"/>
<rect x="37.5847" y="38.323" width="8.86154" height="0.738462" rx="0.369231" fill="#C6C6C6"/>
<rect x="16.9077" y="40.5386" width="11.8154" height="0.738462" rx="0.369231" fill="#C6C6C6"/>
<rect x="16.9077" y="42.7539" width="8.86154" height="0.738462" rx="0.369231" fill="#C6C6C6"/>
<rect x="37.5847" y="40.5386" width="11.8154" height="0.738462" rx="0.369231" fill="#C6C6C6"/>
<rect x="37.5847" y="42.7539" width="8.86154" height="0.738462" rx="0.369231" fill="#C6C6C6"/>
<g clip-path="url(#clip0_9899_162007)">
<path d="M28.7231 68.8333H29.345V70.077H28.7231V68.8333Z" fill="#A6A6A6"/>
<path d="M28.7231 65.1021H29.345V66.3458H28.7231V65.1021Z" fill="#A6A6A6"/>
<path d="M28.7231 63.8582H29.345V64.48H28.7231V63.8582Z" fill="#A6A6A6"/>
<path d="M28.7231 61.9927H29.345V62.6145H28.7231V61.9927Z" fill="#A6A6A6"/>
<path d="M28.7231 58.2615H29.1377V61.3708H28.7231V58.2615Z" fill="#A6A6A6"/>
<path d="M28.7231 58.2615H31.8324V58.676H28.7231V58.2615Z" fill="#A6A6A6"/>
<path d="M31.418 58.2615H31.8325V61.3708H31.418V58.2615Z" fill="#A6A6A6"/>
<path d="M31.8324 60.9563H28.7231V61.3709H31.8324V60.9563Z" fill="#A6A6A6"/>
<path d="M38.051 61.9927H38.6729V62.6145H38.051V61.9927Z" fill="#A6A6A6"/>
<path d="M36.1855 61.3708H36.8074V61.9927H36.1855V61.3708Z" fill="#A6A6A6"/>
<path d="M34.9417 61.9927H35.5635V62.6145H34.9417V61.9927Z" fill="#A6A6A6"/>
<path d="M34.9417 63.2363H36.1854V63.8582H34.9417V63.2363Z" fill="#A6A6A6"/>
<path d="M38.051 63.8582H38.6729V64.48H38.051V63.8582Z" fill="#A6A6A6"/>
<path d="M37.4292 64.48H38.051V65.1018H37.4292V64.48Z" fill="#A6A6A6"/>
<path d="M36.1855 64.48H36.8074V65.1018H36.1855V64.48Z" fill="#A6A6A6"/>
<path d="M35.5637 65.1021H36.1856V65.7239H35.5637V65.1021Z" fill="#A6A6A6"/>
<path d="M37.4292 62.6145H38.051V63.8582H37.4292V62.6145Z" fill="#A6A6A6"/>
<path d="M37.4292 62.6145H36.8074V63.2363H37.4292V62.6145Z" fill="#A6A6A6"/>
<path d="M39.9167 65.7239H40.5386V66.3457H39.9167V65.7239Z" fill="#A6A6A6"/>
<path d="M38.051 65.1021H39.9166V65.7239H38.051V65.1021Z" fill="#A6A6A6"/>
<path d="M39.2949 61.9927H39.9168V63.2364H39.2949V61.9927Z" fill="#A6A6A6"/>
<path d="M39.9167 63.8582H40.5386V65.1019H39.9167V63.8582Z" fill="#A6A6A6"/>
<path d="M34.9417 58.2615H35.5635V58.8833H34.9417V58.2615Z" fill="#A6A6A6"/>
<path d="M33.698 59.5051H34.3199V60.127H33.698V59.5051Z" fill="#A6A6A6"/>
<path d="M33.0762 60.127H33.698V60.7488H33.0762V60.127Z" fill="#A6A6A6"/>
<path d="M33.698 60.749H34.9417V61.3709H33.698V60.749Z" fill="#A6A6A6"/>
<path d="M31.8325 61.9927H33.6981V62.6145H31.8325V61.9927Z" fill="#A6A6A6"/>
<path d="M33.0762 63.2363H34.3199V63.8582H33.0762V63.2363Z" fill="#A6A6A6"/>
<path d="M34.9417 61.9927H34.3198V63.8583H34.9417V61.9927Z" fill="#A6A6A6"/>
<path d="M34.3198 60.127H35.5636V60.7488H34.3198V60.127Z" fill="#A6A6A6"/>
<path d="M35.5637 58.8833H36.1856V59.5052H35.5637V58.8833Z" fill="#A6A6A6"/>
<path d="M34.9417 59.5051H36.8072V60.127H34.9417V59.5051Z" fill="#A6A6A6"/>
<path d="M36.1855 58.2615H36.8074V58.8833H36.1855V58.2615Z" fill="#A6A6A6"/>
<path d="M29.9668 61.9927H31.2105V62.6145H29.9668V61.9927Z" fill="#A6A6A6"/>
<path d="M33.0762 58.2615H34.3199V58.8833H33.0762V58.2615Z" fill="#A6A6A6"/>
<path d="M32.4543 58.8833H33.6981V59.5052H32.4543V58.8833Z" fill="#A6A6A6"/>
<path d="M29.9668 68.8333H30.5887V70.077H29.9668V68.8333Z" fill="#A6A6A6"/>
<path d="M30.5886 68.2112H31.2105V69.4549H30.5886V68.2112Z" fill="#A6A6A6"/>
<path d="M29.9668 67.5894H30.5887V68.2112H29.9668V67.5894Z" fill="#A6A6A6"/>
<path d="M29.9668 66.3457H30.5887V66.9676H29.9668V66.3457Z" fill="#A6A6A6"/>
<path d="M33.0762 66.3457H34.3199V66.9676H33.0762V66.3457Z" fill="#A6A6A6"/>
<path d="M33.698 67.5894H34.3199V66.9675H33.698V67.5894Z" fill="#A6A6A6"/>
<path d="M30.5886 65.1021H31.2105V65.7239H30.5886V65.1021Z" fill="#A6A6A6"/>
<path d="M31.8325 65.1021H32.4544V65.7239H31.8325V65.1021Z" fill="#A6A6A6"/>
<path d="M32.4543 61.3708H33.0762V65.102H32.4543V61.3708Z" fill="#A6A6A6"/>
<path d="M35.5637 60.749H36.1856V62.6146H35.5637V60.749Z" fill="#A6A6A6"/>
<path d="M32.4543 68.8333H33.0762V69.4551H32.4543V68.8333Z" fill="#A6A6A6"/>
<path d="M35.5637 68.8333H36.8074V69.4551H35.5637V68.8333Z" fill="#A6A6A6"/>
<path d="M35.5637 66.3457H36.8074V66.9676H35.5637V66.3457Z" fill="#A6A6A6"/>
<path d="M36.1855 65.7239H38.0511V66.3457H36.1855V65.7239Z" fill="#A6A6A6"/>
<path d="M33.698 65.1021H34.9417V65.7239H33.698V65.1021Z" fill="#A6A6A6"/>
<path d="M34.3198 64.48H35.5636V65.1018H34.3198V64.48Z" fill="#A6A6A6"/>
<path d="M35.5637 68.8331H36.1856V68.2112H35.5637V68.8331Z" fill="#A6A6A6"/>
<path d="M34.9417 67.5894H35.5635V66.9675H34.9417V67.5894Z" fill="#A6A6A6"/>
<path d="M33.0762 68.2112H34.9418V68.8331H33.0762V68.2112Z" fill="#A6A6A6"/>
<path d="M34.3198 67.5894H36.8073V68.2112H34.3198V67.5894Z" fill="#A6A6A6"/>
<path d="M29.7595 59.2979H30.796V60.3343H29.7595V59.2979Z" fill="#A6A6A6"/>
<path d="M37.4292 58.2615H37.8438V61.3708H37.4292V58.2615Z" fill="#A6A6A6"/>
<path d="M37.4292 58.2615H40.5385V58.676H37.4292V58.2615Z" fill="#A6A6A6"/>
<path d="M40.124 58.2615H40.5386V61.3708H40.124V58.2615Z" fill="#A6A6A6"/>
<path d="M40.5385 60.9563H37.4292V61.3709H40.5385V60.9563Z" fill="#A6A6A6"/>
<path d="M38.4656 59.2979H39.502V60.3343H38.4656V59.2979Z" fill="#A6A6A6"/>
<path d="M37.4292 66.9675H37.8438V70.0768H37.4292V66.9675Z" fill="#A6A6A6"/>
<path d="M37.4292 66.9675H40.5385V67.3821H37.4292V66.9675Z" fill="#A6A6A6"/>
<path d="M30.5886 65.7239H33.0761V66.1384H30.5886V65.7239Z" fill="#A6A6A6"/>
<path d="M30.5886 67.7966H33.0761V68.2112H30.5886V67.7966Z" fill="#A6A6A6"/>
<path d="M30.5886 68.2113V65.7239H31.0032V68.2113H30.5886Z" fill="#A6A6A6"/>
<path d="M32.6616 68.2113V65.7239H33.0762V68.2113H32.6616Z" fill="#A6A6A6"/>
<path d="M29.345 62.6145H31.8324V63.0291H29.345V62.6145Z" fill="#A6A6A6"/>
<path d="M29.345 64.6873H31.8324V65.1018H29.345V64.6873Z" fill="#A6A6A6"/>
<path d="M29.345 65.102V62.6145H29.7595V65.102H29.345Z" fill="#A6A6A6"/>
<path d="M31.418 65.102V62.6145H31.8325V65.102H31.418Z" fill="#A6A6A6"/>
<path d="M40.124 66.9675H40.5386V70.0768H40.124V66.9675Z" fill="#A6A6A6"/>
<path d="M40.5385 69.6624H37.4292V70.0769H40.5385V69.6624Z" fill="#A6A6A6"/>
<path d="M38.4656 68.0039H39.502V69.0403H38.4656V68.0039Z" fill="#A6A6A6"/>
</g>
<path opacity="0.2" d="M47.8369 10.8369C47.8369 9.73234 48.7323 8.83691 49.8369 8.83691H86.0002C87.1047 8.83691 88.0002 9.73234 88.0002 10.8369V33.6124C88.0002 34.717 87.1047 35.6124 86.0002 35.6124H49.8369C48.7323 35.6124 47.8369 34.717 47.8369 33.6124V10.8369Z" fill="#AFABED"/>
<path d="M47 10C47 8.89543 47.8954 8 49 8H85.1633C86.2678 8 87.1633 8.89543 87.1633 10V32.7755C87.1633 33.8801 86.2678 34.7755 85.1633 34.7755H49C47.8954 34.7755 47 33.8801 47 32.7755V10Z" fill="#AFABED"/>
<rect x="48.6736" y="13.0205" width="36.8163" height="0.836735" rx="0.418367" fill="white"/>
<rect x="62.0613" y="17.2041" width="10.0408" height="0.836735" rx="0.418367" fill="white"/>
<rect x="62.0613" y="19.7144" width="15.0612" height="0.836735" rx="0.418367" fill="white"/>
<rect x="62.0613" y="27.2449" width="10.0408" height="0.836735" rx="0.418367" fill="white"/>
<rect x="62.0613" y="29.7551" width="15.0612" height="0.836735" rx="0.418367" fill="white"/>
<rect x="62.0613" y="22.2244" width="10.0408" height="0.836735" rx="0.418367" fill="white"/>
<rect x="62.0613" y="24.7349" width="20.0816" height="0.836735" rx="0.418367" fill="white"/>
<rect x="50.3467" y="17.2041" width="6.69388" height="8.36735" rx="2" fill="white"/>
<rect x="37.719" y="24.719" width="46.0225" height="63.2809" fill="#C6C6C6"/>
<rect x="37" y="24" width="46.0225" height="63.2809" fill="white"/>
<rect x="42.7529" y="29.7529" width="17.2584" height="0.719101" rx="0.359551" fill="#A6A6A6"/>
<rect x="42.7529" y="31.9102" width="12.9438" height="0.719101" rx="0.359551" fill="#A6A6A6"/>
<rect width="34.5169" height="0.719101" rx="0.359551" transform="matrix(1 0 0 -1 42.7529 50.6069)" fill="#EBEBEB"/>
<rect width="34.5169" height="0.719101" rx="0.359551" transform="matrix(1 0 0 -1 42.7529 52.7642)" fill="#EBEBEB"/>
<rect width="34.5169" height="0.719101" rx="0.359551" transform="matrix(1 0 0 -1 42.7529 54.9214)" fill="#EBEBEB"/>
<rect width="34.5169" height="0.719101" rx="0.359551" transform="matrix(1 0 0 -1 42.7529 57.0786)" fill="#EBEBEB"/>
<rect width="34.5169" height="0.719101" rx="0.359551" transform="matrix(1 0 0 -1 42.7529 48.4497)" fill="#EBEBEB"/>
<rect width="17.2584" height="0.719101" rx="0.359551" transform="matrix(1 0 0 -1 42.7529 46.292)" fill="#EBEBEB"/>
<path d="M68.5549 38.6839L66.5817 43.79C66.5722 43.8138 66.5702 43.8399 66.5758 43.8649C66.5815 43.8898 66.5946 43.9125 66.6134 43.9299C66.6323 43.9472 66.6559 43.9585 66.6813 43.9621C66.7066 43.9658 66.7325 43.9616 66.7554 43.9503L68.3945 43.1514C68.4106 43.1433 68.4282 43.1387 68.4462 43.1378C68.4642 43.137 68.4822 43.14 68.499 43.1466C68.5157 43.1533 68.5309 43.1634 68.5435 43.1763C68.556 43.1892 68.5657 43.2047 68.5718 43.2216L69.1979 44.8882C69.2074 44.9127 69.2244 44.9336 69.2464 44.9481C69.2684 44.9625 69.2943 44.9697 69.3206 44.9687C69.3469 44.9677 69.3722 44.9586 69.393 44.9425C69.4139 44.9265 69.4292 44.9043 69.4369 44.8792L71.2661 39.3828L68.5549 38.6839Z" fill="#AFABED"/>
<path d="M71.4044 39.4176L72.6418 44.7497C72.6475 44.7746 72.6607 44.7972 72.6795 44.8145C72.6983 44.8318 72.7219 44.8431 72.7472 44.8469C72.7724 44.8506 72.7983 44.8467 72.8213 44.8356C72.8443 44.8245 72.8635 44.8067 72.8763 44.7845L73.7828 43.2035C73.7916 43.1882 73.8035 43.1748 73.8178 43.1643C73.832 43.1538 73.8483 43.1464 73.8656 43.1426C73.8829 43.1387 73.9008 43.1385 73.9181 43.142C73.9355 43.1454 73.9519 43.1524 73.9664 43.1626L75.4209 44.19C75.4424 44.205 75.468 44.213 75.4942 44.2129C75.5204 44.2128 75.5459 44.2046 75.5673 44.1895C75.5887 44.1744 75.6049 44.153 75.6137 44.1284C75.6226 44.1037 75.6236 44.0769 75.6166 44.0517L74.0391 38.4773L71.4044 39.4176Z" fill="#AFABED"/>
<g opacity="0.3">
<path d="M68.5549 38.6839L66.5817 43.79C66.5722 43.8138 66.5702 43.8399 66.5758 43.8649C66.5815 43.8898 66.5946 43.9125 66.6134 43.9299C66.6323 43.9472 66.6559 43.9585 66.6813 43.9621C66.7066 43.9658 66.7325 43.9616 66.7554 43.9503L68.3945 43.1514C68.4106 43.1433 68.4282 43.1387 68.4462 43.1378C68.4642 43.137 68.4822 43.14 68.499 43.1466C68.5157 43.1533 68.5309 43.1634 68.5435 43.1763C68.556 43.1892 68.5657 43.2047 68.5718 43.2216L69.1979 44.8882C69.2074 44.9127 69.2244 44.9336 69.2464 44.9481C69.2684 44.9625 69.2943 44.9697 69.3206 44.9687C69.3469 44.9677 69.3722 44.9586 69.393 44.9425C69.4139 44.9265 69.4292 44.9043 69.4369 44.8792L71.2661 39.3828L68.5549 38.6839Z" fill="black"/>
</g>
<g opacity="0.3">
<path d="M71.4044 39.4176L72.6418 44.7497C72.6475 44.7746 72.6607 44.7972 72.6795 44.8145C72.6983 44.8318 72.7219 44.8431 72.7472 44.8469C72.7724 44.8506 72.7983 44.8467 72.8213 44.8356C72.8443 44.8245 72.8635 44.8067 72.8763 44.7845L73.7828 43.2035C73.7916 43.1882 73.8035 43.1748 73.8178 43.1643C73.832 43.1538 73.8483 43.1464 73.8656 43.1426C73.8829 43.1387 73.9008 43.1385 73.9181 43.142C73.9355 43.1454 73.9519 43.1524 73.9664 43.1626L75.4209 44.19C75.4424 44.205 75.468 44.213 75.4942 44.2129C75.5204 44.2128 75.5459 44.2046 75.5673 44.1895C75.5887 44.1744 75.6049 44.153 75.6137 44.1284C75.6226 44.1037 75.6236 44.0769 75.6166 44.0517L74.0391 38.4773L71.4044 39.4176Z" fill="black"/>
</g>
<path d="M71.1465 29.7696L71.8368 29.2213L72.4207 29.8815L73.2256 29.5228L73.6263 30.3078L74.496 30.1598L74.6882 31.0199L75.5669 31.0926L75.5398 31.974L76.3726 32.2623L76.1276 33.1092L76.8621 33.5969L76.4147 34.3561L77.0052 35.01L76.3815 35.6344L76.7917 36.4146L76.033 36.8642L76.2356 37.7221L75.3889 37.9688L75.3714 38.8499L74.4903 38.8787L74.2541 39.7278L73.3935 39.5366L72.9532 40.3L72.1678 39.9006L71.5513 40.5309L70.8901 39.9487L70.1369 40.4059L69.6405 39.6778L68.7967 39.9331L68.4974 39.1041L67.6166 39.1416L67.533 38.2644L66.6701 38.082L66.8077 37.2112L66.0174 36.8199L66.3669 36.0111L65.6989 35.4353L66.2387 34.7389L65.7354 34.0154L66.4313 33.4739L66.1224 32.6479L66.9321 32.2978L66.8388 31.4209L67.7096 31.2824L67.8367 30.4103L68.715 30.4926L69.0556 29.6797L69.8852 29.9769L70.4169 29.2748L71.1465 29.7696Z" fill="#AFABED"/>
<path d="M74.267 37.6052C75.7667 35.9883 75.6716 33.4617 74.0547 31.962C72.4377 30.4623 69.9112 30.5574 68.4115 32.1743C66.9118 33.7913 67.0068 36.3178 68.6238 37.8175C70.2407 39.3172 72.7673 39.2222 74.267 37.6052Z" fill="white"/>
<rect x="42.7529" y="61.3928" width="4.31461" height="4.31461" fill="#EBEBEB"/>
<path fill-rule="evenodd" clip-rule="evenodd" d="M49.9436 60.5947L45.2602 64.9883L43.4717 63.3104L44.154 62.6703L45.2602 63.7081L49.2613 59.9546L49.9436 60.5947Z" fill="#AFABED"/>
<rect x="52.8201" y="62.8313" width="24.4494" height="1.4382" rx="0.719101" fill="#C6C6C6"/>
<rect x="42.7529" y="67.8652" width="4.31461" height="4.31461" fill="#EBEBEB"/>
<path fill-rule="evenodd" clip-rule="evenodd" d="M49.9436 67.0669L45.2602 71.4605L43.4717 69.7826L44.154 69.1425L45.2602 70.1803L49.2613 66.4268L49.9436 67.0669Z" fill="#AFABED"/>
<rect x="52.8201" y="69.303" width="24.4494" height="1.4382" rx="0.719101" fill="#C6C6C6"/>
<rect x="42.7529" y="75.0559" width="4.31461" height="4.31461" fill="#EBEBEB"/>
<path fill-rule="evenodd" clip-rule="evenodd" d="M49.9436 74.2575L45.2602 78.6511L43.4717 76.9732L44.154 76.3331L45.2602 77.3709L49.2613 73.6174L49.9436 74.2575Z" fill="#AFABED"/>
<rect x="52.8201" y="76.4941" width="24.4494" height="1.4382" rx="0.719101" fill="#C6C6C6"/>
<path d="M8 35H43.2982C45.5074 35 47.2982 36.7909 47.2982 39V80.1228C47.2982 82.3319 45.5074 84.1228 43.2982 84.1228H8V35Z" fill="#455A64"/>
<path d="M8.7019 35.7019H44.0001C46.2093 35.7019 48.0001 37.4928 48.0001 39.7019V80.8247C48.0001 83.0338 46.2093 84.8247 44.0001 84.8247H8.7019V35.7019Z" fill="#455A64" fill-opacity="0.2"/>
<rect x="8" y="84.123" width="49.1228" height="2.80702" transform="rotate(-90 8 84.123)" fill="#2A363D"/>
<path d="M31.1565 68.3764C30.4724 68.5556 29.7682 68.6465 29.061 68.6468C27.9459 68.6482 26.8423 68.422 25.8178 67.9819C24.7932 67.5419 23.8693 66.8973 23.1026 66.0876C21.5111 64.4218 20.6261 62.2046 20.633 59.9008C20.5912 57.6243 21.4534 55.424 23.0307 53.782C24.608 52.1399 26.7717 51.19 29.0481 51.1401C30.1641 51.1401 31.2684 51.3679 32.2934 51.8094C33.3184 52.2509 34.2425 52.8969 35.0092 53.7079C36.5898 55.3782 37.4716 57.59 37.4737 59.8896C37.4758 62.1893 36.5981 64.4026 35.0206 66.0759C33.9664 67.1807 32.6301 67.9762 31.1565 68.3764ZM27.1251 51.9985C25.4122 52.4866 23.9077 53.5251 22.844 54.9536C21.7802 56.3821 21.2164 58.1212 21.2398 59.9021C21.2298 62.0488 22.054 64.1155 23.5385 65.6662C24.2486 66.4178 25.1048 67.0165 26.0545 67.4255C27.0043 67.8345 28.0275 68.0451 29.0616 68.0445C30.0956 68.0439 31.1187 67.8321 32.068 67.422C33.0172 67.012 33.8727 66.4123 34.582 65.6599C36.0625 64.1056 36.8816 62.037 36.8664 59.8904C36.8794 57.744 36.0583 55.6764 34.5762 54.1236C33.8638 53.375 33.007 52.7787 32.0575 52.3707C31.1081 51.9627 30.0858 51.7514 29.0524 51.7497C28.4019 51.7481 27.7539 51.8317 27.1251 51.9985Z" fill="#EBEBEB"/>
<path d="M37.1589 59.37L20.8156 59.3812L20.816 59.9863L37.1593 59.9751L37.1589 59.37Z" fill="#EBEBEB"/>
<path d="M29.129 51.458L28.5239 51.4583L28.5325 68.3429L29.1376 68.3426L29.129 51.458Z" fill="#EBEBEB"/>
<path d="M29.0164 68.524L28.6036 68.0853C30.1911 66.6901 31.4782 64.9865 32.3867 63.0782C33.2474 60.9868 33.3381 58.6579 32.6429 56.5058C31.9303 54.5212 30.266 52.9887 28.7941 51.6397L29.2074 51.1925C30.7245 52.593 32.4511 54.1716 33.2168 56.3047C33.9728 58.5972 33.8767 61.0854 32.9463 63.3128C31.996 65.294 30.66 67.0657 29.0164 68.524Z" fill="#EBEBEB"/>
<path d="M28.6399 68.5756C26.8885 67.2409 25.4734 65.5154 24.5075 63.5366C23.5744 61.3049 23.4754 58.812 24.2284 56.5132C24.9865 54.3907 26.907 52.6522 28.4151 51.2327L28.825 51.677C27.3342 53.0625 25.5111 54.7361 24.7967 56.7166C24.1075 58.8701 24.2045 61.1982 25.0703 63.287C25.9998 65.1845 27.3622 66.837 29.0476 68.1112L28.6399 68.5756Z" fill="#EBEBEB"/>
<path d="M33.3283 55.8185C29.6643 56.7829 25.789 56.5627 22.2579 55.1894L22.4782 54.6298C26.6617 56.2419 31.3069 56.1719 35.44 54.4345L35.6726 54.9887C34.9127 55.3228 34.1291 55.6002 33.3283 55.8185Z" fill="#EBEBEB"/>
<path d="M35.5284 65.1194C30.9064 63.3186 26.1134 63.1886 22.3737 64.7807L22.1355 64.2236C26.0235 62.5927 30.9734 62.6952 35.743 64.5569L35.5284 65.1194Z" fill="#EBEBEB"/>
<rect opacity="0.6" width="96" height="96" fill="white"/>
<g clip-path="url(#clip1_9899_162007)">
<path d="M32 37.3345C32 34.3906 34.3906 32 37.3345 32H58.6655C61.6094 32 64 34.3906 64 37.3345V58.6655C64 61.6094 61.6094 64 58.6655 64H37.3345C34.3906 64 32 61.6094 32 58.6655V37.3345Z" fill="#372CD1"/>
<path d="M42.6689 53.3311L53.3311 42.669H64L64 58.6655C64 61.6094 61.6094 64 58.6655 64L42.6689 64.0001V53.3311Z" fill="#AAA6E8"/>
<path d="M51.3298 53.3311H42.6621L53.3242 42.669V51.3367C53.3242 52.4432 52.4295 53.338 51.3229 53.338L51.3298 53.3311Z" fill="white"/>
</g>
<defs>
<clipPath id="clip0_9899_162007">
<rect width="11.8154" height="11.8154" fill="white" transform="translate(28.7231 58.2615)"/>
</clipPath>
<clipPath id="clip1_9899_162007">
<rect width="32" height="32" fill="white" transform="translate(32 32)"/>
</clipPath>
</defs>
</svg>
