<svg width="96" height="96" viewBox="0 0 96 96" fill="none" xmlns="http://www.w3.org/2000/svg">
<g clip-path="url(#clip0_9899_162327)">
<rect width="96" height="96" rx="4" fill="white"/>
<path d="M88 8H8V161.924H88V8Z" fill="#EBEBEB"/>
<path d="M9.86035 13.5972C9.86035 11.5364 11.5263 9.86572 13.5813 9.86572H82.4185C84.4736 9.86572 86.1394 11.5364 86.1394 13.5972V30.3889H9.86035V13.5972Z" fill="white"/>
<path d="M15.8128 13.5972H14.9768V22.9259H15.8128V13.5972Z" fill="#6B6B6B"/>
<path d="M18.739 13.5972H17.0669V22.9259H18.739V13.5972Z" fill="#6B6B6B"/>
<path d="M22.501 13.5972H19.9929V22.9259H22.501V13.5972Z" fill="#6B6B6B"/>
<path d="M26.2632 13.5972H23.7551V22.9259H26.2632V13.5972Z" fill="#6B6B6B"/>
<path d="M28.3534 13.5972H27.5173V22.9259H28.3534V13.5972Z" fill="#6B6B6B"/>
<path d="M30.4435 13.5972H29.6074V22.9259H30.4435V13.5972Z" fill="#6B6B6B"/>
<path d="M32.5335 13.5972H31.6975V22.9259H32.5335V13.5972Z" fill="#6B6B6B"/>
<path d="M34.6234 13.5972H33.7874V22.9259H34.6234V13.5972Z" fill="#6B6B6B"/>
<path d="M38.3855 13.5972H35.8774V22.9259H38.3855V13.5972Z" fill="#6B6B6B"/>
<path d="M42.1477 13.5972H39.6396V22.9259H42.1477V13.5972Z" fill="#6B6B6B"/>
<path d="M45.9099 13.5972H43.4019V22.9259H45.9099V13.5972Z" fill="#6B6B6B"/>
<path d="M48.8359 13.5972H47.1638V22.9259H48.8359V13.5972Z" fill="#6B6B6B"/>
<path d="M50.9261 13.5972H50.0901V22.9259H50.9261V13.5972Z" fill="#6B6B6B"/>
<path d="M54.6883 13.5972H52.1802V22.9259H54.6883V13.5972Z" fill="#6B6B6B"/>
<path d="M57.6144 13.5972H55.9424V22.9259H57.6144V13.5972Z" fill="#6B6B6B"/>
<path d="M60.5405 13.5972H58.8684V22.9259H60.5405V13.5972Z" fill="#6B6B6B"/>
<path d="M63.4665 13.5972H61.7944V22.9259H63.4665V13.5972Z" fill="#6B6B6B"/>
<path d="M65.5567 13.5972H64.7207V22.9259H65.5567V13.5972Z" fill="#6B6B6B"/>
<path d="M69.3189 13.5972H66.8108V22.9259H69.3189V13.5972Z" fill="#6B6B6B"/>
<path d="M73.0809 13.5972H70.5728V22.9259H73.0809V13.5972Z" fill="#6B6B6B"/>
<path d="M75.171 13.5972H74.335V22.9259H75.171V13.5972Z" fill="#6B6B6B"/>
<path d="M78.9331 13.5972H76.425V22.9259H78.9331V13.5972Z" fill="#6B6B6B"/>
<path d="M81.0233 13.5972H80.1873V22.9259H81.0233V13.5972Z" fill="#6B6B6B"/>
<path d="M82.4185 26.6575H13.5813C11.5263 26.6575 9.86035 28.3281 9.86035 30.389V139.535C9.86035 141.596 11.5263 143.267 13.5813 143.267H82.4185C84.4735 143.267 86.1394 141.596 86.1394 139.535V30.389C86.1394 28.3281 84.4735 26.6575 82.4185 26.6575Z" fill="#D3F2E4"/>
<path d="M29.8605 40.6506H16.8373C15.8098 40.6506 14.9768 41.486 14.9768 42.5164V59.7745C14.9768 60.805 15.8098 61.6403 16.8373 61.6403H29.8605C30.888 61.6403 31.721 60.805 31.721 59.7745V42.5164C31.721 41.486 30.888 40.6506 29.8605 40.6506Z" fill="white"/>
<path d="M23.3493 53.2447C25.6615 53.2447 27.5355 51.3655 27.5355 49.0468C27.5355 46.7279 25.6615 44.8486 23.3493 44.8486C21.0371 44.8486 19.1631 46.7279 19.1631 49.0468C19.1603 50.1606 19.6006 51.2304 20.3862 52.0182C21.1718 52.806 22.2379 53.2475 23.3493 53.2447Z" fill="#EBEBEB"/>
<path d="M23.3492 54.1775C18.2609 54.1775 14.9768 56.3793 14.9768 59.775V60.7076C14.9768 61.2225 15.3933 61.6402 15.9069 61.6402H30.7909C31.3045 61.6402 31.721 61.2225 31.721 60.7076V59.775C31.721 56.3793 28.4376 54.1775 23.3492 54.1775Z" fill="#EBEBEB"/>
<path d="M86.1394 32.2546H9.86035V36.919H86.1394V32.2546Z" fill="#E6FCF8"/>
<path d="M48.465 40.6506H39.1627C38.6489 40.6506 38.2324 41.0683 38.2324 41.5835C38.2324 42.0987 38.6489 42.5164 39.1627 42.5164H48.465C48.9787 42.5164 49.3952 42.0987 49.3952 41.5835C49.3952 41.0683 48.9787 40.6506 48.465 40.6506Z" fill="#C6C6C6"/>
<path d="M74.5115 45.7812H39.1627C38.6489 45.7812 38.2324 46.1989 38.2324 46.7141C38.2324 47.2293 38.6489 47.647 39.1627 47.647H74.5115C75.0252 47.647 75.4417 47.2293 75.4417 46.7141C75.4417 46.1989 75.0252 45.7812 74.5115 45.7812Z" fill="#A6A6A6"/>
<path d="M52.1859 40.6506H39.1627C38.6489 40.6506 38.2324 41.0683 38.2324 41.5835C38.2324 42.0987 38.6489 42.5164 39.1627 42.5164H52.1859C52.6997 42.5164 53.1161 42.0987 53.1161 41.5835C53.1161 41.0683 52.6997 40.6506 52.1859 40.6506Z" fill="#C6C6C6"/>
<path d="M65.2092 58.3752H39.1627C38.6489 58.3752 38.2324 58.7929 38.2324 59.3081C38.2324 59.8233 38.6489 60.241 39.1627 60.241H65.2092C65.7229 60.241 66.1394 59.8233 66.1394 59.3081C66.1394 58.7929 65.7229 58.3752 65.2092 58.3752Z" fill="#A6A6A6"/>
<path d="M52.1859 53.2444H39.1627C38.6489 53.2444 38.2324 53.662 38.2324 54.1773C38.2324 54.6925 38.6489 55.1101 39.1627 55.1101H52.1859C52.6997 55.1101 53.1161 54.6925 53.1161 54.1773C53.1161 53.662 52.6997 53.2444 52.1859 53.2444Z" fill="#C6C6C6"/>
<path d="M74.5115 70.969H39.1627C38.6489 70.969 38.2324 71.3867 38.2324 71.9019C38.2324 72.4171 38.6489 72.8347 39.1627 72.8347H74.5115C75.0252 72.8347 75.4417 72.4171 75.4417 71.9019C75.4417 71.3867 75.0252 70.969 74.5115 70.969Z" fill="#A6A6A6"/>
<path d="M52.1859 65.8381H39.1627C38.6489 65.8381 38.2324 66.2558 38.2324 66.771C38.2324 67.2862 38.6489 67.7039 39.1627 67.7039H52.1859C52.6997 67.7039 53.1161 67.2862 53.1161 66.771C53.1161 66.2558 52.6997 65.8381 52.1859 65.8381Z" fill="#C6C6C6"/>
<path d="M65.2092 83.5627H39.1627C38.6489 83.5627 38.2324 83.9804 38.2324 84.4956C38.2324 85.0108 38.6489 85.4285 39.1627 85.4285H65.2092C65.7229 85.4285 66.1394 85.0108 66.1394 84.4956C66.1394 83.9804 65.7229 83.5627 65.2092 83.5627Z" fill="#A6A6A6"/>
<path d="M52.1859 78.4319H39.1627C38.6489 78.4319 38.2324 78.8495 38.2324 79.3648C38.2324 79.88 38.6489 80.2976 39.1627 80.2976H52.1859C52.6997 80.2976 53.1161 79.88 53.1161 79.3648C53.1161 78.8495 52.6997 78.4319 52.1859 78.4319Z" fill="#C6C6C6"/>
<path d="M52.1859 91.0256H39.1627C38.6489 91.0256 38.2324 91.4433 38.2324 91.9585C38.2324 92.4737 38.6489 92.8914 39.1627 92.8914H52.1859C52.6997 92.8914 53.1161 92.4737 53.1161 91.9585C53.1161 91.4433 52.6997 91.0256 52.1859 91.0256Z" fill="#C6C6C6"/>
</g>
<defs>
<clipPath id="clip0_9899_162327">
<rect width="96" height="96" rx="4" fill="white"/>
</clipPath>
</defs>
</svg>
