<svg width="204" height="128" viewBox="0 0 204 128" fill="none" xmlns="http://www.w3.org/2000/svg">
<path d="M40.7059 101.647L204 128H121.176H0.705887L40.7059 101.647Z" fill="#BFBFBF"/>
<path d="M121.331 117.018L93.7155 108.177C93.6386 108.154 93.5619 108.142 93.4791 108.148L71.5547 109.773C67.7016 100.436 62.8736 88.7645 60.6811 83.4341C60.3148 82.5595 59.7238 81.7972 58.9733 81.224C58.2169 80.6507 57.3245 80.2843 56.3849 80.1661L32.6403 77.0636C32.3566 77.0282 32.073 77.0695 31.8129 77.1818C31.5529 77.2941 31.3224 77.4713 31.1511 77.6959C30.9797 77.9205 30.8734 78.1923 30.8379 78.4701C30.8025 78.7538 30.8438 79.0374 30.9502 79.3034L44.3176 110.476C44.4949 110.89 44.7549 111.262 45.0858 111.569C45.4109 111.877 45.8008 112.113 46.2263 112.261L73.3808 123.099C74.0013 123.347 74.6749 123.436 75.3368 123.359L77.0742 123.17C83.0901 122.544 111.149 119.471 120.444 118.495C120.592 118.49 120.633 118.602 120.74 118.495C120.846 118.395 121.018 118.052 121.035 117.904C121.053 117.757 121.118 117.727 121.035 117.609C120.947 117.479 121.331 117.018 121.331 117.018Z" fill="#DDDDDD"/>
<path d="M84.096 111.404L96.3294 116.203L109.589 114.319L97.3925 110.223L84.096 111.404Z" fill="#BFBFBF"/>
<path d="M77.4715 120.133L98.3381 118.248L78.4112 110.347L72.0052 110.831L75.3913 118.998L77.4715 120.133Z" fill="#BFBFBF"/>
<path d="M120.147 117.308L120.005 117.332L119.58 117.385L117.954 117.551L111.921 118.142L92.0293 119.997L76.3927 121.41H76.3277L76.304 121.35L72.841 112.9L71.8896 110.536C71.7832 110.264 71.7005 110.057 71.6473 109.915C71.6177 109.845 71.5941 109.774 71.5704 109.697C71.5704 109.697 71.6059 109.768 71.6709 109.904L71.9368 110.518L72.9297 112.858C73.7806 114.885 74.998 117.793 76.4636 121.285L76.3749 121.226L92.0057 119.779L111.921 117.982L117.943 117.468L119.568 117.338L119.993 117.308H120.147Z" fill="black"/>
<path d="M31.6417 78.1865H31.8189L32.3449 78.2456L34.3778 78.5115L41.8238 79.528C44.9677 79.9653 48.7262 80.4971 52.8629 81.1058L56.0481 81.5963L56.8577 81.7323C56.9936 81.75 57.1355 81.7854 57.2655 81.815C57.3364 81.815 57.4073 81.8445 57.4782 81.8622C57.821 81.9982 58.1342 82.205 58.3942 82.465C58.5006 82.5773 58.5833 82.7073 58.6424 82.8492L58.8019 83.2569C59.6529 85.3784 60.5276 87.5708 61.4258 89.8165C65.0129 98.8108 68.2572 106.954 70.6151 112.858C71.7793 115.801 72.7249 118.188 73.3808 119.843C73.694 120.653 73.9422 121.303 74.1195 121.752C74.2023 121.964 74.2613 122.124 74.3086 122.248C74.3322 122.301 74.3499 122.36 74.3677 122.419C74.3381 122.366 74.3145 122.313 74.2908 122.254L74.084 121.764L73.3099 119.878C72.6421 118.224 71.6848 115.848 70.4674 112.911L61.2603 89.8992C60.3562 87.6536 59.4815 85.4552 58.6305 83.3396L58.471 82.9318C58.4238 82.8136 58.3528 82.7014 58.2642 82.6069C58.081 82.4118 57.8623 82.2523 57.62 82.14C57.5609 82.1104 57.496 82.0868 57.431 82.0631L57.2359 82.0159C57.1059 81.9864 56.9759 81.9568 56.8282 81.9391L56.0186 81.7972L52.8333 81.295L41.8061 79.6698L34.366 78.5883L32.339 78.2869L31.813 78.2042L31.6417 78.1865Z" fill="black"/>
<path d="M54.1519 98.1319C56.2911 101.004 56.7225 104.301 55.121 105.501C53.5196 106.701 50.4702 105.359 48.3251 102.487C46.1858 99.6152 45.7544 96.3236 47.3559 95.118C48.9574 93.9066 52.0126 95.2658 54.1519 98.1319Z" fill="white"/>
<path d="M181.063 73.6658C179.704 65.9538 171.176 61.303 168.357 58.7383L172.594 64.3996C174.763 73.3348 175.585 82.5478 175.029 91.7313C174.97 92.7359 175.082 94.0833 175.797 94.2251C176.057 94.2488 176.311 94.166 176.512 94.0006C179.012 92.3991 180.637 88.7233 180.998 84.9412C181.358 81.1591 181.683 77.2352 181.063 73.6658Z" fill="#ACA8EA"/>
<path d="M174.814 65.0258C174.406 64.2517 174.571 61.7815 172.379 64.358L172.237 63.3889L158.663 52.9585L128.412 54.5305C125.51 54.7137 121.149 59.7368 120.062 61.8406C119.169 69.6471 118.992 76.5789 118.992 76.5789C118.992 76.5789 117.952 85.2601 118.992 89.3613C120.032 93.4625 121.261 94.9459 122.869 98.137C124.045 100.318 125.51 102.327 127.23 104.112L128.642 115.074L160.241 117.916L174.707 117.107C174.707 117.107 173.413 95.4896 173.413 95.1054C173.413 94.9282 175.221 90.756 177.16 86.3239C180.457 78.7419 178.602 72.3418 174.814 65.0258Z" fill="#455A64"/>
<path d="M95.4599 104.342C95.6194 104.342 97.1972 93.6697 98.2314 91.2468C99.2065 88.9598 120.067 61.835 120.067 61.835L124.978 77.6667L122.874 86.135L111.504 99.8097L108.295 109.726L95.4599 104.342Z" fill="#455A64"/>
<path d="M179.021 73.1398C177.526 63.6432 170.127 64.0569 170.127 64.0569L162.776 76.851V103.302L127.307 106.369L126.651 115.275C126.651 115.275 161.99 123.353 170.157 120.647C175.558 118.856 180.126 114.335 180.623 106.954C181.119 99.5673 180.522 82.6365 179.021 73.1398Z" fill="#455A64"/>
<path d="M111.546 99.7978C111.445 99.195 111.309 98.5922 111.138 98.0012C110.695 96.583 109.891 95.3006 108.804 94.2842C107.716 93.2677 106.393 92.5468 104.951 92.1922C104.348 92.0563 103.745 91.9558 103.131 91.8849C103.296 91.8671 103.467 91.8671 103.633 91.8849C104.088 91.9026 104.543 91.9617 104.986 92.0622C106.47 92.3872 107.835 93.1141 108.94 94.1542C110.045 95.1943 110.848 96.5121 111.262 97.9717C111.392 98.409 111.475 98.8582 111.522 99.3132C111.552 99.4728 111.558 99.6323 111.546 99.7978Z" fill="black"/>
<path d="M128.523 106.003C128.576 105.991 128.623 105.979 128.676 105.974L129.125 105.909L130.863 105.678L137.263 104.868L158.372 102.304L163.064 101.742L162.969 101.843C163.241 94.6508 163.377 88.3099 163.324 83.7655C163.324 81.4962 163.277 79.6761 163.247 78.4174C163.247 77.8028 163.218 77.3181 163.212 76.9813V76.609C163.212 76.5263 163.212 76.4849 163.212 76.479C163.218 76.5204 163.218 76.5676 163.212 76.609C163.212 76.7035 163.212 76.8217 163.235 76.9754C163.235 77.3181 163.277 77.785 163.306 78.4174C163.359 79.6702 163.418 81.4903 163.448 83.7655C163.519 88.3099 163.424 94.6567 163.158 101.849V101.937H163.07L158.378 102.499L137.245 105.004L130.839 105.737L129.096 105.926L128.641 105.974L128.523 106.003Z" fill="black"/>
<path d="M180.466 106.353C180.472 106.407 180.472 106.46 180.466 106.52C180.466 106.633 180.466 106.793 180.443 106.996C180.407 107.609 180.336 108.216 180.234 108.817C180.074 109.775 179.842 110.715 179.539 111.632C179.123 112.846 178.564 114.006 177.874 115.089C177.036 116.411 175.978 117.571 174.741 118.529C173.326 119.63 171.685 120.416 169.937 120.82C168.998 121.047 168.041 121.207 167.078 121.297C166.073 121.386 165.068 121.422 164.064 121.41C161.953 121.368 159.849 121.172 157.768 120.82L145.717 118.839L140.462 117.964L135.884 117.119C133.096 116.595 130.831 116.196 129.261 115.964L127.454 115.696L126.984 115.631C126.931 115.625 126.877 115.613 126.824 115.595H126.984L127.46 115.643C127.87 115.69 128.488 115.756 129.279 115.869C130.854 116.083 133.12 116.458 135.914 116.958L140.485 117.773L145.747 118.63L157.798 120.6C159.872 120.951 161.965 121.154 164.07 121.201C165.092 121.201 166.085 121.172 167.066 121.094C168.017 121.005 168.963 120.85 169.89 120.63C171.614 120.231 173.231 119.464 174.634 118.38C175.859 117.44 176.911 116.298 177.743 115C178.433 113.929 178.998 112.786 179.42 111.584C179.729 110.674 179.979 109.739 180.151 108.793C180.288 108.013 180.365 107.4 180.395 106.984L180.443 106.508C180.448 106.46 180.454 106.407 180.466 106.353Z" fill="black"/>
<path d="M127.567 106.659C127.549 106.606 127.538 106.547 127.532 106.494C127.514 106.37 127.484 106.204 127.455 105.997C127.39 105.542 127.295 104.91 127.183 104.106V104.136L124.494 101.157C123.968 100.413 123.495 99.6268 123.076 98.8172C122.609 97.8953 122.189 96.9439 121.835 95.9747C121.043 93.7823 120.499 91.5071 120.21 89.1906C119.926 86.6849 119.867 84.1615 120.038 81.6441C120.162 79.3275 120.405 77.2533 120.629 75.5159C120.854 73.7785 121.072 72.3779 121.226 71.4087L121.409 70.2978C121.427 70.1796 121.445 70.085 121.463 70.0081C121.463 69.9727 121.474 69.9432 121.486 69.9077C121.492 69.9373 121.492 69.9727 121.486 70.0081C121.486 70.0909 121.486 70.1855 121.457 70.2978C121.421 70.5755 121.374 70.9478 121.315 71.4205C121.185 72.3897 120.996 73.7962 120.783 75.5395C120.57 77.2828 120.381 79.3512 120.257 81.6677C120.103 84.1734 120.162 86.6849 120.446 89.1728C120.73 91.4716 121.262 93.735 122.036 95.9216C122.384 96.8848 122.792 97.8244 123.253 98.7345C123.661 99.5382 124.128 100.318 124.636 101.063L127.289 104.077L127.508 105.974C127.526 106.181 127.543 106.346 127.561 106.47C127.573 106.529 127.579 106.594 127.567 106.659Z" fill="black"/>
<path d="M168.177 107.646C167.911 107.351 167.662 107.031 167.444 106.701C167.001 106.104 166.38 105.294 165.653 104.425C164.926 103.563 164.241 102.8 163.733 102.262C163.443 101.985 163.171 101.683 162.923 101.37C163.254 101.601 163.555 101.861 163.833 102.156C164.53 102.83 165.192 103.539 165.813 104.289C166.439 105.028 167.018 105.802 167.562 106.606C167.798 106.931 168.005 107.28 168.177 107.646Z" fill="black"/>
<path d="M104.139 105.648C103.838 103.917 102.26 102.564 102.26 102.564C102.26 102.564 101.503 100.454 100.375 99.8983C99.2458 99.3428 98.3417 100.454 97.3607 100.152C96.3797 99.851 94.27 99.7742 93.5904 100.152C92.9108 100.531 92.0835 102.634 92.0835 102.634C91.398 102.664 90.7302 102.841 90.1274 103.16C89.6133 103.426 89.1701 103.805 88.8333 104.271C88.5378 104.159 88.2186 104.135 87.9113 104.206C87.6041 104.277 87.3263 104.443 87.1136 104.679C86.6999 105.158 86.3926 105.719 86.2094 106.328L85.6716 107.764C85.5652 107.983 85.518 108.225 85.5357 108.467C85.5771 108.668 85.6834 108.845 85.843 108.975C85.9967 109.105 86.1976 109.176 86.3985 109.182C86.6054 109.182 86.8122 109.141 87.0013 109.058C87.1904 108.975 87.3618 108.851 87.4977 108.698C87.7755 108.426 88.0177 108.118 88.2246 107.793L88.3605 108.733C88.3605 108.733 88.5851 110.222 89.7906 110.311C90.6239 110.376 91.5221 109.407 91.5221 109.407L93.6259 109.176L93.9273 111.286C94.0632 111.694 94.3291 112.042 94.6837 112.285C95.0382 112.527 95.4578 112.651 95.8892 112.639C96.6457 112.639 97.6208 111.363 97.6208 111.363L99.5827 112.113C99.5827 112.113 101.84 113.697 102.892 113.171C103.188 113.023 103.424 112.775 103.56 112.474C103.696 112.172 103.731 111.836 103.648 111.511C104.098 111.002 104.452 110.411 104.7 109.779C104.978 108.887 104.458 107.38 104.139 105.648Z" fill="#F8D9C2"/>
<path d="M88.3037 108.372C88.221 107.628 88.2446 106.871 88.3805 106.138C88.4515 105.394 88.6346 104.661 88.9242 103.97C88.9833 103.97 88.7587 104.957 88.5874 106.168C88.416 107.385 88.3805 108.372 88.3037 108.372Z" fill="#CAB09C"/>
<path d="M91.6003 106.393C91.7303 106.907 91.7894 107.433 91.7776 107.959C91.819 108.343 91.7835 108.727 91.6653 109.094C91.5471 109.377 91.3816 109.501 91.3698 109.466C91.358 109.431 91.4525 109.306 91.5235 109.058C91.5944 108.704 91.6062 108.343 91.5649 107.983C91.5058 107.457 91.5176 106.919 91.6003 106.393Z" fill="#CAB09C"/>
<path d="M93.0032 105.495C93.0446 105.536 92.7668 105.902 92.3827 106.275C91.9986 106.647 91.6559 106.948 91.6086 106.907C91.5672 106.866 91.845 106.499 92.2291 106.127C92.6192 105.755 92.9619 105.453 93.0032 105.495Z" fill="#CAB09C"/>
<path d="M93.279 101.447C93.3263 101.825 93.3381 102.209 93.3263 102.593C93.3263 103.302 93.3559 104.277 93.4091 105.353C93.4682 106.429 93.5509 107.404 93.61 108.107C93.6691 108.485 93.6927 108.869 93.6809 109.253C93.5686 108.887 93.4977 108.509 93.4622 108.125C93.3618 107.421 93.2554 106.446 93.1963 105.365C93.1372 104.283 93.1431 103.302 93.1727 102.593C93.1727 102.203 93.2081 101.819 93.279 101.447Z" fill="#CAB09C"/>
<path d="M101.184 102.25C101.184 102.25 101.095 102.451 100.953 102.817C100.758 103.337 100.599 103.869 100.481 104.407C100.41 104.756 100.327 105.134 100.244 105.536C100.162 105.973 100.043 106.41 99.8897 106.824C99.7124 107.297 99.4169 107.716 99.0328 108.041C98.82 108.224 98.5718 108.354 98.3 108.419C98.0281 108.484 97.7445 108.49 97.4727 108.425C97.189 108.36 96.9349 108.213 96.7399 107.994C96.5626 107.781 96.4503 107.521 96.4089 107.243C96.3499 106.753 96.3439 106.251 96.3794 105.76C96.4266 104.927 96.5508 104.105 96.7635 103.302C96.9053 102.758 97.0826 102.226 97.3013 101.712C97.3781 101.529 97.4372 101.393 97.4904 101.304C97.514 101.257 97.5377 101.21 97.5731 101.168C97.5199 101.363 97.4609 101.558 97.384 101.748C97.2008 102.268 97.0413 102.805 96.9172 103.343C96.734 104.141 96.6217 104.956 96.5863 105.778C96.5508 106.257 96.5685 106.735 96.6217 107.214C96.6571 107.45 96.7517 107.681 96.9053 107.864C97.0708 108.047 97.2895 108.171 97.5259 108.23C97.7682 108.284 98.0163 108.284 98.2586 108.224C98.5009 108.165 98.7196 108.047 98.9087 107.888C99.2692 107.58 99.5528 107.19 99.7183 106.753C99.9724 105.973 100.185 105.175 100.345 104.371C100.475 103.828 100.652 103.296 100.882 102.782C100.947 102.64 101.018 102.504 101.095 102.374C101.143 102.291 101.178 102.25 101.184 102.25Z" fill="#CAB09C"/>
<path d="M101.978 103.167C101.919 103.616 101.724 104.035 101.411 104.366C101.097 104.697 100.69 104.922 100.246 104.998C100.601 104.762 100.938 104.502 101.257 104.218C101.523 103.887 101.765 103.533 101.978 103.167Z" fill="#CAB09C"/>
<path d="M97.6165 108.414C97.7524 108.975 97.7819 109.56 97.7169 110.134C97.6933 110.648 97.6224 111.156 97.5042 111.652V111.682C97.4865 111.688 97.4747 111.694 97.4569 111.694C97.4392 111.694 97.4214 111.688 97.4096 111.682C97.3919 111.676 97.3801 111.664 97.3683 111.652C97.3565 111.641 97.3505 111.623 97.3446 111.605C97.3446 111.564 97.3446 111.546 97.3446 111.546C97.3446 111.546 97.3447 111.564 97.3742 111.582C97.4038 111.599 97.4333 111.617 97.4451 111.582L97.4215 111.617C97.4215 111.339 97.4806 110.766 97.5219 110.098C97.5042 109.543 97.5397 108.975 97.6165 108.414Z" fill="#CAB09C"/>
<path d="M102.404 106.736C102.245 106.996 102.062 107.232 101.855 107.451C101.388 107.995 100.98 108.58 100.637 109.206C100.295 109.832 100.1 110.524 100.07 111.233C100.07 111.783 100.165 112.114 100.129 112.119C99.9873 111.848 99.9163 111.54 99.9222 111.233C99.9104 110.488 100.094 109.756 100.454 109.1C100.809 108.461 101.252 107.87 101.772 107.345C101.949 107.12 102.162 106.913 102.404 106.736Z" fill="#CAB09C"/>
<path d="M101.569 110.476C101.445 110.021 101.463 109.537 101.628 109.093C101.794 108.65 102.095 108.272 102.491 108.012C103.909 107.007 108.152 104.36 108.241 104.36C108.33 104.36 113.223 102.735 115.279 102.522C117.336 102.309 126.348 106.783 126.348 106.783C126.348 106.783 128.44 109.797 128.103 112.686C127.766 115.576 125.881 115.742 125.881 115.742L123.269 115.103L120.574 114.589C120.574 114.589 114.611 116.25 113.672 115.949C112.732 115.641 112.407 114.625 113.424 114.075C114.44 113.526 117.359 112.657 117.359 112.657L119.605 111.705L112.295 112.751C112.295 112.751 106.113 113.969 105.393 113.797C104.672 113.626 104.559 113.088 104.5 112.58C104.5 112.58 102.012 113.797 101.274 113.13C100.535 112.462 100.21 111.014 101.569 110.476Z" fill="#F8D9C2"/>
<path d="M117.338 108.698C117.155 108.727 116.972 108.739 116.789 108.727C116.44 108.727 115.932 108.727 115.305 108.769C114.578 108.804 113.851 108.905 113.142 109.076C112.723 109.182 112.315 109.33 111.925 109.507C111.517 109.697 111.115 109.915 110.708 110.158C110.294 110.394 109.863 110.601 109.419 110.772C109.006 110.926 108.568 111.02 108.125 111.05C107.398 111.05 106.671 111.133 105.956 111.292C105.489 111.44 105.082 111.724 104.78 112.102C104.68 112.25 104.585 112.409 104.508 112.569C104.508 112.569 104.508 112.515 104.532 112.427C104.573 112.297 104.633 112.173 104.709 112.06C104.999 111.641 105.419 111.322 105.909 111.156C106.63 110.967 107.369 110.867 108.107 110.861C108.988 110.754 109.839 110.453 110.589 109.98C110.997 109.75 111.399 109.513 111.83 109.324C112.232 109.141 112.646 108.999 113.077 108.893C113.798 108.721 114.537 108.633 115.282 108.627C115.914 108.627 116.422 108.627 116.777 108.651C116.966 108.651 117.149 108.668 117.338 108.698Z" fill="#CAB09C"/>
<path d="M115.132 105.619C115.091 105.649 115.044 105.672 114.996 105.69C114.914 105.731 114.778 105.785 114.589 105.844C114.092 105.997 113.584 106.116 113.064 106.192C112.42 106.305 111.64 106.393 110.812 106.6C109.92 106.872 109.063 107.244 108.26 107.717C106.764 108.55 105.198 109.259 103.585 109.839C102.97 110.057 102.462 110.223 102.108 110.323C101.93 110.388 101.741 110.435 101.558 110.465C101.729 110.376 101.901 110.3 102.084 110.246L103.532 109.697C105.122 109.082 106.67 108.361 108.159 107.534C108.98 107.055 109.855 106.677 110.765 106.411C111.516 106.24 112.278 106.116 113.046 106.027C113.554 105.962 114.063 105.867 114.565 105.749C114.754 105.69 114.943 105.649 115.132 105.619Z" fill="#CAB09C"/>
<path d="M121.064 107.362C121.01 107.203 120.969 107.043 120.945 106.877C120.851 106.499 120.662 106.145 120.402 105.855C120.142 105.566 119.811 105.341 119.444 105.199C119.285 105.158 119.125 105.099 118.972 105.028C118.972 105.004 119.173 104.981 119.492 105.057C119.905 105.17 120.272 105.394 120.561 105.713C120.845 106.032 121.028 106.423 121.093 106.848C121.135 107.013 121.123 107.191 121.064 107.362Z" fill="#CAB09C"/>
<path d="M124.436 111.918C124.431 111.688 124.407 111.463 124.377 111.233C124.241 110.707 123.928 110.24 123.491 109.909C123.042 109.584 122.551 109.33 122.025 109.147C121.795 109.088 121.576 108.993 121.375 108.875C121.612 108.881 121.848 108.922 122.067 109.005C122.628 109.147 123.154 109.395 123.621 109.738C124.094 110.098 124.413 110.618 124.519 111.203C124.584 111.452 124.549 111.7 124.436 111.918Z" fill="#CAB09C"/>
<path d="M104.522 112.569C104.422 112.663 104.297 112.734 104.167 112.781C103.831 112.941 103.476 113.077 103.121 113.189C102.873 113.278 102.625 113.343 102.365 113.396C102.058 113.437 101.745 113.408 101.449 113.301C101.284 113.242 101.13 113.148 101.006 113.024C100.882 112.9 100.775 112.752 100.71 112.586C100.545 112.255 100.474 111.877 100.515 111.505C100.557 111.227 100.704 110.973 100.923 110.79C101.112 110.624 101.319 110.488 101.544 110.382L101.49 110.506C101.325 110.004 101.36 109.454 101.597 108.982C101.792 108.627 102.052 108.308 102.365 108.054C102.566 107.888 102.779 107.735 103.003 107.605C103.08 107.551 103.169 107.504 103.257 107.48C103.281 107.51 102.926 107.711 102.448 108.148C102.164 108.408 101.928 108.716 101.75 109.064C101.55 109.502 101.526 110.004 101.685 110.459L101.709 110.536L101.632 110.577C101.248 110.778 100.793 111.068 100.746 111.546C100.71 111.877 100.769 112.208 100.917 112.51C100.97 112.651 101.053 112.775 101.159 112.882C101.266 112.988 101.396 113.071 101.532 113.124C101.792 113.219 102.07 113.254 102.341 113.23C102.59 113.183 102.838 113.13 103.08 113.053C103.529 112.929 103.89 112.799 104.138 112.71C104.262 112.645 104.392 112.598 104.522 112.569Z" fill="#CAB09C"/>
<path d="M126.78 9.60597C127.182 7.77401 128.145 6.07206 129.569 4.65968C130.999 3.25321 132.837 2.19543 134.905 1.59266C136.974 0.989883 139.19 0.871634 141.323 1.23803C143.463 1.61033 145.448 2.45541 147.073 3.69642C148.391 4.70104 149.473 5.95978 150.997 6.72802C152.723 7.59081 152.947 7.30123 154.844 7.82127C156.741 8.34131 160.464 12.5726 160.529 14.2804L162.007 21.691C162.054 23.4403 159.495 24.5631 157.515 24.1139C155.536 23.6648 154.135 22.1697 153.001 20.71C151.866 19.2504 150.784 17.6666 149.035 16.7506C146.134 15.2318 142.405 16.006 139.119 16.7506C135.833 17.4952 132.01 18.1334 129.274 16.4019C126.939 14.895 126.242 12.0584 126.78 9.60597Z" fill="#263238"/>
<path d="M125.731 19.6701C125.731 13.9556 129.093 6.73998 134.802 7L152.784 10.4098C153.624 10.4453 154.415 10.7999 155.006 11.3908C155.597 11.9877 155.946 12.7796 155.976 13.6187L156.655 56.4511H156.779C156.779 56.4511 150.533 72.1646 138.596 69.2157C136.226 68.6307 137.981 62.7389 137.355 60.1564L137.236 60.18C137.213 59.8668 137.189 59.5773 137.165 59.2818C136.817 57.3494 136.669 55.3874 136.734 53.4254C136.486 49.9802 136.403 48.5559 136.403 48.5973C136.403 48.6387 129.058 47.8232 126.977 38.427C125.937 33.7762 125.707 26.0229 125.731 19.6701Z" fill="#F8D9C2"/>
<path d="M126.608 12.9512C126.608 12.9512 124.285 -3.36505 147.598 0.629803L153.851 14.6531C153.851 14.6531 164.346 30.5262 156.782 40.5488L151.587 43.4149C151.587 43.4149 164.582 6.86436 126.608 12.9512Z" fill="#ACA8EA"/>
<path d="M128.905 27.146C128.923 27.4651 129.059 27.7605 129.295 27.9792C129.526 28.1978 129.839 28.3101 130.152 28.3042C130.306 28.3101 130.465 28.2806 130.607 28.2215C130.749 28.1624 130.885 28.0797 130.997 27.9674C131.109 27.8551 131.198 27.7251 131.257 27.5833C131.316 27.4414 131.346 27.2878 131.346 27.1282C131.328 26.8091 131.192 26.5136 130.956 26.295C130.725 26.0763 130.412 25.9641 130.099 25.97C129.945 25.9641 129.786 25.9936 129.644 26.0527C129.502 26.1117 129.366 26.1945 129.254 26.3068C129.141 26.4191 129.053 26.5491 128.994 26.6909C128.935 26.8387 128.905 26.9923 128.905 27.146Z" fill="#263238"/>
<path d="M127.654 23.5942C127.813 23.7419 128.694 23.0032 130.006 22.9323C131.318 22.8614 132.317 23.4523 132.441 23.2869C132.512 23.21 132.334 22.9323 131.903 22.6545C131.312 22.294 130.626 22.1286 129.935 22.1759C129.261 22.2232 128.617 22.4832 128.103 22.9205C127.689 23.2337 127.571 23.5292 127.654 23.5942Z" fill="#263238"/>
<path d="M140.721 26.484C140.739 26.8031 140.875 27.0985 141.111 27.3172C141.342 27.5358 141.655 27.6481 141.968 27.6422C142.122 27.6481 142.281 27.6186 142.423 27.5595C142.565 27.5004 142.701 27.4177 142.813 27.3054C142.926 27.199 143.014 27.0631 143.073 26.9213C143.132 26.7794 143.162 26.6199 143.162 26.4662C143.144 26.1471 143.002 25.8457 142.772 25.627C142.535 25.4084 142.222 25.2962 141.903 25.308C141.749 25.308 141.596 25.3375 141.454 25.3966C141.312 25.4557 141.182 25.5384 141.07 25.6507C140.958 25.7571 140.875 25.8871 140.816 26.0348C140.751 26.1767 140.721 26.3303 140.721 26.484Z" fill="#263238"/>
<path d="M140.538 23.0688C140.697 23.2166 141.578 22.4779 142.89 22.4011C144.202 22.3242 145.2 22.927 145.324 22.7556C145.39 22.6788 145.224 22.4011 144.787 22.1233C144.196 21.7628 143.51 21.5973 142.819 21.6446C142.139 21.686 141.489 21.9401 140.957 22.3715C140.579 22.7024 140.455 22.9979 140.538 23.0688Z" fill="#263238"/>
<path d="M136.368 33.0666C136.368 32.9898 135.558 32.9011 134.217 32.8125C133.88 32.8125 133.561 32.7475 133.49 32.5229C133.442 32.1802 133.496 31.8256 133.649 31.5183C133.915 30.7087 134.193 29.8282 134.483 28.9181C135.641 25.2069 136.45 22.1694 136.303 22.1221C136.155 22.0749 135.085 25.0473 133.939 28.7526L133.147 31.3764C132.958 31.7901 132.928 32.257 133.052 32.6943C133.106 32.8125 133.188 32.913 133.289 32.9898C133.389 33.0666 133.507 33.1257 133.632 33.1493C133.821 33.1907 134.01 33.2025 134.205 33.1907C135.546 33.1848 136.368 33.1375 136.368 33.0666Z" fill="#263238"/>
<path d="M136.4 48.6212C140.873 48.4203 145.199 46.9784 148.904 44.4668C148.904 44.4668 146.097 51.2687 136.547 50.9614L136.4 48.6212Z" fill="#CAB09C"/>
<path d="M137.115 36.1877C137.346 35.8568 137.653 35.5909 138.019 35.4195C138.38 35.2423 138.782 35.1654 139.183 35.1832C139.473 35.1891 139.763 35.254 140.023 35.3781C140.289 35.5022 140.525 35.6736 140.72 35.8864C140.909 36.0932 141.027 36.3532 141.063 36.631C141.098 36.9087 141.045 37.1924 140.915 37.4406C140.72 37.6888 140.454 37.872 140.153 37.9665C139.851 38.0611 139.526 38.067 139.225 37.9784C138.592 37.7952 138.002 37.4878 137.493 37.0742C137.334 36.9796 137.198 36.8555 137.086 36.7078C137.032 36.6369 137.003 36.5542 136.997 36.4655C136.991 36.3769 137.015 36.2941 137.056 36.2173" fill="#CAB09C"/>
<path d="M140.272 33.7409C140.059 33.7409 140.136 35.1651 138.984 36.2407C137.831 37.3221 136.307 37.2571 136.307 37.458C136.307 37.5467 136.661 37.7121 137.299 37.6944C138.133 37.6589 138.925 37.328 139.539 36.7607C140.13 36.217 140.479 35.4665 140.526 34.6628C140.556 34.0718 140.378 33.7232 140.272 33.7409Z" fill="#263238"/>
<path d="M139.912 18.1047C140.06 18.4534 141.36 18.2052 142.908 18.2997C144.457 18.3943 145.727 18.7311 145.91 18.4002C145.993 18.2406 145.757 17.9215 145.237 17.5906C144.539 17.2065 143.771 16.9878 142.979 16.9465C142.187 16.9051 141.395 17.0469 140.669 17.3601C140.119 17.6379 139.871 17.9393 139.912 18.1047Z" fill="#263238"/>
<path d="M127.904 19.7766C128.152 20.0603 129.038 19.6999 130.12 19.6171C131.201 19.5344 132.147 19.6998 132.33 19.3748C132.418 19.2153 132.253 18.9257 131.833 18.6715C131.272 18.3642 130.634 18.2343 130.001 18.2875C129.363 18.3466 128.76 18.5888 128.27 18.9966C127.898 19.3275 127.797 19.6407 127.904 19.7766Z" fill="#263238"/>
<path d="M163.048 10.221C157.145 1.94764 153.144 0.943039 147.595 0.635742L155.307 17.9329C156.465 20.7163 158.055 24.0966 158.303 27.0986C158.592 30.6562 157.363 33.6405 155.708 36.8022C153.729 40.602 151.554 44.2245 148.144 46.8247C144.74 49.4249 137.153 52.6929 133.217 51.0087L138.707 54.0817L151.826 54.1289L167.108 54.1881C167.108 54.1881 168.893 52.622 170.465 48.5799C174.412 38.4391 169.631 19.4458 163.048 10.221Z" fill="#ACA8EA"/>
<path d="M173.934 64.1099C173.934 64.1099 170.648 57.3613 166.352 53.6501C162.062 49.9389 159.426 49.9743 153.304 50.4944C147.181 51.0144 138.618 51.9776 136.586 51.4635L136.396 48.621C135.392 48.5206 131.261 46.5113 130.457 45.2939C128.921 46.8659 128.253 48.5442 128.602 50.323L127.597 50.7012C126.12 51.2449 124.89 52.3086 124.146 53.6973C123.401 55.086 123.2 56.6994 123.567 58.23C123.945 59.6896 124.867 60.5879 126.723 60.907C134.068 62.1775 153.717 56.8649 159.633 56.8471C165.548 56.8353 173.934 64.1099 173.934 64.1099Z" fill="#ACA8EA"/>
<path d="M126.06 60.8422C126.231 60.8363 126.403 60.848 126.574 60.8717C126.905 60.9012 127.384 60.9544 128.034 61.0017C129.824 61.1435 131.621 61.1731 133.417 61.0903C136.076 60.9544 138.718 60.594 141.318 60.0207C142.79 59.7016 144.32 59.3115 145.892 58.8565L150.738 57.3555C154.065 56.345 157.398 55.6536 160.447 55.955C163.136 56.2032 165.731 57.0305 168.065 58.3897C169.631 59.3057 171.043 60.458 172.261 61.8054C172.592 62.1718 172.899 62.55 173.188 62.9519C173.295 63.0819 173.389 63.2177 173.478 63.3596C173.348 63.2473 173.236 63.1173 173.135 62.9755C172.928 62.7096 172.597 62.3431 172.166 61.8822C169.069 58.6378 164.897 56.6286 160.424 56.2386C157.434 55.9609 154.154 56.6464 150.844 57.651C149.184 58.1474 147.571 58.6793 145.993 59.1402C144.415 59.6012 142.872 59.9793 141.395 60.2926C138.777 60.8599 136.112 61.1967 133.435 61.2972C131.633 61.3562 129.824 61.2913 128.034 61.0962C127.401 61.0312 126.911 60.9604 126.58 60.9072C126.397 60.8954 126.225 60.8776 126.06 60.8422Z" fill="#263238"/>
<path d="M174.291 61.8882C166.88 52.2498 152.662 48.5681 141.499 53.3903L129.727 55.8901C126.618 56.4279 121.637 57.4384 121.406 60.3163C121.194 63.3657 121.855 66.4091 123.315 69.092C126.051 73.8551 124.568 80.2433 127.304 85.0123C128.598 87.2638 129.916 89.5509 131.795 91.3415C133.68 93.1321 136.239 94.3848 138.816 94.1071C141.688 93.7998 144.046 91.7019 145.872 89.4563C149.808 84.6282 152.26 78.7659 155.942 73.7487C159.623 68.7315 163.967 65.038 171.708 64.5594C173.115 64.4707 177.121 66.3441 177.121 66.3441C177.234 65.7767 174.639 62.3433 174.291 61.8882Z" fill="#ACA8EA"/>
<g opacity="0.3">
<path d="M158.435 56.1617C153.317 56.1617 148.288 58.6201 143.324 59.7192C123.368 64.11 123.368 56.5872 123.368 56.5872C122.741 60.1211 126.063 61.7462 129.561 62.5617C136.233 64.1041 143.366 64.9314 148.182 63.395C152.065 62.1776 156.113 61.2734 160.031 60.1447C163.949 59.0219 169.592 59.4474 172.559 62.2367C169.9 57.8636 163.559 56.1499 158.435 56.1617Z" fill="black"/>
</g>
<g opacity="0.3">
<path d="M132.505 55.6181C132.742 56.1441 133.09 56.605 133.528 56.9832C133.959 57.3615 134.473 57.6392 135.023 57.7988C136.128 58.1179 137.286 58.2183 138.427 58.0883C142.599 57.8047 146.611 56.41 150.559 55.0331C147.403 54.9267 144.342 56.0259 141.245 56.6582C138.149 57.2905 134.656 57.3319 132.139 55.4409" fill="black"/>
</g>
<path d="M175.287 64.9786C175.287 64.9786 175.251 64.9491 175.192 64.89L174.944 64.6063C174.731 64.3522 174.4 63.9917 173.963 63.5367C172.74 62.2484 171.262 61.2319 169.626 60.5523C168.479 60.1209 167.279 59.861 166.062 59.7841C164.662 59.6718 163.255 59.7132 161.866 59.92C158.917 60.3278 155.803 61.362 152.5 62.3016C149.196 63.2412 146.041 64.2281 143.038 64.3877C140.391 64.5 137.744 64.3108 135.143 63.8262C132.927 63.4185 131.16 62.9516 129.937 62.6443L128.531 62.2898L128.17 62.1893L128.046 62.1479C128.087 62.142 128.135 62.142 128.176 62.1479L128.542 62.2248L129.955 62.5438C131.172 62.8216 132.951 63.2648 135.167 63.6548C137.755 64.1217 140.391 64.299 143.021 64.1749C145.987 64.0094 149.149 63.0698 152.435 62.083C155.72 61.0961 158.858 60.1032 161.831 59.7073C163.237 59.5064 164.656 59.4709 166.068 59.595C167.581 59.6836 169.064 60.0678 170.429 60.7356C171.794 61.3974 173.012 62.3311 174.01 63.4717C174.442 63.9385 174.761 64.3049 174.962 64.5649L175.192 64.8604L175.287 64.9786Z" fill="black"/>
<path d="M167.837 55.0506C167.808 55.0329 167.778 55.0093 167.755 54.9797L167.518 54.767C167.317 54.572 167.004 54.3001 166.602 53.9574C165.432 53.0118 164.15 52.214 162.785 51.5876C160.758 50.6598 158.607 50.0393 156.397 49.7557C153.69 49.4188 150.948 49.4247 148.241 49.7734C145.535 50.1338 142.846 50.6303 140.187 51.2744C139.011 51.5522 137.805 51.6467 136.6 51.5581C135.542 51.4812 134.525 51.109 133.662 50.4944C132.971 49.9684 132.38 49.3242 131.919 48.5855C131.57 48.0359 131.269 47.4569 131.015 46.86C130.808 46.3695 130.672 45.9735 130.578 45.7076L130.483 45.4003C130.471 45.3649 130.459 45.3294 130.459 45.2939C130.459 45.2939 130.483 45.3294 130.507 45.3944C130.53 45.4594 130.578 45.5717 130.619 45.6958C130.72 45.9558 130.873 46.3399 131.092 46.8304C131.358 47.4155 131.665 47.9828 132.02 48.5205C132.481 49.2356 133.071 49.862 133.751 50.3702C134.596 50.9612 135.589 51.3099 136.617 51.3808C137.799 51.4576 138.987 51.3572 140.139 51.0794C142.799 50.4235 145.493 49.9152 148.212 49.5606C150.936 49.206 153.696 49.206 156.42 49.5606C158.648 49.862 160.811 50.5003 162.844 51.4576C164.215 52.1018 165.491 52.9173 166.65 53.8924C166.963 54.1583 167.264 54.4419 167.548 54.7374L167.766 54.9679C167.814 55.0211 167.843 55.0447 167.837 55.0506Z" fill="black"/>
<path d="M165.441 54.8504H165.341L165.039 54.8031L163.881 54.614C162.463 54.3954 161.033 54.2535 159.603 54.1826C157.475 54.0763 155.342 54.1471 153.226 54.3835C150.638 54.7322 148.073 55.2345 145.544 55.8905C142.849 56.5405 140.225 57.1079 137.796 57.0724C136.65 57.0783 135.503 56.9424 134.392 56.6646C133.423 56.3928 132.525 55.9023 131.763 55.2404C130.669 54.2889 129.783 53.1189 129.157 51.8129C128.92 51.3401 128.731 50.8437 128.595 50.3296C128.613 50.3591 128.631 50.3887 128.642 50.4242L128.755 50.7078C128.855 50.9619 129.009 51.3224 129.239 51.7715C129.889 53.0479 130.782 54.1885 131.869 55.1222C132.62 55.7605 133.5 56.2273 134.446 56.4932C135.545 56.7591 136.674 56.8892 137.808 56.8773C140.213 56.8773 142.814 56.3396 145.52 55.6836C148.055 55.0217 150.632 54.5195 153.232 54.1826C155.36 53.9522 157.499 53.899 159.632 54.0231C161.068 54.1058 162.498 54.2712 163.917 54.5194C164.419 54.614 164.803 54.6908 165.069 54.7499L165.364 54.8208C165.412 54.8327 165.441 54.8504 165.441 54.8504Z" fill="black"/>
<path d="M165.816 36.6304C165.781 36.8608 165.728 37.0913 165.663 37.31C165.598 37.5759 165.521 37.8418 165.426 38.0959C165.32 38.4032 165.219 38.7519 165.054 39.1183C164.894 39.4847 164.735 39.9043 164.516 40.3357C164.297 40.7671 164.061 41.2044 163.795 41.6712C162.607 43.6687 161.065 45.4238 159.245 46.8657C158.819 47.1908 158.435 47.504 158.027 47.7522C157.62 48.0063 157.253 48.2426 156.905 48.4436C156.55 48.6445 156.225 48.8041 155.941 48.9459C155.699 49.0759 155.445 49.1882 155.191 49.2827C154.978 49.3832 154.759 49.46 154.535 49.525C154.736 49.4009 154.943 49.2946 155.155 49.2059C155.356 49.1114 155.605 48.9932 155.888 48.8395C156.166 48.68 156.491 48.5322 156.828 48.3136C157.165 48.0949 157.549 47.8822 157.927 47.6044C158.311 47.3267 158.713 47.0312 159.144 46.7121C160.935 45.2702 162.46 43.5268 163.653 41.5648C163.919 41.1039 164.179 40.6725 164.38 40.2529C164.581 39.8274 164.788 39.4433 164.936 39.0651C165.083 38.6928 165.213 38.3619 165.343 38.0605C165.468 37.765 165.544 37.4991 165.609 37.2863C165.663 37.0736 165.728 36.849 165.816 36.6304Z" fill="black"/>
<path d="M165.198 60.83C165.086 60.83 164.98 60.8181 164.868 60.8004L164.46 60.7472C164.306 60.7295 164.123 60.7472 163.922 60.7177C162.776 60.6881 161.629 60.8654 160.542 61.2436C159.791 61.4977 159.064 61.8109 158.361 62.1773C157.557 62.6028 156.771 63.0697 156.021 63.572C154.419 64.6417 152.747 65.9477 150.956 67.2655L141.797 74.0673L139.001 76.0943L138.233 76.6203C138.145 76.6912 138.056 76.7503 137.955 76.7976C138.032 76.7208 138.115 76.6498 138.204 76.5848L138.948 76.0057L141.702 73.9137L150.838 67.0882C152.635 65.7703 154.307 64.4643 155.926 63.4006C156.689 62.8924 157.481 62.4315 158.296 62.006C159.011 61.6455 159.75 61.3382 160.512 61.09C161.617 60.7236 162.776 60.5699 163.94 60.629C164.141 60.629 164.324 60.6468 164.477 60.6763L164.885 60.7472C164.992 60.7709 165.098 60.8004 165.198 60.83Z" fill="black"/>
<path d="M178.302 73.2815C178.225 73.0983 178.166 72.9033 178.124 72.7083C178.03 72.336 177.888 71.7982 177.693 71.1423C177.474 70.3681 177.196 69.6176 176.86 68.8908C176.452 68.0043 175.896 67.1947 175.217 66.4974C174.537 65.7941 173.692 65.28 172.758 65.0081C171.99 64.8013 171.186 64.7304 170.395 64.8013C169.662 64.8841 168.929 65.0082 168.208 65.1736C168.249 65.1441 168.297 65.1205 168.35 65.1086C168.444 65.0732 168.592 65.02 168.758 64.9727C169.29 64.8132 169.833 64.7068 170.383 64.6536C171.198 64.559 172.026 64.6122 172.818 64.8191C173.787 65.0909 174.673 65.6227 175.376 66.3437C176.074 67.0588 176.641 67.892 177.049 68.808C177.38 69.5467 177.651 70.315 177.858 71.1009C178.036 71.7687 178.148 72.3183 178.225 72.6906C178.266 72.8856 178.29 73.0806 178.302 73.2815Z" fill="black"/>
<path d="M121.309 117.036V117.509C121.309 118.135 120.83 118.667 120.204 118.726L76.3667 123.141C75.1671 123.259 74.0384 122.568 73.6011 121.451L59.1168 84.2677C58.5258 82.749 57.1607 81.6734 55.5474 81.4607L32.1633 78.3109C31.6078 78.2341 31.3064 77.6195 31.5959 77.1349C31.7555 76.8631 32.0628 76.7154 32.3761 76.7626L57.3143 80.2906C58.8922 80.5152 60.2337 81.5612 60.8305 83.0327L75.6162 119.382C76.0594 120.476 77.1704 121.149 78.3464 121.037L121.309 117.036Z" fill="#455A64"/>
<path d="M132.453 8.51904L143.853 13.8081C138.468 11.3735 130.113 12.2224 126.609 12.9512L132.453 8.51904Z" fill="black" fill-opacity="0.3"/>
</svg>
