<svg width="96" height="96" viewBox="0 0 96 96" fill="none" xmlns="http://www.w3.org/2000/svg">
<g clip-path="url(#clip0_9899_162528)">
<rect width="96" height="96" rx="4" fill="white"/>
<path d="M55.2421 75.9645L57.2514 94.646C57.2514 94.646 61.1662 88.7302 63.8148 91.3664C66.3389 93.8822 70.7975 112.227 70.7975 112.227C70.7975 112.227 70.8557 118.21 67.6757 119.791C57.4755 124.873 46.1089 115.324 46.1089 115.324L47.7321 61.8538C51.9609 65.4133 54.6515 70.4687 55.2421 75.9645V75.9645Z" fill="#AFABED"/>
<path d="M20.8306 62.9787L38.4784 61.5714C38.5864 59.4957 38.4411 51.5373 38.4411 51.5373C38.4411 51.5373 45.785 50.3957 45.8722 43.0559C45.9593 35.7162 44.6932 18.853 44.6932 18.853C40.5195 17.0586 35.9423 16.4115 31.4347 16.9786C26.9272 17.5456 22.6529 19.3064 19.0538 22.0787L17.9661 22.909L20.8306 62.9787Z" fill="#C8A992"/>
<path d="M38.4536 51.4336C35.0633 51.4976 31.7308 50.551 28.8804 48.7144C28.8804 48.7144 31.1429 53.995 38.4702 53.3349L38.4536 51.4336Z" fill="#9B8372"/>
<path d="M18.8671 30.5187C18.7425 30.4648 13.8231 29.0284 13.985 34.0475C14.1469 39.0666 19.1494 37.871 19.1535 37.7257C19.1577 37.5804 18.8671 30.5187 18.8671 30.5187Z" fill="#C8A992"/>
<path d="M17.5634 35.8741C17.5385 35.8741 17.4762 35.9364 17.3309 36.0111C17.1264 36.107 16.8924 36.1189 16.6791 36.0443C16.1395 35.8658 15.6662 35.0397 15.6122 34.1347C15.5901 33.7094 15.661 33.2844 15.8198 32.8892C15.8611 32.7306 15.9406 32.5845 16.0513 32.4637C16.162 32.3428 16.3006 32.2509 16.455 32.1959C16.5546 32.1653 16.6618 32.171 16.7576 32.2121C16.8534 32.2531 16.9315 32.3269 16.9781 32.4201C17.0486 32.5571 17.0237 32.6567 17.0486 32.6651C17.0735 32.6734 17.1524 32.5779 17.1068 32.3703C17.0724 32.2482 16.9996 32.1405 16.8992 32.0631C16.7574 31.9653 16.5837 31.9252 16.4135 31.951C16.206 32.0013 16.015 32.1041 15.8587 32.2495C15.7024 32.3949 15.5861 32.578 15.5209 32.7813C15.3242 33.2232 15.2359 33.7057 15.2635 34.1886C15.3299 35.1974 15.8779 36.1274 16.6086 36.3142C16.7447 36.3499 16.8872 36.3543 17.0253 36.327C17.1633 36.2996 17.2934 36.2413 17.4057 36.1564C17.5551 35.9945 17.58 35.8824 17.5634 35.8741Z" fill="#9B8372"/>
<path d="M43.0742 30.2195C43.0765 30.4931 42.972 30.7568 42.7828 30.9546C42.5936 31.1523 42.3347 31.2683 42.0612 31.2781C41.9278 31.2888 41.7936 31.2726 41.6665 31.2305C41.5394 31.1885 41.4221 31.1213 41.3214 31.033C41.2208 30.9448 41.1388 30.8372 41.0805 30.7167C41.0222 30.5962 40.9886 30.4652 40.9818 30.3315C40.9795 30.0586 41.0835 29.7954 41.2718 29.5978C41.4601 29.4002 41.7179 29.2837 41.9906 29.2729C42.1242 29.2628 42.2584 29.2793 42.3855 29.3216C42.5126 29.3638 42.6299 29.431 42.7308 29.5191C42.8317 29.6072 42.914 29.7145 42.9729 29.8347C43.0319 29.955 43.0663 30.0858 43.0742 30.2195V30.2195Z" fill="#263238"/>
<path d="M43.3024 29.1815C43.1737 29.3185 42.3766 28.729 41.2516 28.7332C40.1265 28.7373 39.2963 29.3019 39.1759 29.1483C39.1177 29.086 39.2506 28.837 39.591 28.5754C40.0788 28.2384 40.6587 28.0601 41.2516 28.0648C41.8389 28.0626 42.4118 28.2473 42.8873 28.592C43.2484 28.8743 43.3647 29.1193 43.3024 29.1815Z" fill="#263238"/>
<path d="M32.0232 30.6347C32.0255 30.9077 31.9215 31.1708 31.7332 31.3684C31.5449 31.566 31.2871 31.6826 31.0144 31.6933C30.8808 31.7035 30.7466 31.687 30.6195 31.6447C30.4924 31.6024 30.3751 31.5353 30.2742 31.4472C30.1733 31.3591 30.091 31.2518 30.0321 31.1315C29.9731 31.0113 29.9387 30.8805 29.9308 30.7468C29.9295 30.4735 30.0344 30.2103 30.2234 30.0128C30.4124 29.8154 30.6707 29.699 30.9438 29.6882C31.0771 29.6781 31.2111 29.6946 31.3379 29.7369C31.4648 29.7792 31.5819 29.8464 31.6824 29.9346C31.7829 30.0228 31.8649 30.1301 31.9234 30.2503C31.9819 30.3705 32.0158 30.5012 32.0232 30.6347V30.6347Z" fill="#263238"/>
<path d="M32.2138 29.3892C32.081 29.5262 31.2881 28.9367 30.1589 28.9409C29.0297 28.945 28.2035 29.5096 28.0832 29.356C28.0209 29.2979 28.1537 29.0488 28.4983 28.7873C28.9863 28.4502 29.5658 28.2706 30.1589 28.2725C30.746 28.2717 31.3184 28.4562 31.7945 28.7997C32.1557 29.0862 32.2761 29.3311 32.2138 29.3892Z" fill="#263238"/>
<path d="M36.307 37.7586C36.307 37.6964 37.0045 37.576 38.1378 37.4307C38.4284 37.4016 38.6983 37.3435 38.7481 37.1442C38.771 36.8478 38.7045 36.5514 38.5571 36.2932C38.2804 35.5957 37.9967 34.8637 37.7061 34.097C36.5188 30.9752 35.6636 28.4054 35.7923 28.3597C35.9209 28.3141 36.9796 30.8091 38.1627 33.931C38.445 34.699 38.719 35.4338 38.993 36.1396C39.1769 36.4858 39.2299 36.8866 39.1425 37.2687C39.1011 37.3699 39.0368 37.46 38.9547 37.532C38.8726 37.6041 38.7748 37.656 38.6692 37.6839C38.5098 37.7292 38.345 37.7529 38.1793 37.7545C37.0211 37.8209 36.3112 37.825 36.307 37.7586Z" fill="#263238"/>
<path d="M32.5044 24.9724C32.3923 25.2796 31.2589 25.1343 29.9429 25.2921C28.6269 25.4498 27.5475 25.811 27.3732 25.537C27.2943 25.4042 27.4811 25.1219 27.9129 24.8188C28.4904 24.4591 29.1419 24.2348 29.8185 24.1629C30.4951 24.091 31.1791 24.1733 31.8194 24.4037C32.3051 24.5863 32.55 24.823 32.5044 24.9724Z" fill="#263238"/>
<path d="M42.8874 25.9184C42.6881 26.1717 41.9118 25.9184 40.9777 25.8935C40.0436 25.8686 39.2507 26.0679 39.068 25.798C38.9892 25.6693 39.1137 25.4119 39.4583 25.1712C39.922 24.8788 40.4624 24.7313 41.0103 24.7476C41.5583 24.7638 42.0889 24.9431 42.5345 25.2625C42.8666 25.5282 42.9745 25.7897 42.8874 25.9184Z" fill="#263238"/>
<path d="M48.2675 14.2199C48.3194 13.7642 48.2549 13.3027 48.0799 12.8787C47.9049 12.4546 47.6252 12.082 47.267 11.7955C46.897 11.5264 46.4434 11.3975 45.9872 11.4317C45.531 11.466 45.1018 11.6611 44.7761 11.9823C44.8451 11.6758 44.849 11.3582 44.7873 11.05C44.7257 10.7419 44.6 10.4502 44.4184 10.1938C44.2368 9.93742 44.0033 9.72207 43.733 9.56173C43.4628 9.40139 43.1619 9.29966 42.8498 9.26312C41.65 9.18839 40.6288 10.0934 39.4747 10.4089C38.3206 10.7244 37.1333 10.4504 36.0456 10.0145C34.9579 9.57862 33.945 8.97252 32.8448 8.56982C30.5204 7.72093 27.9548 7.82385 25.7059 8.85622C23.4569 9.88858 21.7063 11.7669 20.8347 14.0829C19.2281 13.5806 17.4056 14.3985 16.4134 15.7435C15.4212 17.0886 15.168 18.8903 15.3672 20.5592C15.5218 21.6852 15.8002 22.7906 16.1975 23.8554C16.1975 23.9509 16.1975 24.0423 16.1975 24.1378C16.2764 28.173 16.7331 32.9139 18.4559 32.943C21.4574 32.9886 20.7392 27.3302 20.7392 27.3302C24.4257 25.9104 23.0516 20.389 23.9732 19.5504C24.8948 18.7118 26.8211 16.7689 34.5345 20.7087C37.5318 22.2405 41.5131 22.1949 43.6884 21.7008L43.8794 21.6593H43.925C43.9462 21.6521 43.967 21.6438 43.9873 21.6344C44.6866 21.4624 45.3547 21.1822 45.9676 20.8041C46.6892 20.388 47.2593 19.7524 47.5949 18.99C47.7566 18.6084 47.8034 18.188 47.7297 17.7802C47.6559 17.3724 47.4648 16.995 47.1798 16.6942C47.7762 15.9934 48.1543 15.1332 48.2675 14.2199Z" fill="#263238"/>
<path d="M6.39176 109.051L5.83962 119.475L4.59419 134.421H51.7671L49.7163 112.31L53.7349 77.3756C53.3861 65.0292 48.6452 59.898 38.9474 58.719L39.7113 58.8145C38.3745 58.6567 39.7113 58.8145 38.9474 58.719C32.8237 60.6535 26.2526 60.6535 20.1289 58.719V58.719C17.2229 58.8435 14.8109 59.7361 12.3366 60.2135C4.54437 61.7039 -1.86962 67.7235 -3.43886 72.9668C-4.72166 77.2801 -14.0001 114.693 -14.0001 114.693H4.46965L6.39176 109.051Z" fill="#AFABED"/>
<path d="M37.2663 41.2292C37.1091 41.6855 36.8883 42.1174 36.6104 42.512C36.4699 42.7088 36.2891 42.8735 36.0802 42.9952C35.8712 43.1169 35.6387 43.1927 35.3982 43.2177C35.1412 43.2168 34.8886 43.1517 34.6632 43.0285C34.4377 42.9053 34.2466 42.7277 34.1071 42.512C33.8332 42.0731 33.7067 41.5582 33.7459 41.0424C33.7459 40.5774 33.9784 40.0253 34.4392 39.9713C34.6331 39.9639 34.8258 40.0052 34.9996 40.0917L37.4199 41.0756" fill="#9B8372"/>
<path d="M36.2992 43.222C35.8613 43.2514 35.4219 43.1979 35.0039 43.0642C34.5809 42.8976 34.2337 42.5815 34.0283 42.1758C33.9126 41.929 33.8501 41.6606 33.8451 41.3881C33.8401 41.1155 33.8926 40.845 33.9993 40.5941C34.0534 40.4644 34.1231 40.3417 34.2068 40.2288C34.3065 40.1291 34.2857 40.1333 34.3895 40.1499C34.5225 40.1934 34.6528 40.2447 34.7797 40.3035L35.1949 40.4654C35.7138 40.673 36.1829 40.8556 36.5773 41.0051C37.3702 41.2998 37.8726 41.4576 37.8975 41.4202C37.9224 41.3829 37.4616 41.1089 36.6977 40.7394C36.3158 40.5567 35.8674 40.3243 35.3485 40.1125L34.9583 39.9382C34.8135 39.8695 34.6652 39.8086 34.514 39.7555C34.3982 39.7166 34.2728 39.7166 34.157 39.7555C34.0503 39.7997 33.9582 39.8731 33.8913 39.9672C33.7797 40.1063 33.6875 40.2599 33.6173 40.4239C33.4855 40.7324 33.4239 41.0664 33.4368 41.4017C33.4497 41.7369 33.5369 42.0651 33.6921 42.3626C33.823 42.6027 34.0007 42.8141 34.2145 42.9845C34.4284 43.1549 34.6742 43.2808 34.9375 43.3548C35.2769 43.466 35.6406 43.4803 35.9878 43.3963C36.1954 43.3299 36.3075 43.2469 36.2992 43.222Z" fill="#263238"/>
<path d="M53.8138 106.967L64.9231 72.8591L65.9277 67.1343C65.9277 67.1343 68.95 54.3644 69.087 53.1024C69.2406 51.6411 69.9837 51.3671 70.5151 51.4418C71.3454 51.5913 71.8311 52.6872 71.7356 53.9327C71.7024 54.3478 70.9053 61.1977 70.9053 61.1977C71.3727 60.5954 71.8818 60.0266 72.4289 59.4956C73.5788 58.3249 76.0323 57.835 78.4609 58.1879C80.8895 58.5408 81.5413 58.8397 81.45 59.7904C81.4249 59.969 81.3601 60.1397 81.2602 60.2899C81.1603 60.44 81.028 60.5659 80.8729 60.658C80.3855 60.986 79.794 61.122 79.2123 61.0399C75.3141 60.5459 74.0396 62.522 74.0396 62.522L73.9068 63.2693C73.9068 63.2693 76.4641 61.8329 78.2741 62.7503C78.5424 62.8859 78.782 63.072 78.9799 63.2983C79.512 63.3582 80.0192 63.5562 80.4512 63.8725C80.8832 64.1889 81.225 64.6127 81.4428 65.1019C81.6605 65.5911 81.7466 66.1287 81.6925 66.6614C81.6385 67.1941 81.4461 67.7035 81.1345 68.1389C80.8356 68.5541 80.3042 68.9277 79.8268 68.7741C79.5732 68.6657 79.3506 68.496 79.1791 68.2801C79.0818 68.1723 78.9748 68.0736 78.8595 67.9853L78.1994 70.032C78.1994 70.032 76.4641 74.5529 75.9327 76.6037L70.5358 110.949C70.3573 112.08 69.9555 113.164 69.3536 114.138C68.7518 115.112 67.962 115.957 67.0303 116.623C66.0987 117.289 65.0438 117.762 63.9272 118.016C62.8106 118.27 61.6546 118.299 60.5267 118.102V118.102C59.3134 117.888 58.1599 117.417 57.144 116.72C56.1281 116.023 55.2733 115.117 54.6373 114.062C54.0012 113.007 53.5985 111.828 53.4565 110.604C53.3145 109.38 53.4363 108.14 53.8138 106.967V106.967Z" fill="#C8A992"/>
<path d="M66.098 72.5105C66.7913 72.7845 67.5842 72.3362 68.0409 71.7466C68.4975 71.1571 68.7342 70.4223 69.1452 69.7996C70.3906 67.9315 72.9396 67.2548 74.0771 65.3327C74.239 65.0628 74.3511 64.685 74.1227 64.4733C73.8944 64.2616 73.5706 64.3778 73.2925 64.4733L66.4675 67.342" fill="#C8A992"/>
<path d="M66.48 67.3583C66.6981 67.2005 66.9352 67.0708 67.1857 66.9722C67.6507 66.7481 68.3315 66.4409 69.1743 66.0631L72.1384 64.7678L73.0019 64.3983C73.3271 64.1948 73.7194 64.1277 74.0938 64.2115C74.2079 64.2626 74.304 64.347 74.3692 64.4537C74.4344 64.5605 74.4658 64.6844 74.4591 64.8093C74.4481 65.0136 74.3899 65.2126 74.2889 65.3905C74.1028 65.7043 73.8828 65.9966 73.6329 66.2623C72.6158 67.3251 71.387 67.9229 70.4654 68.6826C70.0195 69.0215 69.6276 69.426 69.303 69.8824C69.0082 70.2976 68.8048 70.775 68.5723 71.1818C68.4171 71.5288 68.1882 71.8378 67.9014 72.0873C67.6146 72.3369 67.2769 72.5208 66.9117 72.6265C66.3638 72.7303 66.0815 72.5186 66.1064 72.5103C66.3614 72.5439 66.6204 72.5298 66.8702 72.4688C67.197 72.344 67.4941 72.1526 67.7429 71.9067C67.9916 71.6609 68.1864 71.3659 68.3149 71.0407C68.5267 70.6255 68.7301 70.1647 69.0207 69.6873C69.3532 69.1927 69.7608 68.7529 70.2288 68.3837C71.1753 67.5825 72.3958 66.9598 73.3299 65.9717C73.5579 65.7334 73.7584 65.4702 73.9277 65.1871C74.0813 64.9214 74.0937 64.635 73.9277 64.5893C73.7616 64.5437 73.4461 64.6433 73.1555 64.7678L72.292 65.1248L69.2905 66.3412C68.4312 66.6775 67.7337 66.9473 67.2522 67.1258C67.0068 67.2388 66.7469 67.3171 66.48 67.3583V67.3583Z" fill="#9B8372"/>
<path d="M73.8156 63.3274C73.9089 62.8633 74.1109 62.4279 74.4051 62.0571C74.7423 61.6803 75.1923 61.4225 75.6879 61.3223C76.3061 61.2026 76.9392 61.1802 77.5644 61.2558C78.2105 61.3341 78.8628 61.3466 79.5114 61.2932C80.0567 61.2414 80.579 61.0483 81.0267 60.7328C81.1773 60.6189 81.3 60.4722 81.3856 60.3039C81.4712 60.1357 81.5174 59.9501 81.5207 59.7613C81.5298 59.6264 81.4979 59.4918 81.4294 59.3752C81.4045 59.3752 81.4294 59.5164 81.4294 59.7572C81.4107 59.9242 81.3557 60.0851 81.2682 60.2285C81.1807 60.372 81.0628 60.4945 80.9229 60.5875C80.4945 60.8588 80.005 61.0187 79.4989 61.0524C78.866 61.0902 78.2309 61.0693 77.6017 60.9902C76.9476 60.9132 76.2852 60.9469 75.6423 61.0898C75.1025 61.213 74.62 61.5142 74.2723 61.945C74.0455 62.2341 73.8943 62.575 73.8322 62.9372C73.7937 63.0637 73.788 63.198 73.8156 63.3274V63.3274Z" fill="#9B8372"/>
<path d="M71.7647 53.4675C71.6709 53.9145 71.6154 54.3686 71.5986 54.825C71.5115 55.7591 71.4035 56.8717 71.2831 58.1005C71.1627 59.3294 71.0216 60.4378 70.9178 61.3719C70.8379 61.8214 70.7976 62.277 70.7974 62.7336C70.9513 62.3026 71.0558 61.8555 71.1088 61.4009C71.2541 60.5706 71.4201 59.4124 71.553 58.1296C71.6858 56.8468 71.7647 55.6802 71.7938 54.8375C71.8351 54.3812 71.8253 53.9217 71.7647 53.4675V53.4675Z" fill="#9B8372"/>
<path d="M75.1938 65.0335C75.3361 65.0125 75.4754 64.9749 75.609 64.9215C75.7791 64.8533 75.9622 64.8235 76.1452 64.8343C76.3282 64.8451 76.5066 64.8961 76.6676 64.9837C76.7649 65.0504 76.843 65.1415 76.894 65.2479C76.945 65.3543 76.9672 65.4722 76.9582 65.5899C76.9435 65.8874 76.8904 66.1818 76.8004 66.4658C76.6812 66.8216 76.6974 67.2089 76.8461 67.5535C76.9468 67.7326 77.0884 67.8854 77.2594 67.9994C77.4304 68.1134 77.6259 68.1854 77.83 68.2094C78.0307 68.23 78.2335 68.2096 78.4261 68.1497C78.6187 68.0898 78.7973 67.9915 78.9509 67.8607C79.2362 67.6275 79.447 67.3157 79.557 66.964C79.6964 66.3911 79.7509 65.8008 79.7189 65.2121C79.7118 64.8142 79.6345 64.4207 79.4906 64.0497C79.4444 63.9085 79.3613 63.7824 79.2498 63.6843C79.2498 63.6843 79.3162 63.8255 79.3909 64.0995C79.4882 64.4691 79.5329 64.8507 79.5238 65.2328C79.5287 65.7931 79.4589 66.3516 79.3162 66.8934C79.2232 67.2039 79.0305 67.475 78.7678 67.6649C78.5051 67.8548 78.1872 67.9528 77.8632 67.9437C77.7027 67.9242 77.5488 67.8679 77.4134 67.7794C77.2781 67.6908 77.1649 67.5724 77.0827 67.4331C76.9621 67.1457 76.9489 66.8245 77.0454 66.5281C77.1318 66.2212 77.1779 65.9044 77.1824 65.5857C77.1853 65.4339 77.1486 65.2839 77.0758 65.1507C77.0029 65.0174 76.8966 64.9055 76.7672 64.826C76.5828 64.7316 76.3786 64.6824 76.1715 64.6824C75.9643 64.6824 75.7602 64.7316 75.5757 64.826C75.3142 64.9339 75.1689 65.0169 75.1938 65.0335Z" fill="#9B8372"/>
<path d="M78.8554 67.6408C78.8554 67.6408 78.789 67.7778 78.8554 68.031C78.9065 68.2088 78.9978 68.3725 79.1224 68.5093C79.2469 68.6461 79.4013 68.7523 79.5736 68.8198C79.8358 68.908 80.1165 68.9264 80.388 68.8733C80.6595 68.8201 80.9125 68.6973 81.1221 68.5167C81.6198 68.0729 81.9276 67.4544 81.9814 66.7897C82.0527 66.1352 81.9177 65.4748 81.5953 64.9008C81.3299 64.4374 80.944 64.0543 80.4786 63.7924C80.1725 63.6145 79.8361 63.4949 79.4864 63.4395C79.3595 63.4092 79.2272 63.4092 79.1003 63.4395C79.5483 63.553 79.9786 63.7276 80.379 63.9584C80.8439 64.2522 81.2159 64.6718 81.4518 65.1686C81.6877 65.6654 81.7778 66.2189 81.7116 66.7648C81.6645 67.3618 81.3966 67.9198 80.9602 68.3299C80.7842 68.4888 80.5709 68.6007 80.3401 68.6551C80.1093 68.7096 79.8685 68.7048 79.64 68.6413C79.487 68.5895 79.3467 68.5057 79.2286 68.3954C79.1105 68.2852 79.0173 68.151 78.955 68.0019C78.8678 67.7819 78.8803 67.6408 78.8554 67.6408Z" fill="#9B8372"/>
<path d="M73.6536 71.7051C73.448 71.6174 73.2203 71.5956 73.0018 71.6429C72.4312 71.7023 71.8973 71.9524 71.4865 72.3528L71.7065 72.4441C71.7103 72.1332 71.6923 71.8225 71.6526 71.5142C71.4491 69.7125 70.6023 68.4629 70.5524 68.5085C70.5026 68.5542 71.1876 69.8121 71.3827 71.5474C71.419 71.845 71.4398 72.1443 71.445 72.4441V72.7555L71.6609 72.5354C72.0328 72.1652 72.5045 71.9114 73.0184 71.8048C73.4128 71.7342 73.6536 71.7342 73.6536 71.7051Z" fill="#9B8372"/>
<path d="M75.0359 60.0808C74.9695 60.1057 75.1812 60.6247 75.7541 60.9443C76.327 61.264 76.875 61.1893 76.8626 61.1187C76.8501 61.0481 76.381 60.9941 75.887 60.7035C75.393 60.4129 75.1065 60.0393 75.0359 60.0808Z" fill="#9B8372"/>
<path d="M45.0128 60.0767C45.0128 60.0767 45.1664 60.2427 45.4279 60.5624C45.8424 61.0126 46.169 61.5364 46.3911 62.1067C46.4572 62.3008 46.4936 62.5037 46.499 62.7087C46.4985 62.9274 46.4443 63.1426 46.3412 63.3355C46.0581 63.7617 45.6353 64.0758 45.1456 64.224C43.9173 64.6093 42.634 64.7902 41.3471 64.7595C40.633 64.7595 39.8608 64.801 39.0721 64.8467L37.864 64.9878C37.4489 65.0335 37.0337 65.1456 36.6186 65.2203C34.8165 65.5882 33.1164 66.3447 31.6368 67.4372C30.8305 68.0389 30.1292 68.7697 29.5611 69.6001C29.4184 69.8174 29.2867 70.0419 29.1667 70.2726C29.0463 70.5175 28.9633 70.7542 28.8637 70.995C28.6785 71.4861 28.5396 71.9934 28.4485 72.5102C28.0308 74.6861 28.3753 76.9394 29.4241 78.891C30.5078 80.8279 32.2482 82.3136 34.3311 83.0798C35.3098 83.447 36.3419 83.6518 37.3866 83.6859C38.3829 83.6915 39.376 83.5716 40.3424 83.3289C41.234 83.0995 42.1416 82.9371 43.0574 82.8432C43.9038 82.7615 44.7564 82.9122 45.5234 83.2791C46.2283 83.6575 46.8552 84.166 47.3708 84.7778C47.8897 85.359 48.3298 85.9692 48.7657 86.5463C49.625 87.7045 50.5384 88.7258 51.6011 89.2613C52.0883 89.5224 52.6303 89.6646 53.1828 89.6765C53.6445 89.6819 54.1028 89.5973 54.5321 89.4274C54.8742 89.2911 55.188 89.0927 55.4578 88.842C55.6516 88.6536 55.8092 88.4313 55.9228 88.1861C56.0199 87.987 56.0696 87.7682 56.0681 87.5468C56.039 87.5468 56.0307 87.7751 55.8439 88.1487C55.7208 88.3731 55.5608 88.5752 55.3706 88.7466C55.1056 88.9733 54.8018 89.1505 54.4739 89.2696C54.0253 89.4354 53.5461 89.5016 53.0693 89.4636C52.5926 89.4256 52.1299 89.2843 51.7132 89.0496C50.7169 88.5224 49.8492 87.5302 49.0106 86.3678C48.5955 85.7866 48.1471 85.1639 47.6199 84.5577C47.087 83.9012 46.433 83.353 45.6936 82.9428C44.871 82.5389 43.9539 82.3666 43.0408 82.4446C42.1046 82.5354 41.1763 82.6949 40.2635 82.9221C39.3293 83.1531 38.3697 83.266 37.4073 83.2583C36.4135 83.2178 35.4324 83.0187 34.5013 82.6688C32.5165 81.932 30.8582 80.5135 29.8226 78.6668C28.822 76.8025 28.4909 74.6515 28.8844 72.5725C28.9802 72.0784 29.1191 71.5936 29.2996 71.1237C29.3992 70.8912 29.4822 70.6504 29.586 70.4428C29.6947 70.2252 29.8167 70.0145 29.9513 69.8118C30.4873 69.018 31.1491 68.3169 31.9108 67.7361C33.3425 66.6688 34.9881 65.9239 36.7348 65.5524C37.1499 65.4735 37.5651 65.3615 37.9512 65.3158L39.1385 65.1622C39.919 65.1082 40.6662 65.075 41.3927 65.0501C42.7106 65.0614 44.0212 64.8523 45.2702 64.4315C45.7902 64.2511 46.2326 63.898 46.5239 63.431C46.6383 63.2064 46.694 62.9565 46.6858 62.7045C46.6745 62.4814 46.6283 62.2615 46.5488 62.0527C46.3059 61.4694 45.9456 60.9423 45.4902 60.5043C45.3519 60.3401 45.1912 60.1961 45.0128 60.0767Z" fill="#FAFAFA"/>
<path d="M13.4328 87.7588C13.5467 87.4595 13.6139 87.1445 13.632 86.8248C13.7244 85.9538 13.6669 85.0733 13.4618 84.2218C13.1573 82.9533 12.6088 81.7561 11.8469 80.6972C10.9196 79.3977 9.73375 78.3038 8.36383 77.484C6.98604 76.6931 5.48846 76.1322 3.93009 75.8234C2.66666 75.5626 1.38006 75.4305 0.0899979 75.429C-0.775311 75.4195 -1.6404 75.4625 -2.5005 75.5577C-2.81793 75.5706 -3.13215 75.6265 -3.43458 75.7238C-3.43458 75.7985 -2.08535 75.6491 0.0858551 75.7238C1.35155 75.7706 2.61041 75.9317 3.84706 76.2054C5.35652 76.5335 6.80598 77.0937 8.1438 77.8659C9.4649 78.6562 10.6151 79.702 11.5272 80.9422C12.2758 81.9522 12.8305 83.0924 13.1629 84.3048C13.3872 85.1239 13.4893 85.9717 13.466 86.8206C13.4314 87.1321 13.4203 87.4457 13.4328 87.7588V87.7588Z" fill="#FAFAFA"/>
<path d="M-9.25064 94.9822C-9.12412 95.2485 -8.95906 95.4947 -8.76077 95.7128C-8.26654 96.3389 -7.71017 96.9134 -7.10019 97.4274C-6.1911 98.1978 -5.18475 98.8454 -4.10699 99.3536C-1.4484 100.632 1.55835 100.996 4.445 100.387C5.61354 100.15 6.74559 99.7589 7.81181 99.225C8.52942 98.8723 9.20957 98.4481 9.84188 97.9588C10.087 97.7953 10.3054 97.5951 10.4895 97.3651C10.4397 97.2987 9.49315 98.1248 7.67896 98.951C5.32504 100.044 2.71288 100.458 0.136375 100.147C-2.44013 99.836 -4.87874 98.8122 -6.90507 97.1907C-8.46186 95.9495 -9.18421 94.9199 -9.25064 94.9822Z" fill="#FAFAFA"/>
<path d="M11.6022 93.6455C11.722 93.7118 11.8487 93.7647 11.98 93.8033C12.3359 93.948 12.6592 94.1625 12.9307 94.4343C13.347 94.8769 13.6715 95.3975 13.8855 95.9662C14.1751 96.725 14.4001 97.5068 14.558 98.3035C14.7288 99.2837 14.9533 100.254 15.2306 101.209C15.4053 101.753 15.6465 102.273 15.9488 102.758C16.2832 103.267 16.6918 103.723 17.161 104.111C18.1734 104.917 19.3406 105.506 20.5901 105.842C21.8687 106.224 23.2221 106.432 24.5838 106.698C27.1459 107.12 29.5748 108.132 31.6786 109.654C32.5791 110.329 33.3762 111.131 34.0449 112.036C34.6144 112.835 35.0686 113.71 35.3942 114.635C35.8736 115.981 36.0245 117.421 35.8342 118.837C35.6848 119.837 35.4564 120.36 35.5021 120.377C35.5755 120.26 35.6341 120.134 35.6765 120.003C35.7406 119.849 35.7947 119.691 35.8384 119.53C35.9054 119.312 35.9594 119.09 36.0003 118.866C36.2601 117.42 36.1516 115.932 35.6848 114.54C35.3689 113.576 34.9159 112.663 34.3397 111.829C33.6606 110.885 32.8466 110.045 31.9235 109.338C29.7808 107.758 27.2939 106.708 24.6668 106.274C23.2927 106.004 21.9518 105.801 20.7105 105.444C19.5125 105.129 18.391 104.574 17.4142 103.812C16.9726 103.456 16.5865 103.037 16.2684 102.567C15.978 102.113 15.7438 101.625 15.571 101.114C15.2831 100.168 15.0448 99.2078 14.8569 98.237C14.681 97.4248 14.4323 96.6301 14.1138 95.8624C13.8705 95.2749 13.5071 94.7446 13.0469 94.3056C12.7532 94.0301 12.3992 93.8268 12.0132 93.712C11.8809 93.6669 11.742 93.6445 11.6022 93.6455Z" fill="#FAFAFA"/>
<path d="M22.7238 91.9144C22.5804 92.175 22.5061 92.468 22.5079 92.7654C22.4666 93.5834 22.7005 94.3916 23.1721 95.0612C23.49 95.5337 23.9172 95.9225 24.4176 96.1945C24.6996 96.3486 25.0034 96.4591 25.3184 96.5225C25.6524 96.5843 25.9935 96.5983 26.3314 96.564C27.0573 96.485 27.7471 96.2062 28.3241 95.7586C28.9579 95.2799 29.4113 94.6011 29.611 93.8324C29.7381 93.3318 29.7452 92.8084 29.6318 92.3046C29.5092 91.8264 29.2824 91.3813 28.9675 91.0011C28.6985 90.6407 28.3939 90.3083 28.0584 90.0089C27.8965 89.8598 27.7199 89.7276 27.5312 89.6145C27.3365 89.4848 27.1124 89.4062 26.8794 89.3861L26.8254 89.7556L27.0288 89.8054L27.1326 89.4484C26.3775 89.2341 25.5725 89.2779 24.8452 89.573C24.2903 89.7857 23.7948 90.1289 23.4005 90.5735C23.1479 90.8535 22.9482 91.177 22.811 91.5283C22.7238 91.7732 22.703 91.9102 22.7196 91.9144C22.945 91.4837 23.2239 91.0834 23.5499 90.7229C23.9431 90.3347 24.4183 90.0396 24.9407 89.8594C25.6084 89.6168 26.3369 89.5978 27.0164 89.8054L27.1202 89.4484L26.9167 89.3903L26.8586 89.7639C27.2146 89.8493 27.5378 90.0369 27.7885 90.3036C28.0945 90.5937 28.3725 90.912 28.6188 91.2543C28.907 91.593 29.1083 91.9969 29.2052 92.4309C29.3022 92.8649 29.2918 93.316 29.1751 93.7452C28.9964 94.4192 28.6011 95.0158 28.0501 95.4431C27.5349 95.8453 26.9213 96.1019 26.2733 96.1862C25.9735 96.221 25.6703 96.2141 25.3724 96.1655C25.0926 96.1139 24.8214 96.0231 24.567 95.8956C24.1057 95.6591 23.7062 95.3179 23.4005 94.8993C22.9386 94.2896 22.6788 93.5508 22.6574 92.7862C22.6698 92.2257 22.7653 91.9268 22.7238 91.9144Z" fill="#FAFAFA"/>
<path d="M49.513 78.3765C49.5058 78.4135 49.5058 78.4515 49.513 78.4885C49.513 78.5716 49.513 78.6795 49.513 78.8124C49.513 79.1154 49.5504 79.5347 49.5753 80.0578C49.6417 81.1455 49.704 82.7189 49.7912 84.6618C49.9531 88.5517 50.115 93.9236 50.2395 99.8644C50.3641 105.805 50.4429 111.181 50.5011 115.071C50.5301 117.006 50.555 118.575 50.5716 119.683C50.5716 120.211 50.5924 120.63 50.5966 120.929C50.5966 121.062 50.5966 121.17 50.5966 121.257C50.5912 121.294 50.5912 121.332 50.5966 121.369C50.6029 121.332 50.6029 121.294 50.5966 121.257C50.5966 121.17 50.5966 121.062 50.5966 120.929C50.5966 120.626 50.5966 120.206 50.5966 119.683V115.075C50.5966 111.181 50.526 105.805 50.3973 99.8602C50.2686 93.9153 50.0901 88.5475 49.8867 84.6576C49.7787 82.7147 49.6915 81.1413 49.6002 80.0578C49.5587 79.5264 49.5255 79.1071 49.5006 78.8124C49.5006 78.6795 49.4757 78.5716 49.4674 78.4844C49.4871 78.4505 49.5025 78.4142 49.513 78.3765V78.3765Z" fill="#263238"/>
<g opacity="0.2">
<path d="M57.4463 116.956C55.1298 118.064 52.1034 115.934 50.9202 113.659C50.9202 113.659 50.3016 108.636 50.3847 106.071C50.5466 101.321 50.1979 96.6177 50.3598 91.8684C50.7234 94.7119 51.8996 97.3901 53.7473 99.5818C54.258 100.184 54.8309 100.782 55.0218 101.545C55.3623 102.915 54.3161 105.377 53.6436 106.618C51.5678 110.413 56.0929 116.997 57.2968 116.86" fill="black"/>
</g>
<g opacity="0.2">
<path d="M14.0928 85.9651C13.3372 95.4304 12.5789 104.897 11.8178 114.365C11.7956 115.262 11.6273 116.15 11.3196 116.993C11.1621 117.414 10.9068 117.792 10.5748 118.095C10.2428 118.398 9.84355 118.618 9.40994 118.737C8.06487 119.011 6.75716 117.852 6.37938 116.532C6.0016 115.212 6.30051 113.805 6.63262 112.472C7.19722 110.201 7.83239 107.951 8.47171 105.701C10.3233 99.1695 12.1762 92.6392 14.0305 86.1104" fill="black"/>
</g>
<path d="M1.14029 66.1545C1.2208 66.4566 1.36206 66.7391 1.55544 66.9848C2.02759 67.6877 2.64125 68.2844 3.35717 68.7367C4.42438 69.4099 5.64013 69.8119 6.89835 69.9074C8.42852 70.0111 9.96423 69.8151 11.4193 69.3303C12.9021 68.8991 14.2574 68.1124 15.3673 67.0387C15.844 66.5561 16.2331 65.9942 16.5173 65.3782C16.7578 64.8388 16.9092 64.2639 16.9656 63.6761C17.0603 62.8247 16.8984 61.9646 16.5006 61.206C16.4399 61.0888 16.3706 60.9764 16.2931 60.8697C16.2403 60.7874 16.179 60.7109 16.1104 60.6414C16.0066 60.5293 15.9444 60.4711 15.9319 60.4836C15.9194 60.496 16.1187 60.7576 16.347 61.2807C16.6628 62.0254 16.769 62.8422 16.6542 63.6429C16.5838 64.1927 16.4269 64.7279 16.1893 65.2287C15.9066 65.7979 15.5305 66.3156 15.0767 66.7606C14.0025 67.7707 12.7033 68.5107 11.2864 68.9193C9.88216 69.3892 8.40201 69.5906 6.92326 69.513C5.72148 69.4423 4.55352 69.088 3.51492 68.4793C2.81449 68.0664 2.19544 67.5289 1.68829 66.8934C1.51848 66.6378 1.33557 66.3912 1.14029 66.1545Z" fill="#FAFAFA"/>
<path d="M6.82354 110.812C6.82354 110.812 6.84431 110.774 6.86922 110.696C6.89413 110.617 6.93148 110.492 6.97715 110.347C7.06848 110.027 7.20133 109.579 7.37154 109.006L8.78303 104.053C9.96204 99.8561 11.5811 94.0898 13.3496 87.6965C14.238 84.4999 15.0808 81.4693 15.8405 78.6837C16.2241 77.3737 16.5195 76.0395 16.7247 74.69C16.899 73.5077 16.899 72.3063 16.7247 71.1239C16.4772 69.3952 15.6485 67.8022 14.375 66.6072C14.021 66.2973 13.629 66.0336 13.2085 65.8226L12.8722 65.6814C12.836 65.6614 12.7967 65.6473 12.756 65.6399C13.3242 65.9066 13.8512 66.2533 14.3211 66.6694C15.5518 67.8683 16.3442 69.4458 16.5711 71.1489C16.7303 72.3165 16.7177 73.5011 16.5338 74.6651C16.323 76.0051 16.0235 77.3295 15.6371 78.6298C14.8649 81.4029 14.0139 84.4418 13.1213 87.6384C11.3569 94.0275 9.75862 99.8104 8.60036 104.012C8.03162 106.087 7.57496 107.794 7.25114 108.993C7.10169 109.57 6.9813 110.027 6.89827 110.351C6.8609 110.496 6.83185 110.613 6.81109 110.704C6.81089 110.74 6.81507 110.776 6.82354 110.812Z" fill="#263238"/>
<path d="M23.7325 18.8776C23.6984 18.5825 23.6984 18.2844 23.7325 17.9892C23.8586 17.1842 24.2643 16.4492 24.8783 15.9135C25.802 15.1329 26.9928 14.7415 28.1995 14.8217C29.557 14.8217 31.0017 15.2783 32.4962 15.7807C33.2435 16.0256 33.9866 16.2622 34.7172 16.4241C35.4226 16.58 36.1414 16.6676 36.8635 16.6857C38.0875 16.7176 39.309 16.5579 40.4836 16.2124C41.2708 15.9753 42.0296 15.6523 42.7461 15.2493C42.9422 15.144 43.1321 15.0275 43.3149 14.9006C43.3827 14.8613 43.4454 14.8139 43.5017 14.7594C43.5017 14.7594 43.2194 14.9172 42.7046 15.1745C41.9805 15.5444 41.2212 15.8406 40.4379 16.0588C39.2774 16.3785 38.0748 16.5185 36.8718 16.474C36.1622 16.4502 35.4563 16.3613 34.7629 16.2083C34.0447 16.0464 33.3141 15.7931 32.5626 15.5648C31.0723 15.0625 29.5985 14.6099 28.2036 14.6099C26.9557 14.5416 25.7307 14.9648 24.7911 15.789C24.1657 16.3497 23.7645 17.1181 23.6619 17.9519C23.6127 18.2617 23.6369 18.5788 23.7325 18.8776V18.8776Z" fill="#455A64"/>
<path d="M18.0201 31.2866C18.0201 31.2866 18.0616 31.2368 18.1197 31.133C18.1778 31.0292 18.2526 30.8715 18.348 30.6639C18.6034 30.0778 18.7982 29.4671 18.9292 28.8414C19.1285 27.9089 19.1928 26.9526 19.1202 26.0018C18.9813 24.8504 18.7621 23.7102 18.4643 22.5893C18.1753 21.4842 18.1753 20.3234 18.4643 19.2184C18.6022 18.7449 18.8416 18.3071 19.1659 17.9356C19.4551 17.6223 19.8174 17.3856 20.2204 17.2464C20.8077 17.0236 21.4591 17.04 22.0345 17.2921C22.2348 17.4034 22.4226 17.5356 22.595 17.6865C22.4641 17.4875 22.2839 17.3259 22.0719 17.2174C21.7789 17.0717 21.4596 16.9864 21.133 16.9665C20.8064 16.9465 20.4791 16.9923 20.1705 17.1011C19.7378 17.2406 19.3468 17.4861 19.033 17.8152C18.6861 18.2021 18.4269 18.6596 18.2733 19.1561C17.9717 20.2961 17.9717 21.495 18.2733 22.635C18.5693 23.7471 18.7926 24.8773 18.9417 26.0184C19.0202 26.9505 18.9727 27.8888 18.8006 28.8082C18.6835 29.4294 18.5127 30.0392 18.2899 30.6307C18.1114 31.05 18.0035 31.2783 18.0201 31.2866Z" fill="#455A64"/>
<path d="M23.0266 18.2841C23.0358 18.186 23.0358 18.0874 23.0266 17.9893C23.0266 17.7776 23.0266 17.4995 22.9934 17.159C22.9473 16.1304 23.0622 15.1009 23.3338 14.1077C23.5376 13.433 23.8703 12.8042 24.3135 12.2562C24.8152 11.6255 25.5043 11.1705 26.2813 10.9568C27.151 10.7551 28.059 10.7924 28.9092 11.0647C29.8297 11.3551 30.712 11.7551 31.537 12.2562C32.3742 12.7613 33.2453 13.208 34.1442 13.5929C35.0013 13.9276 35.9102 14.1102 36.8301 14.1326C37.6596 14.1536 38.4876 14.0529 39.2878 13.8337C39.981 13.6324 40.6494 13.3539 41.2805 13.0034C42.1906 12.4895 42.9927 11.8043 43.6427 10.9858C43.8216 10.7666 43.9827 10.5334 44.1242 10.2884C44.1799 10.2076 44.2271 10.1213 44.2654 10.031C44.1976 10.1017 44.1377 10.1797 44.0869 10.2635C43.9338 10.4978 43.7646 10.7211 43.5804 10.9319C42.9143 11.7154 42.111 12.3709 41.2099 12.8664C40.585 13.1999 39.925 13.4631 39.2421 13.6511C38.4568 13.8571 37.6459 13.9494 36.8343 13.9251C35.9395 13.8981 35.0562 13.7169 34.223 13.3895C33.3346 13.004 32.4733 12.5588 31.645 12.0569C30.8036 11.5503 29.9047 11.1461 28.9673 10.853C28.0809 10.5745 27.1358 10.5401 26.2315 10.7534C25.4161 10.9821 24.6957 11.4667 24.1765 12.1358C23.7221 12.7041 23.3861 13.3576 23.1885 14.0579C22.922 15.0658 22.8279 16.1115 22.9103 17.1507C22.9311 17.5202 22.9602 17.8025 22.9851 17.981C22.986 18.0834 23 18.1852 23.0266 18.2841V18.2841Z" fill="#455A64"/>
<path d="M63.3136 41.6569L57.6567 36L51.9999 41.6569H63.3136Z" fill="#EBEAFA"/>
<rect x="56" y="14" width="32" height="32" rx="16" fill="#EBEAFA"/>
</g>
<defs>
<clipPath id="clip0_9899_162528">
<rect width="96" height="96" rx="4" fill="white"/>
</clipPath>
</defs>
</svg>
