<svg width="586" height="288" viewBox="0 0 586 288" fill="none" xmlns="http://www.w3.org/2000/svg">
<path d="M280.215 264H484.215C488.633 264 492.215 260.418 492.215 256V24C492.215 19.5817 488.633 16 484.215 16H280.215C275.797 16 272.215 19.5817 272.215 24V256C272.215 260.418 275.797 264 280.215 264Z" fill="#F7F7F7"/>
<path d="M280.215 247.362H377.738V32H280.215V247.362Z" fill="#EBEBEB"/>
<path d="M369.61 40.1265H288.342V56.3802H369.61V40.1265Z" fill="#E0E0E0"/>
<path d="M353.357 48.2539H304.595V56.3808H353.357V48.2539Z" fill="#F5F5F5"/>
<path d="M369.61 84.8245H288.342V105.142H369.61V84.8245Z" fill="#E0E0E0"/>
<path d="M308.659 88.8876H304.595V101.078H308.659V88.8876Z" fill="#F5F5F5"/>
<path d="M294.437 86.8557H290.373V103.109H294.437V86.8557Z" fill="#F5F5F5"/>
<path d="M296.469 88.8874C296.469 90.0095 297.378 90.9192 298.5 90.9192C299.622 90.9192 300.532 90.0095 300.532 88.8874C300.532 87.7653 299.622 86.8557 298.5 86.8557C297.378 86.8557 296.469 87.7653 296.469 88.8874Z" fill="#F5F5F5"/>
<path d="M296.469 94.983C296.469 96.1051 297.378 97.0147 298.5 97.0147C299.622 97.0147 300.532 96.1051 300.532 94.983C300.532 93.8609 299.622 92.9513 298.5 92.9513C297.378 92.9513 296.469 93.8609 296.469 94.983Z" fill="#F5F5F5"/>
<path d="M314.754 88.8876H310.69V101.078H314.754V88.8876Z" fill="#F5F5F5"/>
<path d="M320.849 88.8876H316.785V101.078H320.849V88.8876Z" fill="#F5F5F5"/>
<path d="M326.944 88.8876H322.881V101.078H326.944V88.8876Z" fill="#F5F5F5"/>
<path d="M333.04 88.8876H328.976V101.078H333.04V88.8876Z" fill="#F5F5F5"/>
<path d="M339.134 88.8876H335.071V101.078H339.134V88.8876Z" fill="#F5F5F5"/>
<path d="M345.23 88.8876H341.166V101.078H345.23V88.8876Z" fill="#F5F5F5"/>
<path d="M351.325 88.8876H347.261V101.078H351.325V88.8876Z" fill="#F5F5F5"/>
<path d="M369.61 88.8876H365.547V101.078H369.61V88.8876Z" fill="#F5F5F5"/>
<path d="M357.42 88.8876H353.356V101.078H357.42V88.8876Z" fill="#F5F5F5"/>
<path d="M363.515 88.8876H359.452V101.078H363.515V88.8876Z" fill="#F5F5F5"/>
<path d="M369.61 113.269H288.342V133.586H369.61V113.269Z" fill="#E0E0E0"/>
<path d="M308.659 117.331H304.595V129.522H308.659V117.331Z" fill="#F5F5F5"/>
<path d="M294.437 115.3H290.373V131.554H294.437V115.3Z" fill="#F5F5F5"/>
<path d="M296.469 117.332C296.469 118.454 297.378 119.364 298.5 119.364C299.622 119.364 300.532 118.454 300.532 117.332C300.532 116.21 299.622 115.3 298.5 115.3C297.378 115.3 296.469 116.21 296.469 117.332Z" fill="#F5F5F5"/>
<path d="M296.469 123.427C296.469 124.549 297.378 125.459 298.5 125.459C299.622 125.459 300.532 124.549 300.532 123.427C300.532 122.305 299.622 121.395 298.5 121.395C297.378 121.395 296.469 122.305 296.469 123.427Z" fill="#F5F5F5"/>
<path d="M314.754 117.331H310.69V129.522H314.754V117.331Z" fill="#F5F5F5"/>
<path d="M320.849 117.331H316.785V129.522H320.849V117.331Z" fill="#F5F5F5"/>
<path d="M326.944 117.331H322.881V129.522H326.944V117.331Z" fill="#F5F5F5"/>
<path d="M333.04 117.331H328.976V129.522H333.04V117.331Z" fill="#F5F5F5"/>
<path d="M339.134 117.331H335.071V129.522H339.134V117.331Z" fill="#F5F5F5"/>
<path d="M345.23 117.331H341.166V129.522H345.23V117.331Z" fill="#F5F5F5"/>
<path d="M351.325 117.331H347.261V129.522H351.325V117.331Z" fill="#F5F5F5"/>
<path d="M369.61 117.331H365.547V129.522H369.61V117.331Z" fill="#F5F5F5"/>
<path d="M357.42 117.331H353.356V129.522H357.42V117.331Z" fill="#F5F5F5"/>
<path d="M363.515 117.331H359.452V129.522H363.515V117.331Z" fill="#F5F5F5"/>
<path d="M369.61 141.713H288.342V162.03H369.61V141.713Z" fill="#E0E0E0"/>
<path d="M308.659 145.776H304.595V157.966H308.659V145.776Z" fill="#F5F5F5"/>
<path d="M294.437 143.745H290.373V159.998H294.437V143.745Z" fill="#F5F5F5"/>
<path d="M296.469 145.776C296.469 146.898 297.378 147.808 298.5 147.808C299.622 147.808 300.532 146.898 300.532 145.776C300.532 144.654 299.622 143.745 298.5 143.745C297.378 143.745 296.469 144.654 296.469 145.776Z" fill="#F5F5F5"/>
<path d="M296.469 151.871C296.469 152.993 297.378 153.902 298.5 153.902C299.622 153.902 300.532 152.993 300.532 151.871C300.532 150.749 299.622 149.839 298.5 149.839C297.378 149.839 296.469 150.749 296.469 151.871Z" fill="#F5F5F5"/>
<path d="M314.754 145.776H310.69V157.966H314.754V145.776Z" fill="#F5F5F5"/>
<path d="M320.849 145.776H316.785V157.966H320.849V145.776Z" fill="#F5F5F5"/>
<path d="M326.944 145.776H322.881V157.966H326.944V145.776Z" fill="#F5F5F5"/>
<path d="M333.04 145.776H328.976V157.966H333.04V145.776Z" fill="#F5F5F5"/>
<path d="M339.134 145.776H335.071V157.966H339.134V145.776Z" fill="#F5F5F5"/>
<path d="M345.23 145.776H341.166V157.966H345.23V145.776Z" fill="#F5F5F5"/>
<path d="M351.325 145.776H347.261V157.966H351.325V145.776Z" fill="#F5F5F5"/>
<path d="M369.61 145.776H365.547V157.966H369.61V145.776Z" fill="#F5F5F5"/>
<path d="M357.42 145.776H353.356V157.966H357.42V145.776Z" fill="#F5F5F5"/>
<path d="M363.515 145.776H359.452V157.966H363.515V145.776Z" fill="#F5F5F5"/>
<path d="M369.61 170.157H288.342V190.474H369.61V170.157Z" fill="#E0E0E0"/>
<path d="M308.659 174.222H304.595V186.412H308.659V174.222Z" fill="#F5F5F5"/>
<path d="M294.437 172.189H290.373V188.443H294.437V172.189Z" fill="#F5F5F5"/>
<path d="M296.469 174.221C296.469 175.343 297.378 176.253 298.5 176.253C299.622 176.253 300.532 175.343 300.532 174.221C300.532 173.099 299.622 172.189 298.5 172.189C297.378 172.189 296.469 173.099 296.469 174.221Z" fill="#F5F5F5"/>
<path d="M296.469 180.316C296.469 181.438 297.378 182.348 298.5 182.348C299.622 182.348 300.532 181.438 300.532 180.316C300.532 179.194 299.622 178.284 298.5 178.284C297.378 178.284 296.469 179.194 296.469 180.316Z" fill="#F5F5F5"/>
<path d="M314.754 174.222H310.69V186.412H314.754V174.222Z" fill="#F5F5F5"/>
<path d="M320.849 174.222H316.785V186.412H320.849V174.222Z" fill="#F5F5F5"/>
<path d="M326.944 174.222H322.881V186.412H326.944V174.222Z" fill="#F5F5F5"/>
<path d="M333.04 174.222H328.976V186.412H333.04V174.222Z" fill="#F5F5F5"/>
<path d="M339.134 174.222H335.071V186.412H339.134V174.222Z" fill="#F5F5F5"/>
<path d="M345.23 174.222H341.166V186.412H345.23V174.222Z" fill="#F5F5F5"/>
<path d="M351.325 174.222H347.261V186.412H351.325V174.222Z" fill="#F5F5F5"/>
<path d="M369.61 174.222H365.547V186.412H369.61V174.222Z" fill="#F5F5F5"/>
<path d="M357.42 174.222H353.356V186.412H357.42V174.222Z" fill="#F5F5F5"/>
<path d="M363.515 174.222H359.452V186.412H363.515V174.222Z" fill="#F5F5F5"/>
<path d="M369.61 198.601H288.342V218.919H369.61V198.601Z" fill="#E0E0E0"/>
<path d="M308.659 202.665H304.595V214.856H308.659V202.665Z" fill="#F5F5F5"/>
<path d="M294.437 200.633H290.373V216.887H294.437V200.633Z" fill="#F5F5F5"/>
<path d="M296.469 202.665C296.469 203.787 297.378 204.696 298.5 204.696C299.622 204.696 300.532 203.787 300.532 202.665C300.532 201.542 299.622 200.633 298.5 200.633C297.378 200.633 296.469 201.542 296.469 202.665Z" fill="#F5F5F5"/>
<path d="M296.469 208.76C296.469 209.882 297.378 210.792 298.5 210.792C299.622 210.792 300.532 209.882 300.532 208.76C300.532 207.638 299.622 206.728 298.5 206.728C297.378 206.728 296.469 207.638 296.469 208.76Z" fill="#F5F5F5"/>
<path d="M314.754 202.665H310.69V214.856H314.754V202.665Z" fill="#F5F5F5"/>
<path d="M320.849 202.665H316.785V214.856H320.849V202.665Z" fill="#F5F5F5"/>
<path d="M326.944 202.665H322.881V214.856H326.944V202.665Z" fill="#F5F5F5"/>
<path d="M333.04 202.665H328.976V214.856H333.04V202.665Z" fill="#F5F5F5"/>
<path d="M339.134 202.665H335.071V214.856H339.134V202.665Z" fill="#F5F5F5"/>
<path d="M345.23 202.665H341.166V214.856H345.23V202.665Z" fill="#F5F5F5"/>
<path d="M351.325 202.665H347.261V214.856H351.325V202.665Z" fill="#F5F5F5"/>
<path d="M369.61 202.665H365.547V214.856H369.61V202.665Z" fill="#F5F5F5"/>
<path d="M357.42 202.665H353.356V214.856H357.42V202.665Z" fill="#F5F5F5"/>
<path d="M363.515 202.665H359.452V214.856H363.515V202.665Z" fill="#F5F5F5"/>
<path d="M369.61 227.046H288.342V247.363H369.61V227.046Z" fill="#E0E0E0"/>
<path d="M308.659 231.108H304.595V243.298H308.659V231.108Z" fill="#F5F5F5"/>
<path d="M294.437 229.078H290.373V245.331H294.437V229.078Z" fill="#F5F5F5"/>
<path d="M296.469 231.109C296.469 232.231 297.378 233.141 298.5 233.141C299.622 233.141 300.532 232.231 300.532 231.109C300.532 229.987 299.622 229.078 298.5 229.078C297.378 229.078 296.469 229.987 296.469 231.109Z" fill="#F5F5F5"/>
<path d="M296.469 237.204C296.469 238.326 297.378 239.236 298.5 239.236C299.622 239.236 300.532 238.326 300.532 237.204C300.532 236.082 299.622 235.172 298.5 235.172C297.378 235.172 296.469 236.082 296.469 237.204Z" fill="#F5F5F5"/>
<path d="M314.754 231.108H310.69V243.298H314.754V231.108Z" fill="#F5F5F5"/>
<path d="M320.849 231.108H316.785V243.298H320.849V231.108Z" fill="#F5F5F5"/>
<path d="M326.944 231.108H322.881V243.298H326.944V231.108Z" fill="#F5F5F5"/>
<path d="M333.04 231.108H328.976V243.298H333.04V231.108Z" fill="#F5F5F5"/>
<path d="M339.134 231.108H335.071V243.298H339.134V231.108Z" fill="#F5F5F5"/>
<path d="M345.23 231.108H341.166V243.298H345.23V231.108Z" fill="#F5F5F5"/>
<path d="M351.325 231.108H347.261V243.298H351.325V231.108Z" fill="#F5F5F5"/>
<path d="M369.61 231.108H365.547V243.298H369.61V231.108Z" fill="#F5F5F5"/>
<path d="M357.42 231.108H353.356V243.298H357.42V231.108Z" fill="#F5F5F5"/>
<path d="M363.515 231.108H359.452V243.298H363.515V231.108Z" fill="#F5F5F5"/>
<path d="M385.215 247.362H482.738V32H385.215V247.362Z" fill="#EBEBEB"/>
<path d="M474.61 40.1265H393.342V56.3802H474.61V40.1265Z" fill="#E0E0E0"/>
<path d="M458.357 48.2539H409.595V56.3808H458.357V48.2539Z" fill="#F5F5F5"/>
<path d="M474.61 84.8245H393.342V105.142H474.61V84.8245Z" fill="#E0E0E0"/>
<path d="M413.659 88.8876H409.595V101.078H413.659V88.8876Z" fill="#F5F5F5"/>
<path d="M399.437 86.8557H395.373V103.109H399.437V86.8557Z" fill="#F5F5F5"/>
<path d="M401.469 88.8874C401.469 90.0095 402.378 90.9192 403.5 90.9192C404.622 90.9192 405.532 90.0095 405.532 88.8874C405.532 87.7653 404.622 86.8557 403.5 86.8557C402.378 86.8557 401.469 87.7653 401.469 88.8874Z" fill="#F5F5F5"/>
<path d="M401.469 94.983C401.469 96.1051 402.378 97.0147 403.5 97.0147C404.622 97.0147 405.532 96.1051 405.532 94.983C405.532 93.8609 404.622 92.9513 403.5 92.9513C402.378 92.9513 401.469 93.8609 401.469 94.983Z" fill="#F5F5F5"/>
<path d="M419.754 88.8876H415.69V101.078H419.754V88.8876Z" fill="#F5F5F5"/>
<path d="M425.849 88.8876H421.785V101.078H425.849V88.8876Z" fill="#F5F5F5"/>
<path d="M431.944 88.8876H427.881V101.078H431.944V88.8876Z" fill="#F5F5F5"/>
<path d="M438.04 88.8876H433.976V101.078H438.04V88.8876Z" fill="#F5F5F5"/>
<path d="M444.134 88.8876H440.071V101.078H444.134V88.8876Z" fill="#F5F5F5"/>
<path d="M450.23 88.8876H446.166V101.078H450.23V88.8876Z" fill="#F5F5F5"/>
<path d="M456.325 88.8876H452.261V101.078H456.325V88.8876Z" fill="#F5F5F5"/>
<path d="M474.61 88.8876H470.547V101.078H474.61V88.8876Z" fill="#F5F5F5"/>
<path d="M462.42 88.8876H458.356V101.078H462.42V88.8876Z" fill="#F5F5F5"/>
<path d="M468.515 88.8876H464.452V101.078H468.515V88.8876Z" fill="#F5F5F5"/>
<path d="M474.61 113.269H393.342V133.586H474.61V113.269Z" fill="#E0E0E0"/>
<path d="M413.659 117.331H409.595V129.522H413.659V117.331Z" fill="#F5F5F5"/>
<path d="M399.437 115.3H395.373V131.554H399.437V115.3Z" fill="#F5F5F5"/>
<path d="M401.469 117.332C401.469 118.454 402.378 119.364 403.5 119.364C404.622 119.364 405.532 118.454 405.532 117.332C405.532 116.21 404.622 115.3 403.5 115.3C402.378 115.3 401.469 116.21 401.469 117.332Z" fill="#F5F5F5"/>
<path d="M401.469 123.427C401.469 124.549 402.378 125.459 403.5 125.459C404.622 125.459 405.532 124.549 405.532 123.427C405.532 122.305 404.622 121.395 403.5 121.395C402.378 121.395 401.469 122.305 401.469 123.427Z" fill="#F5F5F5"/>
<path d="M419.754 117.331H415.69V129.522H419.754V117.331Z" fill="#F5F5F5"/>
<path d="M425.849 117.331H421.785V129.522H425.849V117.331Z" fill="#F5F5F5"/>
<path d="M431.944 117.331H427.881V129.522H431.944V117.331Z" fill="#F5F5F5"/>
<path d="M438.04 117.331H433.976V129.522H438.04V117.331Z" fill="#F5F5F5"/>
<path d="M444.134 117.331H440.071V129.522H444.134V117.331Z" fill="#F5F5F5"/>
<path d="M450.23 117.331H446.166V129.522H450.23V117.331Z" fill="#F5F5F5"/>
<path d="M456.325 117.331H452.261V129.522H456.325V117.331Z" fill="#F5F5F5"/>
<path d="M474.61 117.331H470.547V129.522H474.61V117.331Z" fill="#F5F5F5"/>
<path d="M462.42 117.331H458.356V129.522H462.42V117.331Z" fill="#F5F5F5"/>
<path d="M468.515 117.331H464.452V129.522H468.515V117.331Z" fill="#F5F5F5"/>
<path d="M474.61 141.713H393.342V162.03H474.61V141.713Z" fill="#E0E0E0"/>
<path d="M413.659 145.776H409.595V157.966H413.659V145.776Z" fill="#F5F5F5"/>
<path d="M399.437 143.745H395.373V159.998H399.437V143.745Z" fill="#F5F5F5"/>
<path d="M401.469 145.776C401.469 146.898 402.378 147.808 403.5 147.808C404.622 147.808 405.532 146.898 405.532 145.776C405.532 144.654 404.622 143.745 403.5 143.745C402.378 143.745 401.469 144.654 401.469 145.776Z" fill="#F5F5F5"/>
<path d="M401.469 151.871C401.469 152.993 402.378 153.902 403.5 153.902C404.622 153.902 405.532 152.993 405.532 151.871C405.532 150.749 404.622 149.839 403.5 149.839C402.378 149.839 401.469 150.749 401.469 151.871Z" fill="#F5F5F5"/>
<path d="M419.754 145.776H415.69V157.966H419.754V145.776Z" fill="#F5F5F5"/>
<path d="M425.849 145.776H421.785V157.966H425.849V145.776Z" fill="#F5F5F5"/>
<path d="M431.944 145.776H427.881V157.966H431.944V145.776Z" fill="#F5F5F5"/>
<path d="M438.04 145.776H433.976V157.966H438.04V145.776Z" fill="#F5F5F5"/>
<path d="M444.134 145.776H440.071V157.966H444.134V145.776Z" fill="#F5F5F5"/>
<path d="M450.23 145.776H446.166V157.966H450.23V145.776Z" fill="#F5F5F5"/>
<path d="M456.325 145.776H452.261V157.966H456.325V145.776Z" fill="#F5F5F5"/>
<path d="M474.61 145.776H470.547V157.966H474.61V145.776Z" fill="#F5F5F5"/>
<path d="M462.42 145.776H458.356V157.966H462.42V145.776Z" fill="#F5F5F5"/>
<path d="M468.515 145.776H464.452V157.966H468.515V145.776Z" fill="#F5F5F5"/>
<path d="M474.61 170.157H393.342V190.474H474.61V170.157Z" fill="#E0E0E0"/>
<path d="M413.659 174.222H409.595V186.412H413.659V174.222Z" fill="#F5F5F5"/>
<path d="M399.437 172.189H395.373V188.443H399.437V172.189Z" fill="#F5F5F5"/>
<path d="M401.469 174.221C401.469 175.343 402.378 176.253 403.5 176.253C404.622 176.253 405.532 175.343 405.532 174.221C405.532 173.099 404.622 172.189 403.5 172.189C402.378 172.189 401.469 173.099 401.469 174.221Z" fill="#F5F5F5"/>
<path d="M401.469 180.316C401.469 181.438 402.378 182.348 403.5 182.348C404.622 182.348 405.532 181.438 405.532 180.316C405.532 179.194 404.622 178.284 403.5 178.284C402.378 178.284 401.469 179.194 401.469 180.316Z" fill="#F5F5F5"/>
<path d="M419.754 174.222H415.69V186.412H419.754V174.222Z" fill="#F5F5F5"/>
<path d="M425.849 174.222H421.785V186.412H425.849V174.222Z" fill="#F5F5F5"/>
<path d="M431.944 174.222H427.881V186.412H431.944V174.222Z" fill="#F5F5F5"/>
<path d="M438.04 174.222H433.976V186.412H438.04V174.222Z" fill="#F5F5F5"/>
<path d="M444.134 174.222H440.071V186.412H444.134V174.222Z" fill="#F5F5F5"/>
<path d="M450.23 174.222H446.166V186.412H450.23V174.222Z" fill="#F5F5F5"/>
<path d="M456.325 174.222H452.261V186.412H456.325V174.222Z" fill="#F5F5F5"/>
<path d="M474.61 174.222H470.547V186.412H474.61V174.222Z" fill="#F5F5F5"/>
<path d="M462.42 174.222H458.356V186.412H462.42V174.222Z" fill="#F5F5F5"/>
<path d="M468.515 174.222H464.452V186.412H468.515V174.222Z" fill="#F5F5F5"/>
<path d="M474.61 198.601H393.342V218.919H474.61V198.601Z" fill="#E0E0E0"/>
<path d="M413.659 202.665H409.595V214.856H413.659V202.665Z" fill="#F5F5F5"/>
<path d="M399.437 200.633H395.373V216.887H399.437V200.633Z" fill="#F5F5F5"/>
<path d="M401.469 202.665C401.469 203.787 402.378 204.696 403.5 204.696C404.622 204.696 405.532 203.787 405.532 202.665C405.532 201.542 404.622 200.633 403.5 200.633C402.378 200.633 401.469 201.542 401.469 202.665Z" fill="#F5F5F5"/>
<path d="M401.469 208.76C401.469 209.882 402.378 210.792 403.5 210.792C404.622 210.792 405.532 209.882 405.532 208.76C405.532 207.638 404.622 206.728 403.5 206.728C402.378 206.728 401.469 207.638 401.469 208.76Z" fill="#F5F5F5"/>
<path d="M419.754 202.665H415.69V214.856H419.754V202.665Z" fill="#F5F5F5"/>
<path d="M425.849 202.665H421.785V214.856H425.849V202.665Z" fill="#F5F5F5"/>
<path d="M431.944 202.665H427.881V214.856H431.944V202.665Z" fill="#F5F5F5"/>
<path d="M438.04 202.665H433.976V214.856H438.04V202.665Z" fill="#F5F5F5"/>
<path d="M444.134 202.665H440.071V214.856H444.134V202.665Z" fill="#F5F5F5"/>
<path d="M450.23 202.665H446.166V214.856H450.23V202.665Z" fill="#F5F5F5"/>
<path d="M456.325 202.665H452.261V214.856H456.325V202.665Z" fill="#F5F5F5"/>
<path d="M474.61 202.665H470.547V214.856H474.61V202.665Z" fill="#F5F5F5"/>
<path d="M462.42 202.665H458.356V214.856H462.42V202.665Z" fill="#F5F5F5"/>
<path d="M468.515 202.665H464.452V214.856H468.515V202.665Z" fill="#F5F5F5"/>
<path d="M474.61 227.046H393.342V247.363H474.61V227.046Z" fill="#E0E0E0"/>
<path d="M413.659 231.108H409.595V243.298H413.659V231.108Z" fill="#F5F5F5"/>
<path d="M399.437 229.078H395.373V245.331H399.437V229.078Z" fill="#F5F5F5"/>
<path d="M401.469 231.109C401.469 232.231 402.378 233.141 403.5 233.141C404.622 233.141 405.532 232.231 405.532 231.109C405.532 229.987 404.622 229.078 403.5 229.078C402.378 229.078 401.469 229.987 401.469 231.109Z" fill="#F5F5F5"/>
<path d="M401.469 237.204C401.469 238.326 402.378 239.236 403.5 239.236C404.622 239.236 405.532 238.326 405.532 237.204C405.532 236.082 404.622 235.172 403.5 235.172C402.378 235.172 401.469 236.082 401.469 237.204Z" fill="#F5F5F5"/>
<path d="M419.754 231.108H415.69V243.298H419.754V231.108Z" fill="#F5F5F5"/>
<path d="M425.849 231.108H421.785V243.298H425.849V231.108Z" fill="#F5F5F5"/>
<path d="M431.944 231.108H427.881V243.298H431.944V231.108Z" fill="#F5F5F5"/>
<path d="M438.04 231.108H433.976V243.298H438.04V231.108Z" fill="#F5F5F5"/>
<path d="M444.134 231.108H440.071V243.298H444.134V231.108Z" fill="#F5F5F5"/>
<path d="M450.23 231.108H446.166V243.298H450.23V231.108Z" fill="#F5F5F5"/>
<path d="M456.325 231.108H452.261V243.298H456.325V231.108Z" fill="#F5F5F5"/>
<path d="M474.61 231.108H470.547V243.298H474.61V231.108Z" fill="#F5F5F5"/>
<path d="M462.42 231.108H458.356V243.298H462.42V231.108Z" fill="#F5F5F5"/>
<path d="M468.515 231.108H464.452V243.298H468.515V231.108Z" fill="#F5F5F5"/>
<path d="M0.785339 144C0.785339 223.528 65.2078 288 144.674 288C224.141 288 288.563 223.528 288.563 144C288.563 64.4722 224.141 0 144.674 0C65.2078 0 0.785339 64.4722 0.785339 144Z" fill="#E6F2F5"/>
<path d="M496.703 0L584.703 24V256L496.703 288V0Z" fill="#C6C6C6"/>
<path d="M496.703 0L408.703 16V264L496.703 288V0Z" fill="#EBEBEB"/>
<path d="M496.703 7.99951L584.703 31.9995V247.999L496.703 279.999V7.99951Z" fill="#455A64"/>
<path d="M496.703 7.99951L408.703 23.9995V96H496.703V7.99951Z" fill="#AFABED"/>
<path d="M496.703 184.001H408.703V256.001L496.703 280.001V184.001Z" fill="#AFABED"/>
<g filter="url(#filter0_i_9833_146618)">
<path d="M438.703 210.999C438.703 206.703 442.391 203.334 446.67 203.723L453.427 204.337C457.548 204.712 460.703 208.167 460.703 212.304V212.999L438.703 210.999Z" fill="#D9D9D9"/>
</g>
<path d="M496.703 95.999H408.703V183.999H496.703V95.999Z" fill="#263238"/>
<path d="M457.053 112.999H480.703C482.912 112.999 484.703 114.79 484.703 116.999V180.999C484.703 183.208 482.912 184.999 480.703 184.999H400.703C398.494 184.999 396.703 183.208 396.703 180.999V122.999C396.703 120.79 398.494 118.999 400.703 118.999H447.819C448.896 118.999 449.927 118.565 450.679 117.795L454.193 114.203C454.945 113.433 455.976 112.999 457.053 112.999Z" fill="#6B6B6B"/>
<path d="M480.703 123H404.703L408.703 185H480.436C482.747 185 484.577 183.048 484.428 180.742L480.703 123Z" fill="#A6A6A6"/>
<path d="M478.703 127H398.703L404.703 185H480.267C482.639 185 484.49 182.948 484.246 180.589L478.703 127Z" fill="#EBEBEB"/>
<path d="M476.703 130.999H392.703L400.703 184.999H480.066C482.509 184.999 484.381 182.829 484.023 180.413L476.703 130.999Z" fill="white"/>
<path d="M393.394 135H473.292C475.257 135 476.931 136.428 477.242 138.369L483.962 180.369C484.35 182.799 482.473 185 480.012 185H400.114C398.148 185 396.474 183.573 396.164 181.632L389.444 139.632C389.055 137.202 390.932 135 393.394 135Z" fill="#EBEBEB"/>
<path d="M445.053 112.999H468.703C470.912 112.999 472.703 114.79 472.703 116.999V180.999C472.703 183.208 470.912 184.999 468.703 184.999H388.703C386.494 184.999 384.703 183.208 384.703 180.999V122.999C384.703 120.79 386.494 118.999 388.703 118.999H435.82C436.896 118.999 437.927 118.565 438.68 117.795L442.193 114.203C442.945 113.433 443.976 112.999 445.053 112.999Z" fill="#323232"/>
<path d="M468.703 123H392.703L396.703 185H468.436C470.747 185 472.577 183.048 472.428 180.742L468.703 123Z" fill="#A6A6A6"/>
<path d="M466.703 127H386.703L392.703 185H468.268C470.64 185 472.491 182.948 472.247 180.589L466.703 127Z" fill="#EBEBEB"/>
<path d="M464.703 130.999H380.703L388.703 184.999H468.067C470.509 184.999 472.381 182.829 472.023 180.413L464.703 130.999Z" fill="white"/>
<path d="M381.394 135H461.292C463.257 135 464.931 136.428 465.242 138.369L471.962 180.369C472.351 182.799 470.473 185 468.012 185H388.114C386.149 185 384.474 183.573 384.164 181.632L377.444 139.632C377.055 137.202 378.933 135 381.394 135Z" fill="#EBEBEB"/>
<path d="M433.053 112.999H456.703C458.912 112.999 460.703 114.79 460.703 116.999V180.999C460.703 183.208 458.912 184.999 456.703 184.999H376.703C374.494 184.999 372.703 183.208 372.703 180.999V122.999C372.703 120.79 374.494 118.999 376.703 118.999H423.82C424.896 118.999 425.927 118.565 426.68 117.795L430.193 114.203C430.945 113.433 431.976 112.999 433.053 112.999Z" fill="#6B6B6B"/>
<path d="M456.703 123H380.703L384.703 185H456.436C458.747 185 460.577 183.048 460.428 180.742L456.703 123Z" fill="#A6A6A6"/>
<path d="M454.703 127H374.703L380.703 185H456.268C458.64 185 460.491 182.948 460.247 180.589L454.703 127Z" fill="#EBEBEB"/>
<path d="M452.703 130.999H368.703L376.703 184.999H456.067C458.509 184.999 460.381 182.829 460.023 180.413L452.703 130.999Z" fill="white"/>
<path d="M369.394 135H449.292C451.257 135 452.931 136.428 453.242 138.369L459.962 180.369C460.351 182.799 458.473 185 456.012 185H376.114C374.149 185 372.474 183.573 372.164 181.632L365.444 139.632C365.055 137.202 366.933 135 369.394 135Z" fill="#EBEBEB"/>
<path d="M421.053 112.999H444.703C446.912 112.999 448.703 114.79 448.703 116.999V180.999C448.703 183.208 446.912 184.999 444.703 184.999H364.703C362.494 184.999 360.703 183.208 360.703 180.999V122.999C360.703 120.79 362.494 118.999 364.703 118.999H411.819C412.896 118.999 413.927 118.565 414.679 117.795L418.193 114.203C418.945 113.433 419.976 112.999 421.053 112.999Z" fill="#323232"/>
<path d="M444.703 123H368.703L372.703 185H444.436C446.747 185 448.577 183.048 448.428 180.742L444.703 123Z" fill="#A6A6A6"/>
<path d="M442.703 127H362.703L368.703 185H444.267C446.639 185 448.49 182.948 448.246 180.589L442.703 127Z" fill="#EBEBEB"/>
<path d="M440.703 130.999H356.703L364.703 184.999H444.066C446.509 184.999 448.381 182.829 448.023 180.413L440.703 130.999Z" fill="white"/>
<path d="M357.394 135H437.292C439.257 135 440.931 136.428 441.242 138.369L447.962 180.369C448.35 182.799 446.473 185 444.012 185H364.114C362.148 185 360.474 183.573 360.164 181.632L353.444 139.632C353.055 137.202 354.932 135 357.394 135Z" fill="#EBEBEB"/>
<path d="M409.053 112.999H432.703C434.912 112.999 436.703 114.79 436.703 116.999V180.999C436.703 183.208 434.912 184.999 432.703 184.999H352.703C350.494 184.999 348.703 183.208 348.703 180.999V122.999C348.703 120.79 350.494 118.999 352.703 118.999H399.82C400.896 118.999 401.927 118.565 402.68 117.795L406.193 114.203C406.945 113.433 407.976 112.999 409.053 112.999Z" fill="#6B6B6B"/>
<path d="M432.703 123H356.703L360.703 185H432.436C434.747 185 436.577 183.048 436.428 180.742L432.703 123Z" fill="#A6A6A6"/>
<path d="M430.703 127H350.703L356.703 185H432.268C434.64 185 436.491 182.948 436.247 180.589L430.703 127Z" fill="#EBEBEB"/>
<path d="M428.703 130.999H344.703L352.703 184.999H432.067C434.509 184.999 436.381 182.829 436.023 180.413L428.703 130.999Z" fill="white"/>
<path d="M345.394 135H425.292C427.257 135 428.931 136.428 429.242 138.369L435.962 180.369C436.351 182.799 434.473 185 432.012 185H352.114C350.149 185 348.474 183.573 348.164 181.632L341.444 139.632C341.055 137.202 342.933 135 345.394 135Z" fill="#EBEBEB"/>
<path d="M496.703 138.001L408.703 150.001V194.001L496.703 182.001V138.001Z" fill="#455A64"/>
<path d="M496.703 139.999L409.762 152V199.749L496.703 183.999V139.999Z" fill="#C6C6C6"/>
<path d="M496.703 157.999L408.703 173.999V177.999L496.703 161.999V157.999Z" fill="#EBEBEB"/>
<path d="M496.703 164L408.703 180V184L496.703 168V164Z" fill="#EBEBEB"/>
<path d="M496.703 95.999H492.703V184.55L496.703 183.999V95.999Z" fill="#455A64"/>
<path d="M414.93 110.001L326.93 106.001V188.001L414.93 204.001V110.001Z" fill="#AFABED"/>
<g filter="url(#filter1_i_9833_146618)">
<path d="M355.929 129C355.929 124.704 359.618 121.336 363.897 121.725L370.654 122.339C374.774 122.714 377.929 126.169 377.929 130.306V131L355.929 129Z" fill="#D9D9D9"/>
</g>
<g filter="url(#filter2_i_9833_146618)">
<path d="M438.703 39.3067C438.703 35.1691 441.858 31.7142 445.978 31.3395L452.735 30.7253C457.014 30.3363 460.703 33.705 460.703 38.001L438.703 40.001V39.3067Z" fill="#D9D9D9"/>
</g>
<path d="M418.929 110H414.929V204.036L418.929 203.29V110Z" fill="#455A64"/>
<path d="M422.929 150.167L418.929 150.718V198.086L422.929 197.349V150.167Z" fill="#323232" fill-opacity="0.4"/>
<mask id="mask0_9833_146618" style="mask-type:alpha" maskUnits="userSpaceOnUse" x="0" y="0" width="289" height="288">
<path d="M0.785645 144C0.785645 223.528 65.2579 288 144.786 288C224.313 288 288.786 223.528 288.786 144C288.786 64.4722 224.313 0 144.786 0C65.2579 0 0.785645 64.4722 0.785645 144Z" fill="#FEF6E9"/>
</mask>
<g mask="url(#mask0_9833_146618)">
<path d="M175.967 257.554L232.505 270.25C232.505 270.25 49.824 343 80.7823 246.616L175.967 257.554Z" fill="#263238"/>
<path d="M186.27 178.5C186.27 178.5 191.857 203.696 194.27 207C196.682 210.304 207.718 212.71 207.718 212.71L226.626 208.8L215.033 197.492L209.173 173.057L186.27 178.5Z" fill="#886960"/>
<path d="M152.322 103.28C134.84 102.791 108.275 103.515 96.6921 111.451C84.7086 124.099 85.7243 185.803 85.7243 185.803C85.7243 185.803 85.6071 206.641 85.6071 210.453C85.6071 224.348 76.5632 234.681 76.5632 245.952C76.5632 250.927 84.943 252.208 84.943 252.208C129.381 273.73 175.957 260.398 175.957 257.554L185.9 202.721L186.564 110.718L182.13 109.076C172.578 105.548 162.509 103.573 152.322 103.28Z" fill="#A8A4E6"/>
<g opacity="0.3">
<path d="M114.701 235.845C105.628 220.48 105.374 201.479 99.0164 184.863C98.9578 184.648 98.8406 184.443 98.6648 184.296C98.3913 184.15 98.0592 184.111 97.7565 184.189L89.0838 185.469C88.7517 185.479 88.4294 185.606 88.1657 185.821C87.9606 186.075 87.8435 186.398 87.8337 186.73C87.5798 188.734 87.5505 191.099 89.1229 192.36C89.6601 192.673 90.1484 193.054 90.5781 193.494C90.9102 194.051 91.0762 194.686 91.0567 195.331C91.7305 205.77 93.8011 216.082 97.2389 225.963C98.4109 229.326 99.9149 232.883 102.845 234.838C106.107 237.047 110.414 236.871 114.321 236.617" fill="black"/>
</g>
<path d="M185.157 182.802L183.575 109.613C198.029 110.131 215.033 171.376 215.033 171.376C211.058 178.354 185.157 182.802 185.157 182.802Z" fill="#A8A4E6"/>
<path d="M186.223 182.653C186.239 182.324 186.249 181.837 186.255 181.202C186.277 179.931 186.265 178.091 186.215 175.832C186.119 171.332 185.816 165.074 185.124 158.186C184.545 152.299 183.637 146.456 182.393 140.677C182.141 139.609 181.904 138.578 181.683 137.703C181.462 136.828 181.226 136.044 181.055 135.478C180.884 134.912 180.74 134.45 180.621 134.083C180.585 133.92 180.528 133.751 180.445 133.606C180.443 133.775 180.471 133.949 180.526 134.108C180.618 134.489 180.713 134.89 180.866 135.528C181.019 136.167 181.199 136.91 181.407 137.768C181.601 138.657 181.812 139.653 182.04 140.754C182.946 145.182 183.937 151.417 184.618 158.238C185.299 165.059 185.664 171.337 185.864 175.859L186.061 181.224C186.086 181.804 186.104 182.286 186.119 182.68C186.126 182.847 186.154 183.021 186.2 183.182C186.231 183.008 186.242 182.828 186.223 182.653Z" fill="#263238"/>
<path d="M91.1544 185.997C91.1544 185.997 99.4169 235.552 112.485 236.363C125.552 237.174 179.405 210.286 179.405 210.286L175.957 194.442C168.613 197.374 125.308 208.126 125.308 208.126L123.111 184.541L91.1544 185.997Z" fill="#886960"/>
<path d="M109.955 214.685C110.492 213.697 111.205 212.828 112.055 212.094C113.109 211.215 114.311 210.521 115.6 210.052C118.002 209.28 120.473 208.752 122.983 208.459C124.028 208.332 125.064 208.126 126.079 207.833C125.025 207.843 123.97 207.931 122.925 208.107C120.376 208.292 117.846 208.781 115.414 209.573C114.076 210.062 112.846 210.785 111.771 211.713C110.892 212.495 110.17 213.434 109.652 214.489C109.3 215.193 109.086 215.955 108.998 216.737C108.929 217.021 108.929 217.314 108.998 217.597C109.164 216.581 109.486 215.594 109.955 214.685Z" fill="#6C544D"/>
<path d="M133.977 124.53C130.725 121.676 128.733 117.649 128.43 113.339L123.918 50.12L125.9 48.6051C132.444 43.5616 140.218 40.346 148.412 39.3197C156.606 38.2836 164.937 39.4663 172.526 42.7308C172.526 42.7308 174.841 73.4312 174.684 86.7826C174.528 100.144 161.158 102.216 161.158 102.216C161.158 102.216 161.265 106.741 161.265 112.009C161.304 116.232 159.712 120.308 156.831 123.396C153.95 126.485 149.995 128.342 145.775 128.596C141.468 128.85 137.23 127.384 133.977 124.53Z" fill="#886960"/>
<path d="M161.463 105.699C148.152 106.881 144.02 97.2832 144.02 97.2832C149.206 100.626 155.262 102.346 161.424 102.229L161.463 105.699Z" fill="#6C544D"/>
<path d="M126.076 77.0381C126.076 77.3117 116.964 79.4522 116.681 70.3526C116.398 61.2529 125.344 63.8626 125.568 63.9506C125.568 63.9506 126.076 76.7644 126.076 77.0381Z" fill="#886960"/>
<path d="M122.902 74.0959C122.697 74.2523 122.463 74.35 122.218 74.3989C121.974 74.4478 121.711 74.438 121.466 74.3793C120.724 74.047 120.089 73.5095 119.66 72.8155C119.22 72.1215 119.005 71.3201 119.025 70.5088C118.966 69.6292 119.122 68.7495 119.484 67.948C119.601 67.5864 119.816 67.2638 120.089 66.9999C120.373 66.7458 120.714 66.5601 121.076 66.4721C121.232 66.4428 121.388 66.4526 121.545 66.4916C121.701 66.5307 121.847 66.5894 121.974 66.6871C122.16 66.824 122.287 67.0195 122.345 67.2443C122.443 67.6157 122.297 67.7916 122.248 67.7721C122.199 67.7525 122.248 67.5766 122.121 67.3225C122.033 67.1563 121.886 67.0195 121.711 66.9511C121.535 66.8826 121.339 66.8728 121.164 66.9217C120.88 67.0195 120.636 67.1857 120.431 67.4007C120.226 67.6157 120.089 67.8796 120.011 68.1728C119.718 68.9059 119.581 69.6878 119.63 70.4795C119.611 71.1734 119.787 71.8674 120.128 72.4832C120.47 73.0892 120.968 73.5974 121.564 73.9591C121.945 74.1154 122.375 74.1154 122.765 73.9591C123.019 73.832 123.185 73.7147 123.185 73.7147C123.176 73.7245 123.176 73.92 122.902 74.0959Z" fill="#6C544D"/>
<path d="M167.975 61.9472C167.867 61.7322 167.711 61.5367 167.535 61.3803C167.35 61.2239 167.135 61.0968 166.9 61.0284C166.666 60.9502 166.422 60.9209 166.178 60.9404C165.679 60.96 165.211 61.1653 164.869 61.5269C164.527 61.8886 164.332 62.3675 164.341 62.866C164.371 63.3547 164.595 63.814 164.967 64.1366C165.338 64.4591 165.816 64.6252 166.305 64.5959C166.803 64.5764 167.271 64.3614 167.623 63.9997C167.965 63.6381 168.16 63.1592 168.16 62.6607C168.15 62.3968 168.082 62.1622 167.975 61.9472Z" fill="#263238"/>
<path d="M169.283 60.4714C168.424 59.8458 167.379 59.5038 166.314 59.5135C165.23 59.494 164.175 59.8165 163.296 60.442C162.642 60.921 162.271 61.2239 162.495 61.4781C162.72 61.7322 164.234 60.6962 166.285 60.6962C168.336 60.6962 169.781 61.7713 170.006 61.5074C170.133 61.4097 169.908 60.9601 169.283 60.4714Z" fill="#263238"/>
<path d="M147.797 62.5821C147.689 62.3671 147.543 62.1716 147.357 62.0055C147.172 61.8491 146.957 61.722 146.732 61.6536C146.498 61.5754 146.254 61.5559 146.01 61.5754C145.512 61.595 145.043 61.8002 144.701 62.1618C144.359 62.5235 144.164 63.0024 144.173 63.4911C144.203 63.9799 144.427 64.4392 144.799 64.7618C145.17 65.0843 145.648 65.2504 146.137 65.2211C146.635 65.2016 147.103 64.9963 147.455 64.6347C147.797 64.2731 147.982 63.7941 147.982 63.2859C147.963 63.0415 147.904 62.7971 147.797 62.5821Z" fill="#263238"/>
<path d="M149.116 60.8717C148.256 60.2462 147.211 59.9041 146.147 59.9139C145.062 59.8944 143.998 60.2267 143.109 60.8425C142.455 61.3214 142.103 61.6244 142.328 61.8785C142.552 62.1326 144.066 61.0966 146.117 61.0966C148.168 61.0966 149.604 62.1717 149.838 61.9078C149.946 61.8003 149.741 61.3507 149.116 60.8717Z" fill="#263238"/>
<path d="M160.62 77.0871C160.913 77.0871 161.216 77.0382 161.499 76.96C161.695 76.9111 161.871 76.8134 162.027 76.6766C162.173 76.5397 162.291 76.3736 162.369 76.1879C162.525 75.4939 162.437 74.7706 162.095 74.1451C161.636 72.8646 161.138 71.5256 160.611 70.1279C159.458 66.6386 158.013 63.247 156.313 59.9824C157.183 63.55 158.345 67.0491 159.781 70.4309L161.382 74.4188C161.665 74.8977 161.792 75.4645 161.734 76.0217C161.656 76.3931 161.158 76.5495 160.63 76.5495C159.497 76.6081 158.374 76.8036 157.29 77.1457C158.394 77.2728 159.517 77.2532 160.62 77.0871Z" fill="#263238"/>
<path d="M150.874 79.9705C151.01 81.2215 151.626 82.3748 152.602 83.1666C153.618 83.9876 154.888 84.4274 156.196 84.4177C157.251 84.3883 157.827 84.2124 157.798 83.9582C157.769 83.7041 155.415 83.9387 153.501 82.3553C151.586 80.7719 151.587 78.563 151.245 78.563C151.098 78.5435 150.844 79.1006 150.874 79.9705Z" fill="#263238"/>
<path d="M149.115 52.8079C147.943 52.3876 146.703 52.241 145.472 52.3778C144.242 52.5146 143.05 52.9252 142.005 53.5898C141.224 54.1372 140.882 54.6454 141.019 54.8898C141.341 55.398 143.285 54.7334 145.707 54.4402C148.119 54.1567 150.17 54.4206 150.356 53.8635C150.453 53.5898 150.004 53.1597 149.115 52.8079Z" fill="#263238"/>
<path d="M168.609 54.4402C167.809 53.8537 166.842 53.5312 165.845 53.5116C164.849 53.4627 163.863 53.7267 163.013 54.2642C162.31 54.7138 162.154 55.1732 162.31 55.4176C162.583 55.916 164.087 55.5935 165.777 55.5935C167.467 55.5935 168.893 56.0529 169.244 55.5935C169.41 55.3491 169.225 54.8702 168.609 54.4402Z" fill="#263238"/>
<path d="M177.136 38.841C177.653 39.3884 178.005 40.0823 178.142 40.8252C178.278 41.568 178.19 42.3401 177.907 43.0341C177.292 44.422 176.257 45.5753 174.938 46.3279C173.835 47.0512 172.614 47.5888 171.344 47.9309H171.237H170.885C165.289 49.1038 159.458 48.4685 154.243 46.1227C140.238 38.9583 136.741 42.5063 135.061 44.031C133.382 45.5558 135.872 55.5938 129.182 58.1839C129.182 58.1839 130.481 68.4858 125.021 68.388C121.886 68.388 121.056 59.7477 120.91 52.3879C120.91 52.2315 120.91 52.0556 120.91 51.8797C120.158 49.9444 119.621 47.9309 119.308 45.8784C118.839 42.8191 119.513 39.7011 121.212 37.111C122.082 35.8599 123.312 34.902 124.738 34.3547C126.164 33.8171 127.717 33.7096 129.201 34.0713C130.793 29.8586 133.977 26.4377 138.069 24.5611C142.162 22.6845 146.83 22.489 151.059 24.0333C153.061 24.7663 154.907 25.8708 156.88 26.6723C158.833 27.5715 161.021 27.8256 163.13 27.3955C165.22 26.8971 167.076 25.1769 169.264 25.3039C169.83 25.3724 170.377 25.5581 170.866 25.8513C171.354 26.1445 171.784 26.5355 172.106 27.0046C172.438 27.4738 172.663 28.0015 172.78 28.5684C172.887 29.1256 172.887 29.712 172.76 30.2691C173.356 29.6827 174.137 29.3308 174.967 29.2624C175.798 29.2038 176.628 29.4384 177.302 29.9271C177.946 30.4451 178.454 31.1293 178.776 31.8917C179.099 32.6638 179.216 33.4946 179.128 34.3254C178.913 35.987 178.229 37.5606 177.136 38.841Z" fill="#263238"/>
<path d="M122.326 52.4665C123.82 53.5221 125.627 54.0498 127.463 53.9716C129.289 53.8935 131.047 53.1995 132.444 52.0168C133.049 51.5672 133.528 50.9808 133.85 50.3064C133.85 50.2379 133.323 50.9417 132.249 51.7334C130.872 52.789 129.201 53.395 127.473 53.4732C125.744 53.5514 124.025 53.092 122.56 52.1635C121.427 51.4597 120.802 50.8831 120.802 50.8831C121.183 51.5282 121.701 52.0657 122.326 52.4665Z" fill="#F3F3F3"/>
<path d="M131.165 47.5894C129.582 48.3224 127.864 48.7232 126.115 48.7525C124.367 48.7818 122.638 48.4495 121.027 47.7751C119.777 47.2277 119.044 46.739 119.044 46.8172C119.562 47.3547 120.177 47.7946 120.871 48.0976C122.502 48.8893 124.309 49.2803 126.125 49.251C127.942 49.2216 129.719 48.7525 131.331 47.9021C132.014 47.5796 132.62 47.1202 133.108 46.5435C133.05 46.4849 132.376 47.0127 131.165 47.5894Z" fill="#F3F3F3"/>
<path d="M120.054 133.199C123.716 149.033 127.457 184.699 127.457 184.699L83.9174 192.733C83.9174 192.733 78.2039 134.597 83.4779 123.23C85.2065 119.799 87.6677 116.798 90.6856 114.443C92.4435 113.016 94.4945 111.999 96.692 111.462C98.8895 110.924 101.175 110.885 103.392 111.335C105.609 111.784 107.699 112.732 109.506 114.091C111.312 115.45 112.807 117.189 113.862 119.193C116.049 123.239 118.325 125.683 120.054 133.199Z" fill="#A8A4E6"/>
<path d="M114.447 120.345C114.867 121.098 115.493 122.163 116.284 123.551C117.26 125.271 118.071 127.07 118.706 128.937C119.526 131.458 120.171 134.039 120.63 136.648C122.876 148.328 125.073 165.062 127.212 184.747L127.398 184.492L85.5385 192.204L83.8587 192.517L84.1615 192.742C82.7649 177.817 81.8175 163.566 81.5147 150.606C81.3194 144.477 81.4464 138.349 81.8858 132.23C82.003 130.803 82.1691 129.396 82.384 128.028C82.4816 127.324 82.6477 126.659 82.7746 125.995C82.9309 125.34 83.1164 124.704 83.3508 124.079C84.3177 121.723 85.7046 119.573 87.4626 117.726C89.0057 115.996 90.7832 114.481 92.7365 113.239C94.5043 112.184 96.4771 111.509 98.5183 111.255C101.204 110.942 103.929 111.343 106.41 112.418C108.89 113.494 111.049 115.214 112.66 117.384C112.982 117.814 113.285 118.263 113.568 118.732C113.774 119.035 113.881 119.192 113.881 119.192C113.881 119.192 113.793 119.026 113.617 118.703C113.354 118.224 113.07 117.765 112.748 117.315C111.518 115.585 109.945 114.129 108.129 113.044C105.228 111.333 101.849 110.6 98.4987 110.952C96.4087 111.197 94.3968 111.871 92.5802 112.936C90.5976 114.187 88.8006 115.702 87.2282 117.442C85.4409 119.319 84.015 121.508 83.0188 123.903C82.7844 124.548 82.5793 125.203 82.423 125.868C82.2863 126.532 82.1203 127.207 82.0226 127.901C81.798 129.279 81.6222 130.686 81.4952 132.123C81.0362 138.251 80.8995 144.399 81.0753 150.537C81.3683 163.517 82.2863 177.778 83.6927 192.722L83.7317 192.996L84.0052 192.957L85.685 192.644L127.544 184.893L127.759 184.864L127.73 184.649C125.552 164.954 123.296 148.231 120.962 136.541C120.473 133.921 119.809 131.341 118.96 128.81C118.305 126.943 117.465 125.134 116.469 123.434L114.565 120.267L114.086 119.446C114.037 119.348 113.979 119.26 113.91 119.172C113.871 119.182 114.028 119.602 114.447 120.345Z" fill="#263238"/>
<path d="M167.177 68.7087C166.591 68.7674 161.552 69.2952 160.594 68.5719C159.637 67.8486 157.938 62.2969 157.45 60.6158L154.539 60.606C154.022 61.9646 151.697 68.0637 149.47 69.4125C147.244 70.7613 137.887 70.6929 136.803 69.3148C136.012 68.3373 134.049 61.8571 133.561 60.2346L121.812 61.0068L121.792 60.2542L134.176 59.4527L134.254 59.7361C135.221 63.0104 136.793 68.0441 137.448 68.8944C138.102 69.7448 146.853 70.1455 149.07 68.8163C150.828 67.7509 153.162 62.1992 153.904 60.1467L154.002 59.8925L158.075 59.9023L158.143 60.176C158.993 63.1571 160.487 67.5652 161.083 68.0246C162.05 68.6599 172.246 67.8096 173.447 66.6269C174.443 65.6202 175.654 60.5865 176.104 58.7392C176.172 58.4264 176.25 58.1234 176.348 57.8204L177.09 58.0843C177.051 58.1723 176.992 58.4753 176.885 58.9249C176.035 62.424 175.039 66.148 174.014 67.1742C173.33 67.8584 170.966 68.3178 169.062 68.5719C168.378 68.6501 167.763 68.6501 167.177 68.7087Z" fill="#C6C6C6"/>
<path d="M134.303 60.7236L133.531 59.4236C139.518 56.1102 149.109 57.0876 154.539 59.9026L153.777 61.2221C148.679 58.5928 139.655 57.762 134.303 60.7236Z" fill="#C6C6C6"/>
<path d="M158.221 61.0459L157.274 59.873C162.235 56.1589 170.605 55.1424 177.178 57.4491L176.621 58.8663C170.625 56.7453 162.724 57.6836 158.221 61.0459Z" fill="#C6C6C6"/>
</g>
<path d="M233.892 149.003H210.242C208.033 149.003 206.242 150.794 206.242 153.003V217.059C206.242 219.268 208.033 221.059 210.242 221.059H290.242C292.452 221.059 294.242 219.268 294.242 217.059V159.008C294.242 156.799 292.452 155.008 290.242 155.008H243.127C242.05 155.008 241.018 154.574 240.265 153.803L236.753 150.208C236 149.438 234.969 149.003 233.892 149.003Z" fill="#263238"/>
<g clip-path="url(#clip0_9833_146618)">
<path opacity="0.2" d="M262.243 145.675H218.919V205.046H262.243V145.675Z" fill="white"/>
<path d="M261.566 145H218.242V204.372H261.566V145Z" fill="#EBEBEB"/>
<path d="M255.812 150.397H223.996C223.809 150.397 223.658 150.548 223.658 150.735C223.658 150.921 223.809 151.072 223.996 151.072H255.812C255.998 151.072 256.15 150.921 256.15 150.735C256.15 150.548 255.998 150.397 255.812 150.397Z" fill="#A6A6A6"/>
<path d="M251.75 153.771H228.058C227.871 153.771 227.719 153.922 227.719 154.108C227.719 154.295 227.871 154.446 228.058 154.446H251.75C251.937 154.446 252.088 154.295 252.088 154.108C252.088 153.922 251.937 153.771 251.75 153.771Z" fill="#A6A6A6"/>
<path d="M234.15 159.843H223.996C223.809 159.843 223.658 159.994 223.658 160.18C223.658 160.367 223.809 160.518 223.996 160.518H234.15C234.337 160.518 234.488 160.367 234.488 160.18C234.488 159.994 234.337 159.843 234.15 159.843Z" fill="#EBEBEB"/>
<path d="M231.442 161.867H223.996C223.809 161.867 223.658 162.018 223.658 162.204C223.658 162.391 223.809 162.542 223.996 162.542H231.442C231.629 162.542 231.781 162.391 231.781 162.204C231.781 162.018 231.629 161.867 231.442 161.867Z" fill="#EBEBEB"/>
<path d="M253.104 159.843H242.95C242.763 159.843 242.612 159.994 242.612 160.18C242.612 160.367 242.763 160.518 242.95 160.518H253.104C253.291 160.518 253.442 160.367 253.442 160.18C253.442 159.994 253.291 159.843 253.104 159.843Z" fill="#EBEBEB"/>
<path d="M250.396 161.867H242.95C242.763 161.867 242.612 162.018 242.612 162.204C242.612 162.391 242.763 162.542 242.95 162.542H250.396C250.583 162.542 250.735 162.391 250.735 162.204C250.735 162.018 250.583 161.867 250.396 161.867Z" fill="#EBEBEB"/>
<path d="M234.15 163.891H223.996C223.809 163.891 223.658 164.042 223.658 164.228C223.658 164.415 223.809 164.566 223.996 164.566H234.15C234.337 164.566 234.488 164.415 234.488 164.228C234.488 164.042 234.337 163.891 234.15 163.891Z" fill="#EBEBEB"/>
<path d="M231.442 165.915H223.996C223.809 165.915 223.658 166.066 223.658 166.252C223.658 166.439 223.809 166.59 223.996 166.59H231.442C231.629 166.59 231.781 166.439 231.781 166.252C231.781 166.066 231.629 165.915 231.442 165.915Z" fill="#EBEBEB"/>
<path d="M253.104 163.891H242.95C242.763 163.891 242.612 164.042 242.612 164.228C242.612 164.415 242.763 164.566 242.95 164.566H253.104C253.291 164.566 253.442 164.415 253.442 164.228C253.442 164.042 253.291 163.891 253.104 163.891Z" fill="#EBEBEB"/>
<path d="M250.396 165.915H242.95C242.763 165.915 242.612 166.066 242.612 166.252C242.612 166.439 242.763 166.59 242.95 166.59H250.396C250.583 166.59 250.735 166.439 250.735 166.252C250.735 166.066 250.583 165.915 250.396 165.915Z" fill="#EBEBEB"/>
<path d="M234.15 167.939H223.996C223.809 167.939 223.658 168.09 223.658 168.276C223.658 168.463 223.809 168.614 223.996 168.614H234.15C234.337 168.614 234.488 168.463 234.488 168.276C234.488 168.09 234.337 167.939 234.15 167.939Z" fill="#EBEBEB"/>
<path d="M231.442 169.963H223.996C223.809 169.963 223.658 170.114 223.658 170.3C223.658 170.487 223.809 170.638 223.996 170.638H231.442C231.629 170.638 231.781 170.487 231.781 170.3C231.781 170.114 231.629 169.963 231.442 169.963Z" fill="#EBEBEB"/>
<path d="M255.812 180.083H223.996C223.809 180.083 223.658 180.234 223.658 180.421C223.658 180.607 223.809 180.758 223.996 180.758H255.812C255.998 180.758 256.15 180.607 256.15 180.421C256.15 180.234 255.998 180.083 255.812 180.083Z" fill="#EBEBEB"/>
<path d="M247.688 182.107H223.996C223.809 182.107 223.658 182.258 223.658 182.445C223.658 182.631 223.809 182.782 223.996 182.782H247.688C247.875 182.782 248.027 182.631 248.027 182.445C248.027 182.258 247.875 182.107 247.688 182.107Z" fill="#EBEBEB"/>
<path d="M253.104 167.939H242.95C242.763 167.939 242.612 168.09 242.612 168.276C242.612 168.463 242.763 168.614 242.95 168.614H253.104C253.291 168.614 253.442 168.463 253.442 168.276C253.442 168.09 253.291 167.939 253.104 167.939Z" fill="#EBEBEB"/>
<path d="M250.396 169.963H242.95C242.763 169.963 242.612 170.114 242.612 170.3C242.612 170.487 242.763 170.638 242.95 170.638H250.396C250.583 170.638 250.735 170.487 250.735 170.3C250.735 170.114 250.583 169.963 250.396 169.963Z" fill="#EBEBEB"/>
<path d="M234.15 171.987H223.996C223.809 171.987 223.658 172.138 223.658 172.325C223.658 172.511 223.809 172.662 223.996 172.662H234.15C234.337 172.662 234.488 172.511 234.488 172.325C234.488 172.138 234.337 171.987 234.15 171.987Z" fill="#EBEBEB"/>
<path d="M231.442 174.011H223.996C223.809 174.011 223.658 174.162 223.658 174.348C223.658 174.535 223.809 174.686 223.996 174.686H231.442C231.629 174.686 231.781 174.535 231.781 174.348C231.781 174.162 231.629 174.011 231.442 174.011Z" fill="#EBEBEB"/>
<path d="M253.104 171.987H242.95C242.763 171.987 242.612 172.138 242.612 172.325C242.612 172.511 242.763 172.662 242.95 172.662H253.104C253.291 172.662 253.442 172.511 253.442 172.325C253.442 172.138 253.291 171.987 253.104 171.987Z" fill="#EBEBEB"/>
<path d="M250.396 174.011H242.95C242.763 174.011 242.612 174.162 242.612 174.348C242.612 174.535 242.763 174.686 242.95 174.686H250.396C250.583 174.686 250.735 174.535 250.735 174.348C250.735 174.162 250.583 174.011 250.396 174.011Z" fill="#EBEBEB"/>
<path d="M234.489 197.838H235.059V198.974H234.489V197.838Z" fill="#A6A6A6"/>
<path d="M234.489 194.429H235.059V195.565H234.489V194.429Z" fill="#A6A6A6"/>
<path d="M234.489 193.293H235.059V193.861H234.489V193.293Z" fill="#A6A6A6"/>
<path d="M234.489 191.588H235.059V192.157H234.489V191.588Z" fill="#A6A6A6"/>
<path d="M234.489 188.179H234.869V191.02H234.489V188.179Z" fill="#A6A6A6"/>
<path d="M234.489 188.179H237.339V188.558H234.489V188.179Z" fill="#A6A6A6"/>
<path d="M236.959 188.179H237.339V191.02H236.959V188.179Z" fill="#A6A6A6"/>
<path d="M237.339 190.642H234.489V191.02H237.339V190.642Z" fill="#A6A6A6"/>
<path d="M243.039 191.588H243.61V192.157H243.039V191.588Z" fill="#A6A6A6"/>
<path d="M241.329 191.02H241.899V191.589H241.329V191.02Z" fill="#A6A6A6"/>
<path d="M240.189 191.588H240.759V192.157H240.189V191.588Z" fill="#A6A6A6"/>
<path d="M240.189 192.725H241.33V193.293H240.189V192.725Z" fill="#A6A6A6"/>
<path d="M243.039 193.293H243.61V193.861H243.039V193.293Z" fill="#A6A6A6"/>
<path d="M242.469 193.861H243.039V194.429H242.469V193.861Z" fill="#A6A6A6"/>
<path d="M241.329 193.861H241.899V194.429H241.329V193.861Z" fill="#A6A6A6"/>
<path d="M240.759 194.429H241.33V194.997H240.759V194.429Z" fill="#A6A6A6"/>
<path d="M242.469 192.156H243.039V193.293H242.469V192.156Z" fill="#A6A6A6"/>
<path d="M242.47 192.156H241.899V192.725H242.47V192.156Z" fill="#A6A6A6"/>
<path d="M244.749 194.997H245.32V195.566H244.749V194.997Z" fill="#A6A6A6"/>
<path d="M243.039 194.429H244.749V194.997H243.039V194.429Z" fill="#A6A6A6"/>
<path d="M244.179 191.588H244.75V192.725H244.179V191.588Z" fill="#A6A6A6"/>
<path d="M244.749 193.293H245.32V194.429H244.749V193.293Z" fill="#A6A6A6"/>
<path d="M240.189 188.179H240.759V188.748H240.189V188.179Z" fill="#A6A6A6"/>
<path d="M239.049 189.316H239.619V189.884H239.049V189.316Z" fill="#A6A6A6"/>
<path d="M238.479 189.884H239.049V190.452H238.479V189.884Z" fill="#A6A6A6"/>
<path d="M239.049 190.452H240.19V191.02H239.049V190.452Z" fill="#A6A6A6"/>
<path d="M237.339 191.588H239.049V192.157H237.339V191.588Z" fill="#A6A6A6"/>
<path d="M238.479 192.725H239.62V193.293H238.479V192.725Z" fill="#A6A6A6"/>
<path d="M240.189 191.588H239.619V193.293H240.189V191.588Z" fill="#A6A6A6"/>
<path d="M239.619 189.884H240.76V190.452H239.619V189.884Z" fill="#A6A6A6"/>
<path d="M240.759 188.747H241.33V189.316H240.759V188.747Z" fill="#A6A6A6"/>
<path d="M240.189 189.316H241.899V189.884H240.189V189.316Z" fill="#A6A6A6"/>
<path d="M241.329 188.179H241.899V188.748H241.329V188.179Z" fill="#A6A6A6"/>
<path d="M235.629 191.588H236.77V192.157H235.629V191.588Z" fill="#A6A6A6"/>
<path d="M238.479 188.179H239.62V188.748H238.479V188.179Z" fill="#A6A6A6"/>
<path d="M237.909 188.747H239.05V189.316H237.909V188.747Z" fill="#A6A6A6"/>
<path d="M235.629 197.838H236.199V198.974H235.629V197.838Z" fill="#A6A6A6"/>
<path d="M236.199 197.27H236.769V198.406H236.199V197.27Z" fill="#A6A6A6"/>
<path d="M235.629 196.702H236.199V197.27H235.629V196.702Z" fill="#A6A6A6"/>
<path d="M235.629 195.565H236.199V196.133H235.629V195.565Z" fill="#A6A6A6"/>
<path d="M238.479 195.565H239.62V196.133H238.479V195.565Z" fill="#A6A6A6"/>
<path d="M239.049 196.701H239.619V196.133H239.049V196.701Z" fill="#A6A6A6"/>
<path d="M236.199 194.429H236.769V194.997H236.199V194.429Z" fill="#A6A6A6"/>
<path d="M237.339 194.429H237.909V194.997H237.339V194.429Z" fill="#A6A6A6"/>
<path d="M237.909 191.02H238.479V194.429H237.909V191.02Z" fill="#A6A6A6"/>
<path d="M240.759 190.452H241.33V192.156H240.759V190.452Z" fill="#A6A6A6"/>
<path d="M237.909 197.838H238.479V198.406H237.909V197.838Z" fill="#A6A6A6"/>
<path d="M240.759 197.838H241.9V198.406H240.759V197.838Z" fill="#A6A6A6"/>
<path d="M240.759 195.565H241.9V196.133H240.759V195.565Z" fill="#A6A6A6"/>
<path d="M241.329 194.997H243.039V195.566H241.329V194.997Z" fill="#A6A6A6"/>
<path d="M239.049 194.429H240.19V194.997H239.049V194.429Z" fill="#A6A6A6"/>
<path d="M239.619 193.861H240.76V194.429H239.619V193.861Z" fill="#A6A6A6"/>
<path d="M240.759 197.838H241.33V197.27H240.759V197.838Z" fill="#A6A6A6"/>
<path d="M240.189 196.701H240.759V196.133H240.189V196.701Z" fill="#A6A6A6"/>
<path d="M238.479 197.27H240.189V197.838H238.479V197.27Z" fill="#A6A6A6"/>
<path d="M239.619 196.702H241.899V197.27H239.619V196.702Z" fill="#A6A6A6"/>
<path d="M235.439 189.126H236.39V190.073H235.439V189.126Z" fill="#A6A6A6"/>
<path d="M242.469 188.179H242.849V191.02H242.469V188.179Z" fill="#A6A6A6"/>
<path d="M242.469 188.179H245.319V188.558H242.469V188.179Z" fill="#A6A6A6"/>
<path d="M244.939 188.179H245.32V191.02H244.939V188.179Z" fill="#A6A6A6"/>
<path d="M245.319 190.642H242.469V191.02H245.319V190.642Z" fill="#A6A6A6"/>
<path d="M243.419 189.126H244.37V190.073H243.419V189.126Z" fill="#A6A6A6"/>
<path d="M242.469 196.133H242.849V198.974H242.469V196.133Z" fill="#A6A6A6"/>
<path d="M242.469 196.133H245.319V196.512H242.469V196.133Z" fill="#A6A6A6"/>
<path d="M236.199 194.997H238.479V195.376H236.199V194.997Z" fill="#A6A6A6"/>
<path d="M236.199 196.891H238.479V197.27H236.199V196.891Z" fill="#A6A6A6"/>
<path d="M236.199 197.27V194.997H236.579V197.27H236.199Z" fill="#A6A6A6"/>
<path d="M238.099 197.27V194.997H238.479V197.27H238.099Z" fill="#A6A6A6"/>
<path d="M235.059 192.156H237.339V192.535H235.059V192.156Z" fill="#A6A6A6"/>
<path d="M235.059 194.051H237.339V194.429H235.059V194.051Z" fill="#A6A6A6"/>
<path d="M235.059 194.429V192.156H235.439V194.429H235.059Z" fill="#A6A6A6"/>
<path d="M236.959 194.429V192.156H237.339V194.429H236.959Z" fill="#A6A6A6"/>
<path d="M244.939 196.133H245.32V198.974H244.939V196.133Z" fill="#A6A6A6"/>
<path d="M245.319 198.595H242.469V198.974H245.319V198.595Z" fill="#A6A6A6"/>
<path d="M243.419 197.081H244.37V198.028H243.419V197.081Z" fill="#A6A6A6"/>
</g>
<g clip-path="url(#clip1_9833_146618)">
<path opacity="0.2" d="M251.977 151.641C251.977 150.033 253.293 148.73 254.916 148.73H284.304C285.927 148.73 287.242 150.033 287.242 151.641V169.109C287.242 170.717 285.927 172.021 284.304 172.021H254.916C253.293 172.021 251.977 170.717 251.977 169.109V151.641Z" fill="#AFABED"/>
<path d="M251.242 150.914C251.242 149.306 252.558 148.002 254.181 148.002H283.569C285.192 148.002 286.508 149.306 286.508 150.914V168.382C286.508 169.989 285.192 171.293 283.569 171.293H254.181C252.558 171.293 251.242 169.989 251.242 168.382V150.914Z" fill="#AFABED"/>
<path d="M284.671 152.369H253.079C252.876 152.369 252.712 152.532 252.712 152.733C252.712 152.934 252.876 153.097 253.079 153.097H284.671C284.874 153.097 285.038 152.934 285.038 152.733C285.038 152.532 284.874 152.369 284.671 152.369Z" fill="white"/>
<path d="M272.916 156.008H264.834C264.632 156.008 264.467 156.171 264.467 156.372C264.467 156.573 264.632 156.736 264.834 156.736H272.916C273.119 156.736 273.283 156.573 273.283 156.372C273.283 156.171 273.119 156.008 272.916 156.008Z" fill="white"/>
<path d="M277.324 158.192H264.834C264.632 158.192 264.467 158.355 264.467 158.556C264.467 158.757 264.632 158.92 264.834 158.92H277.324C277.527 158.92 277.692 158.757 277.692 158.556C277.692 158.355 277.527 158.192 277.324 158.192Z" fill="white"/>
<path d="M272.916 164.742H264.834C264.632 164.742 264.467 164.905 264.467 165.106C264.467 165.307 264.632 165.47 264.834 165.47H272.916C273.119 165.47 273.283 165.307 273.283 165.106C273.283 164.905 273.119 164.742 272.916 164.742Z" fill="white"/>
<path d="M277.324 166.926H264.834C264.632 166.926 264.467 167.089 264.467 167.29C264.467 167.491 264.632 167.654 264.834 167.654H277.324C277.527 167.654 277.692 167.491 277.692 167.29C277.692 167.089 277.527 166.926 277.324 166.926Z" fill="white"/>
<path d="M272.916 160.375H264.834C264.632 160.375 264.467 160.538 264.467 160.739C264.467 160.94 264.632 161.103 264.834 161.103H272.916C273.119 161.103 273.283 160.94 273.283 160.739C273.283 160.538 273.119 160.375 272.916 160.375Z" fill="white"/>
<path d="M281.732 162.559H264.834C264.632 162.559 264.467 162.722 264.467 162.923C264.467 163.124 264.632 163.287 264.834 163.287H281.732C281.935 163.287 282.1 163.124 282.1 162.923C282.1 162.722 281.935 162.559 281.732 162.559Z" fill="white"/>
<path d="M258.589 156.008H255.651C254.839 156.008 254.181 156.66 254.181 157.464V161.831C254.181 162.635 254.839 163.287 255.651 163.287H258.589C259.401 163.287 260.059 162.635 260.059 161.831V157.464C260.059 156.66 259.401 156.008 258.589 156.008Z" fill="white"/>
</g>
<g clip-path="url(#clip2_9833_146618)">
<path opacity="0.2" d="M290.242 161.012H243.242V221.059H290.242V161.012Z" fill="white"/>
<path d="M289.242 160.012H242.242V221.059H289.242V160.012Z" fill="white"/>
<path d="M265.504 165.949H248.519C248.315 165.949 248.15 166.115 248.15 166.32C248.15 166.525 248.315 166.691 248.519 166.691H265.504C265.708 166.691 265.873 166.525 265.873 166.32C265.873 166.115 265.708 165.949 265.504 165.949Z" fill="#A6A6A6"/>
<path d="M261.073 168.175H248.519C248.315 168.175 248.15 168.341 248.15 168.546C248.15 168.751 248.315 168.917 248.519 168.917H261.073C261.277 168.917 261.442 168.751 261.442 168.546C261.442 168.341 261.277 168.175 261.073 168.175Z" fill="#A6A6A6"/>
<path d="M283.227 187.471H248.519C248.315 187.471 248.15 187.305 248.15 187.1C248.15 186.895 248.315 186.729 248.519 186.729H283.227C283.431 186.729 283.596 186.895 283.596 187.1C283.596 187.305 283.431 187.471 283.227 187.471Z" fill="#EBEBEB"/>
<path d="M283.227 189.698H248.519C248.315 189.698 248.15 189.531 248.15 189.326C248.15 189.121 248.315 188.955 248.519 188.955H283.227C283.431 188.955 283.596 189.121 283.596 189.326C283.596 189.531 283.431 189.698 283.227 189.698Z" fill="#EBEBEB"/>
<path d="M283.227 191.924H248.519C248.315 191.924 248.15 191.758 248.15 191.553C248.15 191.348 248.315 191.182 248.519 191.182H283.227C283.431 191.182 283.596 191.348 283.596 191.553C283.596 191.758 283.431 191.924 283.227 191.924Z" fill="#EBEBEB"/>
<path d="M283.227 194.15H248.519C248.315 194.15 248.15 193.984 248.15 193.779C248.15 193.574 248.315 193.408 248.519 193.408H283.227C283.431 193.408 283.596 193.574 283.596 193.779C283.596 193.984 283.431 194.15 283.227 194.15Z" fill="#EBEBEB"/>
<path d="M283.227 185.245H248.519C248.315 185.245 248.15 185.078 248.15 184.874C248.15 184.669 248.315 184.502 248.519 184.502H283.227C283.431 184.502 283.596 184.669 283.596 184.874C283.596 185.078 283.431 185.245 283.227 185.245Z" fill="#EBEBEB"/>
<path d="M265.504 183.018H248.519C248.315 183.018 248.15 182.852 248.15 182.647C248.15 182.442 248.315 182.276 248.519 182.276H265.504C265.708 182.276 265.873 182.442 265.873 182.647C265.873 182.852 265.708 183.018 265.504 183.018Z" fill="#EBEBEB"/>
<path d="M274.647 175.166L272.621 180.436C272.611 180.46 272.609 180.487 272.615 180.513C272.62 180.539 272.634 180.562 272.653 180.58C272.673 180.598 272.697 180.61 272.723 180.613C272.749 180.617 272.775 180.613 272.799 180.601L274.482 179.777C274.499 179.768 274.517 179.764 274.535 179.763C274.554 179.762 274.572 179.765 274.589 179.772C274.607 179.779 274.622 179.789 274.635 179.802C274.648 179.816 274.658 179.832 274.664 179.849L275.307 181.569C275.317 181.594 275.334 181.616 275.357 181.631C275.38 181.646 275.406 181.653 275.433 181.652C275.46 181.651 275.486 181.642 275.508 181.625C275.529 181.609 275.545 181.586 275.553 181.56L277.431 175.887L274.647 175.166Z" fill="#AFABED"/>
<path d="M277.573 175.924L278.844 181.427C278.85 181.452 278.863 181.476 278.883 181.494C278.902 181.511 278.926 181.523 278.952 181.527C278.978 181.531 279.005 181.527 279.028 181.515C279.052 181.504 279.072 181.486 279.085 181.463L280.016 179.831C280.025 179.815 280.037 179.801 280.052 179.791C280.066 179.78 280.083 179.772 280.101 179.768C280.118 179.764 280.137 179.764 280.155 179.767C280.172 179.771 280.189 179.778 280.204 179.789L281.698 180.849C281.72 180.865 281.746 180.873 281.773 180.873C281.8 180.873 281.826 180.864 281.848 180.849C281.87 180.833 281.887 180.811 281.896 180.786C281.905 180.76 281.906 180.732 281.899 180.706L280.279 174.953L277.573 175.924Z" fill="#AFABED"/>
<g opacity="0.3">
<path d="M274.647 175.166L272.621 180.436C272.611 180.46 272.609 180.487 272.615 180.513C272.62 180.539 272.634 180.562 272.653 180.58C272.673 180.598 272.697 180.61 272.723 180.613C272.749 180.617 272.775 180.613 272.799 180.601L274.482 179.777C274.499 179.768 274.517 179.764 274.535 179.763C274.554 179.762 274.572 179.765 274.589 179.772C274.607 179.779 274.622 179.789 274.635 179.802C274.648 179.816 274.658 179.832 274.664 179.849L275.307 181.569C275.317 181.594 275.334 181.616 275.357 181.631C275.38 181.646 275.406 181.653 275.433 181.652C275.46 181.651 275.486 181.642 275.508 181.625C275.529 181.609 275.545 181.586 275.553 181.56L277.431 175.887L274.647 175.166Z" fill="black"/>
</g>
<g opacity="0.3">
<path d="M277.573 175.924L278.844 181.427C278.85 181.452 278.863 181.476 278.883 181.494C278.902 181.511 278.926 181.523 278.952 181.527C278.978 181.531 279.005 181.527 279.028 181.515C279.052 181.504 279.072 181.486 279.085 181.463L280.016 179.831C280.025 179.815 280.037 179.801 280.052 179.791C280.066 179.78 280.083 179.772 280.101 179.768C280.118 179.764 280.137 179.764 280.155 179.767C280.172 179.771 280.189 179.778 280.204 179.789L281.698 180.849C281.72 180.865 281.746 180.873 281.773 180.873C281.8 180.873 281.826 180.864 281.848 180.849C281.87 180.833 281.887 180.811 281.896 180.786C281.905 180.76 281.906 180.732 281.899 180.706L280.279 174.953L277.573 175.924Z" fill="black"/>
</g>
<path d="M277.308 165.967L278.017 165.401L278.617 166.082L279.443 165.712L279.855 166.522L280.748 166.37L280.945 167.257L281.848 167.332L281.82 168.242L282.675 168.54L282.423 169.414L283.178 169.917L282.718 170.701L283.325 171.375L282.684 172.02L283.105 172.825L282.326 173.289L282.534 174.174L281.665 174.429L281.647 175.338L280.742 175.368L280.499 176.244L279.616 176.047L279.164 176.835L278.357 176.423L277.724 177.073L277.045 176.472L276.271 176.944L275.762 176.193L274.895 176.456L274.588 175.601L273.683 175.639L273.597 174.734L272.711 174.546L272.853 173.647L272.041 173.243L272.4 172.408L271.714 171.814L272.268 171.096L271.751 170.349L272.466 169.79L272.149 168.938L272.98 168.576L272.885 167.671L273.779 167.528L273.909 166.628L274.811 166.713L275.161 165.874L276.013 166.181L276.559 165.456L277.308 165.967Z" fill="#AFABED"/>
<path d="M280.513 174.053C282.053 172.385 281.955 169.777 280.295 168.229C278.634 166.682 276.04 166.78 274.499 168.449C272.959 170.117 273.057 172.725 274.717 174.273C276.378 175.82 278.972 175.722 280.513 174.053Z" fill="white"/>
<path d="M252.581 198.603H248.15V203.056H252.581V198.603Z" fill="#EBEBEB"/>
<path fill-rule="evenodd" clip-rule="evenodd" d="M255.535 197.78L250.725 202.314L248.889 200.582L249.589 199.922L250.725 200.993L254.834 197.119L255.535 197.78Z" fill="#AFABED"/>
<path d="M282.858 200.088H259.227C258.819 200.088 258.489 200.42 258.489 200.83C258.489 201.24 258.819 201.572 259.227 201.572H282.858C283.266 201.572 283.596 201.24 283.596 200.83C283.596 200.42 283.266 200.088 282.858 200.088Z" fill="#C6C6C6"/>
<path d="M252.581 205.283H248.15V209.735H252.581V205.283Z" fill="#EBEBEB"/>
<path fill-rule="evenodd" clip-rule="evenodd" d="M255.535 204.459L250.725 208.993L248.889 207.262L249.589 206.601L250.725 207.672L254.834 203.798L255.535 204.459Z" fill="#AFABED"/>
<path d="M282.858 206.767H259.227C258.819 206.767 258.489 207.099 258.489 207.509C258.489 207.919 258.819 208.251 259.227 208.251H282.858C283.266 208.251 283.596 207.919 283.596 207.509C283.596 207.099 283.266 206.767 282.858 206.767Z" fill="#C6C6C6"/>
<path d="M252.581 212.704H248.15V217.157H252.581V212.704Z" fill="#EBEBEB"/>
<path fill-rule="evenodd" clip-rule="evenodd" d="M255.535 211.88L250.725 216.415L248.889 214.683L249.589 214.022L250.725 215.094L254.834 211.22L255.535 211.88Z" fill="#AFABED"/>
<path d="M282.858 214.188H259.227C258.819 214.188 258.489 214.521 258.489 214.931C258.489 215.34 258.819 215.673 259.227 215.673H282.858C283.266 215.673 283.596 215.34 283.596 214.931C283.596 214.521 283.266 214.188 282.858 214.188Z" fill="#C6C6C6"/>
</g>
<g clip-path="url(#clip3_9833_146618)">
<path d="M209.242 153.006H242.927C246.027 153.006 248.541 155.53 248.541 158.644V196.702C248.541 199.816 246.027 202.34 242.927 202.34H209.242V153.006Z" fill="#455A64"/>
<path d="M209.944 153.711H243.628C246.729 153.711 249.242 156.235 249.242 159.349V197.407C249.242 200.52 246.729 203.045 243.628 203.045H209.944V153.711Z" fill="#455A64" fill-opacity="0.2"/>
<path d="M209.242 153.006V202.34H212.049V153.006H209.242Z" fill="#848484"/>
<path d="M232.399 182.078C231.715 182.258 231.011 182.349 230.303 182.349C229.188 182.351 228.085 182.124 227.06 181.682C226.036 181.24 225.112 180.592 224.345 179.779C222.754 178.106 221.868 175.88 221.875 173.566C221.834 171.28 222.696 169.07 224.273 167.421C225.85 165.772 228.014 164.818 230.29 164.768C231.406 164.768 232.511 164.996 233.536 165.44C234.561 165.883 235.485 166.532 236.252 167.346C237.832 169.024 238.714 171.245 238.716 173.555C238.718 175.864 237.841 178.087 236.263 179.768C235.209 180.877 233.873 181.676 232.399 182.078ZM228.368 165.63C226.655 166.12 225.15 167.163 224.086 168.597C223.023 170.032 222.459 171.779 222.482 173.567C222.472 175.723 223.296 177.799 224.781 179.356C225.491 180.111 226.347 180.712 227.297 181.123C228.247 181.534 229.27 181.745 230.304 181.745C231.338 181.744 232.361 181.531 233.31 181.119C234.26 180.708 235.115 180.105 235.824 179.35C237.305 177.789 238.124 175.711 238.109 173.555C238.122 171.4 237.301 169.323 235.819 167.764C235.106 167.012 234.249 166.413 233.3 166.003C232.35 165.594 231.328 165.382 230.295 165.38C229.644 165.378 228.996 165.462 228.368 165.63Z" fill="#EBEBEB"/>
<path d="M238.401 173.033L222.058 173.045L222.059 173.652L238.402 173.641L238.401 173.033Z" fill="#EBEBEB"/>
<path d="M230.372 165.087L229.766 165.087L229.775 182.044L230.38 182.044L230.372 165.087Z" fill="#EBEBEB"/>
<path d="M230.259 182.227L229.846 181.786C231.433 180.385 232.721 178.674 233.629 176.758C234.49 174.657 234.58 172.318 233.885 170.157C233.173 168.164 231.508 166.625 230.036 165.27L230.45 164.821C231.967 166.227 233.693 167.813 234.459 169.955C235.215 172.257 235.119 174.756 234.189 176.993C233.238 178.983 231.902 180.762 230.259 182.227Z" fill="#EBEBEB"/>
<path d="M229.882 182.278C228.131 180.938 226.716 179.205 225.75 177.218C224.817 174.976 224.718 172.473 225.471 170.164C226.229 168.032 228.149 166.286 229.658 164.861L230.067 165.307C228.577 166.699 226.754 168.379 226.039 170.368C225.35 172.531 225.447 174.869 226.313 176.967C227.242 178.873 228.605 180.532 230.29 181.812L229.882 182.278Z" fill="#EBEBEB"/>
<path d="M234.571 169.466C230.907 170.435 227.031 170.214 223.5 168.834L223.721 168.272C227.904 169.891 232.549 169.821 236.682 168.076L236.915 168.633C236.155 168.968 235.372 169.247 234.571 169.466Z" fill="#EBEBEB"/>
<path d="M236.771 183.255C232.149 181.447 227.356 181.316 223.616 182.915L223.378 182.356C227.266 180.718 232.216 180.821 236.986 182.69L236.771 183.255Z" fill="#EBEBEB"/>
</g>
<path d="M297.552 171.02H217.654C215.688 171.02 214.014 172.448 213.704 174.389L206.983 216.427C206.594 218.857 208.472 221.059 210.933 221.059H290.831C292.797 221.059 294.471 219.631 294.781 217.69L301.502 175.652C301.89 173.221 300.013 171.02 297.552 171.02Z" fill="#C6C6C6"/>
<path d="M303.544 196.345C309.075 192.842 304.3 188.785 304.3 188.785C305.972 185.109 301.305 184.257 301.305 184.257L278.066 184.343C278.066 184.343 276.408 185.732 277.451 187.145C277.451 187.145 275.942 189.007 277.416 190.66C278.891 192.313 292.673 204.156 297.857 204.122C308.275 204.062 303.544 196.345 303.544 196.345Z" fill="#886960"/>
<path d="M302.187 189.309C300.943 189.454 299.714 189.655 298.489 189.924C295.551 190.524 292.541 190.628 289.572 190.227C287.958 189.886 286.375 189.447 284.814 188.909L280.874 187.708C279.771 187.37 278.904 187.102 278.246 186.926C277.929 186.813 277.597 186.74 277.266 186.705C277.558 186.878 277.867 187.02 278.191 187.113C278.795 187.341 279.685 187.655 280.781 188.033L284.632 189.337C286.205 189.912 287.819 190.378 289.452 190.718C292.48 191.134 295.544 190.978 298.512 190.26C299.652 190.016 300.562 189.789 301.186 189.62C301.53 189.567 301.87 189.466 302.187 189.309Z" fill="#6C544D"/>
<path d="M300.134 197.075C300.127 196.979 298.691 197.262 296.376 197.385C295.022 197.46 293.672 197.313 292.364 196.951C290.77 196.483 289.222 195.858 287.76 195.072C286.171 194.276 284.66 193.474 283.22 192.87C281.78 192.266 280.492 191.777 279.453 191.251C278.335 190.702 277.293 189.993 276.366 189.151C276.523 189.458 276.744 189.723 277.01 189.946C277.691 190.593 278.462 191.137 279.292 191.571C280.296 192.138 281.635 192.672 283.034 193.24C284.432 193.808 285.929 194.669 287.537 195.473C289.029 196.267 290.615 196.899 292.248 197.354C293.602 197.694 294.998 197.809 296.388 197.693C297.318 197.618 298.234 197.487 299.146 197.288C299.482 197.265 299.814 197.193 300.134 197.075Z" fill="#6C544D"/>
<path d="M169.107 213.204C169.107 213.204 184.13 215.966 189.304 215.543C194.478 215.119 210.963 201.124 212.319 199.372C213.675 197.62 212.04 195.869 212.04 195.869C212.983 194.386 211.233 193.116 211.233 193.116L188.044 194.646C188.044 194.646 194.671 191.278 196.402 188.717C198.133 186.157 195.44 183.327 195.44 183.327C195.44 183.327 192.122 186.426 190.631 187.774C189.141 189.121 182.937 188.438 179.571 189.795C176.205 191.152 165.779 197.601 165.779 197.601L169.107 213.204Z" fill="#886960"/>
<path d="M188.535 199.989C189.169 200.114 190.093 200.278 191.247 200.441C194.257 200.951 197.335 200.894 200.316 200.268C201.923 199.816 203.5 199.238 205.029 198.555L208.78 196.986C209.848 196.534 210.713 196.158 211.3 195.889C211.617 195.773 211.915 195.609 212.194 195.417C211.867 195.475 211.54 195.571 211.233 195.706C210.588 195.927 209.742 196.254 208.665 196.668L204.818 198.141C203.298 198.786 201.749 199.334 200.163 199.787C197.229 200.393 194.219 200.499 191.247 200.104C190.006 199.922 188.766 199.806 187.515 199.748C187.833 199.873 188.179 199.96 188.535 199.989Z" fill="#6C544D"/>
<path d="M191.103 207.496C192.026 207.631 192.949 207.698 193.882 207.708C195.277 207.727 196.662 207.515 197.989 207.082C199.586 206.514 201.124 205.773 202.557 204.878C204.106 203.964 205.539 203.001 206.895 202.337C208.251 201.673 209.55 201.047 210.511 200.412C211.31 199.921 212.041 199.324 212.675 198.631C212.925 198.391 213.118 198.112 213.262 197.794C212.396 198.699 211.406 199.478 210.329 200.104C209.328 200.701 208.078 201.278 206.683 201.981C205.289 202.684 203.837 203.588 202.307 204.493C200.903 205.379 199.403 206.11 197.845 206.688C196.566 207.14 195.229 207.381 193.873 207.4C191.555 207.438 190.102 207.256 190.102 207.352C190.42 207.448 190.756 207.496 191.103 207.496Z" fill="#6C544D"/>
<path d="M179.889 198.39C179.908 197.726 180.052 197.072 180.331 196.465C180.995 195.051 181.851 194.001 181.803 193.953C181.754 193.905 181.475 194.107 181.1 194.492C180.591 195.002 180.177 195.609 179.869 196.263C179.562 196.937 179.446 197.678 179.533 198.419C179.619 198.987 179.831 199.257 179.889 199.257C179.956 199.228 179.879 198.91 179.889 198.39Z" fill="#6C544D"/>
<path d="M180.792 204.291C180.561 203.454 180.753 202.722 180.705 202.693C180.657 202.664 180.494 202.799 180.369 203.117C180.205 203.531 180.186 203.983 180.311 204.416C180.417 204.849 180.657 205.234 181.004 205.523C181.264 205.725 181.514 205.773 181.514 205.725C181.591 205.6 181.023 205.128 180.792 204.291Z" fill="#6C544D"/>
<path d="M169.482 213.252L170.232 213.416L173.117 213.945C175.666 214.378 179.369 215.023 184.043 215.504C185.217 215.6 186.438 215.735 187.736 215.735C188.044 215.735 188.371 215.735 188.698 215.735C189.035 215.735 189.371 215.706 189.708 215.629C190.391 215.504 191.064 215.292 191.699 215.004C194.401 213.695 196.979 212.135 199.393 210.355C201.971 208.516 204.615 206.466 207.308 204.243C208.645 203.126 210.011 201.971 211.348 200.739C211.646 200.431 211.983 200.142 212.31 199.777C212.666 199.43 212.925 198.987 213.05 198.506C213.146 198.006 213.127 197.496 212.993 197.005C212.858 196.514 212.598 196.071 212.252 195.705V196.004C212.415 195.753 212.521 195.474 212.55 195.176C212.589 194.877 212.55 194.579 212.454 194.3C212.233 193.751 211.858 193.27 211.386 192.914L211.319 192.856H211.223L202.471 193.434L188.044 194.396L188.169 194.858C190.699 193.597 193.074 192.057 195.267 190.277C195.796 189.834 196.267 189.314 196.662 188.737C197.056 188.149 197.258 187.447 197.229 186.735C197.114 185.397 196.556 184.136 195.633 183.164L195.488 183L195.325 183.154L192.593 185.666L191.276 186.879C190.901 187.293 190.458 187.649 189.968 187.918C188.919 188.255 187.833 188.457 186.736 188.506C185.649 188.602 184.591 188.679 183.562 188.785C182.562 188.881 181.571 189.054 180.6 189.285C179.696 189.536 178.821 189.892 178.003 190.344C176.407 191.153 174.983 191.971 173.704 192.712C171.146 194.204 169.165 195.426 167.808 196.263L166.279 197.226L165.895 197.486L165.769 197.582L165.914 197.515L166.318 197.284L167.885 196.369C169.251 195.57 171.261 194.387 173.829 192.924C175.118 192.202 176.551 191.403 178.138 190.614C178.946 190.18 179.802 189.844 180.687 189.603C181.639 189.372 182.601 189.218 183.572 189.141C184.591 189.035 185.649 188.977 186.736 188.881C187.881 188.833 189.016 188.631 190.102 188.275C190.641 187.995 191.122 187.62 191.526 187.177C191.968 186.773 192.411 186.378 192.853 185.965L195.594 183.472H195.296C196.133 184.367 196.652 185.522 196.758 186.744C196.777 187.36 196.604 187.976 196.258 188.486C195.883 189.016 195.44 189.507 194.94 189.92C192.766 191.672 190.42 193.174 187.929 194.425L186.919 194.964L188.054 194.887L202.48 193.925L211.233 193.347L211.079 193.299C211.473 193.588 211.781 193.992 211.963 194.444C212.04 194.656 212.069 194.877 212.05 195.099C212.021 195.32 211.944 195.532 211.819 195.715L211.723 195.869L211.848 196.013C212.137 196.321 212.348 196.706 212.473 197.111C212.589 197.515 212.617 197.948 212.541 198.371C212.348 199.18 211.579 199.748 210.954 200.383C209.636 201.615 208.27 202.76 206.943 203.877C204.269 206.149 201.634 208.16 199.076 209.999C196.7 211.779 194.171 213.339 191.516 214.657C190.901 214.936 190.256 215.138 189.593 215.273C189.275 215.341 188.958 215.369 188.631 215.369C188.304 215.369 187.986 215.369 187.669 215.369C186.39 215.369 185.159 215.264 183.995 215.167C179.331 214.734 175.628 214.147 173.069 213.772L170.184 213.31L169.424 213.204H169.165L169.482 213.252Z" fill="#6C544D"/>
<defs>
<filter id="filter0_i_9833_146618" x="438.703" y="203.692" width="22" height="9.30627" filterUnits="userSpaceOnUse" color-interpolation-filters="sRGB">
<feFlood flood-opacity="0" result="BackgroundImageFix"/>
<feBlend mode="normal" in="SourceGraphic" in2="BackgroundImageFix" result="shape"/>
<feColorMatrix in="SourceAlpha" type="matrix" values="0 0 0 0 0 0 0 0 0 0 0 0 0 0 0 0 0 0 127 0" result="hardAlpha"/>
<feOffset dx="2" dy="2"/>
<feComposite in2="hardAlpha" operator="arithmetic" k2="-1" k3="1"/>
<feColorMatrix type="matrix" values="0 0 0 0 0 0 0 0 0 0 0 0 0 0 0 0 0 0 0.25 0"/>
<feBlend mode="normal" in2="shape" result="effect1_innerShadow_9833_146618"/>
</filter>
<filter id="filter1_i_9833_146618" x="355.929" y="121.694" width="22" height="9.30627" filterUnits="userSpaceOnUse" color-interpolation-filters="sRGB">
<feFlood flood-opacity="0" result="BackgroundImageFix"/>
<feBlend mode="normal" in="SourceGraphic" in2="BackgroundImageFix" result="shape"/>
<feColorMatrix in="SourceAlpha" type="matrix" values="0 0 0 0 0 0 0 0 0 0 0 0 0 0 0 0 0 0 127 0" result="hardAlpha"/>
<feOffset dx="2" dy="2"/>
<feComposite in2="hardAlpha" operator="arithmetic" k2="-1" k3="1"/>
<feColorMatrix type="matrix" values="0 0 0 0 0 0 0 0 0 0 0 0 0 0 0 0 0 0 0.25 0"/>
<feBlend mode="normal" in2="shape" result="effect1_innerShadow_9833_146618"/>
</filter>
<filter id="filter2_i_9833_146618" x="438.703" y="30.6947" width="22" height="9.30627" filterUnits="userSpaceOnUse" color-interpolation-filters="sRGB">
<feFlood flood-opacity="0" result="BackgroundImageFix"/>
<feBlend mode="normal" in="SourceGraphic" in2="BackgroundImageFix" result="shape"/>
<feColorMatrix in="SourceAlpha" type="matrix" values="0 0 0 0 0 0 0 0 0 0 0 0 0 0 0 0 0 0 127 0" result="hardAlpha"/>
<feOffset dx="2" dy="2"/>
<feComposite in2="hardAlpha" operator="arithmetic" k2="-1" k3="1"/>
<feColorMatrix type="matrix" values="0 0 0 0 0 0 0 0 0 0 0 0 0 0 0 0 0 0 0.25 0"/>
<feBlend mode="normal" in2="shape" result="effect1_innerShadow_9833_146618"/>
</filter>
<clipPath id="clip0_9833_146618">
<rect width="44" height="60.0464" fill="white" transform="translate(218.242 145)"/>
</clipPath>
<clipPath id="clip1_9833_146618">
<rect width="36" height="24.0185" fill="white" transform="translate(251.242 148.002)"/>
</clipPath>
<clipPath id="clip2_9833_146618">
<rect width="48" height="66.051" fill="white" transform="translate(242.242 160.012)"/>
</clipPath>
<clipPath id="clip3_9833_146618">
<rect width="40" height="50.0386" fill="white" transform="translate(209.242 153.006)"/>
</clipPath>
</defs>
</svg>
